<svg xmlns="http://www.w3.org/2000/svg" width="31" height="31" viewBox="0 0 31 31"><path d="M28.828,19.277A1.172,1.172,0,0,0,30,18.105V3.516c0-1.238-1.14-2.176-3.387-2.788A25.436,25.436,0,0,0,20.215,0a25.436,25.436,0,0,0-6.4.728c-2.247.612-3.387,1.55-3.387,2.788V8.1a10.957,10.957,0,1,0,4.019,21.33A26.737,26.737,0,0,0,20.215,30a25.436,25.436,0,0,0,6.4-.728C28.86,28.661,30,27.723,30,26.484v-2.93a1.172,1.172,0,0,0-2.344,0v2.758a5.743,5.743,0,0,1-2.221.837,24.834,24.834,0,0,1-5.22.506c-.811,0-1.611-.033-2.375-.095A11.054,11.054,0,0,0,19.9,25.369l.317,0A29.729,29.729,0,0,0,24.3,25.1a1.172,1.172,0,1,0-.324-2.321,26.649,26.649,0,0,1-2.809.231,10.842,10.842,0,0,0,.6-2.189c.881-.042,1.73-.119,2.534-.232a1.172,1.172,0,0,0-.324-2.321c-.661.092-1.357.158-2.08.2a10.925,10.925,0,0,0-.328-2.149c.948-.039,1.863-.119,2.731-.24a1.172,1.172,0,0,0-.324-2.321,27.246,27.246,0,0,1-3.3.242,11.011,11.011,0,0,0-1.657-2.362q.587.021,1.189.022a29.729,29.729,0,0,0,4.088-.268,1.172,1.172,0,1,0-.324-2.321,27.761,27.761,0,0,1-3.764.246,24.834,24.834,0,0,1-5.22-.506c-.117-.026-.228-.053-.335-.08q-.5-.179-1.016-.311a3.142,3.142,0,0,1-.871-.447V5.966a10.776,10.776,0,0,0,1.043.338,25.436,25.436,0,0,0,6.4.728A29.729,29.729,0,0,0,24.3,6.763a1.172,1.172,0,1,0-.324-2.321,27.761,27.761,0,0,1-3.764.246,24.834,24.834,0,0,1-5.22-.506,7.574,7.574,0,0,1-1.962-.666,7.574,7.574,0,0,1,1.962-.666,24.834,24.834,0,0,1,5.22-.506,24.834,24.834,0,0,1,5.22.506,5.746,5.746,0,0,1,2.221.837V18.105A1.172,1.172,0,0,0,28.828,19.277Zm-9.258-.234a8.611,8.611,0,1,1-6.6-8.375q.393.141.846.265l.14.036A8.628,8.628,0,0,1,19.57,19.043Zm-6.328-5.625a1.172,1.172,0,0,1,0,2.344h-3.4v1.348h1.023a4.359,4.359,0,0,1,1.819.5A3.655,3.655,0,0,1,14.589,21a3.773,3.773,0,0,1-3.661,3.766,1.178,1.178,0,0,1-.181.015A3.858,3.858,0,0,1,7.5,22.939a1.172,1.172,0,1,1,2-1.23,1.553,1.553,0,0,0,1.181.729,1.175,1.175,0,0,1,.146-.01A1.427,1.427,0,0,0,12.246,21a1.323,1.323,0,0,0-.625-1.3,2.023,2.023,0,0,0-.811-.249H8.672A1.172,1.172,0,0,1,7.5,18.281V14.59a1.172,1.172,0,0,1,1.172-1.172Zm0,0" transform="translate(0.5 0.5)" fill="#02945d" stroke="rgba(0,0,0,0)" stroke-width="1"/></svg>