<svg xmlns="http://www.w3.org/2000/svg" width="204.686" height="44.5" viewBox="0 0 204.686 44.5">
  <g id="Group_5299" data-name="Group 5299" transform="translate(-430.984 -171.186)">
    <path id="Path_3026" data-name="Path 3026" d="M464.452,235.409v2.273h1.328a1.125,1.125,0,0,0,.883-.337,1.187,1.187,0,0,0,.3-.823,1.111,1.111,0,0,0-.3-.792,1.148,1.148,0,0,0-.883-.321Zm2.919-2.328h-2.919v1.486h1.328a2.341,2.341,0,0,1,1.638.542,1.825,1.825,0,0,1,.6,1.42,1.87,1.87,0,0,1-.6,1.437,2.32,2.32,0,0,1-1.637.551H463.4v-6.28h3.967Z" transform="translate(-12.173 -22.924)" fill="#333"/>
    <path id="Path_3027" data-name="Path 3027" d="M480.568,232.238h1.048v6.28h-1.048v-4.5l-.027-.009-2.786,4.512h-1.042v-6.28h1.042v4.5l.026.009Z" transform="translate(-17.17 -22.924)" fill="#333"/>
    <path id="Path_3028" data-name="Path 3028" d="M492.091,235.3h1.358a1.153,1.153,0,0,0,.876-.309,1.107,1.107,0,0,0,.293-.791,1.056,1.056,0,0,0-1.169-1.115h-1.358Zm0,.842v2.38h-1.048v-6.28h2.406a2.326,2.326,0,0,1,1.628.538,1.993,1.993,0,0,1,0,2.829,2.339,2.339,0,0,1-1.628.533Z" transform="translate(-22.551 -22.924)" fill="#333"/>
    <path id="Path_3029" data-name="Path 3029" d="M507.767,235.78h-.32v2.738H506.4V235.78h-.345l-1.6,2.738h-1.307l2.056-3.343-1.914-2.937h1.263l1.553,2.64h.293v-2.64h1.044v2.64h.271l1.533-2.64h1.263l-1.9,2.937,2.045,3.343h-1.3Z" transform="translate(-27.097 -22.924)" fill="#333"/>
    <path id="Path_3030" data-name="Path 3030" d="M521.762,236.176h1.652l-.807-2.475h-.026Zm1.936.876h-2.226l-.483,1.466h-1.082l2.191-6.28h1l2.164,6.28h-1.082Z" transform="translate(-33.388 -22.924)" fill="#333"/>
    <path id="Path_3031" data-name="Path 3031" d="M545.182,238.518h-1.048V233.08h-2.816v5.438H540.27v-6.28h4.912Z" transform="translate(-41.034 -22.924)" fill="#333"/>
    <path id="Path_3032" data-name="Path 3032" d="M555.693,235.3h1.358a1.153,1.153,0,0,0,.876-.309,1.108,1.108,0,0,0,.293-.791,1.056,1.056,0,0,0-1.169-1.115h-1.358Zm0,.842v2.38h-1.048v-6.28h2.406a2.326,2.326,0,0,1,1.628.538,1.993,1.993,0,0,1,0,2.829,2.339,2.339,0,0,1-1.628.533Z" transform="translate(-46.432 -22.924)" fill="#333"/>
    <path id="Path_3033" data-name="Path 3033" d="M570.647,233.08h-1.04a1.339,1.339,0,0,0-.909.27.943.943,0,0,0-.311.751,1.044,1.044,0,0,0,.315.788,1.253,1.253,0,0,0,.9.3h1.04Zm-2.476,5.437h-1.122l1.415-2.811a1.92,1.92,0,0,1-.837-.648,1.836,1.836,0,0,1,.318-2.338,2.6,2.6,0,0,1,1.663-.483h2.088v6.28h-1.048v-2.509h-1.238Z" transform="translate(-51.089 -22.924)" fill="#333"/>
    <path id="Path_3034" data-name="Path 3034" d="M583.965,237.069h.026l1.815-4.831h1.338v6.28H586.1v-4.512l-.027,0-1.73,4.515h-.72l-1.759-4.6-.026.009v4.593h-1.048v-6.28h1.376Z" transform="translate(-56.248 -22.924)" fill="#333"/>
    <path id="Path_3035" data-name="Path 3035" d="M601.25,234.751a1.953,1.953,0,0,0-.418-1.29,1.4,1.4,0,0,0-1.135-.5,1.313,1.313,0,0,0-1.092.5,2.014,2.014,0,0,0-.4,1.29v1.138a2.029,2.029,0,0,0,.4,1.3,1.316,1.316,0,0,0,1.091.507,1.4,1.4,0,0,0,1.137-.5,1.98,1.98,0,0,0,.417-1.3Zm1.048,1.138a2.655,2.655,0,0,1-.723,1.908,2.486,2.486,0,0,1-1.879.758,2.4,2.4,0,0,1-1.833-.758,2.686,2.686,0,0,1-.706-1.908v-1.13a2.689,2.689,0,0,1,.705-1.906,2.391,2.391,0,0,1,1.834-.759,2.482,2.482,0,0,1,1.877.759,2.652,2.652,0,0,1,.724,1.906Z" transform="translate(-62.395 -22.87)" fill="#333"/>
    <path id="Path_3036" data-name="Path 3036" d="M615.366,229.282l.013.027a1.048,1.048,0,0,1-.358.862,1.708,1.708,0,0,1-2.023,0,1.042,1.042,0,0,1-.354-.862l.013-.027h.777a.6.6,0,0,0,.14.411.672.672,0,0,0,.869,0,.6.6,0,0,0,.142-.411Zm.041,1.846h1.048v6.28h-1.048v-4.5l-.027-.009-2.787,4.512h-1.042v-6.28h1.042v4.5l.027.009Z" transform="translate(-67.799 -21.814)" fill="#333"/>
    <path id="Path_3037" data-name="Path 3037" d="M633.092,235.3h1.358a1.152,1.152,0,0,0,.876-.309,1.107,1.107,0,0,0,.293-.791,1.056,1.056,0,0,0-1.169-1.115h-1.358Zm0,.842v2.38h-1.048v-6.28h2.406a2.329,2.329,0,0,1,1.629.538,1.995,1.995,0,0,1,0,2.829,2.342,2.342,0,0,1-1.629.533Z" transform="translate(-75.494 -22.924)" fill="#333"/>
    <path id="Path_3038" data-name="Path 3038" d="M648.956,235.693H646.5v1.989h2.9v.836H645.45v-6.28h3.916v.842H646.5v1.772h2.458Z" transform="translate(-80.527 -22.924)" fill="#333"/>
    <path id="Path_3039" data-name="Path 3039" d="M659.244,235.8h-.514v2.717h-1.048v-6.28h1.048V234.9h.411l2.039-2.661h1.229l.013.022-2.355,2.95,2.55,3.308h-1.325Z" transform="translate(-85.12 -22.924)" fill="#333"/>
    <path id="Path_3040" data-name="Path 3040" d="M675.714,232.238v6.28h-1.048V233.08h-2.035v2.07a5.06,5.06,0,0,1-.495,2.57,1.718,1.718,0,0,1-1.581.8h-.206v-.836h.172a.836.836,0,0,0,.83-.57,5.712,5.712,0,0,0,.235-1.962v-2.912Z" transform="translate(-89.877 -22.924)" fill="#333"/>
    <path id="Path_3041" data-name="Path 3041" d="M686.591,236.176h1.652l-.807-2.475h-.026Zm1.936.876H686.3l-.483,1.466h-1.082l2.191-6.28h1l2.164,6.28h-1.082Z" transform="translate(-95.279 -22.924)" fill="#333"/>
    <path id="Path_3042" data-name="Path 3042" d="M702.129,237.069h.026l1.815-4.831h1.338v6.28H704.26v-4.512l-.027,0-1.73,4.515h-.72l-1.759-4.6-.026.009v4.593H698.95v-6.28h1.376Z" transform="translate(-100.616 -22.924)" fill="#333"/>
    <path id="Path_3043" data-name="Path 3043" d="M716.667,235.409v2.273h1.328a1.124,1.124,0,0,0,.883-.337,1.187,1.187,0,0,0,.3-.823,1.111,1.111,0,0,0-.3-.792,1.148,1.148,0,0,0-.883-.321Zm5.274,3.109h-1.048v-6.28h1.048Zm-5.274-3.951h1.328a2.341,2.341,0,0,1,1.638.542,1.825,1.825,0,0,1,.6,1.42,1.87,1.87,0,0,1-.6,1.437,2.32,2.32,0,0,1-1.637.551h-2.376v-6.28h1.048Z" transform="translate(-106.874 -22.924)" fill="#333"/>
    <path id="Path_3044" data-name="Path 3044" d="M596,214.166l5.866-12.593,5.866,12.593-5.866-2.057Z" transform="translate(-61.961 -11.41)" fill="#333" fill-rule="evenodd"/>
    <path id="Path_3045" data-name="Path 3045" d="M489.784,183.475a3.5,3.5,0,0,0,1.957,2.722,10.269,10.269,0,0,1,2.622-1.23,8.732,8.732,0,0,1,3.493-.277c2.349.376,3.539,1.64,3.248,4.381a16.124,16.124,0,0,0-4.6-.633c-2.855.032-5.815.851-7.032,3.545a6.168,6.168,0,0,0,.009,4.472c2.13,5.22,12.51,3.664,15.868,1.758.088-1.373.009-3.023.009-4.427,0-2.28.206-6.519-.463-8.39-1.3-3.623-4.811-4.751-8.773-4.476a12.249,12.249,0,0,0-3.579.841,8.182,8.182,0,0,0-2.755,1.713m77.009-.1a3.549,3.549,0,0,0,1.98,2.79c.409-.23.739-.467,1.222-.7,2.072-1.017,5.759-1.459,7.441.424.678.759.686,1.889.684,3.145-.613-.038-1.481-.414-2.208-.485a12.34,12.34,0,0,0-6.86.8,5.4,5.4,0,0,0-2.536,7.129c1.832,4.133,7.9,3.768,11.9,3.029a16.365,16.365,0,0,0,3.938-1.342c.079-1.391.009-2.993.009-4.408v-4.428c0-3.229-.413-4.993-2.22-6.617-2.426-2.181-7.373-2.345-10.582-.982a14.648,14.648,0,0,0-1.5.739A13.624,13.624,0,0,0,566.792,183.379ZM578.116,196.1a12.074,12.074,0,0,1-4.852.491c-1.475-.192-2.788-1.022-2.838-2.569-.055-1.719,1.372-2.413,2.971-2.511a11.561,11.561,0,0,1,4.721.693ZM514.08,185.582v.622l.006,9.327a8.244,8.244,0,0,0,6.52-.03c3.545-2.044,3.475-8.261-.183-10.138A7.59,7.59,0,0,0,514.08,185.582Zm-2.151-14.4a12.568,12.568,0,0,1,2.151.185v10.286c.71-.035,1.641-1.109,5.686-.649a9.55,9.55,0,0,1,4.634,1.962c.345.327.531.471.844.809a8.149,8.149,0,0,1,1.8,3.161c1.074,3.354.38,7.843-2.118,10.242a8.615,8.615,0,0,1-4.209,2.413,14.991,14.991,0,0,1-6.014.21,14.716,14.716,0,0,1-2.679-.622,10.024,10.024,0,0,1-2.253-.975v-.984h0v-25.85A12.591,12.591,0,0,1,511.93,171.186Zm116.441,28.245a12.633,12.633,0,0,1-4.332,0V183.448c1.636-1.636,4.99-2.487,7.212-2.576a16.34,16.34,0,0,1,2.349.1,8.386,8.386,0,0,1,1.995.46c.286.361-.274,2.844-1.1,3.722-.47-.044-.988-.22-1.531-.276-1.268-.131-3.63-.006-4.587.688ZM589.507,171.4a12.477,12.477,0,0,1,2.136.184v10.05h6.749a10.228,10.228,0,0,1,0,3.5h-6.747v6.725h-.011l0,1.248c.02,1.62.691,2.956,2.6,3.091a4.661,4.661,0,0,0,3.438-1.171,4.285,4.285,0,0,1,1.844,2.969,8.217,8.217,0,0,1-5.215,1.963c-1.887.059-4.206-.468-5.446-1.8-1.416-1.526-1.491-3.186-1.491-5.777l0-.521h0V171.582A12.483,12.483,0,0,1,589.507,171.4ZM458.15,184.6c3.348,0,5.185,2.6,5.185,5.813s-1.748,5.814-5.185,5.814-5.185-2.6-5.185-5.814S454.8,184.6,458.15,184.6Zm0-3.762a9.575,9.575,0,1,1-9.569,9.575A9.318,9.318,0,0,1,458.15,180.839Zm25.02-9.543a12.691,12.691,0,0,1,2.183.189v27.945a12.743,12.743,0,0,1-4.372,0V171.486A12.715,12.715,0,0,1,483.17,171.3Zm-9.392,0a12.7,12.7,0,0,1,2.183.189v27.945a12.746,12.746,0,0,1-4.373,0V171.486A12.722,12.722,0,0,1,473.778,171.3Zm136.887,13.3c3.349,0,5.185,2.6,5.185,5.813s-1.748,5.814-5.185,5.814-5.185-2.6-5.185-5.814S607.316,184.6,610.665,184.6Zm0-3.762a9.575,9.575,0,1,1-9.569,9.575A9.319,9.319,0,0,1,610.665,180.839Zm-53.094,18.591a12.629,12.629,0,0,1-4.331,0V183.448c1.635-1.636,4.989-2.487,7.212-2.576a16.343,16.343,0,0,1,2.349.1,8.38,8.38,0,0,1,1.994.46c.287.361-.273,2.844-1.1,3.722-.469-.044-.987-.22-1.531-.276-1.268-.131-3.63-.006-4.587.688ZM440.553,180.839a9.592,9.592,0,0,1,6.165,2.11,14.427,14.427,0,0,1-2.335,3.333,4.827,4.827,0,0,0-3.83-1.681c-3.348,0-5.185,2.6-5.185,5.813s1.747,5.814,5.185,5.814a4.8,4.8,0,0,0,3.953-1.792l0,0A14.457,14.457,0,0,1,447,197.6a9.526,9.526,0,0,1-6.443,2.388,9.575,9.575,0,0,1,0-19.151Zm99.354,0a9.319,9.319,0,0,1,9.569,9.575,9.5,9.5,0,0,1-3.923,7.825L543.81,194.5a6.433,6.433,0,0,0,1.282-4.084c0-3.21-1.837-5.813-5.185-5.813s-5.185,2.6-5.185,5.813A6.43,6.43,0,0,0,536,194.5l-1.743,3.741a9.5,9.5,0,0,1-3.923-7.825A9.318,9.318,0,0,1,539.907,180.839ZM501.1,192.266l.012,3.834c-.836.483-7.593,1.74-7.7-2.047C493.3,190.219,500.315,191.723,501.1,192.266Z" fill="#333" fill-rule="evenodd"/>
  </g>
</svg>
