<?xml version="1.0" encoding="utf-8"?>
<!-- Generator: Adobe Illustrator 23.0.2, SVG Export Plug-In . SVG Version: 6.00 Build 0)  -->
<svg version="1.1" id="Layer_1" xmlns="http://www.w3.org/2000/svg" xmlns:xlink="http://www.w3.org/1999/xlink" x="0px" y="0px"
	 viewBox="0 0 190 34" style="enable-background:new 0 0 190 34;" xml:space="preserve">
<style type="text/css">
	.st0{fill:#FFFFFF;}
</style>
<g id="Слой_x0020_1">
	<g id="_1020769184">
		<path class="st0" d="M68.2,9.6c-1.1-1-2.8-1.4-5-1.4h-5.9v10.9h5.9c2.2,0,3.8-0.5,5-1.4c1.1-1,1.7-2.3,1.7-4
			C69.9,11.9,69.3,10.5,68.2,9.6z M70,33.6l-6-8.7h-0.3h-6.3v8.7h-7.3V2.3h13.6c2.8,0,5.2,0.5,7.2,1.4c2.1,0.9,3.6,2.2,4.7,3.9
			c1.1,1.7,1.7,3.7,1.7,6s-0.6,4.3-1.7,6s-2.7,3-4.8,3.9l7,10.1H70z"/>
		<path class="st0" d="M89.6,15.8c-1.1,0.9-1.7,2.1-2,3.7h11.9c-0.2-1.5-0.9-2.7-2-3.6c-1.1-0.9-2.4-1.4-4-1.4
			C92,14.4,90.6,14.9,89.6,15.8z M105.9,23.5H87.7c0.3,1.5,1.1,2.7,2.3,3.5c1.2,0.9,2.8,1.3,4.6,1.3c1.3,0,2.4-0.2,3.3-0.6
			c1-0.4,1.9-0.9,2.7-1.8l3.7,4c-2.3,2.6-5.6,3.9-9.9,3.9c-2.7,0-5.1-0.5-7.2-1.6c-2.1-1.1-3.7-2.5-4.8-4.4c-1.1-1.9-1.7-4-1.7-6.4
			c0-2.4,0.6-4.5,1.7-6.4c1.1-1.9,2.7-3.4,4.6-4.4s4.1-1.6,6.6-1.6c2.4,0,4.5,0.5,6.4,1.5c1.9,1,3.4,2.5,4.5,4.4
			c1.1,1.9,1.6,4.1,1.6,6.6C106,21.7,106,22.4,105.9,23.5z"/>
		<path class="st0" d="M118.4,10.1h6.2v5.4h-6v18.2h-7V15.4H109l-3.7-5.4h6.3V9c0-2.7,0.8-4.9,2.4-6.5c1.6-1.6,3.9-2.4,6.9-2.4
			c1,0,2,0.1,3,0.3c0.9,0.2,1.7,0.5,2.3,0.9l-1.8,5.1c-0.8-0.6-1.7-0.8-2.8-0.8c-2.1,0-3.2,1.2-3.2,3.5V10.1z"/>
		<path class="st0" d="M134.8,15.8c-1.1,0.9-1.7,2.1-2,3.7h11.9c-0.2-1.5-0.9-2.7-2-3.6c-1.1-0.9-2.4-1.4-3.9-1.4
			C137.2,14.4,135.9,14.9,134.8,15.8z M151.2,23.5h-18.2c0.3,1.5,1.1,2.7,2.3,3.5c1.2,0.9,2.8,1.3,4.6,1.3c1.3,0,2.4-0.2,3.3-0.6
			c1-0.4,1.9-0.9,2.7-1.8l3.7,4c-2.3,2.6-5.6,3.9-9.9,3.9c-2.7,0-5.1-0.5-7.2-1.6c-2.1-1.1-3.7-2.5-4.8-4.4c-1.1-1.9-1.7-4-1.7-6.4
			c0-2.4,0.6-4.5,1.7-6.4c1.1-1.9,2.6-3.4,4.6-4.4s4.1-1.6,6.6-1.6c2.4,0,4.5,0.5,6.4,1.5c1.9,1,3.4,2.5,4.5,4.4
			c1.1,1.9,1.6,4.1,1.6,6.6C151.3,21.7,151.2,22.4,151.2,23.5z"/>
		<path class="st0" d="M166,10.1c1.4-0.6,3.1-0.9,4.9-0.9v6.5c-0.8-0.1-1.3-0.1-1.6-0.1c-2,0-3.6,0.6-4.7,1.7
			c-1.1,1.1-1.7,2.8-1.7,5v11.4h-7V9.5h6.7v3.2C163.4,11.5,164.6,10.7,166,10.1z"/>
		<path class="st0" d="M185.1,10.1c1.4-0.6,3.1-0.9,4.9-0.9v6.5c-0.8-0.1-1.3-0.1-1.6-0.1c-2,0-3.6,0.6-4.7,1.7
			c-1.1,1.1-1.7,2.8-1.7,5v11.4h-7V9.5h6.7v3.2C182.6,11.5,183.7,10.7,185.1,10.1z"/>
		<path class="st0" d="M24.1,16.6h-6l-5.3,3.6l1.8-10.7h10.7L24.1,16.6z M35,2.3H0l4.4,6.2L0.2,33.9h10.4l2.2-13.7l9.8,13.7h11.7
			l-7.2-10h5.1c0.6,0,1.2-0.5,1.3-1.1l1-6.2l2.1-12.5C36.7,3.2,36,2.3,35,2.3z"/>
	</g>
</g>
</svg>
