<svg xmlns="http://www.w3.org/2000/svg" width="31" height="31" viewBox="0 0 31 31"><path d="M29.37,21.726,27.142,19.5a1.172,1.172,0,1,0-1.657,1.657l1.873,1.873-3.153.007a1.172,1.172,0,0,0-1.169,1.169l-.007,3.16-6-5.994A10.789,10.789,0,1,0,5.861,16.495L.629,21.726A2.119,2.119,0,0,0,0,23.247a2.188,2.188,0,0,0,.657,1.543,2.08,2.08,0,0,0,1.5.582l2.463.006.006,2.46a2.112,2.112,0,0,0,.587,1.5A2.185,2.185,0,0,0,6.758,30h.019a2.108,2.108,0,0,0,1.5-.627L15,22.661l6.723,6.711a2.11,2.11,0,0,0,1.5.628h.019a2.185,2.185,0,0,0,1.542-.665,2.113,2.113,0,0,0,.587-1.5l.006-2.46,2.463-.006h.023a2.069,2.069,0,0,0,1.479-.582A2.187,2.187,0,0,0,30,23.247,2.119,2.119,0,0,0,29.37,21.726ZM15,2.344a8.438,8.438,0,1,1-8.438,8.438A8.447,8.447,0,0,1,15,2.344ZM6.971,27.365l-.007-3.16a1.172,1.172,0,0,0-1.169-1.169l-3.154-.007,4.684-4.684a10.769,10.769,0,0,0,5.65,3.026Zm9.669-14.43v-.029a.958.958,0,0,0-.959-.955H14.607a3.308,3.308,0,0,1-3.3-3.27c0-.008,0-.017,0-.025V8.637c0-.008,0-.017,0-.025a3.226,3.226,0,0,1,.973-2.283,3.273,3.273,0,0,1,1.542-.848V4.688a1.172,1.172,0,0,1,2.344,0v.753a2.9,2.9,0,0,1,2.4,2.828,1.172,1.172,0,1,1-2.344,0,.57.57,0,0,0-.607-.534H14.607a.916.916,0,0,0-.952.912.962.962,0,0,0,.952.961h1.074a3.3,3.3,0,0,1,3.3,3.3v.029a3.218,3.218,0,0,1-2.814,3.2v.679a1.172,1.172,0,1,1-2.344,0v-.647A2.862,2.862,0,0,1,11.013,13.3a1.172,1.172,0,0,1,2.344,0,.539.539,0,0,0,.58.527h1.745A.908.908,0,0,0,16.64,12.935Zm0,0" transform="translate(0.501 0.5)" fill="#02945d" stroke="rgba(0,0,0,0)" stroke-width="1"/></svg>