<svg xmlns="http://www.w3.org/2000/svg" width="31.012" height="31" viewBox="0 0 31.012 31"><path d="M6.446,17.082H23.555a4.693,4.693,0,0,0,4.688-4.688V1.672A1.172,1.172,0,0,0,27.071.5H2.931A1.172,1.172,0,0,0,1.759,1.672V12.394A4.693,4.693,0,0,0,6.446,17.082ZM4.1,2.844H25.9v9.551a2.346,2.346,0,0,1-2.344,2.344H6.446A2.346,2.346,0,0,1,4.1,12.394Zm15.879,8.379V6.359a1.172,1.172,0,1,1,2.344,0v4.863a1.172,1.172,0,1,1-2.344,0Zm-4.1,0V8.7a1.172,1.172,0,0,1,2.344,0v2.52a1.172,1.172,0,0,1-2.344,0Zm-4.1,0V7.531a1.172,1.172,0,0,1,2.344,0v3.691a1.172,1.172,0,0,1-2.344,0Zm-4.1,0V6.359a1.172,1.172,0,1,1,2.344,0v4.863a1.172,1.172,0,0,1-2.344,0ZM29.96,28.153a1.172,1.172,0,0,0-2.3,0H21.106a3.4,3.4,0,0,1,3.181-2.226h.061l.031,0A3.517,3.517,0,1,0,21.4,24.374a5.793,5.793,0,0,0-1.741,1.571,5.8,5.8,0,0,0-1.741-1.571,3.516,3.516,0,1,0-5.834,0,5.8,5.8,0,0,0-1.741,1.571A5.8,5.8,0,0,0,8.6,24.374a3.516,3.516,0,1,0-5.834,0A5.745,5.745,0,0,0,.042,28.153a1.947,1.947,0,0,0,1.9,2.347H28.056a1.947,1.947,0,0,0,1.9-2.347ZM14.97,25.93h.061a3.4,3.4,0,0,1,3.181,2.226H11.789A3.4,3.4,0,0,1,14.97,25.93Zm9.347-4.688a1.172,1.172,0,1,1-1.172,1.172A1.173,1.173,0,0,1,24.317,21.242Zm-9.316,0a1.172,1.172,0,1,1-1.172,1.172A1.173,1.173,0,0,1,15,21.242Zm-9.316,0a1.172,1.172,0,1,1-1.172,1.172A1.173,1.173,0,0,1,5.685,21.242ZM2.472,28.156A3.4,3.4,0,0,1,5.654,25.93h.061A3.405,3.405,0,0,1,8.9,28.156Zm0,0" transform="translate(0.505)" fill="#02945d" stroke="rgba(0,0,0,0)" stroke-width="1"/></svg>