<svg xmlns="http://www.w3.org/2000/svg" width="50" height="48.765" viewBox="0 0 50 48.765"><g transform="translate(6.069 24.006)"><path d="M98.449,252.15H63.755a1.611,1.611,0,0,0-1.611,1.611v8.217h3.222v-6.606H96.838v6.606h3.222v-8.217A1.611,1.611,0,0,0,98.449,252.15Z" transform="translate(-62.144 -252.15)" fill="#02945d"/></g><g transform="translate(16.273 0)"><path d="M182.585,6.324H168.245a1.611,1.611,0,0,0-1.611,1.611v16a1.611,1.611,0,0,0,1.611,1.611h14.339a1.611,1.611,0,0,0,1.611-1.611v-16A1.611,1.611,0,0,0,182.585,6.324Zm-1.611,16H169.856V9.546h11.117Z" transform="translate(-166.634 -6.324)" fill="#02945d"/></g><g transform="translate(35.231 32.223)"><path d="M373.923,336.292H362.376a1.611,1.611,0,0,0-1.611,1.611v13.319a1.611,1.611,0,0,0,1.611,1.611h11.547a1.611,1.611,0,0,0,1.611-1.611V337.9A1.611,1.611,0,0,0,373.923,336.292Zm-1.611,13.319h-8.324v-10.1h8.324Z" transform="translate(-360.765 -336.292)" fill="#02945d"/></g><g transform="translate(0 32.223)"><path d="M13.158,336.292H1.611A1.611,1.611,0,0,0,0,337.9v13.319a1.611,1.611,0,0,0,1.611,1.611H13.158a1.611,1.611,0,0,0,1.611-1.611V337.9A1.611,1.611,0,0,0,13.158,336.292Zm-1.611,13.319H3.222v-10.1h8.324v10.1Z" transform="translate(0 -336.292)" fill="#02945d"/></g><g transform="translate(17.616 32.223)"><path d="M193.541,336.292H181.994a1.611,1.611,0,0,0-1.611,1.611v13.319a1.611,1.611,0,0,0,1.611,1.611h11.547a1.611,1.611,0,0,0,1.611-1.611V337.9A1.611,1.611,0,0,0,193.541,336.292Zm-1.611,13.319h-8.324v-10.1h8.324Z" transform="translate(-180.383 -336.292)" fill="#02945d"/></g><g transform="translate(23.416 17.616)"><rect width="3.222" height="16.219" rx="1.611" fill="#02945d"/></g></svg>