<svg xmlns="http://www.w3.org/2000/svg" width="50" height="46.328" viewBox="0 0 50 46.328"><g transform="translate(0 0)"><path d="M48.305,18.8H10.734A1.7,1.7,0,0,0,9.04,20.5v8.475H1.695A1.7,1.7,0,0,0,0,30.666V58.915A6.222,6.222,0,0,0,6.215,65.13H42.655A7.353,7.353,0,0,0,50,57.785V20.5A1.7,1.7,0,0,0,48.305,18.8ZM9.04,58.915a2.825,2.825,0,0,1-5.65,0V32.361h5.65V58.915Zm37.571-1.13a3.96,3.96,0,0,1-3.955,3.955H11.749a6.172,6.172,0,0,0,.68-2.825V22.192H46.61Z" transform="translate(0 -18.802)" fill="#02945d"/></g><g transform="translate(16.215 7.175)"><path d="M190.9,92.276H167.733a1.7,1.7,0,0,0-1.695,1.695v11.3a1.7,1.7,0,0,0,1.695,1.695H190.9a1.7,1.7,0,0,0,1.695-1.695v-11.3A1.7,1.7,0,0,0,190.9,92.276Zm-1.695,11.3H169.428v-7.91H189.2Z" transform="translate(-166.038 -92.276)" fill="#02945d"/></g><g transform="translate(16.497 27.514)"><path d="M181.078,300.547H170.626a1.695,1.695,0,1,0,0,3.39h10.452a1.695,1.695,0,1,0,0-3.39Z" transform="translate(-168.931 -300.547)" fill="#02945d"/></g><g transform="translate(16.497 34.859)"><path d="M192.377,375.756H170.626a1.695,1.695,0,0,0,0,3.39h21.751a1.695,1.695,0,1,0,0-3.39Z" transform="translate(-168.931 -375.756)" fill="#02945d"/></g></svg>