<svg xmlns="http://www.w3.org/2000/svg" width="50" height="50.39" viewBox="0 0 50 50.39"><g transform="translate(0)"><path d="M50.31,0H3.654A1.672,1.672,0,0,0,1.982,1.672v6.8a1.672,1.672,0,0,0,1.672,1.672H50.31a1.672,1.672,0,0,0,1.672-1.672v-6.8A1.672,1.672,0,0,0,50.31,0ZM48.638,6.8H5.327V3.344H48.638V6.8Z" transform="translate(-1.982)" fill="#02945d"/></g><g transform="translate(3.177 8.528)"><path d="M74.623,86.655v26.477H37.61V86.655H34.266V114.8a1.672,1.672,0,0,0,1.672,1.672H76.295a1.672,1.672,0,0,0,1.672-1.672V86.655Z" transform="translate(-34.266 -86.655)" fill="#02945d"/></g><g transform="translate(9.253 14.437)"><path d="M101.686,146.69H97.672a1.672,1.672,0,1,0,0,3.344h4.013a1.672,1.672,0,1,0,0-3.344Z" transform="translate(-96 -146.69)" fill="#02945d"/></g><g transform="translate(9.253 20.68)"><path d="M106.424,210.124H97.672a1.672,1.672,0,1,0,0,3.344h8.751a1.672,1.672,0,1,0,0-3.344Z" transform="translate(-96 -210.124)" fill="#02945d"/></g><g transform="translate(9.253 27.982)"><path d="M106.424,284.319H97.672a1.672,1.672,0,0,0,0,3.344h8.751a1.672,1.672,0,0,0,0-3.344Z" transform="translate(-96 -284.319)" fill="#02945d"/></g><g transform="translate(25.585 23.634)"><path d="M263.619,240.142a1.672,1.672,0,0,0-1.672,1.672v3.512a1.672,1.672,0,0,0,3.344,0v-3.512A1.672,1.672,0,0,0,263.619,240.142Z" transform="translate(-261.947 -240.142)" fill="#02945d"/></g><g transform="translate(31.884 14.214)"><path d="M327.619,144.425a1.672,1.672,0,0,0-1.672,1.672v12.932a1.672,1.672,0,0,0,3.344,0V146.1A1.672,1.672,0,0,0,327.619,144.425Z" transform="translate(-325.947 -144.425)" fill="#02945d"/></g><g transform="translate(38.127 18.952)"><path d="M391.053,192.566a1.672,1.672,0,0,0-1.672,1.672v8.194a1.672,1.672,0,1,0,3.344,0v-8.194A1.672,1.672,0,0,0,391.053,192.566Z" transform="translate(-389.381 -192.566)" fill="#02945d"/></g><g transform="translate(23.356 36.678)"><rect width="3.344" height="6.02" rx="1.672" fill="#02945d"/></g><g transform="translate(20.178 40.691)"><path d="M211.858,413.451a4.85,4.85,0,1,0,4.849,4.85A4.855,4.855,0,0,0,211.858,413.451Zm0,6.355a1.505,1.505,0,1,1,1.505-1.505A1.507,1.507,0,0,1,211.858,419.806Z" transform="translate(-207.009 -413.451)" fill="#02945d"/></g></svg>