<svg xmlns="http://www.w3.org/2000/svg" xmlns:xlink="http://www.w3.org/1999/xlink" width="44.517" height="60" viewBox="0 0 44.517 60"><defs><clipPath id="a"><rect width="44.517" height="60" fill="none"/></clipPath></defs><g clip-path="url(#a)"><g transform="translate(13.12 28.408)"><g transform="translate(0)"><path d="M196.283,247.1l-.519-3.927a.88.88,0,0,0-.987-.756l-3.927.519a.879.879,0,0,0,.23,1.743l1.824-.241-9.741,12.709a3.645,3.645,0,1,0,1.374,1.1L194.3,245.51l.241,1.824a.879.879,0,0,0,.87.764.889.889,0,0,0,.116-.008A.879.879,0,0,0,196.283,247.1Zm-14.633,15.233a1.88,1.88,0,1,1,1.88-1.88A1.882,1.882,0,0,1,181.651,262.337Z" transform="translate(-178.013 -242.412)" fill="#707070"/></g></g><g transform="translate(24.894 43.201)"><path d="M284.732,373.646l-1.751-1.751,1.751-1.751a.879.879,0,1,0-1.243-1.243l-1.751,1.751-1.751-1.751a.879.879,0,1,0-1.243,1.243l1.751,1.751-1.751,1.751a.879.879,0,1,0,1.243,1.243l1.751-1.751,1.751,1.751a.879.879,0,0,0,1.243-1.243Z" transform="translate(-278.485 -368.643)" fill="#707070"/></g><g transform="translate(13.505 28.408)"><path d="M185.8,245.664l1.751-1.751a.879.879,0,0,0-1.243-1.243l-1.751,1.751-1.751-1.751a.879.879,0,0,0-1.243,1.243l1.751,1.751-1.751,1.751a.879.879,0,0,0,1.243,1.243l1.751-1.751,1.751,1.751a.879.879,0,0,0,1.243-1.243Z" transform="translate(-181.304 -242.412)" fill="#707070"/></g><g transform="translate(14.122 19.853)"><g transform="translate(0)"><path d="M201.964,169.408H187.45a.879.879,0,1,0,0,1.758h14.514a.879.879,0,0,0,0-1.758Z" transform="translate(-186.571 -169.408)" fill="#707070"/></g></g><g transform="translate(14.122 23.269)"><g transform="translate(0)"><path d="M201.964,198.559H187.45a.879.879,0,1,0,0,1.758h14.514a.879.879,0,0,0,0-1.758Z" transform="translate(-186.571 -198.559)" fill="#707070"/></g></g><path d="M109.7,34.442a.879.879,0,0,0-.879.879V55.938a2.306,2.306,0,0,1-2.3,2.3H70.121a2.306,2.306,0,0,1-2.3-2.3V10.6a2.306,2.306,0,0,1,2.3-2.3h7.446v.5a2.288,2.288,0,0,0,2.285,2.285h.33v1.566h-7.9a1.491,1.491,0,0,0-1.489,1.489V53.759a1.491,1.491,0,0,0,1.489,1.489h14a.879.879,0,1,0,0-1.758H72.546V14.405h7.636V15.79a1.941,1.941,0,0,0,1.939,1.939H94.515a1.941,1.941,0,0,0,1.939-1.939V14.405h7.636V53.49H90.384a.879.879,0,1,0,0,1.758h13.976a1.491,1.491,0,0,0,1.489-1.489V14.136a1.491,1.491,0,0,0-1.489-1.489h-7.9V11.082h.33A2.288,2.288,0,0,0,99.07,8.8V8.3h7.446a2.306,2.306,0,0,1,2.3,2.3V31.22a.879.879,0,0,0,1.758,0V10.6a4.066,4.066,0,0,0-4.062-4.062H99.07V6.008a2.288,2.288,0,0,0-2.285-2.285H92V2.293A2.3,2.3,0,0,0,89.7,0H86.933a2.3,2.3,0,0,0-2.293,2.293V3.722H79.853a2.288,2.288,0,0,0-2.285,2.285V6.54H70.122A4.066,4.066,0,0,0,66.06,10.6V55.938A4.066,4.066,0,0,0,70.122,60h36.394a4.066,4.066,0,0,0,4.062-4.062V35.321A.879.879,0,0,0,109.7,34.442ZM94.7,15.79a.182.182,0,0,1-.181.181H82.122a.182.182,0,0,1-.181-.181V14.405H94.7V15.79Zm0-3.142H81.94V11.082H94.7v1.566ZM86.4,2.293h0a.543.543,0,0,1,.536-.536H89.7a.543.543,0,0,1,.536.536V3.722H86.4ZM79.325,6.008a.534.534,0,0,1,.527-.527H96.785a.534.534,0,0,1,.527.527v2.78a.543.543,0,0,1-.536.536H79.86a.543.543,0,0,1-.536-.536C79.325,7.8,79.325,7.047,79.325,6.008Z" transform="translate(-66.06)" fill="#707070"/></g></svg>