<svg xmlns="http://www.w3.org/2000/svg" xmlns:xlink="http://www.w3.org/1999/xlink" width="53.634" height="60" viewBox="0 0 53.634 60"><defs><clipPath id="a"><rect width="53.634" height="60" fill="none"/></clipPath></defs><g clip-path="url(#a)"><g transform="translate(14.856 39.006)"><path d="M156.6,332.85h-1.788a.879.879,0,0,0,0,1.758H156.6a.879.879,0,0,0,0-1.758Z" transform="translate(-153.929 -332.85)" fill="#707070"/></g><g transform="translate(21.466 39.006)"><path d="M213,332.85h-1.788a.879.879,0,0,0,0,1.758H213a.879.879,0,0,0,0-1.758Z" transform="translate(-210.335 -332.85)" fill="#707070"/></g><g transform="translate(28.076 39.006)"><path d="M269.406,332.85h-1.788a.879.879,0,0,0,0,1.758h1.788a.879.879,0,0,0,0-1.758Z" transform="translate(-266.739 -332.85)" fill="#707070"/></g><g transform="translate(34.686 39.006)"><path d="M325.812,332.85h-1.788a.879.879,0,0,0,0,1.758h1.788a.879.879,0,0,0,0-1.758Z" transform="translate(-323.145 -332.85)" fill="#707070"/></g><path d="M79.916,28.372a.879.879,0,0,0-.879.879V45.435a2.815,2.815,0,0,1-2.812,2.812H31.731a2.815,2.815,0,0,1-2.812-2.812V8.966a2.815,2.815,0,0,1,2.812-2.812h27.7v1.4h-5.3A1.314,1.314,0,0,0,52.88,8.5H32.471a1.2,1.2,0,0,0-.761.271l-.007.005c-.019.015-.036.032-.053.048l-.033.03c-.01.01-.02.022-.03.033s-.033.035-.048.053l-.005.007a1.2,1.2,0,0,0-.271.761h0V44.695A1.21,1.21,0,0,0,32.471,45.9H75.485a1.21,1.21,0,0,0,1.209-1.209V9.706h0a1.211,1.211,0,0,0-1.085-1.2,1.227,1.227,0,0,0-.123-.006H67.8V6.154h8.422a2.815,2.815,0,0,1,2.812,2.812V25.149a.879.879,0,0,0,1.758,0V8.966a4.575,4.575,0,0,0-4.57-4.57H67.8V1.313A1.314,1.314,0,0,0,66.491,0H60.748a1.314,1.314,0,0,0-1.312,1.313V4.4h-27.7a4.575,4.575,0,0,0-4.57,4.57V45.435A4.575,4.575,0,0,0,31.731,50H46.967v4.06h-2.8A2.339,2.339,0,0,0,41.827,56.4v1.262A2.339,2.339,0,0,0,44.163,60h7.49a.879.879,0,0,0,0-1.758h-7.49a.579.579,0,0,1-.579-.579V56.4a.579.579,0,0,1,.579-.579H63.793a.579.579,0,0,1,.579.579v1.262a.579.579,0,0,1-.579.579H55.756a.879.879,0,0,0,0,1.758h8.037a2.339,2.339,0,0,0,2.337-2.337V56.4a2.339,2.339,0,0,0-2.337-2.337h-2.8V50H76.225a4.575,4.575,0,0,0,4.57-4.57V29.251A.879.879,0,0,0,79.916,28.372Zm-25.333-19V9.312h4.852V35.505H54.583Zm-14.342.879H52.825v3.952h-5.3a1.31,1.31,0,0,0-1,.465H40.241Zm12.584,5.71v19.54H47.973V15.965h4.852ZM33.02,10.255h5.464v4.417H33.02Zm34.784,0h7.133v4.417H67.8Zm-6.61-8.5h4.852V35.505H61.194Zm8.867,35.5a.879.879,0,0,0,0-1.758H67.8V16.43h7.133V44.145H33.02V16.43h13.2v4.093h-5.3a1.314,1.314,0,0,0-1.313,1.313v.072h0v13.6H37.348a.879.879,0,0,0,0,1.758ZM46.216,22.28V35.505H41.364V22.28ZM59.232,54.065H48.724V50H59.232Z" transform="translate(-27.161)" fill="#707070"/></g></svg>