<svg xmlns="http://www.w3.org/2000/svg" xmlns:xlink="http://www.w3.org/1999/xlink" width="51.913" height="60" viewBox="0 0 51.913 60"><defs><clipPath id="a"><rect width="51.913" height="60" fill="none"/></clipPath></defs><g clip-path="url(#a)"><g transform="translate(22.089 13.646)"><g transform="translate(0)"><path d="M226.939,116.447a3.94,3.94,0,1,0,3.94,3.94A3.944,3.944,0,0,0,226.939,116.447Zm0,6.121a2.182,2.182,0,1,1,2.182-2.182A2.184,2.184,0,0,1,226.939,122.568Z" transform="translate(-222.999 -116.447)" fill="#008e59"/></g></g><g transform="translate(20.88 39.047)"><g transform="translate(0)"><path d="M213.557,333.2a.879.879,0,0,0-.879.879v4.389a.879.879,0,1,0,1.758,0V334.08A.879.879,0,0,0,213.557,333.2Z" transform="translate(-212.678 -333.201)" fill="#008e59"/></g></g><g transform="translate(25.15 39.047)"><path d="M250,333.2a.879.879,0,0,0-.879.879v4.389a.879.879,0,1,0,1.758,0V334.08A.879.879,0,0,0,250,333.2Z" transform="translate(-249.117 -333.201)" fill="#008e59"/></g><g transform="translate(29.42 39.047)"><g transform="translate(0)"><path d="M286.433,333.2a.879.879,0,0,0-.879.879v4.389a.879.879,0,0,0,1.758,0V334.08A.879.879,0,0,0,286.433,333.2Z" transform="translate(-285.554 -333.201)" fill="#008e59"/></g></g><g transform="translate(0 0)"><path d="M84.13,51.544H82.372a2.393,2.393,0,0,0,.091-.648V37.2a.879.879,0,0,0-1.758,0V50.9a.648.648,0,0,1-.648.648H40.86a.648.648,0,0,1-.648-.648V18.437a.648.648,0,0,1,.648-.648H53.547v2.783H44.2c-.043,0-.086,0-.128.006a1.259,1.259,0,0,0-1.129,1.25v25.78A1.259,1.259,0,0,0,44.2,48.866H76.721a1.259,1.259,0,0,0,1.257-1.257V21.829a1.256,1.256,0,0,0-1.257-1.257H67.515V17.789H80.058a.648.648,0,0,1,.648.648V33.1a.879.879,0,1,0,1.758,0V18.437a2.408,2.408,0,0,0-2.406-2.406H67.515V11.474a.9.9,0,0,0-.108-.422L61.749.72a1.39,1.39,0,0,0-2.437,0L53.655,11.051a.9.9,0,0,0-.108.422v4.557H40.86a2.408,2.408,0,0,0-2.406,2.406V50.9a2.4,2.4,0,0,0,.091.648H36.787A2.288,2.288,0,0,0,34.5,53.83v3.884A2.288,2.288,0,0,0,36.787,60h21.62a.879.879,0,0,0,0-1.758H36.787a.534.534,0,0,1-.527-.527V53.83a.534.534,0,0,1,.527-.527H51.252v.943a2.409,2.409,0,0,0,2.406,2.406h13.6a2.409,2.409,0,0,0,2.406-2.406V53.3H84.13a.534.534,0,0,1,.527.527v3.884a.534.534,0,0,1-.527.527H62.51a.879.879,0,1,0,0,1.758H84.13a2.288,2.288,0,0,0,2.285-2.285V53.83A2.288,2.288,0,0,0,84.13,51.544ZM49.833,22.33h2.711a26.57,26.57,0,0,0-2.406,3.107h-.305Zm-5.136,0h3.378v3.107H44.7Zm31.523,0v3.107h-5.3a26.605,26.605,0,0,0-2.406-3.107h7.7Zm-8.705,1.537.57.675a17.36,17.36,0,0,1,4.079,10.566l-4.649-3.9ZM60.531,2.155l4.622,8.439H55.91ZM55.3,12.353H65.757v19.3H61.41v-8.04a.879.879,0,1,0-1.758,0v8.04H55.3C55.3,30.558,55.3,12.75,55.3,12.353Zm9.17,21.057v1.972a.061.061,0,0,1-.058.058H61.41v-2.03Zm-7.889,1.972V33.41h3.065v2.03H56.645A.061.061,0,0,1,56.587,35.382Zm-2.534-2.306a1.426,1.426,0,0,0,.776.327v1.979A1.818,1.818,0,0,0,56.645,37.2h3.008a.878.878,0,0,0,1.756,0h3.008a1.818,1.818,0,0,0,1.816-1.816V33.4a1.484,1.484,0,0,0,.76-.335l4.514,3.789a1.476,1.476,0,0,0,2.425-1.131,19.1,19.1,0,0,0-2.012-8.526h4.3V47.108H44.7V27.195h4.445a19.1,19.1,0,0,0-2.013,8.526,1.475,1.475,0,0,0,2.425,1.131Zm-.505-1.871-4.649,3.9a17.355,17.355,0,0,1,3.256-9.51c.478-.664.812-1.042,1.393-1.73Zm14.361,23.04h0a.649.649,0,0,1-.648.648h-13.6a.648.648,0,0,1-.648-.648V53.3h14.9v.943Z" transform="translate(-34.502 0.001)" fill="#008e59"/></g></g></svg>