<svg xmlns="http://www.w3.org/2000/svg" xmlns:xlink="http://www.w3.org/1999/xlink" width="260" height="192" viewBox="0 0 260 192"><defs><clipPath id="a"><rect width="260" height="192" transform="translate(164 1499)" fill="#fff" stroke="#707070" stroke-width="1"/></clipPath></defs><g transform="translate(-164 -1499)" clip-path="url(#a)"><g transform="translate(-759.393 1432.53)"><g transform="translate(943.475 77.793)"><path d="M1049.1,96.082s-4.653-20.241-24.51-18.135S997.771,99,998.58,108.712s14.25,9.668,14.25,9.668Z" transform="translate(-918.66 -77.793)" fill="#ffae3d"/><path d="M1012.356,80.922s-2.629,15.153,2.365,23.884-11.99,9.1-11.99,9.1l-5.119-7.006S999.331,87.171,1012.356,80.922Z" transform="translate(-919.068 -76.383)" fill="#e65f37"/><path d="M1043.564,88.486s-25.046-4.113-38.378,14.085S1043.564,88.486,1043.564,88.486Z" transform="translate(-916.644 -73.152)" fill="#e65f37"/><path d="M1011.425,261.2c.023.144-.445,7.974-1.863,7.894s-2.429-6.761-2.429-6.761l-1.821.486s.889,6.72-.244,7.164-3.926-6.881-3.926-6.881l-1.5.041s2.429,6.72.445,7.044-4.29-6.922-4.29-6.922l-2.146.324s1.943,6.336,0,6.609-4.818-7.176-4.454-7.985S1011.061,258.933,1011.425,261.2Z" transform="translate(-922.875 4.472)" fill="#302a27"/><path d="M1052.051,261.446s.537,5.844,1.694,6.237,2.278-5.206,2.278-5.206,1.019,5.758,2.365,5.538,1.989-5.6,1.989-5.6l2.439.191s-.837,5.438.184,5.9,3.475-6.2,3.475-6.2l.832.171s-1.434,4.572.113,4.889,3.645-5.977,3.438-6.33S1051.941,260.458,1052.051,261.446Z" transform="translate(-894.525 4.683)" fill="#302a27"/><path d="M976.016,142.915s3.887,33.024,23.965,38.473,105.253-2.706,105.253-2.706,19.755-19.7,16.516-37.832S976.016,142.915,976.016,142.915Z" transform="translate(-928.805 -52.772)" fill="#7d3f2c"/><path d="M975.291,141.5s3.182,12.064,8.93,12.144a13.594,13.594,0,0,0,9.311-3.562s-.567,3.727,3.562,3.563,11.09-4.013,10.524-9.9S973.728,138.418,975.291,141.5Z" transform="translate(-929.156 -50.097)" fill="#693324"/><path d="M1056.616,156.008s11.083,2.819,15.787,1.133a3.448,3.448,0,0,0,2.073-5.262s9.909-1.863,8.615-10.2-31.495-2.671-32.062,1.458S1056.616,156.008,1056.616,156.008Z" transform="translate(-895.003 -50.927)" fill="#693324"/><path d="M1056.36,141.938s.425,4.615,1.822,6.376,18.095,1.214,19.978-1.4.364-7.955.364-7.955Z" transform="translate(-892.583 -50.216)" fill="#a89890"/><path d="M1057.911,109.3s-.183-7.286,1.639-8.319,16.152-.971,17.914,1.761.769,8.926.769,8.926Z" transform="translate(-891.886 -67.616)" fill="#a89890"/><path d="M966.3,108.943s-.12-6.8.486-8.38,15.971-4.129,22.649-1.033c1.4,1.451,1.64,8.744,1.519,9.413S966.3,108.943,966.3,108.943Z" transform="translate(-933.192 -68.652)" fill="#a89890"/><path d="M967.088,139.925s0,7.772,1.639,9.473,18.034,3.765,20.341.85,1.7-8.986,1.7-8.986Z" transform="translate(-932.83 -49.782)" fill="#a89890"/><path d="M963.646,156.71s161.278,10.931,181.194-4.128,6.559-36.7,0-41.791-130.674-9.593-179.009-4.547c-18.459,2.565-22.588,19.575-22.346,29.556S951.987,157.44,963.646,156.71Z" transform="translate(-943.475 -65.961)" fill="#332f2c"/><path d="M999.914,104.254s-15.72.926-15.235,6.968,7.166,6.044,6.316,8.351-5.365-.364-6.326,3.523,11.791,5.586,12.033,10.079-22.832.244-20.523,7.408,18.823,6.68,17.731,9.108-7.3,2.968-5.1,6.072,11.779,3.478,18.459,3.743,82.1-.058,82.1-.058,21.374.445,21.86-4.656-7.164-4.129-7.53-6.8,12.267-1.579,11.417-8.5-14.574-5.829-14.088-8.622,9.959-3.037,9.473-7.288-11.415-3.006-12.63-5.388,8.5-1.29,9.715-4.448-2.408-6.239-6.265-6.984l-17.214-1.111Z" transform="translate(-928.805 -65.864)" fill="#292523"/><path d="M1002.3,108.158s-21.7,8.4-16.679,19.9c1.883,4.312,9.06,9.943,14.492,10.346,9.053.672,17.246-6.136,17.246-6.136Z" transform="translate(-924.812 -64.104)" fill="#c23f30"/><path d="M1002.671,109.32s-16.927,8.611-16.257,15.013,9.252,15.544,18.24,12.873S1002.671,109.32,1002.671,109.32Z" transform="translate(-924.125 -63.58)" fill="#963026"/><path d="M1006.124,169.96s.789-6.253,2.551-7.408c-1.578-2.61-5.465-21.191-2.551-36.615-2.551-1.336-10.931-10.687-5.587-20.159s18.339,0,18.339,0,7.291-10.748,21.042-12.934c0-3.946,4.422-9.938,6.81-9.979s1.538,4.129,1.538,4.129,4.493-4.656,6.72-3.36,0,5.3,0,5.3,2.266-3.563,4.857-2.146-.81,6.6-.81,6.6,6.477.85,9.676,3.562c0,0,6.113-9.23,13.156-4.776s11.173,15.644,4.21,22.841c0,0,10.848,17.461,9.715,30.748a57.537,57.537,0,0,1-7.449,23.327l15.707,31.694s13.6,52.2,14.25,82.554-5.182,55.126-9.554,57.878-22.832,4.048-26.394,0-3.4-16.516-3.4-16.516-47.283-.162-54.731-4.7c-2.105,11.821-4.7,22.8-8.1,23.786s-22.994,1.474-28.013-2.574-23.641-68.546,9.068-138.068C991.673,192.57,1006.124,169.96,1006.124,169.96Z" transform="translate(-927.782 -75.507)" fill="#964c36"/><path d="M1058.5,144.38c-15.949-.193-32.3,7.492-43.233,41.7,0,0-27.609,77.933,8.339,91.339,31.4,11.71,69.222,8.585,82.605-14.019q.056-3.819-.023-7.784c-.649-30.352-14.25-82.554-14.25-82.554l-.5-1.016C1089.187,167.739,1078.818,144.624,1058.5,144.38Z" transform="translate(-915.674 -47.775)" fill="#c47347"/><path d="M1007.922,231.478c18.945-34.248,76.51-25.5,91.932-34.881a23.276,23.276,0,0,0,3.41-2.567l-14.945-30.157a42.443,42.443,0,0,0,2.139-4.055,4.231,4.231,0,0,0-1.087-2.342c-1.78-1.861-3.4.649-3.4.649s1.133-2.915,0-5.262-6.883,1.375-6.883,1.375,1.133-4.048-.647-5.149-5.425,3.288-5.425,3.288a3.618,3.618,0,0,0-1.7-3.288c-1.943-1.264-9.554,12.032-20.889,11.343s-28.66-10.97-30.118-32.232a91.093,91.093,0,0,1,4.374-33.658,31.854,31.854,0,0,0-5.831,6.018s-13-9.473-18.339,0,3.037,18.825,5.587,20.159c-2.915,15.424.971,34,2.549,36.616-1.76,1.153-2.549,7.408-2.549,7.408s-14.452,22.608-8.947,33.189C964.445,267.454,983.067,331.951,988.087,336c2.318,1.87,7.747,2.765,13.252,3.1-3.187-3.373-5.953-8.524-5.56-16.168.881-17.184,19.916-21.5,28.417-8.141,7.449,4.534,54.731,4.695,54.731,4.695C1018.044,317.864,988.977,265.725,1007.922,231.478Z" transform="translate(-927.793 -70.242)" fill="#7d3f2c"/><g transform="translate(110.017 44.239)"><path d="M1019.309,110.234s.08,6.526,2.575,6.037,1.687-5.194.718-6.9A1.757,1.757,0,0,0,1019.309,110.234Z" transform="translate(-1019.305 -108.207)"/><path d="M1023.007,109.405a1.121,1.121,0,1,1-1.12-1.12A1.12,1.12,0,0,1,1023.007,109.405Z" transform="translate(-1018.647 -108.285)" fill="#fff"/></g><g transform="translate(141.852 37.269)"><path d="M1041.251,105.43s.081,6.527,2.575,6.037,1.687-5.193.72-6.9A1.758,1.758,0,0,0,1041.251,105.43Z" transform="translate(-1041.248 -103.403)"/><path d="M1044.948,104.6a1.12,1.12,0,1,1-1.12-1.121A1.121,1.121,0,0,1,1044.948,104.6Z" transform="translate(-1040.589 -103.481)" fill="#fff"/></g><path d="M1039.9,122.154s-11.887-3.375-9.613-8.206,13.712-7.021,15.634-3.713S1042.182,122.927,1039.9,122.154Z" transform="translate(-904.466 -63.88)" fill="#332828"/><path d="M1033.6,126.306a9.143,9.143,0,0,0,2.469,1.074c.937.138,1.851-.091,1.509.572s-1.9,1.372-3.978.412S1032.741,125.832,1033.6,126.306Z" transform="translate(-903.36 -55.961)" fill="#7d1f1f"/><path d="M1006.394,103.2s-4.939,9.233-6.558,8.786-5.1-6.073-3-10.082S1007.356,101.477,1006.394,103.2Z" transform="translate(-919.713 -67.747)" fill="#b56a41"/><path d="M1043.485,96.161s7.454,9.391,9.194,9.269,3.6-6.355.244-10.565S1043.115,95.433,1043.485,96.161Z" transform="translate(-898.394 -70.869)" fill="#c47347"/><path d="M978.447,114.845a1.523,1.523,0,1,1-1.522-1.523A1.523,1.523,0,0,1,978.447,114.845Z" transform="translate(-929.081 -61.775)" fill="#a89890"/><path d="M978.447,130.525A1.523,1.523,0,1,1,976.925,129,1.523,1.523,0,0,1,978.447,130.525Z" transform="translate(-929.081 -54.706)" fill="#a89890"/><path d="M1068.4,117.132a1.522,1.522,0,1,1-1.522-1.522A1.522,1.522,0,0,1,1068.4,117.132Z" transform="translate(-888.525 -60.744)" fill="#a89890"/><path d="M1068.124,131.53a1.522,1.522,0,1,1-1.522-1.522A1.522,1.522,0,0,1,1068.124,131.53Z" transform="translate(-888.651 -54.253)" fill="#a89890"/><path d="M1088.573,169.391l-1.4-2.816c-4.1-7.756-12.419-22.783-27.868-15.451-15.769,7.483-35.682-1.423-46.612,32.782,0,0-.753,2.13-1.846,5.729,24.984-14.027,62.341-10.4,74.313-17.677A23.19,23.19,0,0,0,1088.573,169.391Z" transform="translate(-913.099 -45.617)" fill="#b0673f"/><path d="M1005.627,140.169s25.908,18.352,60.722,6.667C1053.091,162.191,1019.715,161.544,1005.627,140.169Z" transform="translate(-915.455 -49.672)" fill="#693324"/><path d="M1043.97,150.169s-7.758-6.006-10.315-4.334-.235,5.345-.235,5.345-.9,3.283-.311,4.958,1.638,1.735,1.638,1.735-1.2,4.113,1.409,4.238,8.251-6.337,8.251-6.337,1.31,1.711,3.05,1.265a2.47,2.47,0,0,0,1.9-2.054s6.613,3.512,7.639,2.079-.888-2.648-.888-2.648,1.322-1.774.841-3.277a2.982,2.982,0,0,0-1.658-1.917s.717-4.882-1.259-6.639-5.924,7.167-5.924,7.167A3.144,3.144,0,0,0,1043.97,150.169Z" transform="translate(-903.36 -48.687)" fill="#ffae3d"/></g><path d="M980.419,103.443l-.091-.02a1.633,1.633,0,0,0-.424-1.637,3.215,3.215,0,0,0,1.2-.585,1.082,1.082,0,0,0,0-1.523c-1.786-1.6-4.621.213-6.729.067-1.56-.109-1.861,2.218-.486,2.717a.983.983,0,0,0-.376,1.008,2.725,2.725,0,0,0-1.609.676.944.944,0,0,0,0,1.33c.943.762,2.25.724,3.415.853a41.875,41.875,0,0,0,4.67.284C981.754,106.613,982.256,103.784,980.419,103.443Z" transform="translate(12.693 9.568)" fill="#bdaba2"/><path d="M982.272,146.342c-1.165-.609-2.407-.428-3.674-.519l-.038,0a1.924,1.924,0,0,0-.128-.165c.3-.073.612-.141.914-.229,1.391-.412,1.58-2.706,0-3.012a14.051,14.051,0,0,0-4.538-.357,1,1,0,0,0-.7.138c-.058.017-.122.016-.178.035l.032.042a1.251,1.251,0,0,0-.914,1.423c-1.133.395-1.661,2.269-.351,2.852.038.016.074.033.112.051a1.866,1.866,0,0,0,1.637,2.2c2.269.258,6.958,2.107,8.261-.808A1.224,1.224,0,0,0,982.272,146.342Z" transform="translate(12.826 28.938)" fill="#bdaba2"/><path d="M1069.313,104.951a1.392,1.392,0,0,0,.329-2.517c-2.009-1.042-4.08-.268-6.176-.622-.689-.116-1.637.473-1.3,1.3a1.994,1.994,0,0,0,.295.445,1.4,1.4,0,0,0,.228,1.78,7.345,7.345,0,0,0,.663.479,1.439,1.439,0,0,0,1.162,1.577c1.542.369,3.586.625,4.75-.67a1.065,1.065,0,0,0,0-1.47c-.017-.019-.038-.029-.055-.048a1.4,1.4,0,0,0-.077-.221C1069.193,104.97,1069.254,104.967,1069.313,104.951Z" transform="translate(53.479 10.822)" fill="#bdaba2"/><path d="M1070.7,143.536a2.039,2.039,0,0,0-1.364-.556,1.3,1.3,0,0,0-1.316-.963,26.705,26.705,0,0,0-5.071.929.93.93,0,0,0-.743.926,1.517,1.517,0,0,0,1.214,2.314c2.014.09,6.79,1.149,7.611-1.394A1.279,1.279,0,0,0,1070.7,143.536Z" transform="translate(53.434 28.953)" fill="#bdaba2"/><path d="M1080.132,112.114c-1.425-.538-3.328-1.145-4.783-.472a1.134,1.134,0,0,0,.268,2.053,17.524,17.524,0,0,1,4.952,1.413c.869.428,3.077,1.8,3.3-.09C1084.059,113.415,1081.272,112.543,1080.132,112.114Z" transform="translate(59.209 15.126)" fill="#4a4440"/><path d="M1085.545,124.3a10.531,10.531,0,0,0-1.818-4.888c-.607-.821-2-.029-1.389.812a10.108,10.108,0,0,1,1.684,5.207c.129,1.439-.2,3.176.316,4.521a.667.667,0,0,0,1.274,0C1086.222,128.351,1085.784,125.963,1085.545,124.3Z" transform="translate(62.536 18.607)" fill="#4a4440"/><path d="M1079.275,132.869a13.77,13.77,0,0,0-4.963,2.8c-1.061.934.486,2.456,1.546,1.547,1.317-1.132,2.928-1.879,4.081-3.2C1080.36,133.526,1079.968,132.651,1079.275,132.869Z" transform="translate(58.826 24.815)" fill="#4a4440"/><path d="M1078.279,121.448c-1.158-.936-2.81.721-1.643,1.642a21.9,21.9,0,0,1,1.909,1.976.874.874,0,0,0,1.477-.611A3.928,3.928,0,0,0,1078.279,121.448Z" transform="translate(59.854 19.556)" fill="#4a4440"/><path d="M954.406,132.466c-1.264-1.46-2.623-2.6-3.259-4.5a18.784,18.784,0,0,1-.8-5.291c0-.184-.27-.337-.4-.167-1.544,1.976-1.491,4.189-.66,6.506.743,2.073,2.256,4.463,4.712,4.44A.584.584,0,0,0,954.406,132.466Z" transform="translate(2.36 20.125)" fill="#4a4440"/><path d="M957.7,114.268a9.225,9.225,0,0,0-2.723,3.94,7.96,7.96,0,0,0-.811,4.531c.136.979,1.557.644,1.625-.221a8.885,8.885,0,0,1,1.549-4.273,7.549,7.549,0,0,0,1.616-3.257A.84.84,0,0,0,957.7,114.268Z" transform="translate(4.792 16.392)" fill="#4a4440"/><path d="M969.04,109.1c-1.027-.325-2.7.216-3.721.464a4.983,4.983,0,0,0-3.082,1.7c-.519.728.518,1.771,1.246,1.246a7.9,7.9,0,0,1,3.135-1.169c.95-.2,2.234-.379,2.844-1.2A.712.712,0,0,0,969.04,109.1Z" transform="translate(8.395 14.069)" fill="#4a4440"/><path d="M968.06,133.843c-.524-.547-1.251-.4-1.943-.47a19.465,19.465,0,0,1-2.52-.416c-1.506-.353-3.668-.869-4-2.619-.215-1.133-1.76-.728-1.864.252-.242,2.268,2.407,3.557,4.178,4.17,1.463.5,5.156,1.7,6.288.168A.9.9,0,0,0,968.06,133.843Z" transform="translate(6.421 23.38)" fill="#4a4440"/><path d="M967.075,124.119a12.231,12.231,0,0,0-1.722-.35,4.164,4.164,0,0,1-.767-.12.756.756,0,0,1-.26-.1h0c-.138-1.346-2.253-1.348-2.175.044a2.378,2.378,0,0,0,2.052,2.223,5.25,5.25,0,0,0,1.7.093,3.582,3.582,0,0,0,1.342-.485C967.821,125.176,967.632,124.256,967.075,124.119Z" transform="translate(8.418 20.176)" fill="#4a4440"/><path d="M1052.187,115.091a.641.641,0,0,0-1.254-.17,9.046,9.046,0,0,0,.087,4.062c.287,1.438.47,3.292,1.291,4.528a.813.813,0,0,0,1.389,0C1055.284,120.9,1052.21,117.763,1052.187,115.091Z" transform="translate(48.357 16.534)" fill="#ad583e"/><path d="M1054.41,127.991a.906.906,0,0,0-1.5-.4,8.748,8.748,0,0,0-1.449,2.291,25.122,25.122,0,0,0-1.284,2.41,1.086,1.086,0,0,0,1.875,1.1C1053.028,131.882,1054.96,129.955,1054.41,127.991Z" transform="translate(48.059 22.341)" fill="#ad583e"/><path d="M1047.07,121.361c-.675-.95-2.426-.419-2.011.849a5.832,5.832,0,0,1,.306,2.179c-.025.707-.141,1.436-.117,2.143a.637.637,0,0,0,1.075.445A4.493,4.493,0,0,0,1047.07,121.361Z" transform="translate(45.77 19.423)" fill="#ad583e"/><path d="M1049.85,104.552c-1.029-.284-1.771,1.3-.749,1.776a5.515,5.515,0,0,1,1.7,1.275c.463.489.718,1.152,1.3,1.509a.828.828,0,0,0,1.2-.49C1053.751,106.864,1051.324,104.959,1049.85,104.552Z" transform="translate(47.4 12.048)" fill="#ad583e"/><path d="M1036.629,105.27a5.387,5.387,0,0,0-1.2-1.375.837.837,0,0,0-1.216.495,2.869,2.869,0,0,0,1.7,3.449,1.263,1.263,0,0,0,1.407-.573.636.636,0,0,0,.119-.264C1037.626,106.142,1037.095,105.849,1036.629,105.27Z" transform="translate(40.851 11.713)" fill="#ad583e"/><path d="M1037.678,97.36a.853.853,0,0,0-1.238-.5c-1.407.96-1.165,3.185-.813,4.646a1.04,1.04,0,0,0,1.991,0,12.089,12.089,0,0,0,.168-2.134A5.19,5.19,0,0,0,1037.678,97.36Z" transform="translate(41.423 8.537)" fill="#ad583e"/><path d="M1031.563,98.468c-.064-.563-.586-1.2-1.24-.945-1.4.548-1.7,2.363-1.4,3.7.338,1.535,2.7.885,2.356-.65C1031.106,99.8,1031.646,99.212,1031.563,98.468Z" transform="translate(38.475 8.869)" fill="#ad583e"/><path d="M1023.452,131.923a7.923,7.923,0,0,0-2.018-1.164c-.366-.213-.72-.445-1.072-.678a.955.955,0,0,0-1.164-.9c.54-.109-.373,0-.495.046a1.119,1.119,0,0,0-.624.615,1,1,0,0,0,.154,1.193c1.18.918,3.215,2.836,4.843,2.31A.862.862,0,0,0,1023.452,131.923Z" transform="translate(33.579 23.146)" fill="#ad583e"/><path d="M1025.213,124.224c-.422-.521-1.621-.424-1.772-1.081a1.137,1.137,0,0,0-2.223.3,2.592,2.592,0,0,0,3.994,2.134A.978.978,0,0,0,1025.213,124.224Z" transform="translate(35.049 20.083)" fill="#ad583e"/><path d="M1000.388,210.609c-1.684-2.014-.09-5.6-.132-7.945-.009-.521-.765-.955-1.14-.471-2,2.58-2.53,7.408-.327,10.017C999.731,213.324,1001.315,211.718,1000.388,210.609Z" transform="translate(24.293 55.99)" fill="#ad583e"/><path d="M1004.921,194.007a.986.986,0,0,0-1.624-.428,6.506,6.506,0,0,0-1.6,2.709,4,4,0,0,0-.274,2.861,1.319,1.319,0,0,0,2.578-.35C1004.025,197.171,1005.4,195.621,1004.921,194.007Z" transform="translate(26.051 52.084)" fill="#ad583e"/><path d="M1065.864,252.217a1.215,1.215,0,0,0-1.885-.244c-.689.6-.843,1.674-1.259,2.469-.435.83-1.045,1.507-1.545,2.292-.731,1.146.657,2.124,1.683,1.683C1064.781,257.588,1066.859,254.26,1065.864,252.217Z" transform="translate(52.971 78.376)" fill="#ad583e"/><path d="M1070.54,242.2a1.055,1.055,0,0,0-1.9.25,18.208,18.208,0,0,0-.608,3.412,17.63,17.63,0,0,0-.5,3.34,1.144,1.144,0,0,0,2.236.3C1070.387,247.455,1071.745,244.227,1070.54,242.2Z" transform="translate(55.929 73.895)" fill="#ad583e"/><path d="M1059.381,244.264a.8.8,0,0,0-1.24-.161c-1.039,1.033-1,2.382-1.3,3.745a17.279,17.279,0,0,1-1.5,4.6,1.261,1.261,0,0,0,2.175,1.272,12.031,12.031,0,0,0,1.873-4.8C1059.659,247.377,1060.112,245.7,1059.381,244.264Z" transform="translate(50.356 74.877)" fill="#ad583e"/><path d="M997.006,253.006a1.1,1.1,0,0,0-2.037-.551c-1.256,1.712-1.38,5.88.31,7.338a.911.911,0,0,0,1.5-.4,7.665,7.665,0,0,0,.115-3.14C996.861,255.169,997.067,254.087,997.006,253.006Z" transform="translate(22.787 78.515)" fill="#ad583e"/><path d="M1005.266,247.811a.923.923,0,0,0-1.431-.184c-.805.763-.923,2.094-1.135,3.141a14.18,14.18,0,0,0-.37,3.656,1.177,1.177,0,0,0,2.353,0,30.872,30.872,0,0,1,.666-3.618A3.966,3.966,0,0,0,1005.266,247.811Z" transform="translate(26.527 76.45)" fill="#ad583e"/><path d="M1062.485,174.753a1.14,1.14,0,0,0-2.2-.606c-.7,2.555-.238,6.443,1.755,8.39a.916.916,0,0,0,1.542-.638C1063.882,179.492,1061.808,177.216,1062.485,174.753Z" transform="translate(52.525 43.077)" fill="#db9150"/><path d="M1067.495,194.332a20.226,20.226,0,0,0-.783-4.112,1.19,1.19,0,0,0-2.326.315,17.682,17.682,0,0,0,.3,3.8,13.691,13.691,0,0,0,.443,3.629,1.149,1.149,0,0,0,2.068.271A6.251,6.251,0,0,0,1067.495,194.332Z" transform="translate(54.495 50.308)" fill="#db9150"/><path d="M1071.908,205.418a.958.958,0,0,0-1.914,0c-.09.942-.077,1.877-.136,2.82a7.731,7.731,0,0,0-.109,2.6.923.923,0,0,0,1.522.4C1072.71,210.047,1072.087,207.023,1071.908,205.418Z" transform="translate(56.887 57.123)" fill="#db9150"/><path d="M1070.785,217.445a.935.935,0,0,0-1.692-.221c-.928,1.67-1.58,3.466-2.564,5.108s-2.133,3.182-3.021,4.885a1.021,1.021,0,0,0,1.6,1.232C1067.881,225.848,1071.621,221.534,1070.785,217.445Z" transform="translate(54.059 62.661)" fill="#db9150"/><path d="M1059.491,212.988c-.067-.617-.929-1.229-1.425-.589a11.224,11.224,0,0,0-1.512,3.45,17.3,17.3,0,0,1-1.841,3.987c-.714,1.119,1,2.5,1.872,1.444C1058.254,219.239,1059.781,215.67,1059.491,212.988Z" transform="translate(50.074 60.563)" fill="#db9150"/><path d="M1061.095,201.466a20.152,20.152,0,0,0-.612-3.431,1.213,1.213,0,0,0-2.371.321,16.984,16.984,0,0,0,.357,3.115c.13,1.033-.041,2.719.588,3.57a1.07,1.07,0,0,0,1.657.213C1061.6,204.287,1061.254,202.654,1061.095,201.466Z" transform="translate(51.678 53.823)" fill="#db9150"/><path d="M1049.86,205.226a1.055,1.055,0,0,0-2.109,0c-.051,1.713-.451,3.663.976,4.936a.576.576,0,0,0,.952-.251A17.562,17.562,0,0,0,1049.86,205.226Z" transform="translate(46.971 56.992)" fill="#db9150"/><path d="M1051.893,183.463c-.85-1.032-2.61.324-1.859,1.435a6.541,6.541,0,0,1,1.021,2.493,13.2,13.2,0,0,0,.454,2.648.888.888,0,0,0,1.6.209C1054.463,188.252,1053.25,185.111,1051.893,183.463Z" transform="translate(47.959 47.474)" fill="#db9150"/><path d="M1048.782,223.021c-.106-.767-1.226-.781-1.569-.2a23.842,23.842,0,0,0-1.1,2.72,19.455,19.455,0,0,1-1.407,2.643c-.788,1.242,1.177,2.379,1.967,1.149C1047.819,227.541,1049.085,225.218,1048.782,223.021Z" transform="translate(45.555 65.2)" fill="#db9150"/><path d="M1056.6,226.8a7.4,7.4,0,0,0-1.532,2.025,6.421,6.421,0,0,0-1.125,2.32.813.813,0,0,0,1.567.432,8.175,8.175,0,0,1,1.3-2.06c.451-.6,1.052-1.254.968-2.043A.79.79,0,0,0,1056.6,226.8Z" transform="translate(49.792 67.124)" fill="#db9150"/><path d="M1036.174,180.582a1.109,1.109,0,0,0-1.838,1.071,24.992,24.992,0,0,1,.628,3.375,11.351,11.351,0,0,0,.782,3.5c.274.646,1.116.321,1.317-.173C1037.909,186.291,1037.992,182.222,1036.174,180.582Z" transform="translate(40.949 46.205)" fill="#db9150"/><path d="M1044.477,174.077a1.129,1.129,0,0,0-2.053-.866,5.757,5.757,0,0,0-.715,3.33,6.187,6.187,0,0,0,.667,3.473.818.818,0,0,0,1.389,0,5.056,5.056,0,0,0,.5-2.915A19.154,19.154,0,0,1,1044.477,174.077Z" transform="translate(44.286 42.776)" fill="#db9150"/><path d="M1052.487,159.146c-.321-.792-.606-1.8-1.4-2.15a.869.869,0,0,0-1.416.628,3.734,3.734,0,0,0,.49,2.4,5.406,5.406,0,0,0,1.5,2.614.957.957,0,0,0,1.384-.563C1053.4,161.249,1052.805,159.931,1052.487,159.146Z" transform="translate(47.843 35.619)" fill="#c47347"/><path d="M1056.094,154.318c-.84-.865-2.149.45-1.32,1.32.85.9,1.261,2.207,2.167,3.013a.625.625,0,0,0,1.051-.435C1058.176,156.819,1057.006,155.257,1056.094,154.318Z" transform="translate(50.058 34.373)" fill="#c47347"/><path d="M1034.829,160.628c-.483-1.023-2.1-.5-2.08.563.033,1.735,1.143,3.33,2.04,4.728a.773.773,0,0,0,1.429-.387A12.266,12.266,0,0,0,1034.829,160.628Z" transform="translate(40.248 37.097)" fill="#c47347"/><path d="M1043.343,156.909a1.17,1.17,0,0,0-2.165.586c.174,1.583,1.284,2.971,2,4.342a.91.91,0,0,0,1.684-.456A12.5,12.5,0,0,0,1043.343,156.909Z" transform="translate(44.045 35.418)" fill="#c47347"/><path d="M1003.051,131.205a1.183,1.183,0,0,0-2.279-.628,4.377,4.377,0,0,0,.177,2.889,6.969,6.969,0,0,0,1.446,2.616.845.845,0,0,0,1.4-.369C1004.246,134.163,1002.788,132.726,1003.051,131.205Z" transform="translate(25.753 23.418)" fill="#693324"/><path d="M1002.834,118.9a3.474,3.474,0,0,0-1.512,3.1,4.716,4.716,0,0,0,1,3.573.957.957,0,0,0,1.586-.419c.335-1.667-.58-3.295.228-4.955C1004.525,119.386,1003.7,118.372,1002.834,118.9Z" transform="translate(26.075 18.466)" fill="#693324"/><path d="M1011.87,135.961c-.531-.979-1.634-1.5-2.2-2.493a1.185,1.185,0,0,0-2.044,1.2c.789,1.3,2.175,2.623,3.808,2.379A.743.743,0,0,0,1011.87,135.961Z" transform="translate(28.84 24.843)" fill="#693324"/><path d="M1004.842,107.913c-3.115,1.133-1.673,7.5-.708,9.689.316.718,1.275.38,1.5-.2.952-2.452-.53-5.317.589-7.7C1006.63,108.841,1005.936,107.515,1004.842,107.913Z" transform="translate(26.812 13.546)" fill="#693324"/><path d="M1007.652,163.48c-1.243-.454-2.732.814-3.54,1.637-.884.9-1.452,2.066-.879,3.035a1.053,1.053,0,0,0,1.88-.118,4.156,4.156,0,0,1,.374-.541,6.831,6.831,0,0,1,.992-.823c.817-.615,1.741-1.206,1.847-2.305A.931.931,0,0,0,1007.652,163.48Z" transform="translate(26.837 38.588)" fill="#693324"/><path d="M998.112,157.685c-1.287-.342-2.455,1.423-3.051,2.334-.534.815-1.28,1.967-1.049,2.987a1,1,0,0,0,1.9,0,5.792,5.792,0,0,1,1.184-1.94c.512-.675,1.689-1.639,1.66-2.532A.9.9,0,0,0,998.112,157.685Z" transform="translate(22.765 35.998)" fill="#693324"/><path d="M1005.473,149.57c-.988-.109-2.137.73-2.91,1.28a8.284,8.284,0,0,0-2.284,2.333,1.144,1.144,0,0,0,1.789,1.38,12.758,12.758,0,0,1,2.292-1.873c.805-.548,1.7-.946,2.027-1.918A.961.961,0,0,0,1005.473,149.57Z" transform="translate(25.534 32.355)" fill="#693324"/><path d="M1008.645,154.895a4.194,4.194,0,0,0-2.339,1.568,1.018,1.018,0,0,0,1.438,1.439,4.162,4.162,0,0,0,1.568-2.339A.669.669,0,0,0,1008.645,154.895Z" transform="translate(28.192 34.759)" fill="#693324"/><path d="M992.6,152.851a6.929,6.929,0,0,0-3.514,1.869c-1.094.989.495,2.514,1.6,1.6a17.126,17.126,0,0,0,2.646-2.211A.759.759,0,0,0,992.6,152.851Z" transform="translate(20.396 33.832)" fill="#693324"/><path d="M991.893,183.949c-1.322-.1-2.825,1.351-3.617,2.271a4.889,4.889,0,0,0-1.049,1.757,2.486,2.486,0,0,0,.29,1.924c.445.994,1.983.277,1.721-.725.093.355.029,0,.11-.2a2.781,2.781,0,0,1,.3-.532,6.5,6.5,0,0,1,1.011-1.072c.754-.678,1.757-1.265,2.143-2.23C993.046,184.527,992.435,183.991,991.893,183.949Z" transform="translate(19.683 47.857)" fill="#693324"/><path d="M1000.763,178.328c-1.6-.055-2.507,1.31-3.048,2.638-.554,1.358,1.677,1.979,2.21.609a17.043,17.043,0,0,1,1.422-2.23A.683.683,0,0,0,1000.763,178.328Z" transform="translate(24.414 45.324)" fill="#693324"/><path d="M986.417,202.317a4.994,4.994,0,0,0-2.22,4.216c-.093,1.625-.042,4.141.766,5.584a.957.957,0,0,0,1.638,0c1.42-2.538-1.58-6.439.625-8.751C987.726,202.843,987.047,201.844,986.417,202.317Z" transform="translate(18.344 56.084)" fill="#693324"/><path d="M992.708,193.978c-1.063,1.822-2.044,4.486-1.425,6.6a.808.808,0,0,0,1.457.191c1.087-1.613,1.059-3.907,1.895-5.668C995.242,193.824,993.443,192.72,992.708,193.978Z" transform="translate(21.467 52.131)" fill="#693324"/><path d="M995.218,222.274c.242-1.113-1.447-1.995-1.956-.824-1.113,2.564,0,6.656,1.889,8.643a.936.936,0,0,0,1.58-.654C996.838,227.017,994.683,224.733,995.218,222.274Z" transform="translate(22.246 64.516)" fill="#693324"/><path d="M984.354,233.229c.772-1.156-1.094-2.237-1.861-1.088-1.642,2.462-1.381,7.427,1.725,8.637.527.206.892-.379.821-.821C984.707,237.9,983.02,235.23,984.354,233.229Z" transform="translate(17.141 69.365)" fill="#693324"/><path d="M987.516,226.267a20.842,20.842,0,0,1,.023-2.128c.051-1.1-1.67-1.1-1.715,0-.061,1.462-.273,3.491.682,4.709.428.546,1.14.022,1.206-.5A11.822,11.822,0,0,0,987.516,226.267Z" transform="translate(19.064 65.605)" fill="#693324"/><path d="M992.1,237.314a1.147,1.147,0,0,0-1.979-1.156,4.239,4.239,0,0,0,.723,5.055.843.843,0,0,0,1.4-.368C992.473,239.715,991.581,238.375,992.1,237.314Z" transform="translate(20.79 71.144)" fill="#693324"/><path d="M989.018,254.639c-.457-.67-1.713-2.025-1.5-2.928.247-1.069-1.387-1.9-1.873-.789-.618,1.412.009,2.749.807,3.958a9.591,9.591,0,0,0,3.018,3.224.6.6,0,0,0,.891-.511C990.417,256.438,989.63,255.537,989.018,254.639Z" transform="translate(18.897 77.815)" fill="#693324"/><path d="M1003.116,236.517c-.112-.972-.074-1.964-.112-2.941a1.063,1.063,0,0,0-2.125,0c-.081,1.8-.666,5.812,1.786,6.405a.942.942,0,0,0,1.182-.9C1003.795,238.191,1003.222,237.431,1003.116,236.517Z" transform="translate(25.826 69.77)" fill="#693324"/><path d="M1012.289,240.744a1.183,1.183,0,0,0-.907,2.152,5.081,5.081,0,0,1,1.068,1.27,1.018,1.018,0,0,0,.379.348q-.292-.244-.086.1a2.393,2.393,0,0,0,.495.9.8.8,0,0,0,1.364,0A3.392,3.392,0,0,0,1012.289,240.744Z" transform="translate(30.366 73.45)" fill="#693324"/><path d="M1067.31,153.887a1.3,1.3,0,0,0-1.432-.583,1.081,1.081,0,0,1-.2.041,1.01,1.01,0,0,0-.683,1.355,2.05,2.05,0,0,0,1.119,1.465.99.99,0,0,0,1.428-.58A1.874,1.874,0,0,0,1067.31,153.887Z" transform="translate(54.759 34.025)" fill="#693324"/><path d="M1073.23,148.112a1.156,1.156,0,0,0-2.134-.577c-1.051,1.422.332,3.968,2.179,3.312a.837.837,0,0,0,.6-.791C1073.789,149.343,1073.3,148.809,1073.23,148.112Z" transform="translate(57.373 31.199)" fill="#693324"/><path d="M1037.876,109.431s-5.227,1.7-3.524,3.724,5.184-.041,6.278.2.081,2.783.971,2.667,2.51-4.376,1.944-5.85S1039.072,108.959,1037.876,109.431Z" transform="translate(40.817 14.097)" fill="#6e5656"/></g></g></svg>