<svg xmlns="http://www.w3.org/2000/svg" xmlns:xlink="http://www.w3.org/1999/xlink" width="204" height="194" viewBox="0 0 204 194"><defs><clipPath id="a"><rect width="204" height="194" transform="translate(613 1505.156)" fill="#fff" stroke="#707070" stroke-width="1"/></clipPath></defs><g transform="translate(-613 -1505.156)" clip-path="url(#a)"><g transform="translate(632.208 1513.726)"><path d="M667.311,555.4a78.187,78.187,0,0,0,33.176,5.013c.542,0,.62,2.026-.808,2.661s-20.868,2.4-29.58-1.278S667.311,555.4,667.311,555.4Z" transform="translate(-583.95 -522.039)" fill="#c23f30"/><path d="M662.288,534.47s-13.56-5.357-23.406-.476-12.822,20.266-12.226,25.667,47.558-1.069,47.558-1.069S671.493,537.327,662.288,534.47Z" transform="translate(-600.312 -531.941)" fill="#ffae3d"/><path d="M658.239,533.719s6.348,6.587,4.047,15.95c-4.444-2.459-16.745-6.031-23.809-1.9s4.366,16.189,4.366,16.189l34.283,4.127S679.507,539.83,658.239,533.719Z" transform="translate(-596.263 -531.19)" fill="#e65f37"/><path d="M683.524,724.366s-5.314,10.349-3.825,11.478,4.64-3.653,4.64-3.653l2.223-4.441.774,1.2s-2.775,8.454-1.61,9.255,4.458-7.536,4.458-7.536l1.229,1.128s-2.861,7.339-1.176,7.58,4.027-6.633,4.027-6.633l1.981-.033s-3.581,6.948-1.83,7.237,5-7.237,5-7.237-2.237,6.215-.616,6.408,3.961-6.39,3.961-6.53S683.524,724.366,683.524,724.366Z" transform="translate(-578.003 -450.718)" fill="#302a27"/><path d="M648.367,723.278s5.314,10.349,3.827,11.478-4.642-3.653-4.642-3.653l-2.221-4.441-.775,1.2s2.776,8.454,1.611,9.255-4.46-7.536-4.46-7.536l-1.229,1.128s2.863,7.339,1.176,7.58-4.026-6.633-4.026-6.633l-1.981-.033s3.579,6.948,1.829,7.236-5-7.236-5-7.236,2.236,6.215.614,6.408-3.959-6.39-3.961-6.53S648.367,723.278,648.367,723.278Z" transform="translate(-599.238 -451.177)" fill="#302a27"/><path d="M629.077,631.893s-20.178-6.326-11.926-47.049c-5.872-2.617-11.686-10.447-7.758-20.862s15.595-6.786,17.618-4.7c0,0,4.524-5.178,9.106-6.488,0,0-5.533-3.154-4.135-5.694s7.748-.238,7.748-.238-6.23-4.92-3.136-7.024,7.62,2.777,7.62,2.777-3.294-3.571.435-4.483,8.134,4.444,8.611,8.452c0,0,12.381-2.7,22.459,6.189,0,0,7.3-9.6,15.633-5.158s6.984,15.555,2.937,20.157c0,0,13.966,22.587,6.587,35.678,0,0,33.33,27.731,43.33,78.2s6.428,120.705,0,126.658-27.856,3.094-31.664,0-1.951-20.713-4.546-25.951c-5.929,2.381-41.164,3.332-49.5,0,1.667,9.522,3.81,21.427-2.142,25.235s-24.76,5-31.188-2.38S594.024,707.284,629.077,631.893Z" transform="translate(-608.108 -529.372)" fill="#964c36"/><path d="M687.479,665.413c-.714-2.381-14.046,1.428-21.956-8.043s3.623-53.619,3.623-53.619c-9.761-5.475-40.291,0-40.291,0s-.543.351-1.513,1.024a7.992,7.992,0,0,0,.957.4c-35.055,75.391-10.34,165.941-3.911,173.321s25.235,6.189,31.188,2.381,3.808-15.713,2.142-25.237a30.811,30.811,0,0,0,7.338,1.461c-21.085-14.12-26.16-51.645-21.622-65.185C648.434,677,688.193,667.793,687.479,665.413Z" transform="translate(-607.343 -502.657)" fill="#7d3f2c"/><path d="M698.889,599.023c-5.238,6.508-23.967,5.078-23.967,5.078s.317-2.857-.951-3.968-10.491,5.876-10.491,5.876,1.126-2.543,0-3.972-9.737,2.54-9.737,2.54,0-4.761-4.945-.953c-6.284,5.08-23.554,3.174-25.3-16.916-1.446-16.644,5.579-31.866,8.036-36.611a31.052,31.052,0,0,0-4.525,4.086c-2.024-2.083-13.689-5.714-17.617,4.7s1.884,18.245,7.758,20.862C608.9,620.472,629.075,626.8,629.075,626.8c-.331.711-.646,1.426-.966,2.14,8.092,1.933,16.843,3.238,24.116,2.463C671.589,629.338,697.619,609.122,698.889,599.023Z" transform="translate(-608.109 -524.277)" fill="#7d3f2c"/><path d="M635.7,579.481s9.673-7.29,5.885-10.9-15.017-1.566-15.6,2.139S633.889,581,635.7,579.481Z" transform="translate(-600.579 -517.273)" fill="#332828"/><path d="M633.642,581.976s-1.667,5.8,0,6.071,6.126-1.22,5.876-2.739S633.969,581.2,633.642,581.976Z" transform="translate(-597.645 -510.881)" fill="#7d1f1f"/><g transform="translate(50.986 42.152)"><path d="M647.483,562.878s1.547,6.207-.94,6.364-2.891-4.5-2.4-6.364A1.723,1.723,0,0,1,647.483,562.878Z" transform="translate(-643.962 -561.582)"/><path d="M647.652,563.22a1.019,1.019,0,1,1-1.018-1.02A1.017,1.017,0,0,1,647.652,563.22Z" transform="translate(-643.264 -561.32)" fill="#fff"/></g><g transform="translate(19.877 44.051)"><path d="M625.608,564.213s1.546,6.207-.94,6.364-2.891-4.5-2.4-6.364A1.723,1.723,0,0,1,625.608,564.213Z" transform="translate(-622.087 -562.917)"/><path d="M625.777,564.555a1.019,1.019,0,1,1-1.018-1.02A1.019,1.019,0,0,1,625.777,564.555Z" transform="translate(-621.389 -562.656)" fill="#fff"/></g><path d="M631.44,567.849s-3.451,1.468-1.864,2.857,6.547.158,7.459.437.239,1.151,1.032,1.348,2.647-2.186,1.468-3.746S633.821,566.816,631.44,567.849Z" transform="translate(-599.224 -517.03)" fill="#6e5656"/><path d="M623.6,609.278s2.445-13.095,12.681-16.785,20,4.286,21.785,20.118-7.531,49.478-22.752,53.726S623.6,609.278,623.6,609.278Z" transform="translate(-601.72 -506.758)" fill="#693324"/><path d="M697.734,634.345a23.988,23.988,0,0,1,1.571,8.019c0,3.094-1.352.913-1.384,1.965-.387,12.868-2.647,34-13.186,36.672-15.289,3.879-8.264-36.117-8.264-36.117Z" transform="translate(-579.933 -488.716)" fill="#693324"/><path d="M651.141,613.827s1.263-9.879,8.167-9.285,27.141,24.284,29.641,29.88,27.378,48.686,16.428,81.54-55.473,34.522-70.233,18.57-4.047-59.28-4.047-61.423-4.286-25.713-.714-40.236S651.141,613.827,651.141,613.827Z" transform="translate(-599.992 -501.307)" fill="#c47347"/><path d="M680.128,664.09c-.714-2.381-14.046,1.428-21.956-8.043-6.732-8.065.621-41.247,2.958-50.935a5.966,5.966,0,0,0-1.822-.542c-6.9-.594-8.167,9.285-8.167,9.285s-17.187,4.524-20.758,19.046.714,38.092.714,40.235-10.714,45.473,4.047,61.423a27.408,27.408,0,0,0,9.268,6.3c-9.771-17.086-11.687-40.244-8.328-50.267C641.083,675.679,680.842,666.471,680.128,664.09Z" transform="translate(-599.992 -501.295)" fill="#b0673f"/><path d="M652.521,607.958s4.384-8.56,7.349-8.14,2.433,4.646,2.433,4.646,2.167,2.538,2.339,4.271-.731,2.221-.731,2.221,2.779,3.15.513,4.347-9.96-2.19-9.96-2.19-.451,2.063-2.18,2.393a2.421,2.421,0,0,1-2.541-1.032s-4.407,5.869-5.914,5.023-.313-2.719-.313-2.719-1.913-1.024-2.112-2.557a2.923,2.923,0,0,1,.675-2.392s-2.669-4.033-1.645-6.415,8.238,3.9,8.238,3.9A3.083,3.083,0,0,1,652.521,607.958Z" transform="translate(-594.564 -503.296)" fill="#ffae3d"/><path d="M631.405,597.671s2.84-10.515,4.278-10.435,1.163,9.444,1.163,9.444l.67.277s1.627-2.42,2.9-1.667.991,3.056.991,3.056,1.469-1.27,2.7-.755.435,2.937.435,2.937,1.866-2.181,2.976-.873-.714,3.73-.714,3.73,1.15-1.667,2.261-.674-.674,3.254-.674,3.254Z" transform="translate(-598.276 -508.601)" fill="#302a27"/><path d="M624.65,610.454s9.793-23.931,24.871-14.726,8.253,47.616,0,59.044-21.12,24.59-22.5,23.054C604.611,652.867,624.65,610.454,624.65,610.454Z" transform="translate(-604.607 -505.906)" fill="#964c36"/><path d="M622.3,556.193s-5.078,13.888-6.428,13.769-5-6.627-2.62-11.705S622.3,556.193,622.3,556.193Z" transform="translate(-606.271 -522.079)" fill="#c47347"/><path d="M659.393,550.929s7.7,9.016,9.126,7.682,2.937-7.445,0-10.222S659.154,549.9,659.393,550.929Z" transform="translate(-586.465 -525.387)" fill="#c47347"/><path d="M669.26,658.625s-1.549,9.911.111,10.77,2.032-3.2,2.032-3.2l1.429-4.755.967,1.048s-1.286,8.806,0,9.394,3.1-8.188,3.1-8.188l1.4.9s-1.563,7.721.139,7.668,2.831-7.224,2.831-7.224l2.972.065s-3.363,7.022-1.59,7.005,4.876-7.422,4.876-7.422-2.995,7.48-1.365,7.393,3.478-8.513,3.454-8.651S669.26,658.625,669.26,658.625Z" transform="translate(-582.575 -478.467)" fill="#302a27"/><path d="M665.641,616.533s1.428,50.473,3.808,58.805,18.213,15.475,24.046,4.881,10.118-34.521,7.5-41.187S678.854,614.986,665.641,616.533Z" transform="translate(-583.825 -496.276)" fill="#964c36"/><path d="M655.7,570.669c-.071-.328-.508-.212-.542.073a13.723,13.723,0,0,0-.028,3.491,8.078,8.078,0,0,0,.62,3.23.744.744,0,0,0,1.273,0C658.045,575.423,656.138,572.681,655.7,570.669Z" transform="translate(-588.302 -515.678)" fill="#ad583e"/><path d="M663.564,577.985a.861.861,0,0,0-.872,0c-.8.408-.923,2.133-1.16,2.915-.185.606-.621,2.005-1.26,1.978-1.085-.046-1.212,1.51-.247,1.827,1.578.519,2.715-.853,3.309-2.139C663.86,581.43,664.831,578.9,663.564,577.985Z" transform="translate(-586.471 -512.556)" fill="#ad583e"/><path d="M666.821,569.609c-.367-1.907-2.1-3.72-3.537-4.965a1.047,1.047,0,0,0-1.637,1.263A13.428,13.428,0,0,0,663.4,568c.7.8,1.34,1.633,2.069,2.4A.818.818,0,0,0,666.821,569.609Z" transform="translate(-585.573 -518.252)" fill="#ad583e"/><path d="M672.235,578.285a.958.958,0,0,0-1.4-.57c-1.2.856-1.261,2.85-2.083,4.062-.832,1.227,1.1,2.274,1.953,1.142a7.719,7.719,0,0,0,1.143-2.245A4.1,4.1,0,0,0,672.235,578.285Z" transform="translate(-582.597 -512.68)" fill="#ad583e"/><path d="M648.546,578.487c-.061-.432-.664-.512-.933-.246a9.3,9.3,0,0,0-1.431,2.578A9.262,9.262,0,0,1,644.3,583.5c-.721.677.337,1.7,1.074,1.074C646.989,583.2,648.864,580.75,648.546,578.487Z" transform="translate(-592.936 -512.462)" fill="#ad583e"/><path d="M643.539,574.086a9.074,9.074,0,0,1-2.031,2.794c-1.021.87.458,2.338,1.473,1.473a4.742,4.742,0,0,0,1.874-3.911A.712.712,0,0,0,643.539,574.086Z" transform="translate(-594.157 -514.299)" fill="#ad583e"/><path d="M652.014,555.754a14.7,14.7,0,0,0-1.367-1.138c-.2-.154-.4-.321-.611-.461-.092-.061-.819-.562-.4-.213-.978-.812-2.375.516-1.421,1.421.623.59,1.27,1.152,1.91,1.734.742.677,1.343,1.561,2.095,2.2.373.316,1.119.267,1.217-.321A3.971,3.971,0,0,0,652.014,555.754Z" transform="translate(-591.315 -522.761)" fill="#ad583e"/><path d="M653.009,548.3c-.381-.832-1.735-1.18-2.554-1.347a5.533,5.533,0,0,0-2.483-.1c-.976.255-.806,1.872.243,1.8a6.321,6.321,0,0,1,1.836.235,8.3,8.3,0,0,0,2.291.576A.785.785,0,0,0,653.009,548.3Z" transform="translate(-591.556 -525.689)" fill="#ad583e"/><path d="M633.84,559.422c-.673.772-1.362,1.519-1.994,2.341a4.846,4.846,0,0,0-1.331,2.307.993.993,0,0,0,1.251.954,5.543,5.543,0,0,0,2.174-2.009,4.768,4.768,0,0,0,1.158-3.07A.746.746,0,0,0,633.84,559.422Z" transform="translate(-598.654 -520.434)" fill="#ad583e"/><path d="M639.026,558.886a.8.8,0,0,0-1.362,0,5.839,5.839,0,0,0-.648,1.68,12.95,12.95,0,0,1-.788,1.715.986.986,0,0,0,1.542,1.19C638.8,562.426,639.958,560.309,639.026,558.886Z" transform="translate(-596.288 -520.727)" fill="#ad583e"/><path d="M633.711,551.906c-.756.353-1.2,1.258-1.712,1.888a5.7,5.7,0,0,1-1.9,1.715c-1.03.5-.3,2.308.792,1.876a5.481,5.481,0,0,0,2.506-1.839,7.69,7.69,0,0,0,1.473-2.75A.8.8,0,0,0,633.711,551.906Z" transform="translate(-599.036 -523.552)" fill="#ad583e"/><path d="M625.766,581.411c-.465-.575-1.216-1.2-1.02-2.014a.864.864,0,0,0-1.664-.459,3.278,3.278,0,0,0,.465,2.881,7,7,0,0,0,2.244,2.383.692.692,0,0,0,1.03-.592A3.6,3.6,0,0,0,625.766,581.411Z" transform="translate(-601.857 -512.358)" fill="#ad583e"/><path d="M628.473,577.6a.84.84,0,0,0-1.607,0c-.36,1.416,1.18,3.372,2.4,3.922a.619.619,0,0,0,.9-.688C629.933,579.623,628.787,578.786,628.473,577.6Z" transform="translate(-600.215 -512.919)" fill="#ad583e"/><path d="M674.941,657.592a10.5,10.5,0,0,1-1.277-3.2c-.259-1.165-2.008-.667-1.779.491a12.138,12.138,0,0,0,1.386,3.685c.52.9,1.32,2.327,2.53,2.083a.623.623,0,0,0,.447-.447C676.443,659.176,675.44,658.414,674.941,657.592Z" transform="translate(-581.198 -480.534)" fill="#ad583e"/><path d="M684.876,657.748a.922.922,0,0,0-1.126-.64c-1.064.393-1.432,1.769-1.792,2.742a16.3,16.3,0,0,1-.63,1.547c-.149.3-.6.656-.248.725a.983.983,0,0,0-.522,1.894c1.371.563,2.436-.933,2.978-1.964a16.366,16.366,0,0,0,.966-2.228A3.732,3.732,0,0,0,684.876,657.748Z" transform="translate(-577.815 -479.126)" fill="#ad583e"/><path d="M680.5,651.259c-.117-.6-.916-.59-1.21-.159a7.467,7.467,0,0,0-.687,1.923,10.257,10.257,0,0,1-.826,2.062.945.945,0,0,0,1.631.953A7.4,7.4,0,0,0,680.5,651.259Z" transform="translate(-578.762 -481.775)" fill="#ad583e"/><path d="M686.833,647.065a.763.763,0,0,0-1.31,0,12.945,12.945,0,0,0-.869,3.028,6.652,6.652,0,0,0,.016,3.08c.415,1.537,2.877.853,2.382-.657C686.468,650.739,687.632,648.8,686.833,647.065Z" transform="translate(-575.873 -483.504)" fill="#ad583e"/><path d="M674.14,646.923a13.75,13.75,0,0,1-.239-2.021,19.866,19.866,0,0,0-.046-2.159c-.065-.5-.738-.99-1.156-.479-1.079,1.32-1.49,3.985-.381,5.427A1,1,0,0,0,674.14,646.923Z" transform="translate(-581.284 -485.465)" fill="#ad583e"/><path d="M680.172,639.879a.816.816,0,0,0-1.469-.192c-.708,1.131-.709,2.914-.717,4.215a1.094,1.094,0,0,0,2.187,0C680.18,642.654,680.647,641.061,680.172,639.879Z" transform="translate(-578.614 -486.624)" fill="#ad583e"/><path d="M685.569,632.286c-.94,2.513-.4,5.276.316,7.763a.712.712,0,0,0,1.362,0c.587-2.342-.411-4.925.316-7.214C687.971,631.549,686.027,631.059,685.569,632.286Z" transform="translate(-575.626 -489.884)" fill="#ad583e"/><path d="M673.239,629.85c.048-1.168-1.772-1.166-1.815,0-.09,2.427.239,5.248,1.721,7.251.274.37,1.041.314.984-.267C673.9,634.465,673.139,632.273,673.239,629.85Z" transform="translate(-581.39 -490.983)" fill="#ad583e"/><path d="M680.384,624.848c.3-1.382-1.832-1.971-2.125-.586a4.617,4.617,0,0,0,.306,2.792,7.382,7.382,0,0,0,1.532,2.44.71.71,0,0,0,1.195-.495C681.462,627.582,680.075,626.25,680.384,624.848Z" transform="translate(-578.539 -493.306)" fill="#ad583e"/><path d="M670.089,607.962c-1.045-.788-2.408.971-1.406,1.823a12.835,12.835,0,0,0,2.558,1.564,7.884,7.884,0,0,1,2.217,1.6.7.7,0,0,0,1.182-.489C674.966,609.769,671.709,609.182,670.089,607.962Z" transform="translate(-582.689 -499.936)" fill="#ad583e"/><path d="M673.849,596.139a1.131,1.131,0,0,0-1.141,1.953A12.082,12.082,0,0,1,674.7,599.6c.57.557.958,1.342,1.631,1.765a.886.886,0,0,0,1.29-.525C678.146,598.7,675.383,597.015,673.849,596.139Z" transform="translate(-581.067 -504.911)" fill="#ad583e"/><path d="M683.713,615.239a8.76,8.76,0,0,0-.778-1.236,10.778,10.778,0,0,1-1.318-2.055c-.493-1.158-2.442-.331-2.041.86a9.014,9.014,0,0,0,1.294,2.4,8.469,8.469,0,0,0,.95,1.136,3.484,3.484,0,0,0,1,.606.739.739,0,0,0,1.071-.823A2.874,2.874,0,0,0,683.713,615.239Z" transform="translate(-577.966 -498.405)" fill="#ad583e"/><path d="M687.7,610.407c-.526-.954-1.651-1.4-2.079-2.456-.566-1.392-2.856-.784-2.281.629.567,1.4,1.97,3.2,3.68,3.015A.8.8,0,0,0,687.7,610.407Z" transform="translate(-576.394 -500.189)" fill="#ad583e"/><path d="M682.055,602.1c-.683-.782-1.879-2.1-3.022-1.53a.785.785,0,0,0-.4.7c.1.939,1.152,1.643,1.707,2.354.685.876,1.237,2.125,2.27,2.649a.659.659,0,0,0,.95-.387C684.07,604.529,682.887,603.048,682.055,602.1Z" transform="translate(-578.343 -503.032)" fill="#ad583e"/><path d="M677.887,590.02a9.847,9.847,0,0,0-3.847-1.739.359.359,0,0,0-.276.653,28.96,28.96,0,0,1,3.036,2.848c.8.8,1.637,1.974,2.858,2a.719.719,0,0,0,.714-.714C680.289,591.718,678.874,590.783,677.887,590.02Z" transform="translate(-580.464 -508.166)" fill="#ad583e"/><path d="M693.43,613.186a12.305,12.305,0,0,0-2.482-2.911,1.013,1.013,0,0,0-1.475,1.135,15.447,15.447,0,0,0,1.884,2.986,6.641,6.641,0,0,0,2.237,2.4c.344.146.917.078.984-.4A4.93,4.93,0,0,0,693.43,613.186Z" transform="translate(-573.788 -498.94)" fill="#ad583e"/><path d="M689.259,621.373c-.89-.671-2.173.649-1.537,1.537a11.126,11.126,0,0,1,1.428,2.753,3.966,3.966,0,0,0,1.721,2.375.72.72,0,0,0,1.075-.617C691.8,625.323,691.025,622.708,689.259,621.373Z" transform="translate(-574.577 -494.269)" fill="#ad583e"/><path d="M700.549,633.174a14.029,14.029,0,0,1-1.729-4.227c-.154-1.014-1.77-.944-1.98,0-.388,1.748.36,3.453,1.1,5.009.671,1.414,1.62,3.369,3.171,3.961a.8.8,0,0,0,1-.761C702.179,635.809,701.157,634.314,700.549,633.174Z" transform="translate(-570.7 -491.305)" fill="#ad583e"/><path d="M697.716,646.185a11.535,11.535,0,0,0-.943-3.433,1.108,1.108,0,0,0-2.051.555c.048,1.082.3,2.15.451,3.223a6.458,6.458,0,0,0,.779,2.972c.367.508,1.331.724,1.645,0A5.841,5.841,0,0,0,697.716,646.185Z" transform="translate(-571.55 -485.394)" fill="#ad583e"/><path d="M704.349,651.886c-.183-.6-.647-1.3-.5-1.938a1.288,1.288,0,0,0-2.482-.684,4.272,4.272,0,0,0,.132,2.676,22.485,22.485,0,0,0,.894,2.605c.36.74,1.291.525,1.7,0A2.828,2.828,0,0,0,704.349,651.886Z" transform="translate(-568.812 -482.804)" fill="#ad583e"/><path d="M692.56,659.969a.947.947,0,0,0-1.807,0,10.505,10.505,0,0,0-.4,3.379c-.053,1.193-.07,2.345-.021,3.537a.7.7,0,0,0,1.288.35A8.267,8.267,0,0,0,692.56,659.969Z" transform="translate(-573.416 -478.18)" fill="#ad583e"/><path d="M697.745,663.864a3.94,3.94,0,0,0-1.256,2.843c-.047,1.022-.152,2.1-.135,3.117a.694.694,0,0,0,.866.66,2.441,2.441,0,0,0,1.623-2.265c.126-1.027-.31-2.44.152-3.39A.8.8,0,0,0,697.745,663.864Z" transform="translate(-570.862 -476.357)" fill="#ad583e"/><path d="M704.987,675.948c-1.2,1.321-.661,3.5-1.955,4.71-1.163,1.091.58,2.823,1.746,1.746,1.675-1.547,1.27-3.879,1.428-5.952A.72.72,0,0,0,704.987,675.948Z" transform="translate(-568.204 -471.241)" fill="#ad583e"/><path d="M694.263,679.611c-.144-.786-1.308-.7-1.506,0-.3,1.058-.617,2.118-.981,3.158-.274.785-.758,2.174-1.758,2.26a1.139,1.139,0,0,0,0,2.277C693.7,687.34,694.789,682.468,694.263,679.611Z" transform="translate(-573.999 -469.845)" fill="#ad583e"/><path d="M691.133,672.918a.907.907,0,0,0-1.5-.4,6.2,6.2,0,0,0-1.092,2.3c-.155.405-.279.818-.42,1.229-.063.182-.272.735-.265.727-.909,1.16.687,2.824,1.653,1.651a7.119,7.119,0,0,0,1.139-2.44A7.214,7.214,0,0,0,691.133,672.918Z" transform="translate(-574.564 -472.707)" fill="#ad583e"/><path d="M698.564,694.8a.848.848,0,0,0-1.4-.37,18.635,18.635,0,0,0-1.482,2.541,5.066,5.066,0,0,1-2.135,1.809.8.8,0,0,0,.189,1.455,3.648,3.648,0,0,0,3.558-1.53C698.1,697.731,698.986,696.1,698.564,694.8Z" transform="translate(-572.211 -463.461)" fill="#ad583e"/><path d="M706.412,700.606a1,1,0,0,0-1.216-.691c-1.078.347-1.364,1.507-1.751,2.465s-.931,1.827-1.361,2.763a.976.976,0,0,0,1.323,1.324,4.878,4.878,0,0,0,2.12-2.588C705.923,702.969,706.747,701.6,706.412,700.606Z" transform="translate(-568.489 -461.057)" fill="#ad583e"/><path d="M695.806,715.334a.765.765,0,0,0-.933-.53c-1.111.451-1.357,1.722-1.7,2.756-.348,1.062-.9,2.081-1.177,3.131a.442.442,0,0,0,.421.555c1.23.014,1.948-1.162,2.44-2.186C695.322,718.094,696.2,716.423,695.806,715.334Z" transform="translate(-572.706 -454.772)" fill="#ad583e"/><path d="M700.419,723.77c-1.286,1.024-1.682,2.675-2.984,3.683-.72.557.2,1.482.9,1.168,1.8-.8,2.459-2.555,3.026-4.3C701.557,723.729,700.82,723.45,700.419,723.77Z" transform="translate(-570.515 -451.026)" fill="#ad583e"/><path d="M701.239,713.365c-.866,1.466-1.15,3.422-2.429,4.61-1.113,1.037.583,2.742,1.674,1.672a8.02,8.02,0,0,0,2.115-5.915A.736.736,0,0,0,701.239,713.365Z" transform="translate(-569.978 -455.51)" fill="#ad583e"/><path d="M686.9,724.129a5.5,5.5,0,0,1-.6-2.913c.117-1.5-2.174-1.466-2.322,0-.2,1.981.7,5.595,2.809,6.328a.972.972,0,0,0,1.224-.931A6.91,6.91,0,0,0,686.9,724.129Z" transform="translate(-576.099 -452.517)" fill="#ad583e"/><path d="M687.678,713.507a5.941,5.941,0,0,1-.873-3.49c.168-1.317-1.9-1.3-2.068,0a6.212,6.212,0,0,0,.579,3.373c.33.725,1.079,2.172,2.081,1.943C688.288,715.129,687.952,714.09,687.678,713.507Z" transform="translate(-575.783 -457.19)" fill="#ad583e"/><path d="M694.8,705.507a.857.857,0,0,0-1.418-.374,4.345,4.345,0,0,0-.856,1.763c-.267.69-.5,1.391-.822,2.056-.663,1.355,1.4,2.536,2.017,1.179a12.438,12.438,0,0,0,.845-2.345A4.783,4.783,0,0,0,694.8,705.507Z" transform="translate(-572.88 -458.938)" fill="#ad583e"/><path d="M679.694,700.557c-1.783.417-1.849,3.359-3.592,3.761a1.076,1.076,0,0,0,.284,2.1,3.688,3.688,0,0,0,2.809-1.871,9.353,9.353,0,0,0,.87-1.593,3.734,3.734,0,0,0,.5-1.734A.706.706,0,0,0,679.694,700.557Z" transform="translate(-579.73 -460.777)" fill="#ad583e"/><path d="M685.385,691.882c-.1-.577-.838-.518-1.115-.147a6.929,6.929,0,0,0-.971,4.753c.08.737,1.226,1.316,1.608.435A8.986,8.986,0,0,0,685.385,691.882Z" transform="translate(-576.396 -464.611)" fill="#ad583e"/><path d="M666.5,707.2c-.9-.348-1.937,0-2.89-.31-.8-.259-1.707-.974-2.431-.122a1,1,0,0,0-.146,1.141c.017.04.057.135.087.192a.744.744,0,0,0,1.057.566,6.361,6.361,0,0,0,.832.409,5.431,5.431,0,0,0,1.588.357,2.264,2.264,0,0,0,2.459-1.253C667.228,707.756,666.857,707.341,666.5,707.2Z" transform="translate(-585.819 -458.317)" fill="#ad583e"/><path d="M671.152,702.437a.727.727,0,0,0-.806-.328c-.937.393-1.358,1.421-2.329,1.857-1.412.633-.183,2.83,1.232,2.108C670.354,705.506,672.108,703.8,671.152,702.437Z" transform="translate(-583.086 -460.128)" fill="#ad583e"/><path d="M673.513,708.184a.856.856,0,0,0-1.015-.576c-1.021.178-1.591,1.854-1.917,2.692-.565,1.451,1.927,2.2,2.368.651C673.16,710.212,673.813,708.937,673.513,708.184Z" transform="translate(-581.775 -457.799)" fill="#ad583e"/><path d="M659.146,706.227a9.938,9.938,0,0,0-2.275.518,4.862,4.862,0,0,1-2.513-.09,1.1,1.1,0,0,0-.582,2.109c1.909.606,4.817.512,6.1-1.261A.854.854,0,0,0,659.146,706.227Z" transform="translate(-589.155 -458.375)" fill="#ad583e"/><path d="M633.532,636.089a.935.935,0,0,0-1.542-.407,5.909,5.909,0,0,0-1.02,1.758,8.062,8.062,0,0,0-.87,1.806c-.2.785.711,1.625,1.453,1.118C632.673,639.6,634.022,637.475,633.532,636.089Z" transform="translate(-598.839 -488.261)" fill="#ad583e"/><path d="M639.6,623.606a.865.865,0,0,0-1.478,0,6.889,6.889,0,0,0-.421,3.136c-.037,1.031-.562,2.018-.552,3.011a.771.771,0,0,0,.961.731c1.249-.235,1.725-1.822,1.877-2.908A6.826,6.826,0,0,0,639.6,623.606Z" transform="translate(-595.852 -493.424)" fill="#ad583e"/><path d="M634.347,615.553A.81.81,0,0,0,633,615.2a14.559,14.559,0,0,0-1.856,3.288,7.2,7.2,0,0,0-1.015,3.629.905.905,0,0,0,1.769.239,31.161,31.161,0,0,1,1.665-3.568A4.93,4.93,0,0,0,634.347,615.553Z" transform="translate(-598.816 -496.897)" fill="#ad583e"/><path d="M638.888,611.529c-.553,1.553-.383,3.7,1.341,4.39.59.236,1.1-.348,1.139-.867.088-1.028-.367-1.783.046-2.826C642.026,610.673,639.455,609.937,638.888,611.529Z" transform="translate(-595.237 -498.722)" fill="#ad583e"/><path d="M637.545,601.894c-.737.856-1.9,1.675-2.172,2.819a.793.793,0,0,0,.754.99c1.443.043,2.453-1.388,3.205-2.429S638.386,600.916,637.545,601.894Z" transform="translate(-596.61 -502.559)" fill="#ad583e"/><path d="M628.071,603.692a9.16,9.16,0,0,0-3.185,2.665,6.382,6.382,0,0,0-1.711,3.709.957.957,0,0,0,1.87.253,8.162,8.162,0,0,1,1.937-3.076,8.2,8.2,0,0,0,1.931-2.709C629.055,604.076,628.561,603.489,628.071,603.692Z" transform="translate(-601.751 -501.672)" fill="#ad583e"/><path d="M635.185,598.706c-1.18-.427-2.489.673-3.517,1.155-1.229.575-.158,2.358,1.058,1.812,1.1-.495,2.735-1.1,2.819-2.493A.5.5,0,0,0,635.185,598.706Z" transform="translate(-598.395 -503.8)" fill="#ad583e"/><path d="M626.088,613.392a5.724,5.724,0,0,0-3.032,4.343c-.077.909,1.362,1.081,1.578.213.371-1.493,1.685-2.373,2.3-3.712A.623.623,0,0,0,626.088,613.392Z" transform="translate(-601.802 -497.596)" fill="#ad583e"/><path d="M654.444,594.6c-.873.364-1.247,1.377-1.685,2.16a22.5,22.5,0,0,1-1.684,2.651c-.282.368.239.7.559.56a4.986,4.986,0,0,0,2.209-2.1c.5-.751,1.348-1.765,1.355-2.7C655.2,594.824,654.808,594.446,654.444,594.6Z" transform="translate(-590.007 -505.508)" fill="#693324"/><path d="M659.6,594.807c-1.706.213-2.319,2.608-3.045,3.912-.506.913.758,1.991,1.5,1.153a13.526,13.526,0,0,0,1.47-2.039c.387-.646,1.025-1.338.978-2.126C660.478,595.267,660.11,594.744,659.6,594.807Z" transform="translate(-587.708 -505.408)" fill="#693324"/><path d="M649.822,590.909a6.154,6.154,0,0,0-1.472,3.992c-.053,1.314,1.967,1.3,2.039,0,.064-1.17.795-2.315.64-3.493A.718.718,0,0,0,649.822,590.909Z" transform="translate(-591.124 -507.14)" fill="#693324"/><path d="M624.506,597.511a5.526,5.526,0,0,0-1.828-1.879,6.111,6.111,0,0,1-.907-.7c-.1-.1-.218-.3-.33-.394l-.031-.057a.5.5,0,0,0,0-.081c.072-1.374-1.945-1.308-2.1,0-.272,2.335,2.6,3.564,4.342,4.217C624.3,598.854,624.806,598.042,624.506,597.511Z" transform="translate(-603.386 -506.003)" fill="#693324"/><path d="M625.165,591.365c-.469-.708-1.358-.58-1.547-1.479-.28-1.342-2.32-.772-2.051.566.257,1.287,2.208,3.315,3.477,1.852A.8.8,0,0,0,625.165,591.365Z" transform="translate(-602.439 -507.805)" fill="#693324"/><path d="M617.648,588.766a20.414,20.414,0,0,1-1.371-5.142c-.12-.668-1.089-.575-1.263,0a5.958,5.958,0,0,0,1.3,6.17A.852.852,0,0,0,617.648,588.766Z" transform="translate(-605.333 -510.323)" fill="#693324"/><path d="M618.079,573.371a.886.886,0,0,0-1.77,0,6.888,6.888,0,0,0,.326,3.011.587.587,0,0,0,1.119,0A6.875,6.875,0,0,0,618.079,573.371Z" transform="translate(-604.659 -514.814)" fill="#693324"/><path d="M615.933,658.669a.2.2,0,0,0-.343-.142,4.1,4.1,0,0,0-1.108,2.666,4.194,4.194,0,0,0,1.037,3.086.763.763,0,0,0,1.283-.532C617.017,662.072,615.821,660.362,615.933,658.669Z" transform="translate(-605.42 -478.534)" fill="#693324"/><path d="M618.156,679.553c-.481-.959-.737-2.082-1.281-2.984a.7.7,0,0,0-1.2,0,3.809,3.809,0,0,0,.267,3.191,10.289,10.289,0,0,0,1.7,3.07.787.787,0,0,0,1.305-.344A5.242,5.242,0,0,0,618.156,679.553Z" transform="translate(-605.026 -471.036)" fill="#693324"/><path d="M621.52,668.454a.99.99,0,0,0-1.908.526c.393,1.523.887,3.533,2.095,4.628a.64.64,0,0,0,1.079-.447C622.82,671.583,621.891,669.975,621.52,668.454Z" transform="translate(-603.269 -474.616)" fill="#693324"/><path d="M626.222,661.837c-.108-1.455-2.359-1.486-2.291,0a7.6,7.6,0,0,0,.859,3.845.71.71,0,0,0,1.279-.168A8.478,8.478,0,0,0,626.222,661.837Z" transform="translate(-601.431 -477.577)" fill="#693324"/><path d="M624.5,691.311c.424-1.247-1.537-1.773-1.965-.542a4.328,4.328,0,0,0,3.055,5.26.574.574,0,0,0,.7-.7C626,693.822,623.944,692.952,624.5,691.311Z" transform="translate(-602.095 -465.195)" fill="#693324"/><path d="M620.128,697.538a1.094,1.094,0,0,0-2.187,0,5.081,5.081,0,0,0,.748,2.693,13.046,13.046,0,0,0,1.423,2.261.726.726,0,0,0,1.133-.146C621.991,700.6,620.1,699.231,620.128,697.538Z" transform="translate(-603.96 -462.488)" fill="#693324"/><path d="M635.7,709.962c-.922-1.324-3.063-1.158-3.85-2.7-.663-1.3-2.614-.155-1.954,1.141a4.878,4.878,0,0,0,2.278,2.092,4.763,4.763,0,0,0,3.04.658A.817.817,0,0,0,635.7,709.962Z" transform="translate(-598.971 -458.179)" fill="#693324"/><path d="M636.238,703.636c-.757-.567-2.446-.247-2.865-1.259a1.007,1.007,0,1,0-1.849.779,3.824,3.824,0,0,0,4.714,1.674C636.766,704.593,636.6,703.91,636.238,703.636Z" transform="translate(-598.277 -460.294)" fill="#693324"/><path d="M626.586,723.909a3.453,3.453,0,0,0-1.045-1.507c-.384-.411-.994-.981-.71-1.6.533-1.16-1.163-2.186-1.735-1.014a3.763,3.763,0,0,0,2.772,5.06A.75.75,0,0,0,626.586,723.909Z" transform="translate(-601.906 -452.868)" fill="#693324"/><path d="M635.569,726.6c-.967-1.084-2.122-1.782-1.923-3.414.158-1.293-1.86-1.274-2.023,0-.262,2.046,1.244,4.566,3.551,4.367A.566.566,0,0,0,635.569,726.6Z" transform="translate(-598.197 -451.625)" fill="#693324"/><path d="M640.4,720.86c-1.146-1.042-1.32-2.7-2.238-3.9a.6.6,0,0,0-1.109.3,6.486,6.486,0,0,0,1.652,5.292C639.817,723.633,641.54,721.9,640.4,720.86Z" transform="translate(-595.911 -453.96)" fill="#693324"/><path d="M628.727,713.324c-.249-1.3-2.324-.762-2.008.553a8.771,8.771,0,0,0,1.842,3.646c.377.437,1,.05,1.042-.431C629.712,715.8,628.964,714.57,628.727,713.324Z" transform="translate(-600.268 -455.695)" fill="#693324"/><path d="M621.8,710.378c-.1-.263-.631-.9-.51-1.159a1.045,1.045,0,1,0-1.918-.808,2.206,2.206,0,0,0,1.647,2.993A.813.813,0,0,0,621.8,710.378Z" transform="translate(-603.407 -457.767)" fill="#693324"/><path d="M616.839,687.9a6.873,6.873,0,0,1-.212-.772c-.014-.154-.034-.307-.057-.461-.028-.07-.048-.117-.065-.161a1.036,1.036,0,0,0-2.018-.2,3.512,3.512,0,0,0,1.563,4.111.779.779,0,0,0,1.153-.661A4.932,4.932,0,0,0,616.839,687.9Z" transform="translate(-605.488 -467.087)" fill="#693324"/><path d="M624.968,679.16a.83.83,0,0,0-1.623-.219c-.455,1.542-.3,4.148,1.749,4.366a.656.656,0,0,0,.654-.654C625.668,681.448,624.967,680.406,624.968,679.16Z" transform="translate(-601.767 -470.139)" fill="#693324"/><path d="M651.68,633.843a.4.4,0,0,0-.721-.094,3.732,3.732,0,0,0-.195,2.942,4.634,4.634,0,0,0,1.77,2.621.706.706,0,0,0,1.027-.418C653.937,637.078,652,635.574,651.68,633.843Z" transform="translate(-590.197 -489.049)" fill="#db9150"/><path d="M659.725,635.018c-1.206-.533-2.26,1.249-1.044,1.786a1.732,1.732,0,0,1,1.212,1.489c.128.627.98.516,1.162,0A2.531,2.531,0,0,0,659.725,635.018Z" transform="translate(-586.991 -488.473)" fill="#db9150"/><path d="M656.69,624.295a.935.935,0,0,0-1.461,1.128c.707,1.523,1.7,2.988,2.546,4.44.425.728,1.846.485,1.719-.465A8.565,8.565,0,0,0,656.69,624.295Z" transform="translate(-588.263 -493.069)" fill="#db9150"/><path d="M661.157,621.472a13.73,13.73,0,0,1-2.015-2.8c-.356-.847-1.876-.883-1.783.242a6.035,6.035,0,0,0,1.372,3.274c.371.491.761.963,1.085,1.486a3.971,3.971,0,0,0,1.122,1.5,1.006,1.006,0,0,0,1.465-.6C662.732,623.43,661.817,622.331,661.157,621.472Z" transform="translate(-587.323 -495.596)" fill="#db9150"/><path d="M644.611,667.355a7.131,7.131,0,0,0-1.466,2.662,2.7,2.7,0,0,0,.158,2.617.626.626,0,0,0,.749.1c.653-.39.757-1.075.963-1.756a5.8,5.8,0,0,1,1.028-2.189C646.878,667.8,645.474,666.37,644.611,667.355Z" transform="translate(-593.43 -474.922)" fill="#db9150"/><path d="M645.084,684.525a12.6,12.6,0,0,0-.974-2.348.747.747,0,0,0-1.271,0,2.739,2.739,0,0,0,.118,2.463,11.663,11.663,0,0,0,1.291,2.6.671.671,0,0,0,1.21-.158A4.215,4.215,0,0,0,645.084,684.525Z" transform="translate(-593.558 -468.676)" fill="#db9150"/><path d="M653.941,693.718a20.9,20.9,0,0,0-1.968-2.089c-1.057-.95-2.618.59-1.569,1.567,1.175,1.094,2.255,3.249,3.959,3.474a.769.769,0,0,0,.766-.766A4.124,4.124,0,0,0,653.941,693.718Z" transform="translate(-590.403 -464.662)" fill="#db9150"/><path d="M654.87,684.179a16.815,16.815,0,0,0-.179-2.78.733.733,0,0,0-1.219-.321,6.459,6.459,0,0,0-.448,6.158,1.126,1.126,0,0,0,2.079-.563C655.1,685.846,654.884,685.015,654.87,684.179Z" transform="translate(-589.392 -469.08)" fill="#db9150"/><path d="M664.351,689.151a7.472,7.472,0,0,0-1.232,2.456,2.094,2.094,0,0,0,.152,2.069.366.366,0,0,0,.361.1c.683-.243.966-.991,1.195-1.64a8.471,8.471,0,0,0,.616-2.529A.646.646,0,0,0,664.351,689.151Z" transform="translate(-584.972 -465.664)" fill="#db9150"/><path d="M671.514,679.61a.816.816,0,0,0-1.468-.192c-1,1.3-.9,3.612-.859,5.167.038,1.587,2.518,1.591,2.47,0-.027-.859-.016-1.722,0-2.581A6.354,6.354,0,0,0,671.514,679.61Z" transform="translate(-582.338 -469.85)" fill="#db9150"/><path d="M662.765,673.143a.836.836,0,0,0-1.213-.493,4.991,4.991,0,0,0-1.593,2.952,3.828,3.828,0,0,0,.85,3.365c.973,1.185,2.649-.509,1.684-1.684S663.161,674.412,662.765,673.143Z" transform="translate(-586.263 -472.596)" fill="#db9150"/><path d="M657.42,662.87a.851.851,0,0,0-1.405-.37,7.07,7.07,0,0,0-1.192,1.81c-.313.54-.522,1.126-.868,1.652-.873,1.33,1.379,2.652,2.133,1.246a13.144,13.144,0,0,0,.963-1.958A4.5,4.5,0,0,0,657.42,662.87Z" transform="translate(-588.841 -476.928)" fill="#db9150"/><path d="M635.67,655.526c-1.786.375-2.571,2.725-3.265,4.189-.559,1.182,1.169,2.224,1.773,1.037.39-.766.775-1.534,1.2-2.284a6.725,6.725,0,0,0,1.034-2.2A.612.612,0,0,0,635.67,655.526Z" transform="translate(-597.901 -479.783)" fill="#c47347"/><path d="M642.062,652.214a4.012,4.012,0,0,0-2.26,2.529c-.339.987,1.017,1.354,1.55.653a5.984,5.984,0,0,0,1.406-2.649A.555.555,0,0,0,642.062,652.214Z" transform="translate(-594.754 -481.182)" fill="#c47347"/><path d="M641.617,644.96a2.862,2.862,0,0,1,.037-1.917c.388-1.062-1.126-1.506-1.7-.717a3.562,3.562,0,0,0-.439,2.768c.152.869.59,2.169,1.461,2.541a.839.839,0,0,0,1.243-.712A6.613,6.613,0,0,0,641.617,644.96Z" transform="translate(-594.891 -485.517)" fill="#c47347"/><path d="M644.522,637.925c-.237-.859-.351-1.93-1.169-2.422a.611.611,0,0,0-.815.213c-.552.772-.154,1.894.038,2.745a11.925,11.925,0,0,0,1.162,2.976A.682.682,0,0,0,645,641.1,14.039,14.039,0,0,0,644.522,637.925Z" transform="translate(-593.695 -488.261)" fill="#c47347"/><path d="M653.049,647.738c-.272-.59-1.386-1.1-1.323-1.79.111-1.182-1.627-1.283-1.972-.267a2.8,2.8,0,0,0,2.555,3.345A.868.868,0,0,0,653.049,647.738Z" transform="translate(-590.572 -484.225)" fill="#c47347"/><path d="M631.063,681.074c.8-1.008-.583-2.456-1.441-1.442a3.671,3.671,0,0,0-.724,3.461,10.556,10.556,0,0,0,.636,1.759,6.575,6.575,0,0,0,.859,1.8.836.836,0,0,0,1.381-.364C632.381,684.7,629.963,682.465,631.063,681.074Z" transform="translate(-599.396 -469.746)" fill="#c47347"/><path d="M631.214,671.671a13.928,13.928,0,0,1-.462-1.672c-.037-.259-.387-.19-.459,0-.512,1.351-.786,2.391.2,3.58.284.341.812.044.826-.341A4.986,4.986,0,0,0,631.214,671.671Z" transform="translate(-598.941 -473.738)" fill="#c47347"/></g></g></svg>