<svg xmlns="http://www.w3.org/2000/svg" xmlns:xlink="http://www.w3.org/1999/xlink" width="294" height="200" viewBox="0 0 294 200"><defs><clipPath id="a"><rect width="294" height="200" transform="translate(563 267)" fill="#fff" stroke="#707070" stroke-width="1"/></clipPath></defs><g transform="translate(-563 -267)" clip-path="url(#a)"><g transform="translate(-162.655 -23.673)"><path d="M775.16,330.219s14.255,69.854,13.115,71.5-28.13.608-31.743-1.154,5.893,5.827,15.017,6.974,18.437,7.635,19.958,11.709,7.6,42.985,10.264,54.607-1.9,11.089,1.52,23.52,3.422,26.545,2.472,37.925-.57,32.289,0,32.289,8.174-4.373,9.313-3.422,3.77,7.793,7.207,7.6,9.472-8.744,10.067-8.744,1.447,1.9,3.017,3.041,5.293-1.329,5.293-1.329,1.775,7.99,4.539,7.036,6.753-4.185,6.753-4.185,1.12,4.727,3.888,4.265,5.807-7.307,6.567-6.926,5.158,6.652,6.57,5.892,2.693-120.288-6.279-163.07-32.052-99.8-33.088-100.185-1.783,11.215-2.741,11.4-3.081-2.66-4.585-3.041-3.467,3.8-3.467,3.8-6.686-7.888-7.636-7.033-.57,11.12-2.472,10.644-4.277-2.47-6.082-.664-.57,4.846-1.711,5.987-5.037-5.037-7.6-4.561-1.235,6.177-1.995,7.223-3.232-2-3.232-2-1.045,2.566-2.186,1.9-8.743-6.653-9.408-6.273S774.887,328.882,775.16,330.219Z" transform="translate(3.033 0)" fill="#cc510e"/><path d="M828.946,321.042s-12.659-.219-12.85,3.012,2.992,16.447,1.4,16.112-5.515-4-6.214-.835,3.293,23.54,4.434,25.9-5.8-3.7-5.467,2.557,6.177,26.349,7.247,31.227,11.535,1.711,13.241,3.008,6.358,9.039,4.032,9.255-14.1-2.64-15.434.119-2.479,4.593-11.412,6.147-15.4,5.313-14.636,8.85,6.723,25.186,10.87,28.618,11.939,2.063,14.22,8.069,14.749,2.015,14.749,2.015,7.3,22.844,7.68,27.768-.963,4.528-3.142,5.486-2.93,11.482-6.927,13.349-7.055-2.857-8.661,3.306-1.417,30.493,1.243,32.584,11.306-3.041,11.45-1.14,2.337,8.743,3.428,9.5,5.672-5.321,6.992-2.091,4.026,8.174,7.33,6.652,9.926-1.329,9.926-1.329l.485-45.809-26.3-175.742Z" transform="translate(10.565 2.709)" fill="#ab440c"/><g transform="translate(808.794 317.564)"><path d="M832.3,489.062s-8.667.693-9.054,2.265,3.107,1.069,3.107,1.069l4.3.246-.687,1.027s-7.683.692-7.919,1.894,7.529.966,7.529.966l-.476,1.365s-6.824.239-6.436,1.665,6.661.931,6.661.931l.547,2.521s-6.6-1.421-6.227.072,7.241,2.615,7.241,2.615-6.909-1.017-6.507.34,7.878,1.217,7.99,1.169S832.3,489.062,832.3,489.062Z" transform="translate(-792.438 -281.086)" fill="#302a27"/><path d="M806.5,409.729s-8.451,2.042-8.588,3.656,3.237.568,3.237.568l4.284-.43-.519,1.123s-7.478,1.887-7.524,3.111,7.588-.227,7.588-.227l-.257,1.424s-6.7,1.305-6.095,2.652,6.724-.124,6.724-.124l.934,2.4s-6.74-.369-6.138,1.047,7.561,1.448,7.561,1.448-6.984.078-6.374,1.355,7.971-.032,8.074-.1S806.5,409.729,806.5,409.729Z" transform="translate(-797.392 -297.03)" fill="#302a27"/><path d="M875.442,338.791a62.416,62.416,0,0,0,26.487,4c.432,0,.5,1.618-.645,2.125s-16.66,1.919-23.616-1.02S875.442,338.791,875.442,338.791Z" transform="translate(-782.021 -311.286)" fill="#c23f30"/><path d="M868.347,318.056s-10.636-3.991-16.675-1.14-13.261,10.074-12.406,20.718,36.52-5.929,36.52-5.929S873.67,320.432,868.347,318.056Z" transform="translate(-788.99 -315.889)" fill="#ffae3d"/><path d="M846.534,331.379s9.124-5.037,23.095,0c0,0,2.091-8.174-2.756-13.686,11.12,5.828,14.161,16.157,11.69,22.524S846.534,331.379,846.534,331.379Z" transform="translate(-787.516 -315.526)" fill="#e65f37"/><path d="M907.705,491.009s2.915,6.209,10.518,0,3.041-18.754-2.915-21.035S907.705,491.009,907.705,491.009Z" transform="translate(-775.222 -284.954)" fill="#964c36"/><path d="M842.145,396.677s-16.536-5.721-9.82-36.948c-3.928-2.588-9.124-11.458-4.942-18.681s13.378-2.534,13.378-2.534,3.793-3.549,7.277-4.816c0,0-4.536-2.408-3.614-4.182s6.4-.285,6.4-.285-5.607-3.2-3.422-4.372,6.906,1.488,6.906,1.488-1.362-3.706,1.362-3.8,5.671,6.652,5.671,6.652,12.133-.348,17.772,4.689c0,0,4.625-6.462,11.5-4.372s7.382,12.894,3.644,16.917c0,0,10.866,19.325,3.739,37,0,0,32.407,47.138,38.68,77.55s-2.091,57.973-11.784,66.716-50.371,23.38-69.758,24.331-26.041-15.776-23.76-26.231,21.669-11.215,23.19-12.735c0,0-7.983-41.246-8.057-58.437-19.578,2.091-40.285,1.858-43.707-15.25s12.673-21.288,19.515-23.316,20.4-3.675,20.4-3.675S841.448,401.619,842.145,396.677Z" transform="translate(-796.4 -314.551)" fill="#964c36"/><path d="M828.349,357.8c-6.716,31.226,9.822,36.948,9.822,36.948-.7,4.942.569,15.712.569,15.712s6.937-.438,7.572-.823c25.375-.665,25.279-22.429,23.664-24.9s-4.984.665-4.984.665,2.038-4.277-.472-5.037-2.622,2.186-2.622,2.186-.381-5.416-3.516-4.561,2.947,5.416-6.938,6.462c-13.59,1.52-20.528-12.64-18.153-27.751a54.708,54.708,0,0,1,10.772-24.932c-3.485,1.267-7.278,4.816-7.278,4.816s-9.2-4.689-13.378,2.534S824.422,355.208,828.349,357.8Z" transform="translate(-792.474 -312.698)" fill="#7d3f2c"/><path d="M834.857,399.825l8.976-1s-6.545-12.794-7.787-12.859S833.862,397.6,834.857,399.825Z" transform="translate(-789.946 -301.806)" fill="#b0673f"/><path d="M841.443,385.653s21.734.985,33.2-10.772C872.489,387.363,849.427,392.875,841.443,385.653Z" transform="translate(-788.539 -304.033)" fill="#693324"/><path d="M840.576,384.937s3.5-6.834,5.868-6.5,1.943,3.71,1.943,3.71,1.731,2.026,1.868,3.408-.585,1.774-.585,1.774,2.221,2.515.411,3.471-7.951-1.749-7.951-1.749-.36,1.648-1.74,1.911a1.934,1.934,0,0,1-2.03-.824s-3.519,4.685-4.721,4.01-.251-2.171-.251-2.171-1.526-.817-1.686-2.042a2.334,2.334,0,0,1,.539-1.908s-2.131-3.221-1.314-5.123,6.578,3.111,6.578,3.111A2.461,2.461,0,0,1,840.576,384.937Z" transform="translate(-790.69 -303.321)" fill="#ffae3d"/><path d="M848.577,365.363a6.55,6.55,0,0,0,5.284,1.765c3.064-.495,2.957-1.809,3.414-1.227s-.509,2.912-4.615,2.775-4.447-1.692-4.639-2.409S848.222,365.048,848.577,365.363Z" transform="translate(-787.227 -305.965)" fill="#7d1f1f"/><path d="M846.391,359.393s7.722-5.82,4.7-8.7-11.99-1.251-12.459,1.707S844.946,360.6,846.391,359.393Z" transform="translate(-789.109 -309.198)" fill="#332828"/><path d="M846.144,350.06s-5.607-.062-4.847,2.123,5.893.981,6.716,1.3.348,1.711.793,1.615,2.253-2.762,1.615-3.96S846.144,350.06,846.144,350.06Z" transform="translate(-788.582 -309.022)" fill="#6e5656"/><g transform="translate(68.904 34.245)"><path d="M857.578,345.439s1.235,4.955-.752,5.08-2.307-3.6-1.914-5.08A1.376,1.376,0,0,1,857.578,345.439Z" transform="translate(-854.765 -344.404)"/><path d="M858.126,345.478a.93.93,0,1,1-.93-.931A.93.93,0,0,1,858.126,345.478Z" transform="translate(-854.464 -344.375)" fill="#fff"/></g><g transform="translate(44.36 35.124)"><path d="M837.14,346.17s1.235,4.956-.751,5.081-2.308-3.6-1.914-5.081A1.375,1.375,0,0,1,837.14,346.17Z" transform="translate(-834.329 -345.135)"/><path d="M837.69,346.21a.93.93,0,1,1-.931-.931A.931.931,0,0,1,837.69,346.21Z" transform="translate(-834.027 -345.107)" fill="#fff"/></g><path d="M839.118,432.8l11.669-1.627s12.356,57.213-3.611,60.064C843.374,486.865,838.663,444.691,839.118,432.8Z" transform="translate(-789.012 -292.72)" fill="#c47347"/><path d="M849.132,490.442c-2.515-13.647-.717-48.275-.071-59.089l-9.943,1.386c-.455,11.892,4.256,54.065,8.057,58.437A6.279,6.279,0,0,0,849.132,490.442Z" transform="translate(-789.012 -292.684)" fill="#b0673f"/><path d="M870.467,335.859s5.354,5.639,6.178,5.385,4.023-4.277,1.648-7.888S869.828,335.2,870.467,335.859Z" transform="translate(-782.715 -312.625)" fill="#c47347"/><path d="M833.135,339.068s-3.548,10.576-4.435,10.483-3.358-3.894-1.9-7.886S833.485,338.046,833.135,339.068Z" transform="translate(-791.572 -311.367)" fill="#b56a41"/><path d="M859.743,357.606a13.578,13.578,0,0,0-.962-2.915.737.737,0,0,0-1.261,0c-.5.988,0,2.127.315,3.106a9.391,9.391,0,0,0,1.517,3.159.455.455,0,0,0,.754-.2A5.373,5.373,0,0,0,859.743,357.606Z" transform="translate(-785.351 -308.162)" fill="#ad583e"/><path d="M862.756,355.833c-.794-.294-1.277.938-.567,1.346,1.589.914,1.525,3.014,1.809,4.595.119.663.982.494,1.18,0C866.016,359.689,864.9,356.626,862.756,355.833Z" transform="translate(-784.439 -307.87)" fill="#ad583e"/><path d="M868.7,364.84a17.828,17.828,0,0,1-2.265,3.831c-.633.782.441,1.906,1.127,1.125a8.221,8.221,0,0,0,2.389-4.618A.676.676,0,0,0,868.7,364.84Z" transform="translate(-783.555 -306.116)" fill="#ad583e"/><path d="M870.263,352.425a.743.743,0,0,0-1.05,1.05,10.076,10.076,0,0,1,1.711,2.243c.418.861.5,1.816.838,2.695a.534.534,0,0,0,1.02,0C873.495,356.146,871.912,353.823,870.263,352.425Z" transform="translate(-783 -308.586)" fill="#ad583e"/><path d="M876.249,363.767c-.325.585-.6,1.2-.946,1.774a15.009,15.009,0,0,1-1.267,1.582c-.526.657.13,1.735.957,1.241a5.417,5.417,0,0,0,2.606-4.231A.73.73,0,0,0,876.249,363.767Z" transform="translate(-782.026 -306.337)" fill="#ad583e"/><path d="M875.274,346.34c-.536-.444-1.549.157-1.054.813.53.7,1.126,1.345,1.616,2.076a11.667,11.667,0,0,1,1.242,2.541c.161.429.932.57,1.02,0C878.414,349.69,876.778,347.59,875.274,346.34Z" transform="translate(-781.978 -309.8)" fill="#ad583e"/><g transform="translate(73.886 60.154)"><path d="M861.722,366.31c-.193-.455-.788-.384-1.092-.142-.358.287-.412.73-.681,1.09-.095.128-.216.231-.316.355a.25.25,0,0,1-.142.1.556.556,0,0,1,.109,0c-.852-.079-.909,1.158-.191,1.412a1.714,1.714,0,0,0,1.6-.591A2.067,2.067,0,0,0,861.722,366.31Z" transform="translate(-858.913 -365.977)" fill="#ad583e"/><path d="M859.4,367.423c-.027,0-.022,0,0,0Z" transform="translate(-858.82 -365.686)" fill="#ad583e"/></g><path d="M853.9,357.6a8.292,8.292,0,0,0-1.215,2.067.672.672,0,0,0,1.159.677,5.262,5.262,0,0,0,.969-2.366A.54.54,0,0,0,853.9,357.6Z" transform="translate(-786.297 -307.535)" fill="#ad583e"/><path d="M843.818,344.192a2.83,2.83,0,0,0-1.1,2.958c.116.755,1.278.542,1.295-.175.018-.8.612-1.5.683-2.281C844.735,344.224,844.176,344.008,843.818,344.192Z" transform="translate(-788.292 -310.214)" fill="#ad583e"/><path d="M849.2,341.589c-.076-.438-.625-.471-.9-.239a4.169,4.169,0,0,0-1.006,1.522c-.265.578-.615,1.112-.836,1.708a.737.737,0,0,0,1.074.825A4.246,4.246,0,0,0,849.2,341.589Z" transform="translate(-787.539 -310.801)" fill="#ad583e"/><path d="M844.779,336.3c-1.416.549-1.308,2.6-1.031,3.826.146.653,1.27.707,1.375,0,.085-.57.043-1.137.1-1.709.05-.527.3-1,.337-1.522A.621.621,0,0,0,844.779,336.3Z" transform="translate(-788.11 -311.793)" fill="#ad583e"/><path d="M864.549,340.646c-.217-.821-1.375-1.451-2.09-1.788a3.7,3.7,0,0,0-2.407-.472c-.779.139-.5,1.213.174,1.283-.293-.03.078.058.145.09.168.081.341.138.513.208a10.763,10.763,0,0,1,1.018.5,4.838,4.838,0,0,0,2.126.867A.548.548,0,0,0,864.549,340.646Z" transform="translate(-784.893 -311.378)" fill="#ad583e"/><path d="M864.968,333.889a8.782,8.782,0,0,0-3.446-.337c-1.093.061-1.1,1.759,0,1.71a8.863,8.863,0,0,1,2.443.146,4.748,4.748,0,0,1,1.023.383,4.553,4.553,0,0,1,.963.776.555.555,0,0,0,.933-.387C866.973,335.08,865.894,334.223,864.968,333.889Z" transform="translate(-784.669 -312.345)" fill="#ad583e"/><path d="M865.947,344.446c-.94-.432-1.766.891-.828,1.415a4,4,0,0,1,1.05.894c.291.334.444.748.752,1.066a.55.55,0,0,0,.914-.241A3.2,3.2,0,0,0,865.947,344.446Z" transform="translate(-783.864 -310.167)" fill="#ad583e"/><path d="M837.84,365.426c-.322-.861-1.992-1.906-1.058-2.9.524-.555-.191-1.615-.856-1.11a2.23,2.23,0,0,0-.8,2.688c.307.866,1.147,2.042,2.169,2.034A.567.567,0,0,0,837.84,365.426Z" transform="translate(-789.841 -306.766)" fill="#ad583e"/><path d="M844.051,365.223a4.073,4.073,0,0,1-.994-1.923c-.155-.844-1.617-.662-1.517.205a4.845,4.845,0,0,0,1,2.449,4.437,4.437,0,0,0,1.9,1.661.589.589,0,0,0,.717-.716A4.21,4.21,0,0,0,844.051,365.223Z" transform="translate(-788.52 -306.471)" fill="#ad583e"/><path d="M881.015,376.286c-.5-.644-1.641.225-1.137.878,1.1,1.435,1.8,3.228,3.106,4.5.292.285.88,0,.725-.423A18.483,18.483,0,0,0,881.015,376.286Z" transform="translate(-780.84 -303.796)" fill="#ad583e"/><path d="M876.922,385.3c-.139-.5-.271-1.015-.371-1.526-.165-.841-1.352-.569-1.412.192-.086,1.115.161,2.683,1.141,3.367a.678.678,0,0,0,1.01-.58A4.508,4.508,0,0,0,876.922,385.3Z" transform="translate(-781.77 -302.349)" fill="#ad583e"/><path d="M887.639,394.612a7.012,7.012,0,0,1-.375-1.974.838.838,0,0,0-1.675,0,7.808,7.808,0,0,0,.393,2.294A4.456,4.456,0,0,0,887,396.876a.627.627,0,0,0,1.054-.437A4.983,4.983,0,0,0,887.639,394.612Z" transform="translate(-779.667 -300.627)" fill="#ad583e"/><path d="M868.622,400.44c-.223-1.012-1.745-.579-1.547.426a7.663,7.663,0,0,0,.788,2.61.578.578,0,0,0,1.042-.137A7.462,7.462,0,0,0,868.622,400.44Z" transform="translate(-783.391 -299.013)" fill="#ad583e"/><path d="M876.568,405.938c-.6.884-1.327,2.53-.616,3.526a.656.656,0,0,0,1.118,0,4.19,4.19,0,0,0,.316-1.328,3.934,3.934,0,0,1,.587-1.376C878.551,405.878,877.153,405.078,876.568,405.938Z" transform="translate(-781.663 -297.866)" fill="#ad583e"/><path d="M885.839,412.674a6.234,6.234,0,0,0-.961,4.623.475.475,0,0,0,.857.113c.741-1.2.924-2.619,1.621-3.848A.88.88,0,0,0,885.839,412.674Z" transform="translate(-779.838 -296.524)" fill="#ad583e"/><path d="M879.013,395.208c-.749-.809-1.956.4-1.209,1.211.38.411.7.863,1.057,1.286.348.406.584.884.939,1.279a.546.546,0,0,0,.922-.383A5.2,5.2,0,0,0,879.013,395.208Z" transform="translate(-781.279 -300.002)" fill="#ad583e"/><path d="M896.323,411.237c-.7-.6-1.892.168-1.344,1.036.566.9,1.23,1.716,1.755,2.645s.844,1.971,1.405,2.862a.725.725,0,0,0,1.339-.363C899.6,415.252,897.907,412.6,896.323,411.237Z" transform="translate(-777.808 -296.77)" fill="#ad583e"/><path d="M895.711,427.651c-.358-1.05-2.025-.605-1.672.461.6,1.821,1.155,3.7,1.835,5.488a.546.546,0,0,0,1.042,0C897.5,431.584,896.35,429.52,895.711,427.651Z" transform="translate(-777.978 -293.548)" fill="#ad583e"/><path d="M887.511,434.323a16.96,16.96,0,0,1,0-1.8c.044-1.107-1.685-1.107-1.722,0-.039,1.149-.209,2.882.615,3.8a.713.713,0,0,0,1.182-.312A5.268,5.268,0,0,0,887.511,434.323Z" transform="translate(-779.635 -292.616)" fill="#ad583e"/><path d="M899.65,450.914a22.224,22.224,0,0,1-.1-2.349.88.88,0,0,0-1.758,0,21.542,21.542,0,0,0,.111,2.5,2.731,2.731,0,0,0,.656,1.917.527.527,0,0,0,.812-.1A2.645,2.645,0,0,0,899.65,450.914Z" transform="translate(-777.214 -289.395)" fill="#ad583e"/><path d="M908.871,440.914a.547.547,0,0,0-1.093,0,14.467,14.467,0,0,0,1.247,5.505.364.364,0,0,0,.626,0C910.617,444.529,908.884,442.821,908.871,440.914Z" transform="translate(-775.207 -290.868)" fill="#ad583e"/><path d="M909.963,430.742a5.352,5.352,0,0,0-1.089-1.922.744.744,0,0,0-1.231.717,8.929,8.929,0,0,0,.783,1.853c.136.33.246.668.371,1a9.6,9.6,0,0,0,.565,1.05c.285.558,1.075.25,1.107-.3A4.84,4.84,0,0,0,909.963,430.742Z" transform="translate(-775.237 -293.234)" fill="#ad583e"/><path d="M910.13,460.6a12.381,12.381,0,0,0-.868,5.98.551.551,0,0,0,1.018.276c.939-1.78.711-3.76,1.315-5.639C911.869,460.369,910.524,459.775,910.13,460.6Z" transform="translate(-774.917 -286.885)" fill="#ad583e"/><path d="M915.351,482.388a6.647,6.647,0,0,0-1.465,1.237,4.587,4.587,0,0,1-1.547,1.059c-1.265.472-.739,2.507.566,2.05a5.45,5.45,0,0,0,2.312-1.465,3.708,3.708,0,0,0,1.064-2.348A.626.626,0,0,0,915.351,482.388Z" transform="translate(-774.436 -282.442)" fill="#ad583e"/><path d="M915.174,476.392c-.394-1.092-2.151-.621-1.752.484a6.54,6.54,0,0,0,1.835,3.075.615.615,0,0,0,.9-.366C916.349,478.432,915.549,477.429,915.174,476.392Z" transform="translate(-774.085 -283.757)" fill="#ad583e"/><path d="M898.33,492.773a11.961,11.961,0,0,0-2.749,1.972,27.118,27.118,0,0,1-3.017,1.89.776.776,0,0,0,.6,1.411,13.12,13.12,0,0,0,3.348-1.715,7.993,7.993,0,0,0,2.673-2.45C899.451,493.347,898.993,492.53,898.33,492.773Z" transform="translate(-778.338 -280.349)" fill="#ad583e"/><path d="M899.809,483.543a11.894,11.894,0,0,0-1.315,2.246,13.06,13.06,0,0,0-.927,2.5c-.3,1.173,1.534,1.674,1.81.5.374-1.589,1.46-3.166,1.487-4.812C900.871,483.481,900.156,483.117,899.809,483.543Z" transform="translate(-777.266 -282.233)" fill="#ad583e"/><path d="M874.342,494.037c-.79.253-1.271,1.018-2.087,1.3-1.188.414-.663,2.325.521,1.89,1.035-.381,2.479-1.229,2.521-2.466A.761.761,0,0,0,874.342,494.037Z" transform="translate(-782.481 -280.092)" fill="#ad583e"/><path d="M883.882,480.994a3.623,3.623,0,0,0-.568.5,5.612,5.612,0,0,0-.335.629c-.247.456-.5.915-.741,1.374-.586,1.1,1.114,2.076,1.662.972.252-.51.51-1.018.751-1.535a3.169,3.169,0,0,0,.327-1.486A.649.649,0,0,0,883.882,480.994Z" transform="translate(-780.365 -282.742)" fill="#ad583e"/><path d="M895.167,481.437a5.686,5.686,0,0,0-1.682,1.943c-.522.759-1,1.546-1.5,2.323-.538.848.778,1.912,1.418,1.094.555-.71,1.076-1.435,1.575-2.186a7.281,7.281,0,0,0,1.319-2.3A.782.782,0,0,0,895.167,481.437Z" transform="translate(-778.406 -282.638)" fill="#ad583e"/><path d="M879.3,471.594c-1.087,1-1.583,2.442-2.55,3.533-.728.819.519,2.027,1.193,1.193a14.556,14.556,0,0,0,2.13-4.274C880.247,471.584,879.616,471.3,879.3,471.594Z" transform="translate(-781.487 -284.62)" fill="#ad583e"/><path d="M892.02,464.337a7.93,7.93,0,0,0-.154-2.906c-.216-.532-1.125-.876-1.423-.186a9.489,9.489,0,0,0-.44,3.495,7.842,7.842,0,0,0,.57,3.444c.468,1,1.862.25,1.683-.708A16.051,16.051,0,0,1,892.02,464.337Z" transform="translate(-778.78 -286.754)" fill="#ad583e"/><path d="M878.191,447.713c-.123-1.048-1.767-1.087-1.675,0a8.574,8.574,0,0,0,2.254,5.173.51.51,0,0,0,.862-.357C879.567,450.815,878.385,449.4,878.191,447.713Z" transform="translate(-781.491 -289.557)" fill="#ad583e"/><path d="M885.549,443.458a.645.645,0,0,0-.554.964,4.272,4.272,0,0,1,.727,1.261,6.187,6.187,0,0,0,.287,1.528.646.646,0,0,0,1.008.13C887.995,446.116,887.232,443.576,885.549,443.458Z" transform="translate(-779.803 -290.251)" fill="#ad583e"/><path d="M872.2,426.387c-.659-.867-2.151-.03-1.488.87a6.745,6.745,0,0,1,.843,1.452,4,4,0,0,0,.656,1.414.731.731,0,0,0,1.211-.321C873.792,428.712,872.834,427.22,872.2,426.387Z" transform="translate(-782.69 -293.755)" fill="#ad583e"/><path d="M851.615,420.584a13.066,13.066,0,0,0-2.06,1.211,5.248,5.248,0,0,1-2.619.874.689.689,0,0,0,0,1.378,5.951,5.951,0,0,0,2.916-.822,7.329,7.329,0,0,0,2.34-1.89A.515.515,0,0,0,851.615,420.584Z" transform="translate(-787.569 -294.853)" fill="#ad583e"/><path d="M854.741,408.634c-.808.425-1.375,1.309-2.141,1.833-1.062.727-.023,2.476,1.008,1.723.853-.623,2.091-1.573,2.267-2.683A.784.784,0,0,0,854.741,408.634Z" transform="translate(-786.386 -297.27)" fill="#ad583e"/><path d="M864.874,413.123a.6.6,0,0,0-.872-.355,3.634,3.634,0,0,0-1.17,1.651c-.275.562-.555,1.118-.784,1.7-.27.688.812,1.332,1.271.74a9.712,9.712,0,0,0,1.014-1.7A3.347,3.347,0,0,0,864.874,413.123Z" transform="translate(-784.406 -296.434)" fill="#ad583e"/><path d="M840.209,406.414a8.3,8.3,0,0,0-5.911.849c-.973.515-.109,2,.863,1.476,1.61-.862,3.359-.659,5.048-1.179A.6.6,0,0,0,840.209,406.414Z" transform="translate(-790.061 -297.744)" fill="#ad583e"/><path d="M856.22,396.276a5.851,5.851,0,0,0-2.894,1.445c-.783.715.213,1.731,1.051,1.362-.273.12.324-.107.414-.15.253-.12.5-.265.746-.4a3.19,3.19,0,0,0,1.365-1.069A.8.8,0,0,0,856.22,396.276Z" transform="translate(-786.208 -299.734)" fill="#ad583e"/><path d="M830.6,419.035a4.328,4.328,0,0,0-2.062.549,5.671,5.671,0,0,1-2.5.635c-.867-.043-.817,1.215,0,1.319a5.426,5.426,0,0,0,2.657-.408,8.864,8.864,0,0,0,2.313-1.111C831.451,419.666,831.027,419.092,830.6,419.035Z" transform="translate(-791.761 -295.162)" fill="#ad583e"/><path d="M824.744,407.484c-1.558.279-2.816,1.295-4.378,1.522-.872.127-.676,1.657.209,1.552a9.491,9.491,0,0,0,4.576-2.107A.532.532,0,0,0,824.744,407.484Z" transform="translate(-792.888 -297.483)" fill="#ad583e"/><path d="M811.368,414.908a2.321,2.321,0,0,0-2.156.8,2.979,2.979,0,0,0-.951,2.206c.006.754,1.233.981,1.366.184a2.223,2.223,0,0,1,.85-1.427c.411-.34.919-.561,1.187-1.044A.5.5,0,0,0,811.368,414.908Z" transform="translate(-795.207 -296.002)" fill="#ad583e"/><path d="M819.927,405.137c-.967-.79-2.584,0-3.569.4a5.621,5.621,0,0,0-2.846,1.946.567.567,0,0,0,.886.685,7.131,7.131,0,0,1,2.756-1.376c.844-.281,2.116-.307,2.773-.951A.5.5,0,0,0,819.927,405.137Z" transform="translate(-794.167 -298.021)" fill="#ad583e"/><path d="M820.241,416.927a3.087,3.087,0,0,0-2.11-.089c-.871.159-1.756.267-2.617.47a.776.776,0,0,0,.205,1.517,24.464,24.464,0,0,0,2.709-.316,2.612,2.612,0,0,0,1.964-1A.43.43,0,0,0,820.241,416.927Z" transform="translate(-793.86 -295.63)" fill="#ad583e"/><path d="M827.252,426a6.457,6.457,0,0,0-2.875.247c-.819.177-2.162.578-2.969.162-.759-.389-1.691.637-.964,1.25a3.948,3.948,0,0,0,3.313.592,8.138,8.138,0,0,0,3.764-1.229A.617.617,0,0,0,827.252,426Z" transform="translate(-792.812 -293.778)" fill="#ad583e"/><path d="M843.073,417.507c-1.852-.8-4.689.371-6.333,1.277-.562.31-.067,1.122.5.852a11.863,11.863,0,0,1,2.905-.907c.921-.175,1.912-.061,2.809-.3C843.337,418.327,843.486,417.686,843.073,417.507Z" transform="translate(-789.534 -295.521)" fill="#ad583e"/><path d="M847.925,401.895c-.561-1.787-3.376-1.343-4.767-1.124a.789.789,0,0,0,0,1.512c.747.1,1.5.034,2.258.064.675.025,1.334.178,2.006.21A.526.526,0,0,0,847.925,401.895Z" transform="translate(-788.307 -298.873)" fill="#ad583e"/><path d="M842.991,426.5c-1.441-.171-2.876.644-4.308.707-.572.025-.765.938-.143,1.05a7.192,7.192,0,0,0,4.693-.86C843.691,427.146,843.428,426.554,842.991,426.5Z" transform="translate(-789.199 -293.664)" fill="#ad583e"/><path d="M847.714,490.833a9.531,9.531,0,0,0-2.058,1.865c-.669.715-1.351,1.417-2.03,2.122-.754.782.426,1.966,1.192,1.193.724-.73,1.466-1.448,2.165-2.2a7.5,7.5,0,0,0,1.63-2.284C848.8,491,848.152,490.594,847.714,490.833Z" transform="translate(-788.149 -280.744)" fill="#ad583e"/><path d="M855.581,503.331c-1.524.011-3.06,1.351-4.576.86-1.1-.358-1.567,1.365-.478,1.729,1.821.609,4.159-.418,5.378-1.809A.463.463,0,0,0,855.581,503.331Z" transform="translate(-786.838 -278.218)" fill="#ad583e"/><path d="M869.754,501.312a11.879,11.879,0,0,0-3.41,1.836c-.98.651-.077,2.233.93,1.59a6.5,6.5,0,0,0,2.926-2.98C870.3,501.491,870,501.246,869.754,501.312Z" transform="translate(-783.619 -278.626)" fill="#ad583e"/><path d="M864.782,489.66c-1.535.633-2.816,1.727-4.351,2.378-.98.416-.264,2.151.733,1.737a10.014,10.014,0,0,0,4.4-3.1C865.9,490.209,865.328,489.435,864.782,489.66Z" transform="translate(-784.817 -280.974)" fill="#ad583e"/><path d="M868.359,474.733a.71.71,0,0,0-.868-.494,3.094,3.094,0,0,0-1.331,1.379,5.031,5.031,0,0,0-.759,1.628.788.788,0,0,0,1.434.6C867.382,476.966,868.594,475.853,868.359,474.733Z" transform="translate(-783.728 -284.071)" fill="#ad583e"/><path d="M871.789,457.173a4.444,4.444,0,0,1-.255-1.31,2.533,2.533,0,0,0-.21-1.379.806.806,0,0,0-1.25-.161c-.866.85-.428,2.589.011,3.568C870.514,458.85,872.139,458.169,871.789,457.173Z" transform="translate(-782.885 -288.113)" fill="#ad583e"/><path d="M863.514,458.245c-.521-1.253.28-2.676-.044-3.973a.59.59,0,0,0-.973-.257,4.157,4.157,0,0,0-1.089,2.893c-.107.948.024,2.04,1.01,2.433A.9.9,0,0,0,863.514,458.245Z" transform="translate(-784.533 -288.161)" fill="#ad583e"/><path d="M866.577,434c-.138-1.032-1.761-1.085-1.663,0a6.971,6.971,0,0,0,1.131,3.037c.294.488.627.955.895,1.457a17.983,17.983,0,0,0,.715,1.7.736.736,0,0,0,1.325-.173C869.714,437.851,866.846,436.005,866.577,434Z" transform="translate(-783.823 -292.312)" fill="#ad583e"/><path d="M835.4,377.763c-.4-.588-1.269-.87-1.846-1.272a2.448,2.448,0,0,1-1.3-2.051c.026-.692-1.027-.683-1.069,0a3.189,3.189,0,0,0,1.206,2.576,4.7,4.7,0,0,0,2.623,1.417A.449.449,0,0,0,835.4,377.763Z" transform="translate(-790.601 -304.225)" fill="#693324"/><path d="M842.341,377.28a18,18,0,0,0-2.108-.2.727.727,0,0,0-1.119-.168c-.115.1-.281.115-.4.243a.761.761,0,0,0-.117.9c.335.55,1.036.591,1.621.669a4.213,4.213,0,0,0,2.12-.138C842.919,378.378,843.048,377.429,842.341,377.28Z" transform="translate(-789.13 -303.664)" fill="#693324"/><path d="M849.64,378.752a4.822,4.822,0,0,1-2.457.924.909.909,0,0,0,0,1.817,3.523,3.523,0,0,0,3.352-1.846C850.781,379.072,850.26,378.414,849.64,378.752Z" transform="translate(-787.562 -303.274)" fill="#693324"/><path d="M829.424,365.027a2.985,2.985,0,0,0-1.155,2.487,3.957,3.957,0,0,0,.914,2.505.48.48,0,0,0,.794-.21c.344-1.044-.275-2.781.65-3.58C831.454,365.512,830.248,364.314,829.424,365.027Z" transform="translate(-791.187 -306.058)" fill="#693324"/><path d="M828.46,352.8a2.851,2.851,0,0,0-.177,2.689.621.621,0,0,0,1.118-.145c.244-.628.135-1.349.339-2C829.972,352.6,828.787,352.069,828.46,352.8Z" transform="translate(-791.239 -308.541)" fill="#693324"/><path d="M852.093,391.6c-1.152-.179-2.283.76-3.455.826-.99.055-.993,1.606,0,1.544a6.412,6.412,0,0,0,1.995-.458,4.611,4.611,0,0,0,1.728-.9C852.634,392.308,852.574,391.672,852.093,391.6Z" transform="translate(-787.242 -300.678)" fill="#693324"/><path d="M850.848,387.536a12.745,12.745,0,0,0-2,.588c-1.06.217-.614,1.857.449,1.626a2.771,2.771,0,0,0,2.168-1.4A.644.644,0,0,0,850.848,387.536Z" transform="translate(-787.172 -301.49)" fill="#693324"/><path d="M849.079,458.659a.666.666,0,0,0-1.331,0,8.388,8.388,0,0,0,.5,2.585,16,16,0,0,0,.866,2.414.366.366,0,0,0,.663-.086C850.128,461.978,849.058,460.286,849.079,458.659Z" transform="translate(-787.272 -287.325)" fill="#db9150"/><path d="M849.779,450.467c.1-1.154-1.683-1.137-1.794,0-.139,1.4-.044,3.3,1.363,4.05.348.185.932-.036.877-.5A16.335,16.335,0,0,1,849.779,450.467Z" transform="translate(-787.233 -289.015)" fill="#db9150"/></g><path d="M805.464,449.972s3.168,10.36,4.308,11.852,3.422,3.981,4.056,3.625-1.015-13.155-2.408-14.233S805.464,449.972,805.464,449.972Z" transform="translate(13.025 28.622)" fill="#ab440c"/><path d="M819.8,445.438s2.041,6.73,3.561,8.5.9,1.889,2.032,1.829,2.406-8.932,1.137-11.212-1.855.848-2.512,1.374S819.8,445.438,819.8,445.438Z" transform="translate(15.906 27.367)" fill="#ab440c"/><path d="M801.772,489.941c-.127,2.984,1.774,11.475,2.534,12.615s1.394-12.353,1.141-14.033S801.772,489.941,801.772,489.941Z" transform="translate(12.282 36.269)" fill="#ab440c"/><path d="M787.843,358.943s2.281,9.3,3.041,11.025,6.21,5.527,6.59,4.007-3.422-16.219-4.815-17.613S787.843,358.943,787.843,358.943Z" transform="translate(9.483 9.749)" fill="#ab440c"/><path d="M795.889,331.409c-.28.38,1.494,9.239,2.635,9.942s5.575,5.645,5.7,4.757-1.014-13.306-2.408-14.7S795.889,331.409,795.889,331.409Z" transform="translate(11.095 4.669)" fill="#ab440c"/><path d="M814.327,367.342c0,.426,1.947,8.535,3.508,9.423s3.968,3.781,3.968,2.207-1.9-13.136-2.787-13.438S814.327,367.342,814.327,367.342Z" transform="translate(14.806 11.646)" fill="#803309"/><path d="M816.2,330.482s2.669,7.648,4.328,8.2,2.648.925,2.47.3-4.486-10.135-5.31-10.515S816.2,330.482,816.2,330.482Z" transform="translate(15.182 4.193)" fill="#803309"/><path d="M831.181,434.726a76.812,76.812,0,0,1,2.145,7.6c.042,1.141,2.324,2.367,2.957,2.324s1.267-9.673,0-9.926A33.1,33.1,0,0,0,831.181,434.726Z" transform="translate(18.193 25.535)" fill="#803309"/><path d="M832.264,471.843s3.617,10.2,4.532,10.71,1.423-1.9,1.549-2.535.07-9.184-1.549-10.167S832.264,471.843,832.264,471.843Z" transform="translate(18.411 32.576)" fill="#803309"/><path d="M774.264,392.159s-25.851-13.483-29.652-13.711-4.435,13.7-3.675,14.845,6.462-4.268,6.462-4.268-.126,9.375,1.141,9.8,2.534,2.329,3.548.682,1.9-8.617,2.534-6.843,3.879,10.644,4.157,10.9,3.321.888,3.828,0,.38-4.737.38-4.737,3.8,7.158,4.689,7.342,2.408.5,2.789-.167.633-5.8.633-5.8l3.168,2.6s1.648-3.136,1.267-3.976-1.52-3.753-1.52-3.753S776.419,395.327,774.264,392.159Z" transform="translate(0 14.247)" fill="#6e6b08"/><path d="M789.848,385.314s3.426,8.288,4.057,9.091,6.207,1.2,6.207,1.2-2.027-10.025-3.928-11.671S789.848,385.314,789.848,385.314Z" transform="translate(9.886 15.251)" fill="#e6730f"/><path d="M779.719,331.778s2.787,7.763,4.182,9.561,5.7,4.542,6.082,3.93-2.027-12.937-3.168-13.49-2.66,2.11-2.66,2.11Z" transform="translate(7.851 4.853)" fill="#e6730f"/><path d="M803.3,364.924s2.72,7.689,3.861,8.1,3.307,2.056,2.984,1.422-3.112-10.5-3.491-11.651S803.3,364.924,803.3,364.924Z" transform="translate(12.591 11.052)" fill="#e6730f"/><path d="M818.336,457.324s.356,9.758,1.762,11.532,3.065,4.561,3.629,4.435-1.335-17.092-1.842-17.417S818.336,457.324,818.336,457.324Z" transform="translate(15.612 29.8)" fill="#e6730f"/><path d="M808.37,507.028s-.761,7.223,0,9.377a28.422,28.422,0,0,0,3.041,5.323s1.521-12.673,1.014-14.7S808.37,507.028,808.37,507.028Z" transform="translate(13.541 39.907)" fill="#e6730f"/></g></g></svg>