<svg xmlns="http://www.w3.org/2000/svg" xmlns:xlink="http://www.w3.org/1999/xlink" width="268" height="199" viewBox="0 0 268 199"><defs><clipPath id="a"><rect width="268" height="199" transform="translate(563 879)" fill="#fff" stroke="#707070" stroke-width="1"/></clipPath></defs><g transform="translate(-563 -879)" clip-path="url(#a)"><g transform="translate(178.605 369.204)"><g transform="translate(418.856 521.062)"><path d="M473.561,635.469s5.625-15.99,2.536-27.127-8.778-24.532-.8-50.917c-2.614-2.456-10.222-6.316-6.473-17.674s14.777-5.182,18.2-1.543c0,0,2.94-3.64,5.514-4.375-2.353-1.69-5.735-3.9-3.9-5.44s6.985.809,6.985.809-3.529-5.146-1.029-6.176,8.295,3.087,8.295,3.087-1.311-5.66,2.07-5,6.653,8.969,6.653,8.969,8.491-1.251,15.181,3.675c0,0,5.514-11.909,11.469-11.542s12.5,8.382,13.6,13.822-6.69,13.324-6.69,13.324,17.79,21.742,13.968,46.3c-.441,8.968-3.087,29.938,4.264,30.187s8.233-17.911,6.248-23.645-7.645-8.087-8.159-11.248a3.163,3.163,0,0,1,2.5-3.75s-3.677-3.016-3.308-5.4,4.484-2.535,4.484-2.535-4.779-3.822-4.117-6.176,3.75-2.573,3.75-2.573-5.735-3.161-2.28-6.616,30.73,1.765,41.9,28.083,1.323,72.586-27.494,85.033c-3.824,4.235,1.469,35.974,2.352,45.972s-2.646,49.151-6.176,65.237c-2.059,29.256-4.117,40.479-9.7,44.3s-24.555,4.852-26.1,3.97a2.074,2.074,0,0,1-1.03-2.427s-3.675,1.913-4.631.883.735-3.6.735-3.6-5.367,1.764-5.588-.809,4.852-5.44,5.367-6.764,2.72-26.1-.955-33.892c0,0-13.82,4.265-27.2.442-2.646,7.057-8.821,20.584-5.182,34.589,2.646,3.308,4.577,6.341,3.364,7.443s-3.8-.165-3.8-.165,1.378,1.985-.607,2.647-5.9-1.1-5.9-1.1,1.267,2.15-.883,2.425-24.7-3.492-28.083-7.682-10.954-41.142-9.777-58.322S451.285,708.8,457.9,685.2c-14.115-9.214-38.374-21.759-39.036-61.5s34.552-49.808,36.611-48.484.588,5.588.588,5.588,4.852.147,5.293,2.2a5.236,5.236,0,0,1-.147,3.236s3.529.215,3.677,1.431a8.006,8.006,0,0,1-.588,3.053s2.573.295,2.573,1.69-12.424,11.616-13.894,24.555S469,641.9,473.561,635.469Z" transform="translate(-418.856 -521.061)" fill="#964c36"/><path d="M531.626,765.328c-42.639,14.286-76.75-38.1-66.975-63.547s46.812-28.077,37.663-40.233c-23.724-16.859-22.59-39.969-17.927-48.79s43.858-8.161,45.181-16.743-9.484-24.5-10.586-23.536-2.094,8.632-11.954,10.922c-11.174,2.595-19.143-3.068-20.687-10.922-16.1,4.132-21.389-12.845-22.974-20.931-4.474,20.844.281,32.492,3.015,42.352,3.087,11.137-2.537,27.127-2.537,27.127-2.166,3.058-7.253,1.949-11.839-1.437h0c2.272,11.671-5.645,31.21-12.633,45.461,3.146,2.128,6.159,3.977,8.813,5.71-6.616,23.6-3.6,67.782-4.779,84.961-.471,6.891.466,16.959,1.973,26.82,3.924-1.818,10.365-3.406,20.67-2.713,8.5.57,17.1,2.757,24.937,4.963,1.163-3.526,2.42-6.573,3.293-8.9,13.38,3.822,27.2-.441,27.2-.441,1.155,2.448,1.729,6.571,1.958,11.117C538.028,777.554,568.533,752.964,531.626,765.328Z" transform="translate(-409.14 -506.623)" fill="#753b2a"/><path d="M469.836,655.057c0-.442,4.558-12.057,4.117-19.85s-3.529-29.955,11.027-39.164,32.936-.828,36.023,12.992,3.824,35.729,9.264,46.756,12.645,74.595-4.705,90.3-59.99,5.993-67.342-25.466S469.836,655.057,469.836,655.057Z" transform="translate(-401.016 -487.386)" fill="#d18a4b"/><path d="M476.331,565.885s12.572-.772,15.991-3.419c3.473-1.764,2.48,9.594-6.507,11.358S474.829,566,476.331,565.885Z" transform="translate(-391.853 -501.541)" fill="#fff"/><path d="M473.042,559.385s3.308-5.735,11.616-6.249a20.657,20.657,0,0,1,14.189,5s-2.353-7.5-13.306-7.352S473.042,559.385,473.042,559.385Z" transform="translate(-393.195 -506.987)" fill="#753b2a"/><path d="M483.866,559.694s-8.529-3.9-7.132-6.028,12.425-3.089,13.454-.883S487.395,559.62,483.866,559.694Z" transform="translate(-391.52 -506.634)" fill="#452d2a"/><path d="M477.569,551.449s-.635-3.777-3.31-4.217-2.756,4.687-3.942,4.41.3-6.4,4.191-5.872,4.191,4.549,4.191,4.991S478.037,552.3,477.569,551.449Z" transform="translate(-394.673 -509.375)"/><path d="M494.415,548.342s-1.332-3.591-4.041-3.522-1.829,5.121-3.044,5.073-.9-6.339,3.013-6.556,4.97,3.681,5.053,4.114S495.037,549.092,494.415,548.342Z" transform="translate(-386.727 -510.516)"/><path d="M474.6,538.676s-4.236.769-4,3.407,5.526.809,5.821-.962A1.923,1.923,0,0,0,474.6,538.676Z" transform="translate(-394.353 -512.729)" fill="#452d2a"/><path d="M486.775,537.663s4.307-.056,4.575,2.579-5.268,1.854-5.9.169A1.922,1.922,0,0,1,486.775,537.663Z" transform="translate(-387.397 -513.2)" fill="#452d2a"/><g transform="translate(55.511 126.039)"><path d="M525.549,710.128c.326-.295.626-.64.936-.968-.949.295-1.938.61-2.994.965-32.5,10.888-60.014-16.947-66.953-42.072a68.18,68.18,0,0,0,1.671,16.609C465.56,716.12,508.2,725.836,525.549,710.128Z" transform="translate(-456.527 -577.491)" fill="#c77447"/><path d="M460.456,665.913c13.807-16.635,39.676-20.083,31.861-30.464-12.5-8.884-18.1-19.5-19.915-28.854-1.639,8.558-.569,17.4-.323,21.75.441,7.794-4.117,19.408-4.117,19.85A117.157,117.157,0,0,0,460.456,665.913Z" transform="translate(-454.667 -606.595)" fill="#c77447"/></g><path d="M477.788,578.612s13.013,2.757,19.519-2.536c5.072-1.653-3.089,10.7-9.759,11.028S472.94,577.993,477.788,578.612Z" transform="translate(-391.655 -495.081)" fill="#572b1e"/><path d="M466.8,535.681s-4.686,11.237-7.111,10-4.742-6.143-2.1-10S467.018,535.177,466.8,535.681Z" transform="translate(-401.068 -515.006)" fill="#d18a4b"/><path d="M495.885,532.926s6.727,8.05,7.774,7.94,5.128-4.356,4.08-7.94-3.694-5.514-6.892-5.073S495.444,532.044,495.885,532.926Z" transform="translate(-382.404 -517.875)" fill="#d18a4b"/></g><g transform="translate(429.282 536.072)"><path d="M506.7,572.2c-.2.778-.327,1.574-.573,2.342-.009.031-.083.231-.116.336-.043.083-.115.23-.127.256a2.807,2.807,0,0,0-.292,1.978,1.965,1.965,0,0,0,1.387,1.387c2.9.651,3.97-3.565,4.018-5.717A2.2,2.2,0,0,0,506.7,572.2Z" transform="translate(-388.242 -512.588)" fill="#ad583e"/><path d="M511.893,559.914a1.916,1.916,0,0,0-2.072-1.353,1.864,1.864,0,0,0-1.637,1.855c.159,1.416.573,3.737,1.923,4.483a1.657,1.657,0,0,0,1.967-.254C513.363,563.287,512.5,561.39,511.893,559.914Z" transform="translate(-386.984 -518.324)" fill="#ad583e"/><path d="M501.306,561.525a2.123,2.123,0,1,0-4.094,1.129c.307,1.628.964,3.273,2.568,3.949a1.647,1.647,0,0,0,1.848-.752C502.583,564.463,501.618,562.936,501.306,561.525Z" transform="translate(-392.198 -517.645)" fill="#ad583e"/><path d="M505.946,548.439c-.922-1.729-4.123-1.042-3.878,1.051a4.536,4.536,0,0,0,2.723,3.8,1.744,1.744,0,0,0,1.955-.8C507.471,551.006,506.64,549.739,505.946,548.439Z" transform="translate(-389.883 -523.571)" fill="#ad583e"/><path d="M470.422,555.053a1.4,1.4,0,0,0-1.661-.64c-1.127.3-1.616,1.689-1.86,2.714a4.725,4.725,0,0,0,.14,3.215,1.764,1.764,0,0,0,2.395.628,1.794,1.794,0,0,0,.628-2.395c.143.327.065.2.115.112,0-.009.077-.383.108-.508a14.332,14.332,0,0,0,.315-1.428A2.348,2.348,0,0,0,470.422,555.053Z" transform="translate(-406.63 -520.308)" fill="#ad583e"/><path d="M461.922,549.644c-1.285.793-2.657,2.792-2.452,4.363a1.837,1.837,0,0,0,1.779,1.779,1.793,1.793,0,0,0,1.777-1.779c0-.06,0-.071-.006-.1.019-.037.04-.072.084-.152.147-.189.279-.418.407-.619a5.772,5.772,0,0,0,.844-1.621A1.676,1.676,0,0,0,461.922,549.644Z" transform="translate(-410.059 -522.648)" fill="#ad583e"/><path d="M470.693,536.638c-1.2-1.3-2.965.115-3.957.884a1.869,1.869,0,0,0,0,2.632,1.909,1.909,0,0,0,2.632,0C470.341,539.4,471.866,537.9,470.693,536.638Z" transform="translate(-406.865 -528.945)" fill="#ad583e"/><path d="M481.2,531.487a6.719,6.719,0,0,0-3.485,0,1.487,1.487,0,0,0-1.03,1.814,1.51,1.51,0,0,0,1.814,1.03,12.786,12.786,0,0,0,2.7-.3A1.332,1.332,0,0,0,481.2,531.487Z" transform="translate(-401.92 -531.248)" fill="#ad583e"/><g transform="translate(76.093 14.801)"><path d="M480.771,541.8l.015.009C480.594,541.665,480.656,541.712,480.771,541.8Z" transform="translate(-476.105 -541.09)" fill="#ad583e"/><path d="M482.533,542.265c-.056-.059-.2-.175-.3-.258a2.644,2.644,0,0,0-1.581-.653c-.062,0-.248-.012-.392-.012a2.258,2.258,0,0,0-2.692,2.1,2.131,2.131,0,0,0,2.512,2.078,5.693,5.693,0,0,0,.572-.049,2.549,2.549,0,0,0,1.6-.7,2.188,2.188,0,0,0,.732-1.478A1.51,1.51,0,0,0,482.533,542.265Z" transform="translate(-477.57 -541.292)" fill="#ad583e"/></g><path d="M494.293,532.666c-.7-.308-1.5-.486-2.154-.847a1.766,1.766,0,0,0-1.782,3.047,7.557,7.557,0,0,0,2.616.933,1.72,1.72,0,0,0,2.109-1.2A1.719,1.719,0,0,0,494.293,532.666Z" transform="translate(-395.802 -531.096)" fill="#ad583e"/><path d="M499.963,542.308a3.666,3.666,0,0,0-.208-.473,3.876,3.876,0,0,0-.4-1.012.9.9,0,0,0-.122-.225c0-.038-.01-.08-.022-.146-.37-2.156-4.038-1.68-3.845.52a3.109,3.109,0,0,0,2.007,2.987,3.069,3.069,0,0,0,.687.253A1.565,1.565,0,0,0,499.963,542.308Z" transform="translate(-393.054 -527.55)" fill="#ad583e"/><path d="M475.285,559.376a3.971,3.971,0,0,0-2.6,3.2,2.093,2.093,0,1,0,4.116.557c.056-.561.724-1.351.619-2.134A1.717,1.717,0,0,0,475.285,559.376Z" transform="translate(-403.81 -517.952)" fill="#ad583e"/><path d="M489.963,557.74a2.043,2.043,0,0,0-2.826,0,2.017,2.017,0,0,0,0,2.826c.679.6,1.042,1.3,1.973,1.58a1.83,1.83,0,0,0,2.241-1.273A3.305,3.305,0,0,0,489.963,557.74Z" transform="translate(-397.221 -518.971)" fill="#ad583e"/><path d="M497.7,552.46a7.328,7.328,0,0,1-1.055-1.466,1.836,1.836,0,0,0-2.489-.653,1.86,1.86,0,0,0-.653,2.49,4.055,4.055,0,0,0,2.713,2.178,1.489,1.489,0,0,0,1.484-.392,2.532,2.532,0,0,0,.239-.308A1.583,1.583,0,0,0,497.7,552.46Z" transform="translate(-394.038 -522.318)" fill="#ad583e"/><path d="M510,585.5a2.1,2.1,0,0,0-2.633.863c-.887,1.79-1.426,6.075,1.191,6.767,1.563.413,2.483-1.129,2.523-2.468a7.01,7.01,0,0,1,.141-2.673A2.087,2.087,0,0,0,510,585.5Z" transform="translate(-387.714 -505.632)" fill="#ad583e"/><path d="M498.262,590.138a5.789,5.789,0,0,0-.995,3.159,1.934,1.934,0,0,0,3.263,1.351,11.976,11.976,0,0,0,1.4-2.368C503.384,589.96,499.711,587.826,498.262,590.138Z" transform="translate(-392.151 -503.831)" fill="#ad583e"/><path d="M512.8,605.738l.018.022c-.069-.113-.088-.134-.084-.106l-.031-.037a4.584,4.584,0,0,0-.45-.79c-.019-.026-.038-.069-.059-.1a1.912,1.912,0,0,0-2.256-2.4,2.662,2.662,0,0,0-1.776,3.461,4.7,4.7,0,0,0,1.026,1.892,1.948,1.948,0,0,0,.545.464q-.25-.223,0,0c.246.192.486.391.738.572a1.891,1.891,0,0,0,2.459-.491A1.931,1.931,0,0,0,512.8,605.738Z" transform="translate(-387.048 -497.621)" fill="#ad583e"/><path d="M523.031,597.593a3.769,3.769,0,0,1-1.191.616c-2.716.682-1.565,4.885,1.158,4.2a6.747,6.747,0,0,0,2.644-1.432C527.527,599.446,525.038,596.2,523.031,597.593Z" transform="translate(-381.247 -499.991)" fill="#ad583e"/><path d="M529.328,612.076c-.208-.015-.245-.013-.109,0q.391.055-.482-.063a2.925,2.925,0,0,0-.99.221c-.2.069-.421.119-.622.2l-.015.006a.153.153,0,0,0-.034-.007l.032.009-.046.019a1.983,1.983,0,0,0-1.88.972,2.114,2.114,0,0,0,.752,2.866,3.247,3.247,0,0,0,2.4.147c.286-.078.57-.175.849-.278a2.821,2.821,0,0,0,.821-.411c.19-.15.236-.195.228-.2l.03-.016A1.874,1.874,0,0,0,529.328,612.076Z" transform="translate(-379.057 -492.999)" fill="#ad583e"/><path d="M541.469,602.982a1.351,1.351,0,0,0-1.594-.9c-.867.127-1.3.952-1.807,1.577a11.748,11.748,0,0,0-1.4,2.157,2.067,2.067,0,1,0,3.78,1.594c.2-.728.419-1.443.629-2.165C541.3,604.472,541.783,603.805,541.469,602.982Z" transform="translate(-373.61 -497.716)" fill="#ad583e"/><path d="M535.206,594.618a1.186,1.186,0,0,0-1.565-.411c-.625.267-.911.9-1.278,1.435a10.476,10.476,0,0,0-.875,2.131,1.917,1.917,0,0,0,3.7,1.02,7.7,7.7,0,0,0,.37-2.3A3.729,3.729,0,0,0,535.206,594.618Z" transform="translate(-375.989 -501.495)" fill="#ad583e"/><path d="M527.509,581.212c-1.546-.043-2.154,1.973-2.132,3.167.05,2.574,4.173,2.527,3.97,0C529.257,583.259,529.017,581.256,527.509,581.212Z" transform="translate(-378.838 -507.587)" fill="#ad583e"/><path d="M540.226,585.132c-.141-.193-.265-.4-.393-.614a4.118,4.118,0,0,1-.152-.584c-.309-1.82-3.133-1.678-3.539,0a3.98,3.98,0,0,0,.395,3.355,2.182,2.182,0,0,0,2.924.766A2.153,2.153,0,0,0,540.226,585.132Z" transform="translate(-373.83 -506.919)" fill="#ad583e"/><path d="M547.2,580.116a1.626,1.626,0,0,0-2.517.324,6.622,6.622,0,0,0-.555,2.364,9.519,9.519,0,0,0,.109,2.387c.368,1.91,3.392,1.851,3.8,0C548.377,583.657,548.572,581.233,547.2,580.116Z" transform="translate(-369.971 -508.316)" fill="#ad583e"/><path d="M534.9,573.432a9.427,9.427,0,0,0-1.375-2.735,2.11,2.11,0,0,0-3.643,2.129,8.022,8.022,0,0,0,2.577,2.483A1.682,1.682,0,0,0,534.9,573.432Z" transform="translate(-376.852 -513.055)" fill="#ad583e"/><path d="M539.871,562.074a3.951,3.951,0,0,0-.48-.305,2.2,2.2,0,0,0-3.79,2.255,4.678,4.678,0,0,0,2.064,1.823A2.186,2.186,0,0,0,539.871,562.074Z" transform="translate(-374.13 -517.289)" fill="#ad583e"/><path d="M525.973,564.335a7.347,7.347,0,0,1-1.1-.8c-1.84-1.773-4.608.987-2.807,2.807a6.649,6.649,0,0,0,2.421,1.513,1.908,1.908,0,0,0,2.272-1.115A1.946,1.946,0,0,0,525.973,564.335Z" transform="translate(-380.682 -516.229)" fill="#ad583e"/><path d="M526.766,554.283c-1.908-1.244-3.679,1.809-1.781,3.047a2.663,2.663,0,0,0,2.828.466,1.39,1.39,0,0,0,.706-1.232C528.415,555.426,527.663,554.868,526.766,554.283Z" transform="translate(-379.409 -520.478)" fill="#ad583e"/><g transform="translate(130.681 131.362)"><path d="M517.4,624.494c-.122.031.168.009,0,0Z" transform="translate(-513.313 -618.452)" fill="#ad583e"/><path d="M519.837,623.748a3.9,3.9,0,0,0-.776-1.014c-.078-.069-.153-.143-.227-.218,0-.034,0-.034,0-.085.053-2.722-4.344-2.71-4.217,0a4.153,4.153,0,0,0,3.042,3.951,3.893,3.893,0,0,0,.846.052c.1,0,.155,0,.193,0s.074-.016.165-.031a1.79,1.79,0,0,0,1.08-.5A1.624,1.624,0,0,0,519.837,623.748Z" transform="translate(-514.615 -620.394)" fill="#ad583e"/></g><path d="M513.707,632.562a2.789,2.789,0,0,1-.451-1.171c.056-2.63-4-2.623-4.08,0a5.756,5.756,0,0,0,.672,2.617,4.012,4.012,0,0,0,1.643,2.163,1.906,1.906,0,0,0,2.758-1.121A3.271,3.271,0,0,0,513.707,632.562Z" transform="translate(-386.511 -484.757)" fill="#ad583e"/><path d="M523.169,653.478c0,.351-.028.243-.075-.326a1.077,1.077,0,0,0-.211-.479,2.833,2.833,0,0,1-.169-.538,1.956,1.956,0,1,0-3.845.52,5.3,5.3,0,0,0,.6,1.724,4.106,4.106,0,0,0,1.438,1.356C522.364,656.728,523.869,654.838,523.169,653.478Z" transform="translate(-381.936 -474.92)" fill="#ad583e"/><path d="M517.773,667.392c-.125-2.536-3.976-2.571-3.97,0a5.86,5.86,0,0,0,.887,3.655,1.488,1.488,0,0,0,2.523,0C518.059,669.912,517.836,668.7,517.773,667.392Z" transform="translate(-384.319 -467.682)" fill="#ad583e"/><path d="M522.818,674.036a6.371,6.371,0,0,0-.508,4.7,2.249,2.249,0,0,0,4.049.531,3.6,3.6,0,0,0,.623-2.156,4.335,4.335,0,0,1,.069-1.288C527.813,673.358,523.972,671.643,522.818,674.036Z" transform="translate(-380.41 -464.173)" fill="#ad583e"/><path d="M516.834,686.855a1.622,1.622,0,0,0-.386-.732c-.2-.264-.224-.292-.071-.084a1.68,1.68,0,0,0-1.868-.76l.248,0a1.612,1.612,0,0,0-.83.186,2.348,2.348,0,0,0-1.03.881,11.1,11.1,0,0,0-.743,1.241,2.383,2.383,0,1,0,4.359,1.838c.1-.476.245-.939.321-1.419A2.658,2.658,0,0,0,516.834,686.855Z" transform="translate(-385.244 -458.343)" fill="#ad583e"/><path d="M521.976,703.589a1.527,1.527,0,0,0-1.687-.688c-1.82.648-1.728,2.642-2.076,4.226a1.943,1.943,0,0,0,1.328,2.339,1.922,1.922,0,0,0,2.34-1.328C522.157,706.88,522.754,704.734,521.976,703.589Z" transform="translate(-382.254 -449.991)" fill="#ad583e"/><path d="M508.173,712.773a1.675,1.675,0,0,0-2.281-.6,3.571,3.571,0,0,0-1.556,2.07,9.334,9.334,0,0,0-.29,2.458c0,2.894,4.583,2.891,4.494,0C508.5,715.273,508.891,714.119,508.173,712.773Z" transform="translate(-388.939 -445.68)" fill="#ad583e"/><g transform="translate(131.334 271.434)"><path d="M519.706,717.144a2.062,2.062,0,0,0-2.412-1.639,2.875,2.875,0,0,0-2.026,2.294,3.294,3.294,0,0,0,.223,2.826,2.05,2.05,0,0,0,3.766-.914.113.113,0,0,1,0-.04,2.3,2.3,0,0,0-.035-.619,2.814,2.814,0,0,1,.068.451c.006-.015,0-.022.009-.04.062-.165.1-.343.159-.51A2.789,2.789,0,0,0,519.706,717.144Z" transform="translate(-515.058 -715.451)" fill="#ad583e"/><path d="M517.908,718.41c.013.06.047.016.031-.208a.634.634,0,0,0-.032.168C517.9,718.382,517.909,718.4,517.908,718.41Z" transform="translate(-513.709 -714.148)" fill="#ad583e"/></g><path d="M511.67,723.474a2.545,2.545,0,0,0-2.77.517,18.389,18.389,0,0,0-1.618,2.272,2.209,2.209,0,0,0,.787,3,2.237,2.237,0,0,0,3-.787,8.671,8.671,0,0,0,1.474-2.365A2.5,2.5,0,0,0,511.67,723.474Z" transform="translate(-387.557 -440.322)" fill="#ad583e"/><path d="M456.707,725.147c-.032-.038-.047-.053-.069-.078a1.668,1.668,0,0,0-.2-.386c.062-2.33-4.014-2.853-4.387-.424a3.537,3.537,0,0,0,.479,2.7,2.7,2.7,0,0,0,1.5,1.2q1,.079.4.088c.134.047.268.088.405.124A1.945,1.945,0,0,0,456.707,725.147Z" transform="translate(-413.598 -440.598)" fill="#ad583e"/><path d="M468.145,725.574c-.026-.053-.32-.556-.181-.31.052.19.018.121-.1-.2-.024-.06-.035-.085-.053-.128a2.425,2.425,0,0,0-2.362-2.038,2.459,2.459,0,0,0-2.44,2.44,3.687,3.687,0,0,0,2.626,3.509A2.251,2.251,0,0,0,468.145,725.574Z" transform="translate(-408.377 -440.492)" fill="#ad583e"/><path d="M457.65,713.275a1.861,1.861,0,0,0-2.272-1.291,1.882,1.882,0,0,0-1.289,2.272,3.769,3.769,0,0,0,1.565,2.546,1.606,1.606,0,0,0,2.395-1.375A11.443,11.443,0,0,0,457.65,713.275Z" transform="translate(-412.62 -445.685)" fill="#ad583e"/><path d="M468.188,711.591a2.333,2.333,0,0,0-3.423.653,3.283,3.283,0,0,0,1.086,4.661c1.255.936,2.776-.362,2.865-1.645.013-.2.049-.391.057-.585,0-.066,0-.111.007-.155A2.257,2.257,0,0,0,468.188,711.591Z" transform="translate(-407.795 -446.074)" fill="#ad583e"/><path d="M436.126,613.586c-.766-.8-1.673-1.17-2.172-2.045-1.015-1.781-4.152-.589-3.4,1.434a6.424,6.424,0,0,0,1.3,2.184c.43.473.958.84,1.392,1.311C435.022,618.4,437.944,615.487,436.126,613.586Z" transform="translate(-423.797 -493.636)" fill="#ad583e"/><path d="M441.155,604.172a4.207,4.207,0,0,0-.511-1.2c-.18-.256-.414-.466-.6-.716a2.018,2.018,0,0,0-2.677-.7,1.975,1.975,0,0,0-.7,2.677,5.053,5.053,0,0,0,1.947,1.9,1.735,1.735,0,0,0,1.749,0,4.224,4.224,0,0,0,.352-.271A1.7,1.7,0,0,0,441.155,604.172Z" transform="translate(-420.981 -498.077)" fill="#ad583e"/><path d="M429.581,599.318c-.514-1.375-.6-3.512-1.895-4.382a1.108,1.108,0,0,0-1.509.395c-.62,1.362.072,3.423.56,4.773C427.379,601.879,430.247,601.1,429.581,599.318Z" transform="translate(-425.931 -501.158)" fill="#ad583e"/><path d="M438.063,591.422c.01-.149.009-.3.018-.448.006-.094.062-.648,0-.209a2.44,2.44,0,0,0-.438-1.905,1.352,1.352,0,0,0-1.955-.769c-.091.063-.164.146-.249.212a2.094,2.094,0,0,0-1.3,1.378c-.525,1.885-.343,4.639,2.059,5.082A1.983,1.983,0,0,0,438.063,591.422Z" transform="translate(-422.156 -504.428)" fill="#ad583e"/><path d="M433.175,581.515c-.146-.424-.108-.035-.053-.507a2.32,2.32,0,0,0-.069-.889l0-.049a1.835,1.835,0,0,0-.8-1.978,1.773,1.773,0,0,0-2.123.273,5.046,5.046,0,0,0-1.406,1.891,5.145,5.145,0,0,0-.093,2.512,2.358,2.358,0,1,0,4.546-1.254Z" transform="translate(-424.706 -509.173)" fill="#ad583e"/><path d="M440.471,566.372c-.841-.841-2.073-.318-2.941.178a7.266,7.266,0,0,0-2.4,2.417c-1.435,2.219,2.255,4.39,3.547,2.073C439.348,569.827,441.943,567.842,440.471,566.372Z" transform="translate(-421.732 -514.825)" fill="#ad583e"/><path d="M440.93,574.842a4,4,0,0,0-.354.648,2.066,2.066,0,1,0,3.778,1.593c.093-.226.108-.3.046-.214A2.011,2.011,0,0,0,440.93,574.842Z" transform="translate(-419.109 -511.062)" fill="#ad583e"/><path d="M461.345,568.82a15.069,15.069,0,0,0-1.009-2.863,1.736,1.736,0,0,0-2.187-.716,1.762,1.762,0,0,0-1.014,2.066,6.824,6.824,0,0,0,1.416,3.14C459.719,571.8,461.663,570.326,461.345,568.82Z" transform="translate(-411.181 -515.213)" fill="#663424"/><path d="M464.705,577.088a7.287,7.287,0,0,1-1.91-1.76c-.908-1.36-3.089-.122-2.213,1.294.7,1.136,2.9,3.952,4.422,2.511A1.334,1.334,0,0,0,464.705,577.088Z" transform="translate(-409.618 -510.652)" fill="#663424"/><path d="M469.055,572.257c.164.352-.062-.5-.088-.585-.749-2.453-4.425-1.031-3.3,1.391a2.929,2.929,0,0,0,1.341,1.244A1.511,1.511,0,0,0,469.055,572.257Z" transform="translate(-407.215 -512.709)" fill="#663424"/><path d="M474.736,585.608c-.536-.659-1.422-1.015-1.889-1.709-1.316-1.951-4.428-.2-3.19,1.866a4.307,4.307,0,0,0,4.413,2.366A1.527,1.527,0,0,0,474.736,585.608Z" transform="translate(-405.36 -506.716)" fill="#663424"/><path d="M496.268,579.3a5.692,5.692,0,0,0-1.955,1.808c-1.11,1.575.716,3.405,2.337,3.042a2.865,2.865,0,0,0,.887-.371,2.091,2.091,0,0,0,.743-.765,6.71,6.71,0,0,0,.787-.915C500.308,580.341,497.94,578.375,496.268,579.3Z" transform="translate(-393.71 -508.605)" fill="#663424"/><g transform="translate(98.904 58.074)"><path d="M496.08,572.885c-.013.031-.022.062-.035.094l.037-.09Z" transform="translate(-491.632 -569.604)" fill="#663424"/><path d="M496.028,573.083c.022-.047.031-.088.052-.134C496.014,573.1,495.9,573.359,496.028,573.083Z" transform="translate(-491.667 -569.574)" fill="#663424"/><path d="M497.666,572.464c-.016-.1-.3-1.065-.171-.581a1.649,1.649,0,0,0-2.017-1.145c.541-.206-.4.083-.572.149a3.736,3.736,0,0,0-.533.24,3.451,3.451,0,0,0-1,1.076,2.2,2.2,0,0,0,0,2.281l0,.006a2.274,2.274,0,0,0,3.321.635,2.333,2.333,0,0,0,.8-1.216l.007.03a2.465,2.465,0,0,0,.212-.97A3.057,3.057,0,0,0,497.666,572.464Z" transform="translate(-493.051 -570.658)" fill="#663424"/></g><path d="M464.548,596.412a1.645,1.645,0,0,0-2.719-.718c-1.522,1.325-.629,4.857,1.552,4.908a1.762,1.762,0,0,0,1.758-1.757A10.746,10.746,0,0,0,464.548,596.412Z" transform="translate(-409.291 -500.938)" fill="#663424"/><path d="M456.07,607.41a1.61,1.61,0,0,0-2.188-.575,1.638,1.638,0,0,0-.573,2.188c.492,1.093,1.793,3.1,3.261,2.2C458.009,610.347,456.5,608.425,456.07,607.41Z" transform="translate(-413.057 -495.549)" fill="#663424"/><path d="M451.5,622.189a1.722,1.722,0,0,0-.2-.524l-.143-.186a2.033,2.033,0,1,0-3.778,1.185,4.568,4.568,0,0,0,.927,1.171,2.922,2.922,0,0,0,1.546.635A1.515,1.515,0,0,0,451.5,622.189Z" transform="translate(-415.894 -489.411)" fill="#663424"/><path d="M466.5,614.59a7.606,7.606,0,0,1-.323-1.032,1.8,1.8,0,0,0-1.751-1.751,1.762,1.762,0,0,0-1.751,1.751c.116,1.253.43,2.689,1.643,3.32a1.468,1.468,0,0,0,2.126-.865A2.625,2.625,0,0,0,466.5,614.59Z" transform="translate(-408.533 -493.098)" fill="#663424"/><path d="M461.459,630.539a1.977,1.977,0,0,0-.688-2.621,1.933,1.933,0,0,0-2.621.687,5.837,5.837,0,0,0,.578,6.189,1.489,1.489,0,0,0,2.33-.3,4.627,4.627,0,0,0,.414-2.576A3.245,3.245,0,0,1,461.459,630.539Z" transform="translate(-410.968 -485.586)" fill="#663424"/><path d="M451.913,643.433c-2.269-.068-3.47,3.273-3.388,5.14a2.21,2.21,0,0,0,2.165,2.165,2.182,2.182,0,0,0,2.165-2.165,1.413,1.413,0,0,1,.122-.872c.147-.454.4-.9.52-1.387C453.8,645.138,453.4,643.478,451.913,643.433Z" transform="translate(-415.234 -478.121)" fill="#663424"/><path d="M449.575,669.561c-.225-1.032-.959-2.271-.914-3.218.1-2.15-2.922-2.333-3.573-.485-.637,1.809.122,3.6.855,5.236a1.969,1.969,0,0,0,2.482.812A2.006,2.006,0,0,0,449.575,669.561Z" transform="translate(-416.973 -468.101)" fill="#663424"/><path d="M451.371,663.788c-.36,1.553-.376,3.536,1.238,4.4a1.86,1.86,0,0,0,2.7-1.1c.153-.74-.053-1.454.127-2.175C456.1,662.271,451.982,661.145,451.371,663.788Z" transform="translate(-413.978 -469.195)" fill="#663424"/><path d="M451.795,699.585a10.794,10.794,0,0,0-1.4-3.485,2.2,2.2,0,0,0-4.005,1.689,21.956,21.956,0,0,0,1.53,3.432,2.1,2.1,0,0,0,2.648.866A2.157,2.157,0,0,0,451.795,699.585Z" transform="translate(-416.281 -453.68)" fill="#663424"/><path d="M459.816,701.117c-2.119-2-5.349,1.239-3.2,3.2.7.635,1.3,1.854,2.487,2.02a1.8,1.8,0,0,0,1.945-.791C461.952,703.973,460.989,702.224,459.816,701.117Z" transform="translate(-411.735 -451.102)" fill="#663424"/><g transform="translate(41.626 228.377)"><path d="M457.991,689.316c0,.013,0,.026,0,.038C458.007,689.432,458.01,689.447,457.991,689.316Z" transform="translate(-452.375 -684.77)" fill="#663424"/><path d="M459.8,690.815c-.035-.184-.139-.753-.174-.838a5.073,5.073,0,0,0-.444-.746,2.9,2.9,0,0,1-.281-.491c.063.162-.009-.413,0-.152a2.357,2.357,0,1,0-4.714,0,5.768,5.768,0,0,0,.81,2.761,6.319,6.319,0,0,0,.853,1.173,3.88,3.88,0,0,0,1.454.75C458.89,693.911,459.977,692.143,459.8,690.815Z" transform="translate(-454.18 -686.231)" fill="#663424"/></g><path d="M472,701.488a2.7,2.7,0,0,0-.349-.731,2.334,2.334,0,0,0-4.586-.523,3.238,3.238,0,0,0,3.075,4.145,1.815,1.815,0,0,0,1.559-.9A2.556,2.556,0,0,0,472,701.488Z" transform="translate(-406.521 -452.037)" fill="#663424"/><path d="M501.789,700.716a15.664,15.664,0,0,0-1.5,1.146,2.3,2.3,0,0,0,3.255,3.255,11.829,11.829,0,0,0,1.093-1.552C505.69,701.821,503.561,699.574,501.789,700.716Z" transform="translate(-391.034 -451.141)" fill="#663424"/><path d="M505.053,690.648a2.884,2.884,0,0,0,0-1.4,1.587,1.587,0,0,0-1.919-1.089,2.511,2.511,0,0,0-1.006.619,2.977,2.977,0,0,0-1.1,1.04c-.093.13-.175.267-.268.4-.184.256-.168.217-.068.144a2.132,2.132,0,0,0-.943,2.316,2.069,2.069,0,0,0,1.979,1.507,5.258,5.258,0,0,1,.612-.028,1.886,1.886,0,0,0,1.855-1.35A3.126,3.126,0,0,0,505.053,690.648Z" transform="translate(-391.01 -456.969)" fill="#e09451"/><path d="M507.564,680.894a8.011,8.011,0,0,1-.184-2.674,2.074,2.074,0,0,0-4.148,0,10.129,10.129,0,0,0,.264,3.8,2.157,2.157,0,0,0,2.6,1.474A2.13,2.13,0,0,0,507.564,680.894Z" transform="translate(-389.352 -462.63)" fill="#e09451"/><path d="M488.965,688.411a15.431,15.431,0,0,1-.279-2.48,1.905,1.905,0,0,0-1.354-1.777,2.359,2.359,0,0,0-.98,0,1.786,1.786,0,0,0-1.288,1.288,8.835,8.835,0,0,0,.1,4.018C485.877,691.888,489.681,690.854,488.965,688.411Z" transform="translate(-398.014 -458.862)" fill="#e09451"/><g transform="translate(100.502 212.991)"><path d="M498.105,678.867c.038.116,0,.14-.027-.04-.04-.047-.052-.108-.1-.152a.461.461,0,0,1,.1.144,1.3,1.3,0,0,1-.016-.177c0-.317.029-.625,0-.942a1.955,1.955,0,0,0-1.677-1.9,1.915,1.915,0,0,0-2.122,1.385,5.059,5.059,0,0,0,.6,3.895,2,2,0,0,0,2.918.557A1.971,1.971,0,0,0,498.105,678.867Z" transform="translate(-494.135 -675.789)" fill="#e09451"/><path d="M496.838,677.893a.436.436,0,0,0-.027-.047v.007C496.823,677.867,496.827,677.881,496.838,677.893Z" transform="translate(-492.867 -674.815)" fill="#e09451"/></g><path d="M475.035,677.778a6.9,6.9,0,0,1-.187-1.173,5.215,5.215,0,0,0-.511-1.564,1.617,1.617,0,0,0-1.319-1.135,1.557,1.557,0,0,0-1.578.756,5.308,5.308,0,0,0-.693,2.1,8.526,8.526,0,0,0,.274,2.122C471.638,681.484,475.733,680.375,475.035,677.778Z" transform="translate(-404.709 -463.695)" fill="#e09451"/><path d="M483.024,665.474c.189.388-.159-.429-.158-.421-.087-.236-.122-.326-.133-.346-.016-.049-.029-.094-.056-.175a2.141,2.141,0,0,0-4.094,0,5.309,5.309,0,0,0-.071,2.844,2.466,2.466,0,1,0,4.511-1.9Z" transform="translate(-401.106 -468.846)" fill="#e09451"/><path d="M472.3,658.586a1.236,1.236,0,0,0-1.213-1.213,2.958,2.958,0,0,0-2,1.164,5.529,5.529,0,0,0-1.426,1.942c-1.227,2.166,2.145,4.129,3.333,1.948a6.074,6.074,0,0,0,.917-2.234A3.478,3.478,0,0,0,472.3,658.586Z" transform="translate(-406.297 -471.52)" fill="#e09451"/><path d="M483.7,647.112c-.055-.724-.168-1.443-1.012-1.69-.939-.277-1.615.4-2.109,1.11a1.979,1.979,0,0,0,.791,3.391,2.078,2.078,0,0,0,2.3-.939A1.912,1.912,0,0,0,483.7,647.112Z" transform="translate(-400.36 -477.209)" fill="#e09451"/><path d="M498.823,660.29a9.513,9.513,0,0,0-.754-1.97,1.867,1.867,0,0,0-3.348-.28,5.065,5.065,0,0,0-.609,1.829,4.644,4.644,0,0,0,.245,1.653,2.368,2.368,0,0,0,2.848,1.616A2.334,2.334,0,0,0,498.823,660.29Z" transform="translate(-393.645 -471.634)" fill="#e09451"/><path d="M502.466,643.264c-.059-.158-.106-.315-.152-.476a2.265,2.265,0,0,0-.439-2.552,2.347,2.347,0,0,0-3.276,0c-1.6,1.643-1.13,3.562.15,5.191C500.112,647.162,503.215,645.283,502.466,643.264Z" transform="translate(-392 -479.951)" fill="#e09451"/><path d="M507.435,653.711a2.344,2.344,0,0,0-4.687,0,8.831,8.831,0,0,0,.284,3.393,2.288,2.288,0,0,0,2.507,1.636,2.259,2.259,0,0,0,1.98-2.243C507.436,655.579,507.451,654.635,507.435,653.711Z" transform="translate(-389.575 -474.363)" fill="#e09451"/><path d="M496.926,627.268a2.38,2.38,0,0,0-2.888,1.64,7.265,7.265,0,0,0-.111,4.387c.638,1.838,3.5,2.113,4.014,0,.253-1.039.439-2.083.625-3.139A2.414,2.414,0,0,0,496.926,627.268Z" transform="translate(-393.871 -485.814)" fill="#e09451"/><path d="M498.4,612.781c-.066-.155-.146-.38-.224-.6-.043-.119-.09-.236-.127-.357a.192.192,0,0,0,.012-.046A1.785,1.785,0,0,0,496.5,610a1.845,1.845,0,0,0-1.982,1.294,3.473,3.473,0,0,0,.116,2.43,11.224,11.224,0,0,0,.514,1.238,5.532,5.532,0,0,0,.821.942,1.607,1.607,0,0,0,1.743.709,1.55,1.55,0,0,0,1.133-1.488A6.322,6.322,0,0,0,498.4,612.781Z" transform="translate(-393.534 -493.96)" fill="#e09451"/><path d="M483.827,615.484c-.591-2.358-4.091-1.35-3.616,1,.242,1.2.547,3.01,1.555,3.867a2.926,2.926,0,0,0,.834.94,1.055,1.055,0,0,0,1.252-.162,2.028,2.028,0,0,0,.634-1.25C485.232,618.58,484.159,616.811,483.827,615.484Z" transform="translate(-400.247 -491.993)" fill="#e09451"/><path d="M491.467,617.426a2.007,2.007,0,0,0-2.408,1.368c-.538,1.288-.321,3.305,1.278,3.694,1.717.416,2.081-1.49,2.5-2.654A1.975,1.975,0,0,0,491.467,617.426Z" transform="translate(-396.162 -490.472)" fill="#e09451"/><path d="M475.276,604.68a5.333,5.333,0,0,0-.545,4.282c.523,1.695,3.168,1.865,3.609,0,.175-.744-.077-1.649.342-2.293C480.068,604.537,476.657,602.559,475.276,604.68Z" transform="translate(-402.926 -496.903)" fill="#e09451"/><path d="M487.764,598.823a2.563,2.563,0,0,0-2.453-1.727,1.875,1.875,0,0,0-1.755,1.336,2.771,2.771,0,0,0,0,1.427q.362.8.161.407c.041.116.075.234.106.354a3.208,3.208,0,0,0,1.5,1.989,1.761,1.761,0,0,0,2.358-.617A2.844,2.844,0,0,0,487.764,598.823Z" transform="translate(-398.686 -500.069)" fill="#e09451"/><path d="M489.083,608.893a2.853,2.853,0,0,0-.893-1.879,1.928,1.928,0,0,0-2.515-.15,1.9,1.9,0,0,0-.494,2.473,4.232,4.232,0,0,0,.787.9,4,4,0,0,0,.853.4A1.563,1.563,0,0,0,489.083,608.893Z" transform="translate(-398.006 -495.628)" fill="#e09451"/><path d="M497.118,603.7a16.342,16.342,0,0,0-1.4-3.541c-1.185-2.178-4.786-.7-4.032,1.7a25.1,25.1,0,0,0,1.463,3.514C494.239,607.615,497.767,606.031,497.118,603.7Z" transform="translate(-394.84 -499.117)" fill="#e09451"/><path d="M472.267,633.92l.006-.021c.194-.617-.477-1.407-1.136-1.136l.22.069a1.3,1.3,0,0,0-1.279.339,3.61,3.61,0,0,0-.959,1.867,1.481,1.481,0,0,0,1,1.762,1.448,1.448,0,0,0,1.764-1A6.772,6.772,0,0,0,472.267,633.92Z" transform="translate(-405.49 -483.2)" fill="#d18a4b"/><path d="M473.7,620.028a2.118,2.118,0,0,0-2.577,1.463,3.9,3.9,0,0,0,.28,2.957c.05.136.1.27.15.4a1.433,1.433,0,0,0,2.738,0c.035-.119.074-.239.112-.358a13.154,13.154,0,0,0,.76-1.889A2.11,2.11,0,0,0,473.7,620.028Z" transform="translate(-404.605 -489.238)" fill="#d18a4b"/><path d="M475.792,626.6a4.1,4.1,0,0,0,.417,4.583,1.257,1.257,0,0,0,2.266-.3c.3-.981.243-1.977.466-2.959C479.359,626.088,476.758,624.817,475.792,626.6Z" transform="translate(-402.565 -486.498)" fill="#d18a4b"/><path d="M468.023,688.886a1.4,1.4,0,0,0-1.712.971,1.426,1.426,0,0,0,.973,1.714c.62.243.95,1.008,1.431,1.426a1.387,1.387,0,0,0,2.262-.476C471.555,690.963,469.256,689.323,468.023,688.886Z" transform="translate(-406.834 -456.626)" fill="#d18a4b"/><path d="M481.095,696.857c-1.587-1.812-4.446,1.118-2.611,2.613a4.429,4.429,0,0,0,1.3.965,1.422,1.422,0,0,0,2.075-.445C482.495,698.9,481.845,697.713,481.095,696.857Z" transform="translate(-401.326 -453.093)" fill="#d18a4b"/></g></g></g></svg>