<svg xmlns="http://www.w3.org/2000/svg" xmlns:xlink="http://www.w3.org/1999/xlink" width="241" height="199" viewBox="0 0 241 199"><defs><clipPath id="a"><rect width="241" height="199" transform="translate(164 267)" fill="#fff" stroke="#707070" stroke-width="1"/></clipPath></defs><g transform="translate(-164 -267)" clip-path="url(#a)"><g transform="translate(-579.615 212.042)"><g transform="translate(769.927 66.958)"><path d="M840.622,68.96s-13.275-4.5-21.928,0-16,9.127-11.616,22.641,41.368-4.5,41.368-4.5S847.379,72.754,840.622,68.96Z" transform="translate(-753.452 -66.958)" fill="#ffae3d"/><path d="M832.255,89.547a22.409,22.409,0,0,0-2.608-21.217c16.12,7.468,17.662,20.507,16.239,26.789S832.255,89.547,832.255,89.547Z" transform="translate(-742.477 -66.328)" fill="#e65f37"/><path d="M845.482,83.843s-3.337-10.49-30-5.246S845.482,83.843,845.482,83.843Z" transform="translate(-752.265 -62.284)" fill="#e65f37"/><path d="M846.2,90.784s18.609,3.5,29.158,2.37c2.549.829.118,3.2-1.185,3.674s-24.417.474-29.4-1.956S846.2,90.784,846.2,90.784Z" transform="translate(-736.392 -56.007)" fill="#c23f30"/><path d="M898.1,156.913s5.6.7,6.2,2.36-3.2.426-4.8.969,3.7,1.549,4.474,4.572c.534,2.074-1.362,1.689-4.741-.415-.74-.445,2.194,3.734,1.512,5.215s-1.394-.149-3.083-1.452S898.1,156.913,898.1,156.913Z" transform="translate(-711.515 -25.612)" fill="#302a27"/><path d="M898.264,179.053s14.461-1.239,10.312-12.871-26.043-23.484-31.276-24.2S898.264,179.053,898.264,179.053Z" transform="translate(-720.891 -32.477)" fill="#964c36"/><path d="M877.423,141.632s33.005,27.085,22,36.341S877.423,141.632,877.423,141.632Z" transform="translate(-720.517 -32.635)" fill="#7d3f2c"/><path d="M781.356,164.437s-7.468,1.245-9.187,1.9-2.785,1.6-1.956,2.429,9.365.356,9.365.356l.355.652s-8.889,1.3-8.178,2.845,8.475,0,8.475,0v.685s-7.822,4-7.289,5.123,8.416-1.541,8.416-1.541l.593,1.541s-6.046,3.259-4.979,4.681,7.764-3.081,7.764-3.081-4.445,3.259-3.912,4.208,6.046-2.963,6.046-2.963Z" transform="translate(-769.927 -22.153)" fill="#302a27"/><path d="M817.247,167.58a23.521,23.521,0,0,1-16.659-16.446c-4.109-13.918,0-32.328,0-32.328s-6.282-.876-6.757-11.343,5.612-17.816,16.437-13.432a23.079,23.079,0,0,1,8.692-6.875s-5.729-2.884-4.069-5.65,7.269.238,7.269,0-6.005-4.662-2.607-6.4,7.7,1.9,7.7,1.9-2.845-4.385,1.858-4.5,7.665,8.257,7.665,8.257,14.7-1.225,22.046,5.887c0,0,4.347-7.586,13.276-5.769s12.565,15.252,5.768,21.81c0,0,12.8,25.366,7.113,33.583,0,0,47.57,28.345,61.477,79.05s10.747,80.415,10.747,80.415,2.83,26.393.309,31.768-21.013,9.482-25.912,6.954-5.532-15.014-5.532-15.014-47.729,4.424-59.583-.317c-2.843,7.428-13.748,16.278-17.859,16.911s-27.341-.474-30.185-3,3.162-29.238,13.118-38.4c0,0-2.055-6.422.79-23.442s-7.586-50.305-7.586-50.305-21.574,10.766-33.544,9.226-18.018-15.291-13.868-23.47,27.144-12.09,31.766-18.491S817.247,167.58,817.247,167.58Z" transform="translate(-767.112 -64.412)" fill="#964c36"/><g transform="translate(21.402 25.375)"><path d="M928.2,257.73s-5.952-5.875-15.119-.676c-9.167,10.54-58.16,5.9-66.694-3.639s-6.322-27.447-8.535-43.284-26.234-35.941-26.234-35.941,10.431,33.287,7.586,50.305-.791,23.44-.791,23.44c-9.956,9.167-15.961,35.877-13.116,38.4s26.077,3.635,30.185,3,15.014-9.482,17.859-16.91c11.854,4.741,59.583.315,59.583.315s.632,12.486,5.531,15.014c2.538,1.311,8.72.831,14.443-.676C921.813,285.467,928.2,257.73,928.2,257.73Z" transform="translate(-775.397 -43.046)" fill="#7d3f2c"/><path d="M868.222,132.737c-11.854-2.88-26.551,3.2-39.352,7.571s-24.5.207-27.025-17.228c-2.131-14.693,6.128-33.256,8.78-38.737a24.336,24.336,0,0,0-4.315,4.3C795.485,84.253,789.4,91.6,789.873,102.07s6.757,11.341,6.757,11.341-4.11,18.412,0,32.33a23.52,23.52,0,0,0,16.657,16.446s-3.5,14.164-8.124,20.565c-2.826,3.913-12.518,6.9-20.574,10.495,14.847-1.591,34.067-9.85,42.543-26.738C837.246,146.353,843.878,143.518,868.222,132.737Z" transform="translate(-784.589 -84.343)" fill="#7d3f2c"/></g><path d="M811.5,113.193s-10.023-6.707-6.46-10.508,14.843-2.4,15.634,1.252S813.383,114.6,811.5,113.193Z" transform="translate(-754.14 -51.574)" fill="#332828"/><path d="M811.77,115.474s-1.66,5.777,0,6.044,6.1-1.214,5.85-2.727S812.1,114.7,811.77,115.474Z" transform="translate(-751.033 -44.723)" fill="#7d1f1f"/><g transform="translate(75.615 41.476)"><path d="M825.237,96.664s1.54,6.182-.937,6.338-2.877-4.485-2.387-6.338A1.715,1.715,0,0,1,825.237,96.664Z" transform="translate(-821.731 -95.374)"/><path d="M826.077,96.875a1.341,1.341,0,1,1-1.341-1.341A1.341,1.341,0,0,1,826.077,96.875Z" transform="translate(-820.966 -95.3)" fill="#fff"/></g><g transform="translate(43.157 43.373)"><path d="M803,97.965s1.54,6.182-.937,6.336-2.878-4.484-2.386-6.336A1.715,1.715,0,0,1,803,97.965Z" transform="translate(-799.493 -96.674)"/><path d="M803.84,98.174a1.341,1.341,0,1,1-1.341-1.341A1.342,1.342,0,0,1,803.84,98.174Z" transform="translate(-798.729 -96.6)" fill="#fff"/></g><path d="M881.467,220.385s-6.637,4.347-6.479,9.009,2.134,14.224,7.981,14.539,13.829-3,14.7-12.8S888.106,215.723,881.467,220.385Z" transform="translate(-721.638 2.797)" fill="#7d3f2c"/><path d="M876.938,226.33c-.026.235-.236,16.2,7.033,15.093s14.224-5.769,13.75-15.725S878.044,216.768,876.938,226.33Z" transform="translate(-720.743 2.779)" fill="#964c36"/><path d="M804.25,143.579s11.994-15.3,25.516-18.718C829.766,124.861,805.584,123.183,804.25,143.579Z" transform="translate(-754.15 -40.36)" fill="#693324"/><path d="M876.837,224.733s-1.185,14.065,6.243,14.776,13.31-5.758,14.287-9.8c-4.567,11.484-13.181,13.519-17.923,11.07S874.624,228.605,876.837,224.733Z" transform="translate(-721.431 5.561)" fill="#693324"/><path d="M835.846,85.439s8.218,9.263,9.167,9.025,4.03-4.662,2.054-9.4S837.268,81.471,835.846,85.439Z" transform="translate(-739.627 -60.063)" fill="#c47347"/><path d="M800.2,91.183c.106.143-4.741,15.055-5.512,14.817s-5.274-4.208-2.963-9.542S799.669,90.472,800.2,91.183Z" transform="translate(-760.207 -55.933)" fill="#b56a41"/><g transform="translate(18.94 259.622)"><path d="M809.292,263.212s135.916,2.335,149.823-2.09,18.965-9.956,18.807-11.537-2.213-3.792-2.213-3.792-11.833,8.984-32.389,9.864-120.438-.05-120.438-.05-15.963,1.248-27.183-4.777c-4.415-2.37-6.479-6.3-8.692-5.986s-5.058,4.545-3.794,5.986S794.593,262.377,809.292,263.212Z" transform="translate(-782.902 -244.826)" fill="#211e1c"/><path d="M976.405,246.413c-1,.629-13.388,8.308-23.845,10.013-10.905,1.778-116.872.889-116.872.889s-22.877,1.66-32-1.3c-7.456-2.422-15.539-8.521-18.25-10.676a6.743,6.743,0,0,0-2.522,4.046c3.47,2.306,16.875,11.08,21.128,11.766,4.9.79,116.075.968,116.075.968s26.545,1.273,38.332-2.312a54.33,54.33,0,0,0,19.285-11.131A8.8,8.8,0,0,0,976.405,246.413Z" transform="translate(-782.898 -244.591)" fill="#ffae3d"/><g transform="translate(34.289 6.004)"><path d="M814.733,249.907s-10.787,8.178-7.824,16.713,10.076,9.364,17.187,8.653,9.364-12.8,7.942-18.016S820.185,246.706,814.733,249.907Z" transform="translate(-806.394 -248.939)" fill="#a89890"/><path d="M815.118,255.337s-3.675,2.711-2.665,5.538,3.433,3.1,5.856,2.867,3.191-4.242,2.706-5.97S816.976,254.277,815.118,255.337Z" transform="translate(-803.69 -246.146)" fill="#786c67"/><path d="M817.221,258.361a1.511,1.511,0,1,1-1.512-1.511A1.511,1.511,0,0,1,817.221,258.361Z" transform="translate(-802.807 -245.303)" fill="#211e1c"/></g><g transform="translate(149.028 6.004)"><path d="M893.34,249.907s-10.787,8.178-7.822,16.713,10.074,9.364,17.186,8.653,9.365-12.8,7.942-18.016S898.793,246.706,893.34,249.907Z" transform="translate(-885.002 -248.939)" fill="#a89890"/><path d="M893.726,255.337s-3.677,2.711-2.667,5.538,3.433,3.1,5.858,2.867,3.191-4.242,2.706-5.97S895.583,254.277,893.726,255.337Z" transform="translate(-882.298 -246.146)" fill="#786c67"/><path d="M895.828,258.361a1.511,1.511,0,1,1-1.511-1.511A1.511,1.511,0,0,1,895.828,258.361Z" transform="translate(-881.415 -245.303)" fill="#211e1c"/></g></g></g><g transform="translate(805.27 88.017)"><path d="M833.356,106.377a.9.9,0,0,0-1.093-.62c-1.457.457-2.089,2.318-2.581,3.61a5.885,5.885,0,0,1-.968,1.848A2.456,2.456,0,0,0,828,112.8a1.322,1.322,0,0,0,1.655,1.261.917.917,0,0,0,.685-.412c-.137.264.185-.159.342-.282a4.472,4.472,0,0,0,.644-.6,6.3,6.3,0,0,0,1.045-2.007C832.848,109.484,833.6,107.761,833.356,106.377Z" transform="translate(-778.577 -70.198)" fill="#ad583e"/><path d="M838.413,106.468a.765.765,0,0,0-1.079,0,8.616,8.616,0,0,0-1.077,2.947c-.172.561-.533,2.01-1.228,2.138-1.3.241-1.019,2.449.315,2.328,1.6-.145,2.427-1.493,2.98-2.868C838.827,109.77,839.419,107.609,838.413,106.468Z" transform="translate(-775.733 -69.959)" fill="#ad583e"/><path d="M838.21,96.587a4.632,4.632,0,0,0-3.522-1.876,1.169,1.169,0,0,0-.31,2.284,3.528,3.528,0,0,1,1.893,1.242c.654.86.485,2,1.165,2.791a1.045,1.045,0,0,0,1.457,0C840.115,99.873,839.086,97.654,838.21,96.587Z" transform="translate(-776.025 -75.263)" fill="#ad583e"/><path d="M845.942,106.369a.83.83,0,0,0-1.533-.415,5.55,5.55,0,0,0-.741,1.156c-.181.454-.31.933-.483,1.39a20.356,20.356,0,0,1-1.225,2.689,1.1,1.1,0,0,0,1.895,1.106,11.877,11.877,0,0,0,1.479-2.824c.171-.457.339-.921.473-1.388A5.36,5.36,0,0,0,845.942,106.369Z" transform="translate(-772.233 -70.268)" fill="#ad583e"/><path d="M843.274,96.63c-1.026-.741-2.37.978-1.365,1.769a6.445,6.445,0,0,1,1.458,1.5,11.748,11.748,0,0,0,1.115,1.619.62.62,0,0,0,1.029-.271C845.873,99.424,844.684,97.65,843.274,96.63Z" transform="translate(-772.347 -74.462)" fill="#ad583e"/><path d="M824.275,105.562a7.635,7.635,0,0,0-1.487,1.852c-.444.69-.9,1.328-1.391,1.985-.674.9.62,2.052,1.5,1.5a7.011,7.011,0,0,0,2.789-4.516A.853.853,0,0,0,824.275,105.562Z" transform="translate(-781.698 -70.375)" fill="#ad583e"/><path d="M815.126,91.222a.94.94,0,0,0-1.56-.412,6.425,6.425,0,0,0-1.133,3.113,11.329,11.329,0,0,0-.339,3.553c.089.75,1.206,1.306,1.616.436a16.312,16.312,0,0,0,1.015-3.357A7.338,7.338,0,0,0,815.126,91.222Z" transform="translate(-785.907 -77.18)" fill="#ad583e"/><path d="M821.7,88.176a.742.742,0,0,0-1.34-.175,16.6,16.6,0,0,0-1.2,2.689c-.333.787-.781,1.611-.292,2.424a.647.647,0,0,0,.861.225c.829-.381,1.169-1.55,1.515-2.333A4.312,4.312,0,0,0,821.7,88.176Z" transform="translate(-782.874 -78.505)" fill="#ad583e"/><path d="M810.744,85.354c-1.695,1.137-2.235,3.915-2.878,5.732-.413,1.168,1.379,1.881,1.978.833a19.1,19.1,0,0,0,1.185-2.871A10.62,10.62,0,0,0,811.869,86,.752.752,0,0,0,810.744,85.354Z" transform="translate(-787.86 -79.612)" fill="#ad583e"/><path d="M821.156,81.386a4.277,4.277,0,0,0-2.423,1.22,23.928,23.928,0,0,0-2.166,1.842,1.131,1.131,0,0,0,1.365,1.769,14.187,14.187,0,0,0,2.189-1.552,6.223,6.223,0,0,0,1.911-1.753A1.025,1.025,0,0,0,821.156,81.386Z" transform="translate(-783.987 -81.386)" fill="#ad583e"/><path d="M830.679,97.924a.95.95,0,0,0-1.755.474,6.075,6.075,0,0,0,.253,1.959,9.236,9.236,0,0,0,.7,2.2.725.725,0,0,0,1.128.145C832.187,101.474,831.4,99.14,830.679,97.924Z" transform="translate(-778.157 -73.994)" fill="#ad583e"/><path d="M834.492,90.852a28.68,28.68,0,0,0-2.525-3.98c-.533-.838-2.095-.308-1.692.714a7.716,7.716,0,0,0,3.456,4.027A.561.561,0,0,0,834.492,90.852Z" transform="translate(-777.561 -79.055)" fill="#ad583e"/><path d="M841.212,102.476a.968.968,0,0,0-1.6-.42c-.787.65-.88,1.954-1.042,2.9-.239,1.4,1.848,2.033,2.172.6C840.961,104.6,841.507,103.45,841.212,102.476Z" transform="translate(-773.726 -72.004)" fill="#ad583e"/><path d="M856.04,123.389c-.558-.378-1.147-.705-1.712-1.073a4.106,4.106,0,0,1-1.124-.833c-.657-1.036-2.474-.393-2.058.867A5.235,5.235,0,0,0,853.663,125a25.508,25.508,0,0,0,3.562,2.124.766.766,0,0,0,1.137-.652C858.275,124.981,857.2,124.174,856.04,123.389Z" transform="translate(-767.966 -63.193)" fill="#ad583e"/><path d="M856.884,129.56c-.3-1.534-2.642-.885-2.343.645.175.9,1.071,1.832,2.045,1.5a.928.928,0,0,0,.67-.879A10.725,10.725,0,0,0,856.884,129.56Z" transform="translate(-766.389 -59.645)" fill="#ad583e"/><path d="M843.172,129.984a1.161,1.161,0,0,0-2.27.307,3.968,3.968,0,0,0,1.321,3.328.934.934,0,0,0,1.36-.553A5.365,5.365,0,0,0,843.172,129.984Z" transform="translate(-772.648 -59.422)" fill="#ad583e"/><path d="M845.03,121.729c-.471-.8-1.938-.515-1.851.5a5.6,5.6,0,0,0,1.086,2.493,7.68,7.68,0,0,0,1.724,2.295.793.793,0,0,0,1.153-.47C847.732,124.918,845.795,123.031,845.03,121.729Z" transform="translate(-771.601 -63.055)" fill="#ad583e"/><path d="M828.367,143a6.094,6.094,0,0,1-.073-2.474,1.094,1.094,0,0,0-1.989-.839,4.426,4.426,0,0,0-.55,3.229c.143,1.035.343,2.372,1.279,2.965a1.051,1.051,0,0,0,1.429-.375A3.571,3.571,0,0,0,828.367,143Z" transform="translate(-779.644 -54.827)" fill="#ad583e"/><path d="M833.2,128.708c.1-1.223-1.774-1.2-1.9,0a5.427,5.427,0,0,0,.479,2.673,13.236,13.236,0,0,0,1.114,2.432.729.729,0,0,0,1.314-.171C834.748,132,833.064,130.383,833.2,128.708Z" transform="translate(-777.068 -60.052)" fill="#ad583e"/><path d="M884.536,155.257c-.451-2.568-2.988-4.065-4.23-6.234a.982.982,0,0,0-1.787.753,9.693,9.693,0,0,0,1.778,3.233,28.962,28.962,0,0,0,2.566,3.22A1.009,1.009,0,0,0,884.536,155.257Z" transform="translate(-755.369 -50.516)" fill="#ad583e"/><path d="M889.3,168.524a15.426,15.426,0,0,1-.947-2.592,1.091,1.091,0,0,0-2.086,0,4.123,4.123,0,0,0,.534,2.848c.2.46.409.914.6,1.375a3.352,3.352,0,0,0,.8,1.492.985.985,0,0,0,1.524-.2C890.254,170.495,889.731,169.432,889.3,168.524Z" transform="translate(-751.842 -42.879)" fill="#ad583e"/><path d="M885.493,176.728c.274-1.187-1.518-2.1-2.073-.874a7.948,7.948,0,0,0-.515,3.861c.069,1.309.051,2.937.81,4.065a.8.8,0,0,0,1.369,0C886.325,181.784,884.979,178.938,885.493,176.728Z" transform="translate(-753.353 -38.231)" fill="#ad583e"/><path d="M878.851,167.025c-.4-1.619-2.827-.931-2.486.685a22.094,22.094,0,0,0,.688,2.392,5.327,5.327,0,0,0,1.181,2.33.914.914,0,0,0,1.511-.4C880.206,170.477,879.228,168.537,878.851,167.025Z" transform="translate(-756.361 -42.447)" fill="#ad583e"/><path d="M893.819,154.517c-1.12-.571-2.109,1.115-.987,1.687a6.1,6.1,0,0,1,1.5,1.1,9.573,9.573,0,0,0,1.169,1.188.7.7,0,0,0,1.047-.6C896.687,156.405,894.984,155.109,893.819,154.517Z" transform="translate(-749.004 -47.825)" fill="#ad583e"/><path d="M896.69,161.468a1.141,1.141,0,0,0-2.281,0,7.707,7.707,0,0,0,.393,3.6.873.873,0,0,0,1.5,0A7.71,7.71,0,0,0,896.69,161.468Z" transform="translate(-748.066 -45.083)" fill="#ad583e"/><path d="M806.987,162.8a3.222,3.222,0,0,0-1.851.758,12.888,12.888,0,0,1-1.947,1,1.209,1.209,0,0,0,.642,2.33c1.392-.369,3.678-1.3,4.142-2.789A1.035,1.035,0,0,0,806.987,162.8Z" transform="translate(-790.363 -43.964)" fill="#ad583e"/><path d="M810.5,165.917c-.7.168-1.1.753-1.69,1.121a3.017,3.017,0,0,1-1.851.534c-1.5-.061-1.466,2.191,0,2.311,1.838.15,4.5-1.009,4.741-3.052C811.779,166.19,811.039,165.787,810.5,165.917Z" transform="translate(-788.758 -42.543)" fill="#ad583e"/><path d="M814.6,154.9c-1.69.969-2.226,3.151-3.246,4.71-.771,1.178.962,2.477,1.931,1.49a9.194,9.194,0,0,0,2.341-5.611A.688.688,0,0,0,814.6,154.9Z" transform="translate(-786.314 -47.635)" fill="#ad583e"/><path d="M802.7,173.048a14.88,14.88,0,0,0-1.779.561c-.255.1-.485.2-.741.295-.385.139-.213.07-.292-.009-1.346-1.328-3.442.768-2.076,2.076a3.111,3.111,0,0,0,3.262.692,5.593,5.593,0,0,0,2.722-2.188C804.334,173.757,803.451,172.86,802.7,173.048Z" transform="translate(-792.657 -39.265)" fill="#ad583e"/><path d="M886.827,225.746a3.6,3.6,0,0,0-1.381-1.982,1.087,1.087,0,0,0-1.311,1.7c-.209-.238-.2-.336-.06.012.044.112.12.226.166.34.147.359.252.739.369,1.108a3.58,3.58,0,0,0,1.111,2.007.893.893,0,0,0,1.2-.314C887.468,227.858,887.112,226.553,886.827,225.746Z" transform="translate(-752.905 -16.015)" fill="#ad583e"/><path d="M890.049,224.611a1.068,1.068,0,0,0-2.058.568c.283,1.147-.01,2.617.578,3.642a.9.9,0,0,0,1.4.18C891,227.882,890.491,225.9,890.049,224.611Z" transform="translate(-751.02 -15.896)" fill="#ad583e"/><path d="M886.559,219.144c-1.127.318-.962,2.265.289,2.124a2.922,2.922,0,0,1,1.785.239c.53.3.866.874,1.315,1.267a.992.992,0,0,0,1.67-.692C891.891,219.439,888.557,218.579,886.559,219.144Z" transform="translate(-752.008 -18.142)" fill="#ad583e"/><path d="M885.449,229.882a7.519,7.519,0,0,0-1.952,1.651c-.629.663-1.283,1.3-1.9,1.975a.942.942,0,0,0,1.331,1.331c1.238-1.125,3.125-2.53,3.369-4.3A.587.587,0,0,0,885.449,229.882Z" transform="translate(-754.062 -13.164)" fill="#ad583e"/><path d="M900.129,232.1a1.268,1.268,0,0,0-2.534,0,25.521,25.521,0,0,0-.015,2.894,11.712,11.712,0,0,0,.007,2.743,1,1,0,0,0,1.66.438,4.744,4.744,0,0,0,.871-2.817A15.387,15.387,0,0,0,900.129,232.1Z" transform="translate(-746.638 -12.672)" fill="#ad583e"/><path d="M894.205,239.088c-.477,1.077-.953,3.715.723,4.1,1.6.372,1.252-2.324,1.39-3.213C896.5,238.813,894.785,237.78,894.205,239.088Z" transform="translate(-748.352 -9.179)" fill="#ad583e"/><path d="M897.958,208.8a.78.78,0,0,0-1.409-.184,7.214,7.214,0,0,0-.879,2.785c-.181,1.026-.469,2.008-.749,3.01a1.072,1.072,0,0,0,1.95.822A9.686,9.686,0,0,0,897.958,208.8Z" transform="translate(-747.835 -23.076)" fill="#ad583e"/><path d="M894.7,193.591a1.113,1.113,0,0,0-2.144-.591,7.1,7.1,0,0,0-.028,3.135,8.32,8.32,0,0,0,1.054,3.245c.347.5,1.3.534,1.435-.187C895.356,197.362,894.335,195.41,894.7,193.591Z" transform="translate(-748.992 -30.445)" fill="#ad583e"/><path d="M853.9,178.5c-.331-.477-.715-.908-1.086-1.353-.139-.165-.271-.333-.412-.5-.072-.083-.632-.833-.355-.362-.59-1-2.35-.346-1.937.816q.09-.528,0,.073a1.165,1.165,0,0,0,.163.6,3.651,3.651,0,0,0,.293.547c.271.425.6.82.909,1.219.718.931,1.182,1.991,1.937,2.894a.8.8,0,0,0,1.325-.349A3.923,3.923,0,0,0,853.9,178.5Z" transform="translate(-768.444 -37.992)" fill="#ad583e"/><path d="M857.239,196.428a31.436,31.436,0,0,0-.857-3.211,1.157,1.157,0,0,0-2.229.614,53.15,53.15,0,0,0,1.3,5.275c.216.569,1.114.852,1.436.187A4.22,4.22,0,0,0,857.239,196.428Z" transform="translate(-766.576 -30.358)" fill="#ad583e"/><path d="M865.228,198.409c-.864,2.408-1.177,6.022-.094,8.4a1.012,1.012,0,0,0,1.74,0c1.019-2.382-.058-5.28.54-7.793A1.135,1.135,0,0,0,865.228,198.409Z" transform="translate(-761.826 -27.959)" fill="#ad583e"/><path d="M865.788,176.624a12.464,12.464,0,0,1-.568-2.776,1.26,1.26,0,0,0-2.518,0c.015,1.994.667,4.872,2.435,6.063a.808.808,0,0,0,1.2-.69A8.124,8.124,0,0,0,865.788,176.624Z" transform="translate(-762.626 -39.445)" fill="#ad583e"/><path d="M837.077,175.631c-.775-1.063-2.566-.026-1.778,1.039.816,1.1,1.327,2.449,2.372,3.37a.592.592,0,0,0,1-.413A6.747,6.747,0,0,0,837.077,175.631Z" transform="translate(-775.312 -38.271)" fill="#ad583e"/><path d="M840.6,160.853a16.026,16.026,0,0,0-2.309-3.071A1.339,1.339,0,0,0,836.2,159.4c.673,1.1,1.363,2.191,2.042,3.289a11.908,11.908,0,0,0,.949,1.23,5.267,5.267,0,0,0,1.166,1.3.943.943,0,0,0,1.4-.806A6.852,6.852,0,0,0,840.6,160.853Z" transform="translate(-774.896 -46.448)" fill="#ad583e"/><path d="M860.3,219.04a10.555,10.555,0,0,0-2.226,3.045c-.906,1.474,1.411,2.823,2.315,1.353a7.63,7.63,0,0,0,1.438-3.521A1.022,1.022,0,0,0,860.3,219.04Z" transform="translate(-764.849 -18.189)" fill="#ad583e"/><path d="M880.208,192.374c.461-1.584-1.9-2.194-2.443-.674a5.8,5.8,0,0,0,.235,4.253,11.748,11.748,0,0,0,2.249,3.671.909.909,0,0,0,1.531-.633C882.01,196.67,879.511,194.758,880.208,192.374Z" transform="translate(-755.842 -31.083)" fill="#ad583e"/><path d="M842.989,209.018c-.187-1.079.074-2.219-.187-3.259a.659.659,0,0,0-1.089-.288c-1.791,1.538-1.134,5.933.533,7.342a.8.8,0,0,0,1.353-.56A18.046,18.046,0,0,0,842.989,209.018Z" transform="translate(-772.764 -24.432)" fill="#ad583e"/><path d="M873.587,220.06a.885.885,0,0,0-1.6-.209,6.026,6.026,0,0,0-.577,1.286c-.22.542-.526,1-.695,1.565a4.452,4.452,0,0,0-.088,2.969,1.209,1.209,0,0,0,2.33-.642C872.636,223.383,874.113,221.718,873.587,220.06Z" transform="translate(-759.083 -17.931)" fill="#ad583e"/><path d="M845.52,226.413a8.686,8.686,0,0,0-1.722,4.1c-.285,1.368,1.814,1.953,2.1.579.136-.654.258-1.312.45-1.953a14.1,14.1,0,0,0,.572-1.908C847.033,226.47,846.149,225.743,845.52,226.413Z" transform="translate(-771.328 -14.846)" fill="#ad583e"/><path d="M801.8,130.523c-.825-1.137-2.441-1.919-2.779-3.348-.349-1.476-2.621-.851-2.271.626a5.8,5.8,0,0,0,4.064,4.007C801.486,131.95,802.284,131.188,801.8,130.523Z" transform="translate(-792.957 -60.726)" fill="#693324"/><path d="M802.185,125.929c-1.439-.061-1.414,2.119,0,2.222.753.055,1.446.454,2.213.46a.631.631,0,0,0,.622-.622C805.034,126.493,803.4,125.98,802.185,125.929Z" transform="translate(-790.934 -60.912)" fill="#693324"/><path d="M796.632,118.443c.712-.812-.264-2.356-1.239-1.606a2.892,2.892,0,0,0-1.225,2.821c.121.985.76,2.477,1.819,2.718a.911.911,0,0,0,1.134-.864C797.194,120.546,795.814,119.372,796.632,118.443Z" transform="translate(-794.14 -65.183)" fill="#693324"/><path d="M809.138,143.179a.728.728,0,0,0-1.314-.172c-.781,1.28-1.458,2.61-2.28,3.886-.705,1.092.969,2.43,1.826,1.409C808.582,146.859,809.754,145.113,809.138,143.179Z" transform="translate(-788.976 -53.22)" fill="#693324"/><path d="M813.356,134.832a5.562,5.562,0,0,0-2.408,1.893,7.232,7.232,0,0,0-1.546,2.709,1.045,1.045,0,0,0,2.014.555,5.486,5.486,0,0,1,1.417-2.211,5.4,5.4,0,0,0,1.508-1.962A.808.808,0,0,0,813.356,134.832Z" transform="translate(-787.147 -56.831)" fill="#693324"/><path d="M822.334,203.074c0-1.521-.015-3.039-.057-4.56a1.194,1.194,0,0,0-2.386,0c-.042,1.521-.057,3.039-.057,4.56a7.187,7.187,0,0,0,.54,3.757.83.83,0,0,0,1.42,0A7.185,7.185,0,0,0,822.334,203.074Z" transform="translate(-782.335 -28.078)" fill="#693324"/><path d="M816.835,213.791c-.65,2.538-.857,5.586.526,7.921a.686.686,0,0,0,1.27-.343,26.447,26.447,0,0,1,.434-6.964A1.157,1.157,0,0,0,816.835,213.791Z" transform="translate(-783.94 -20.904)" fill="#693324"/><path d="M823.957,216.809c.263-1.5-2.06-2.125-2.286-.631a5.562,5.562,0,0,0,.976,4.591.686.686,0,0,0,1.14-.3C824.025,219.256,823.745,218.018,823.957,216.809Z" transform="translate(-781.535 -19.823)" fill="#693324"/><path d="M812.559,239.322c-.112-.638-.925-.571-1.232-.161-.918,1.223-3,5.532-.864,6.564a1,1,0,0,0,1.448-1.112,6.705,6.705,0,0,1,.453-2.473A6.909,6.909,0,0,0,812.559,239.322Z" transform="translate(-787.066 -9.009)" fill="#693324"/><path d="M817.207,232.176a6.542,6.542,0,0,0-2.946,3.248c-.6,1.2,1.2,2.258,1.8,1.054.577-1.152,1.7-2.226,1.924-3.518C818.06,232.543,817.7,231.97,817.207,232.176Z" transform="translate(-784.947 -12.096)" fill="#693324"/><path d="M818.539,242.645a22.4,22.4,0,0,0-1.8,3.89c-.31.781,1.039,1.357,1.368.577.543-1.284,1.563-2.73,1.52-4.17A.59.59,0,0,0,818.539,242.645Z" transform="translate(-783.772 -7.391)" fill="#693324"/><path d="M824.756,247.354c-1.077.8-1.69,2.611-1.986,3.881a.794.794,0,0,0,1.53.42c.363-1.241,1.448-2.407,1.527-3.687A.715.715,0,0,0,824.756,247.354Z" transform="translate(-780.992 -5.15)" fill="#693324"/><path d="M828.88,237.6a.709.709,0,0,0-1.177-.311A19.381,19.381,0,0,0,825.861,240c-.882,1.334,1.368,2.664,2.15,1.257A5.864,5.864,0,0,0,828.88,237.6Z" transform="translate(-779.652 -9.819)" fill="#693324"/><path d="M848.829,240.246c-.66-.2-1.328-.425-1.987-.578-.482-.111-1.22-.2-1.344-.762-.266-1.214-2.007-.673-1.829.5a2.769,2.769,0,0,0,2.092,2.06,4.377,4.377,0,0,0,3.189-.289A.516.516,0,0,0,848.829,240.246Z" transform="translate(-771.38 -9.298)" fill="#693324"/><path d="M858.4,238.547c-1.46-.381-3.332,1.423-3.706,2.749-.3,1.052,1.33,1.81,1.814.765.471-1.02,1.943-1.292,2.388-2.295A.844.844,0,0,0,858.4,238.547Z" transform="translate(-766.325 -9.171)" fill="#693324"/><path d="M867.453,238.284c-1.337-.251-3.115,1.209-3.521,2.458-.375,1.155,1.07,1.721,1.857,1.082.746-.6,2.025-1.515,2.284-2.446A.9.9,0,0,0,867.453,238.284Z" transform="translate(-762.089 -9.282)" fill="#693324"/><path d="M877.018,237.529c-1.489.1-2.6,1.582-3.362,2.725-.689,1.033.979,2,1.664.972.639-.96,1.779-1.655,2.286-2.671A.689.689,0,0,0,877.018,237.529Z" transform="translate(-757.666 -9.616)" fill="#693324"/><path d="M881.095,240.611c-.556,1.306-1.032,3.134-.016,4.332a.894.894,0,0,0,1.4-.181c.489-1,.263-2.246.585-3.324C883.4,240.3,881.581,239.473,881.095,240.611Z" transform="translate(-754.453 -8.449)" fill="#693324"/><path d="M884.21,239.339c.166.574.457,1.362,1.187,1.362s1.02-.788,1.185-1.362C887.151,237.361,883.638,237.349,884.21,239.339Z" transform="translate(-752.769 -9.468)" fill="#693324"/><path d="M884.347,244.96a2.535,2.535,0,0,0-1.228,2.309,2.2,2.2,0,0,0,1.544,2.14.988.988,0,0,0,1.229-.936c.085-.779-.42-1.225.015-1.953C886.465,245.588,885.306,244.284,884.347,244.96Z" transform="translate(-753.244 -6.286)" fill="#693324"/><path d="M892.179,157.2c-.095-.1-.184-.12-.267-.06a1.245,1.245,0,1,0-.963,2.286,1.674,1.674,0,0,0,1.23-.009A1.161,1.161,0,0,0,892.179,157.2Z" transform="translate(-750.043 -46.636)" fill="#693324"/></g><path d="M812.047,101.194s-5.967.273-4.821,2.248,5.928,1.146,6.757,1.819,0,3.178.711,3.308,3.843-3.481,3.556-5.126S814.5,101.159,812.047,101.194Z" transform="translate(17.077 15.736)" fill="#6e5656"/></g></g></svg>