<svg xmlns="http://www.w3.org/2000/svg" xmlns:xlink="http://www.w3.org/1999/xlink" width="269" height="194" viewBox="0 0 269 194"><defs><clipPath id="a"><rect width="269" height="194" transform="translate(978 884)" fill="#fff" stroke="#707070" stroke-width="1"/></clipPath></defs><g transform="translate(-978 -884)" clip-path="url(#a)"><g transform="translate(773.948 556.702)"><g transform="translate(225.052 335.372)"><path d="M236.765,483.85s-13.5-3.275-11.514,10.918,17.965,21.837,28.388,14.294C251.356,503.5,236.765,483.85,236.765,483.85Z" transform="translate(-225.052 -287.024)" fill="#753b2a"/><path d="M315.9,359.724s9.209-5.1,12.319.793,2.39,16.722-9.757,18.022S315.9,359.724,315.9,359.724Z" transform="translate(-196.575 -328.093)" fill="#753b2a"/><path d="M232.514,483.657s-6.581,26.32,17.429,26.386C249.587,498.545,234.351,481.771,232.514,483.657Z" transform="translate(-222.886 -287.028)" fill="#572b1e"/><path d="M316.965,363.66s-.318,7.859.641,8.454,5.939-1.273,6.105-4.417-1.456-5.063-2.515-5.393S317.036,362.933,316.965,363.66Z" transform="translate(-195.073 -326.604)" fill="#c77447"/><path d="M336.044,406.672s-.2-5.2-1.422-7.213-2.052-5.658,1.422-5.724,3.706.3,3.706.3l20.646-3.409s9.729,24.053-2.564,32.97S336.044,406.672,336.044,406.672Z" transform="translate(-189.64 -317.34)" fill="#964c36"/><path d="M307.452,402.724s35.591,16.409,41.017,0c4.633,0,22.366,12.44,15.618,20.91s-50.953,21.837-64.187,14.16S307.452,402.724,307.452,402.724Z" transform="translate(-202.064 -313.392)" fill="#753b2a"/><path d="M330.287,428.277c.058-.375.4-4.169,1.72-4.567s18.33-2.415,22.565-5.971,4.649-11.249,4.649-11.249l-1.737-6.8s-9.462-9.23-11.05-12.953,1.455-16.89-6.287-24.235c2.173-.265,4.443-1.175,3.594-2.763s-5.315-1.588-5.315-1.588,3.474-2.085,2.283-4.219-7.445-.248-7.445-.248,1.986-3.027.348-4.516-8.982,4.02-9.181,4.02-7.99-1.986-13.2-1.39c0,0-2.714-16.36-10.323-16.427s-12.838,5.691-13.367,9.4,1.72,12.241,3.044,14.027c0,0-25.344,16.583-25.608,36.216-16.411,16.986-31.1,67.91-32.16,95.186s-10.877,68.619,39.822,75.21l65.985-48.5S329.03,436.481,330.287,428.277Z" transform="translate(-222.99 -335.372)" fill="#964c36"/><path d="M332,417.962c1.1-.33,13.1-1.789,19.516-4.325-8.613.316-21.625-8.483-25.658-8.741-4.621-.3-12.452,5.324-24.1-5.925s-11.184-45.923-11.184-45.923-25.344,16.582-25.608,36.216c-16.411,16.986-31.1,67.91-32.16,95.186s-10.877,68.618,39.822,75.21l13.527-9.942a40.99,40.99,0,0,1-7.559-7.64c-15.087-20.2-5.823-66.878,0-72.12s28.85,4.845,39.575,0c-7.4-1.271-26.87-16.462-19.459-31.02s25.381-13.631,25.381-13.631,2.529-1.057,6.157-2.567c.009-.07.016-.15.025-.212C330.332,422.153,330.673,418.359,332,417.962Z" transform="translate(-222.994 -329.603)" fill="#753b2a"/><path d="M316.686,416.372s-7.7,88.537,4.413,114.939c5.161,4.764,71.663,2.86,74.442-1.151s5.758-89.371,0-111.009C393.358,416.372,345.228,411.806,316.686,416.372Z" transform="translate(-195.935 -309.571)" fill="#b86a25"/><path d="M389.811,525.393c2.37-18.94,4.063-87.22-1-106.246-1.618-2.06-28.491-5.1-53.913-4.674.078,16.141.845,106.432,8.255,111.674C349.192,530.417,375.659,528.895,389.811,525.393Z" transform="translate(-189.205 -309.571)" fill="#cc7629"/><g transform="translate(136.281 104.963)"><path d="M365.264,433.361c.4,11.584,1.249,23.143,1.341,34.738.093,11.7-.183,23.464-1.163,35.128-.81,9.632-1.759,19.765-3.2,29.536,1.556-.114,3.048-.237,4.46-.369,1.878-19.907,4.882-39.523,4.54-59.7-.188-11.127-.9-22.233-1.529-33.341-.333-5.854-.362-11.759-.885-17.6a41.838,41.838,0,0,0-1.092-5.653c-1.04-.127-2.125-.253-3.264-.374C365.1,421.59,365.061,427.468,365.264,433.361Z" transform="translate(-316.561 -414.112)" fill="#8a4f1c"/><path d="M348.306,531.818c-.031.6-.086,1.5-.123,2.175q2.19-.044,4.366-.111c.141-3.329.789-7.471.967-10.17.37-5.654.72-11.288.785-16.956.122-10.79-.655-21.556-.858-32.34-.208-11.071-.485-22.363-1.633-33.376-.909-8.726-.241-17.6-1.146-26.316q-1.88-.082-3.8-.147c-.362,1.142-.149,2.389-.106,4.561q.086,4.329.06,8.653c-.036,5.374.517,10.473.948,15.821.976,12.1,1.089,24.324,1.314,36.46.207,11.255.9,22.455.422,33.718C349.25,519.809,348.615,525.806,348.306,531.818Z" transform="translate(-321.647 -414.487)" fill="#8a4f1c"/><path d="M334.429,506.166c-.431-11.111-.779-22.275-.822-33.387-.042-10.689-1.305-21.077-.748-31.816.454-8.755,1.637-17.644,1.972-26.454-1.57.041-3.133.09-4.678.161-.7,8.763-1.517,17.517-2.121,26.293-.8,11.661.741,23.082.771,34.724s.606,23.333.9,34.989c.19,7.473-.074,15.391.553,23.017,1.543.094,3.177.17,4.878.231C334.177,524.791,334.779,515.169,334.429,506.166Z" transform="translate(-327.801 -414.509)" fill="#8a4f1c"/></g><g transform="translate(161.293 105.053)"><path d="M348.525,528.412c1.4.123,2.91.206,4.487.249.2-1.822.414-3.577.5-4.95.37-5.654.72-11.288.785-16.956.122-10.79-.655-21.556-.858-32.34-.208-11.071-.485-22.363-1.633-33.376-.909-8.726-.241-17.6-1.146-26.316q-1.88-.082-3.8-.147c-.362,1.142-.149,2.389-.106,4.561q.086,4.329.06,8.653c-.036,5.374.517,10.473.948,15.821.976,12.1,1.089,24.324,1.314,36.46.207,11.255.9,22.455.422,33.718C349.3,518.672,348.854,523.54,348.525,528.412Z" transform="translate(-346.66 -414.577)" fill="#9e5b20"/><path d="M369.553,439.349c-.333-5.854-.362-11.759-.885-17.6a41.838,41.838,0,0,0-1.092-5.653c-1.04-.127-2.125-.253-3.264-.374.625,5.864.586,11.742.789,17.635.4,11.584,1.249,23.143,1.341,34.738.093,11.7-.183,23.464-1.163,35.128-.674,8-1.471,16.333-2.539,24.528,1.45-.127,2.894-.275,4.32-.44,1.862-18.171,4.334-36.163,4.021-54.624C370.894,461.564,370.183,450.457,369.553,439.349Z" transform="translate(-341.412 -414.202)" fill="#9e5b20"/></g><path d="M315.96,426.251s76.024,1.687,82.033,4.564c2.3,1.552,1.1,8.3,1.1,8.3l-84.559-1.191S311.426,430.723,315.96,426.251Z" transform="translate(-196.19 -305.714)" fill="#453930"/><path d="M315.578,489.624l81.92-1.588s.708,6.686-.771,7.181-77.576,1.887-81.149,0Z" transform="translate(-195.51 -285.552)" fill="#453930"/><path d="M322.923,510.337c0-.6,3.971-26.005,0-37.717s-7.941-14.69-9.528-23.227-2.183-39.7-3.772-43.672-7.345,1.986-9.528,13.1-.129,26.064-1.39,30.174-9.131,29.182,1.39,51.613S322.923,510.337,322.923,510.337Z" transform="translate(-202.325 -312.816)" fill="#d18a4b"/><path d="M299.663,412.69l9.562,2.742s.562-9.657-2.316-10.864S300.59,409.978,299.663,412.69Z" transform="translate(-200.703 -312.838)" fill="#c77447"/><path d="M305.543,408.039s18.375,19.628,37.234,25.385c3.175,3.872-2.482,5.658-2.482,5.658s4.268,2.73,3.45,5.459-4.988,2.73-4.988,2.73,3.425,2.878,2.63,4.516-4.813,2.63-4.813,2.63,2.4,2.332.346,4.053-30.9.661-44.268-10.323C283.52,440.6,301.771,402.548,305.543,408.039Z" transform="translate(-203.816 -311.834)" fill="#964c36"/><path d="M315.278,469.695s19.72,8.8,25.939,8.933,19.72-5.557,21.572-3.573S361.2,482.2,361.2,482.2s3.706-1.787,3.9.861-3.772,8.933-3.772,8.933,2.647-2.249,2.581,1.324-4.368,8.073-4.368,8.073-4.633,16.608-7.213,18.2-18.33,4.567-37.057,7.146-60.017-5.675-71.531-14.054S291.721,458.711,315.278,469.695Z" transform="translate(-219.428 -292.091)" fill="#964c36"/><path d="M303.1,373.341s-1.191,5.061.728,6.451,3.9-3.11,3.175-6.451S303.526,371.024,303.1,373.341Z" transform="translate(-199.702 -323.679)"/><path d="M313.124,373.734s-1.191,5.061.727,6.451,3.9-3.11,3.177-6.451S313.554,371.417,313.124,373.734Z" transform="translate(-196.43 -323.551)"/><path d="M307.51,373.336a1.5,1.5,0,1,1-1.5-1.5A1.5,1.5,0,0,1,307.51,373.336Z" transform="translate(-199.122 -323.472)" fill="#fff"/><circle cx="1.501" cy="1.501" r="1.501" transform="translate(118.54 48.945)" fill="#fff"/><path d="M307.412,363.8s-3.876-.049-4.118,2.322,4.743,1.667,5.308.153A1.732,1.732,0,0,0,307.412,363.8Z" transform="translate(-199.521 -326.096)" fill="#452d2a"/><path d="M315.012,365s3.686,1.2,3.149,3.525-5.027.048-5.072-1.568A1.73,1.73,0,0,1,315.012,365Z" transform="translate(-196.322 -325.717)" fill="#452d2a"/><path d="M305.408,391.677a3.568,3.568,0,0,0-4.9,1.589c-1.72,3.242,2.317,6.947,6.254,3.87C306.4,395.845,305.408,391.677,305.408,391.677Z" transform="translate(-200.559 -317.135)" fill="#ed503e"/><path d="M306.168,390.35a7.4,7.4,0,0,0,0,5.881c1.415,2.879,7.4,3.846,8.363.968,1.439-.67-.174,3.921-5.9,2.482a6.153,6.153,0,0,1-4.418-8.561C305.1,389.581,306.292,389.581,306.168,390.35Z" transform="translate(-199.392 -317.595)" fill="#ed7061"/><path d="M327.737,383.865s-5.36.943-5.211,2.333.989,3.772,2.6,4.715,4.1,0,4.344-.248S330.615,384.064,327.737,383.865Z" transform="translate(-193.243 -319.546)" fill="#452d2a"/><path d="M280.465,353.345s8.339-3.374,8.388-4.169.645-5.608-3.624-5.906S277.984,348.134,280.465,353.345Z" transform="translate(-207.263 -332.798)" fill="#d18a4b"/><path d="M339.717,415.146s8.634.033,8.933.2.97,13.3.617,13.367-3.2-9.032-3.2-9.032-.728,5.889-1.29,5.393-1.158-7.676-1.158-7.775-7.047-1.077-7.014-1.382S338.427,415.279,339.717,415.146Z" transform="translate(-188.647 -309.338)" fill="#e6852e"/><path d="M351.982,415.483s13.675.4,14.431,1.142.657,14.193.259,14.193-2.828-8.585-2.828-8.585-.845,2.531-1.192,2.431-3.173-6.1-3.173-6.1l-6.74-.248s-.31,2.878-.756,2.63S351.144,415.457,351.982,415.483Z" transform="translate(-183.79 -309.228)" fill="#e6852e"/><path d="M367.847,416.992s9.066.629,9.926,1.787,1.984,13.1,1.092,12.7-3.739-9.892-3.739-9.892-2.316,3.044-2.944,2.316a21.841,21.841,0,0,1-1.753-3.971s-.7,1.224-1.125,1.027S367.225,416.944,367.847,416.992Z" transform="translate(-178.498 -308.736)" fill="#e6852e"/><path d="M376.356,441.232s4.1,41.952,0,57.965c0,0-1.853,2.118-1.919-2.911s-.661-15.947-.661-15.947-.993,2.249-1.257,1.125-2.118-24.947-1.257-26.336,1.787,2.382,1.787,1.125.4-15.815,1.257-16.146S376.326,440.9,376.356,441.232Z" transform="translate(-177.412 -301.212)" fill="#e6852e"/><path d="M365.383,440.746s.309,27.918-1.18,39.234-3.374,6.748-3.374,6.748-2.382,15.385-3.772,15.385a2.633,2.633,0,0,1-2.382-1.775c-.2-.607.7-51.259,1.291-52.037s2.878,0,2.878,0,1.078-9.316,1.184-10.209S365.372,439.626,365.383,440.746Z" transform="translate(-182.76 -301.913)" fill="#e6852e"/><path d="M341.083,428.093s38.562,1.291,39.6,1.986-2.78,2-2.78,2l3.971,2.661-.546,2.035s-35.335-.1-35.633-.348.744-1.737.744-1.737-5.9-.694-6.1-1.141,2.035-2.134,2.035-2.134Z" transform="translate(-187.433 -305.113)" fill="#5e4e42"/><path d="M346.106,489.789l35.434-1.042-.894,2.088s1.439.989,1.39,1.337-4.446.7-4.446.7l1.121,1.439s-30.434,1.191-31,.844,0-1.49,0-1.49a37.54,37.54,0,0,1-4.584-.447c-.1-.2-.5-2.63,0-2.679s2.927-.248,2.927-.248Z" transform="translate(-186.599 -285.32)" fill="#5e4e42"/><path d="M344.975,392.525s-5.756-2.317-7.939,0-1.886,8.5.959,9.991,5.922-1.324,6.683-.826,2.647,5.128,2.15,8.271-2.547,6.451.5,6.187,4.3-5.459,4.929-4.766-.959,12.771,2.317,11.846,4.169-6.955,3.606-10.641-.96-8.218-.96-8.218,3.11,2.448,4.5-1.753-1.82-15.716-7.179-16.444S346.464,393.252,344.975,392.525Z" transform="translate(-188.976 -318.809)" fill="#ffa100"/><path d="M355.049,398.067c1.714-.042,5.454,4.114,6.543,1.459-.227-5.125-3.151-12.763-7.486-13.352-5.36-.728-8.073,7.08-9.562,6.352,0,0-3.784-1.521-6.38-.863-.939,1.539-2.183,4.456-.139,6.951,2.929,3.573,5.063-1.191,7.345-.943s4.467,7.345,3.573,11.365,5.311,1.291,5.559-3.028S353.064,398.117,355.049,398.067Z" transform="translate(-188.545 -318.809)" fill="#fd0"/><path d="M343.135,391.8s-4.327-1.809-5.807-.091,2.966,1.381,4.218,1.792,4.41,1.008,4.577-.15S343.979,392.107,343.135,391.8Z" transform="translate(-188.509 -317.227)" fill="#fff"/><path d="M354.668,394.108s-1.265-3.6-3.921-3.747-4.437,1.488-4.525-.472,4.055-4.02,6.685-2.531,3.647,5.335,3.226,6.278S355.025,394.909,354.668,394.108Z" transform="translate(-185.51 -318.573)" fill="#fff"/><path d="M352.223,404.8s1.666,8.337-.716,9.2-2.382-3.845-2.183-7.233S351.879,403.571,352.223,404.8Z" transform="translate(-184.523 -312.981)" fill="#fd0"/><path d="M267.56,480.209l-.1-.755c-17.025,11.222-29.614,25.2-23.71,29.5,11.514,8.377,52.805,16.634,71.532,14.054s34.474-5.559,37.055-7.146C295.168,522.609,267.56,480.209,267.56,480.209Z" transform="translate(-219.431 -288.352)" fill="#753b2a"/><path d="M308.9,405.186a34.533,34.533,0,0,0-10.753,0c-6.022.927-6.221-4.433,0-6.75S311.515,404.062,308.9,405.186Z" transform="translate(-202.696 -314.929)" fill="#572b1e"/><path d="M276.741,425.374s12.566,19.069,26.736,20.981C289.46,448.137,273.814,435.829,276.741,425.374Z" transform="translate(-208.3 -306)" fill="#572b1e"/><path d="M302.712,470.348s-14.915-6.223-27.52-.985C280.995,461.7,298.371,461.927,302.712,470.348Z" transform="translate(-208.689 -293.456)" fill="#753b2a"/></g><g transform="translate(241.654 338.349)"><path d="M312.5,388.716c-.419-.334-1.089-.737-1.4-.974-.35-.263-.613-.546-.928-.784a1.236,1.236,0,0,0-2,.17c.126-.2.069-.133-.174.206a1.467,1.467,0,0,0-.2.748,1.844,1.844,0,0,0,.1.625,3.214,3.214,0,0,0,.877,1.237,4.467,4.467,0,0,0,2.634,1.414A1.561,1.561,0,0,0,312.5,388.716Z" transform="translate(-214.653 -321.655)" fill="#ad583e"/><path d="M317.91,384.279a3.389,3.389,0,0,0-.825-.615l-.157-.088c-.534-1.879-3.85-.9-3.113,1.017a3.094,3.094,0,0,0,3.155,1.952A1.343,1.343,0,0,0,317.91,384.279Z" transform="translate(-212.722 -322.948)" fill="#ad583e"/><path d="M319.667,391.749c.088.129.054.088-.1-.122a1.378,1.378,0,0,0-.515-.472,2.672,2.672,0,0,0-.857-.284,3.422,3.422,0,0,0-1.564.009,1.783,1.783,0,0,0,.472,3.486c-.572-.005.175.049.325.081a2.18,2.18,0,0,0,.7.129c.52-.056.653-.077.4-.061A1.636,1.636,0,0,0,319.667,391.749Z" transform="translate(-212.181 -320.265)" fill="#ad583e"/><path d="M291.622,383.988c-.269-.324-.485-.625-.809-1-.107-.122-.208-.265-.318-.418,0-.013-.009-.024-.011-.037a1.27,1.27,0,0,0-1.841-.749,2.081,2.081,0,0,0-.857,2.95,3.832,3.832,0,0,0,2.418,1.688,1.472,1.472,0,0,0,1.646-.67A1.517,1.517,0,0,0,291.622,383.988Z" transform="translate(-221.277 -323.247)" fill="#ad583e"/><path d="M299.99,384.661a6.724,6.724,0,0,1-.545-1.43c-.418-1.91-3.3-1.094-2.919.805a3.394,3.394,0,0,0,1.69,2.4,1.268,1.268,0,0,0,1.309,0,1.965,1.965,0,0,0,.466-.466A1.3,1.3,0,0,0,299.99,384.661Z" transform="translate(-218.341 -323.086)" fill="#ad583e"/><path d="M285.689,370.365c-.013,0-.027,0-.041,0l-.007-.005a1.715,1.715,0,0,0-2.566,1.472c.08,1.263.474,2.9,1.944,3.159a1.455,1.455,0,0,0,1.757-1,3.37,3.37,0,0,0-.03-1.475A1.4,1.4,0,0,0,285.689,370.365Z" transform="translate(-222.72 -327.014)" fill="#ad583e"/><path d="M295.019,371.552a1.564,1.564,0,0,0-3.015.83,7.835,7.835,0,0,0,.768,1.879,1.418,1.418,0,0,0,2.623-.712A7.913,7.913,0,0,0,295.019,371.552Z" transform="translate(-219.822 -326.904)" fill="#ad583e"/><path d="M284.935,359.462a1.669,1.669,0,0,0-1.44.825c-.572,1.015-.954,2.658-.252,3.712a1.54,1.54,0,0,0,2.625,0,6.239,6.239,0,0,0,.686-2.43A1.715,1.715,0,0,0,284.935,359.462Z" transform="translate(-222.788 -330.487)" fill="#ad583e"/><path d="M295.13,359.045a5.873,5.873,0,0,0-1.251.984,2.035,2.035,0,1,0,3.4,1.98,9.465,9.465,0,0,1,.253-1.117A1.652,1.652,0,0,0,295.13,359.045Z" transform="translate(-219.379 -330.698)" fill="#ad583e"/><path d="M308.638,359.9a2.4,2.4,0,0,0-2.373-.289,1.3,1.3,0,0,0,.694,2.512,2.569,2.569,0,0,0,1.834-1.02A1.007,1.007,0,0,0,308.638,359.9Z" transform="translate(-215.454 -330.495)" fill="#ad583e"/><path d="M302.137,352.143c-.715-.755-1.906-.668-2.871-.722-1.9-.1-1.9,3.056,0,2.952.964-.052,2.159.031,2.871-.722A1.089,1.089,0,0,0,302.137,352.143Z" transform="translate(-217.901 -333.112)" fill="#ad583e"/><path d="M278.349,355.684a3.608,3.608,0,0,0-.086,1.952,1.676,1.676,0,0,0,3.206,0c.107-.341.122-.691.206-1.036C282.195,354.445,278.938,353.536,278.349,355.684Z" transform="translate(-224.322 -332.12)" fill="#ad583e"/><path d="M290.469,350.651a7.5,7.5,0,0,0-.727.191c-.212.08-.394-.034-.056.113a1.8,1.8,0,1,0-1.386,3.288,4.563,4.563,0,0,0,3.08-.286A1.715,1.715,0,0,0,290.469,350.651Z" transform="translate(-221.442 -333.384)" fill="#ad583e"/><path d="M279.506,344.327a2.156,2.156,0,0,0-.054-.594,1.132,1.132,0,0,0-1.383-.786,3.73,3.73,0,0,0-.44.211,1.91,1.91,0,0,0-1.244.857,4.289,4.289,0,0,0-.552,1.135,2.253,2.253,0,0,0,1.005,2.626,1.57,1.57,0,0,0,2.3-1.718c.034-.056.076-.126.092-.156A2.115,2.115,0,0,0,279.506,344.327Z" transform="translate(-225.118 -335.893)" fill="#ad583e"/><path d="M287.1,338.3a3.743,3.743,0,0,0-1.064-.614,4.132,4.132,0,0,0-1.207-.058,16.446,16.446,0,0,0-2.108.239,1.325,1.325,0,0,0-.581,2.2,4.322,4.322,0,0,0,2.2,1.194,4.4,4.4,0,0,0,1.446.125,3.342,3.342,0,0,0,1.316-.619A1.443,1.443,0,0,0,287.1,338.3Z" transform="translate(-223.144 -337.616)" fill="#ad583e"/><path d="M303.28,415.808a1.3,1.3,0,0,1-.634-1.264c.05-2.411-3.718-2.414-3.747,0a5.04,5.04,0,0,0,.759,2.764,3.5,3.5,0,0,0,2.767,1.657,1.7,1.7,0,0,0,1.633-1.243A1.755,1.755,0,0,0,303.28,415.808Z" transform="translate(-217.555 -313.102)" fill="#ad583e"/><path d="M295.028,423.79a8.651,8.651,0,0,0-.718-.918c-.249-.253-.223-.074-.284-.328a1.738,1.738,0,0,0-3.35.923,3.512,3.512,0,0,0,2.163,2.511,1.67,1.67,0,0,0,1.938-.251A1.6,1.6,0,0,0,295.028,423.79Z" transform="translate(-220.251 -310.316)" fill="#ad583e"/><path d="M304.278,434.138a1.577,1.577,0,0,0-.455-.767,2.088,2.088,0,0,0-.894-.822,1.774,1.774,0,0,0-3.4,1.016,3.159,3.159,0,0,0,2.251,2.268,1.615,1.615,0,0,0,1.161-.081,1.937,1.937,0,0,0,.767-.212A1.272,1.272,0,0,0,304.278,434.138Z" transform="translate(-217.361 -307.035)" fill="#ad583e"/><path d="M311.672,427.134a2.839,2.839,0,0,0-.481-.519,2.148,2.148,0,0,0-1.119-.763,1.664,1.664,0,0,0-1.15-1.093,1.836,1.836,0,0,0-2.243,1.275,2.69,2.69,0,0,0,1.883,3.153,2.432,2.432,0,0,0,2.015-.023,1.712,1.712,0,0,0,.458-.328c-.179.133-.187.154-.025.068a2.906,2.906,0,0,0,.485-.387A1.158,1.158,0,0,0,311.672,427.134Z" transform="translate(-215.029 -309.196)" fill="#ad583e"/><path d="M322.146,428.455a2.3,2.3,0,0,0-2.612-1.186,2.233,2.233,0,0,0-1.55,2.731,2.972,2.972,0,0,0,1.834,1.948,2.5,2.5,0,0,0,2.222-.366A1.889,1.889,0,0,0,322.146,428.455Z" transform="translate(-211.366 -308.382)" fill="#ad583e"/><path d="M317.977,439.381c-.57-.348-1.4-.5-1.8-.784a1.861,1.861,0,1,0-1.878,3.214,4.553,4.553,0,0,0,2.845.649A1.667,1.667,0,0,0,317.977,439.381Z" transform="translate(-212.829 -304.75)" fill="#ad583e"/><path d="M295.46,476.164a1.465,1.465,0,0,0-1.054-1.053c-.666-.143-1.365-.245-2.011-.419a1.912,1.912,0,0,0-1.016,3.685,4.214,4.214,0,0,0,3.387-.507,1.465,1.465,0,0,0,.747-1.3C295.5,476.432,295.48,476.3,295.46,476.164Z" transform="translate(-220.448 -292.908)" fill="#ad583e"/><path d="M307.675,482.96a2.519,2.519,0,0,0-.468-.483c-.65-2.253-4.373-1.216-3.693,1.15a3.15,3.15,0,0,0,1.249,1.765,2.541,2.541,0,0,0,.94.424,1.851,1.851,0,0,0,.984,0c-.206.02-.176.013.089-.019a1.645,1.645,0,0,0,1.512-1.35A1.608,1.608,0,0,0,307.675,482.96Z" transform="translate(-216.076 -290.751)" fill="#ad583e"/><path d="M314.607,492.43c-.419-.316-1.044-.387-1.42-.731a1.785,1.785,0,1,0-2.166,2.805c1.1.6,3.365,1,4-.495A1.313,1.313,0,0,0,314.607,492.43Z" transform="translate(-213.883 -287.5)" fill="#ad583e"/><path d="M324.233,483.522c-.175-.633-.78-.826-1.363-.9a5.587,5.587,0,0,0-1.687-.194c-2.259-.123-2.248,3.655,0,3.5a3.1,3.1,0,0,0,2.341-.919A1.427,1.427,0,0,0,324.233,483.522Z" transform="translate(-210.835 -290.36)" fill="#ad583e"/><path d="M323.7,495.93a2.338,2.338,0,0,0-.255-.045c-1.665-1.715-4.446,1.074-2.663,2.771a2.627,2.627,0,0,0,3.7.239A1.79,1.79,0,0,0,323.7,495.93Z" transform="translate(-210.602 -286.143)" fill="#ad583e"/><path d="M297.168,498.443a1.931,1.931,0,1,0-2.45,2.911,4.341,4.341,0,0,0,1.448.6,1.886,1.886,0,0,0,2.249-1.277A1.851,1.851,0,0,0,297.168,498.443Z" transform="translate(-219.227 -285.354)" fill="#ad583e"/><path d="M297.6,488.823q-.37-.3-.073.036a1.953,1.953,0,0,0-.694-.694,4.582,4.582,0,0,1-.668-.373,2.033,2.033,0,1,0-2.466,3.2,5.186,5.186,0,0,0,1.645.711,5.272,5.272,0,0,0,1.9-.178C298.623,491.322,298.516,489.458,297.6,488.823Z" transform="translate(-219.578 -288.797)" fill="#ad583e"/><path d="M278.044,484.6c.115.041-.1-.08-.217-.15-.017-.032-.029-.057-.06-.117-1.177-2.26-4.662-.244-3.429,2a3.564,3.564,0,0,0,3.218,1.878,1.836,1.836,0,0,0,1.808-1.6A1.864,1.864,0,0,0,278.044,484.6Z" transform="translate(-225.655 -290.061)" fill="#ad583e"/><path d="M283.067,476.826a1.907,1.907,0,0,0-.623-1.971c-.411-.362-.952-.577-1.328-.94-1.7-1.646-4.332.989-2.6,2.6a4.143,4.143,0,0,0,3.427,1.309A1.13,1.13,0,0,0,283.067,476.826Z" transform="translate(-224.392 -293.307)" fill="#ad583e"/><path d="M269.806,465.855c-.021-.115-.1-.357-.11-.416a2.706,2.706,0,0,1-.019-.548c0-.015.068-.355-.005-.188a1.748,1.748,0,1,0-3.2-1.348,5.121,5.121,0,0,0-.072,2.979,2.741,2.741,0,0,0,2.031,2.037,1.144,1.144,0,0,0,.966-.316,1.253,1.253,0,0,0,.337-.813,1.459,1.459,0,0,0-.021-.332,1.264,1.264,0,0,0,.121-.377A1.287,1.287,0,0,0,269.806,465.855Z" transform="translate(-228.22 -297.001)" fill="#ad583e"/><path d="M275.507,453.194a1.551,1.551,0,0,0-3.1,0,3.3,3.3,0,0,0,.594,2.4,1.931,1.931,0,0,0,1.487.882,1.289,1.289,0,0,0,1.174-1.269C275.714,454.506,275.489,453.878,275.507,453.194Z" transform="translate(-226.206 -300.405)" fill="#ad583e"/><path d="M285.121,459.37a19.044,19.044,0,0,1-.809-2.295,1.389,1.389,0,0,0-1.694-.962,1.409,1.409,0,0,0-.963,1.694c.208,1.191.959,3.943,2.671,3.442A1.437,1.437,0,0,0,285.121,459.37Z" transform="translate(-223.191 -298.961)" fill="#ad583e"/><path d="M291.687,447.677c-.1-.33-.417-.755-.483-1-.611-2.215-4.11-1.259-3.446.95a3.794,3.794,0,0,0,.87,1.581,7.988,7.988,0,0,0,1.325.834,1.359,1.359,0,0,0,1.419,0c.509-.391.259-.122.334-1.166C291.768,448.033,291.828,448.128,291.687,447.677Z" transform="translate(-221.218 -302.436)" fill="#ad583e"/><path d="M276.409,445.984c-.241,1.2-.219,3.224,1.291,3.553,1.642.359,1.761-1.532,2.108-2.617C280.5,444.742,276.853,443.77,276.409,445.984Z" transform="translate(-224.932 -302.661)" fill="#ad583e"/><path d="M279.427,385.638a9.718,9.718,0,0,1-.718-1.076,1.668,1.668,0,0,0-3.049-.535,2.935,2.935,0,0,0-.483,2.028,3.72,3.72,0,0,0,1.1,2.012,2,2,0,0,0,2.633.156A1.981,1.981,0,0,0,279.427,385.638Z" transform="translate(-225.308 -322.731)" fill="#663424"/><path d="M271.767,381.98a5.09,5.09,0,0,0-.582-1.334c-.028-.042-.142-.206-.223-.338.012-.033.023-.057.038-.1.611-1.719-2.178-2.921-2.97-1.252-.875,1.842-.467,3.857,1.479,4.762A1.557,1.557,0,0,0,271.767,381.98Z" transform="translate(-227.771 -324.387)" fill="#663424"/><path d="M274.732,369.708a1.711,1.711,0,0,0-2.293,1.1c-.483,1.214-.231,3.382,1.352,3.629a1.39,1.39,0,0,0,1.463-.7c.305-.523.069-1.1.292-1.618A1.712,1.712,0,0,0,274.732,369.708Z" transform="translate(-226.262 -327.19)" fill="#663424"/><path d="M268.421,369.554c-.009-.33-.05-.66-.072-.991a1.413,1.413,0,0,0-.519-1.877,1.432,1.432,0,0,0-1.918.5,3.324,3.324,0,0,0-.882,2.934,2.845,2.845,0,0,0,1.911,2.188,1.087,1.087,0,0,0,1.023-.271,1.259,1.259,0,0,0,.312-.607c.017-.074.027-.118.036-.156s.041-.141.1-.337a2.709,2.709,0,0,0-.012-1.064C268.458,370.38,268.43,369.843,268.421,369.554Z" transform="translate(-228.638 -328.192)" fill="#663424"/><path d="M287.768,396.976a1.73,1.73,0,0,1-.389-.317.21.21,0,0,1-.034-.05c.015-.056.013-.22-.016-.1.594-2.386-3.036-3.393-3.686-1.016a3.785,3.785,0,0,0,2.748,4.752C288.3,400.768,289.6,397.931,287.768,396.976Z" transform="translate(-222.583 -319.172)" fill="#663424"/><path d="M281.608,413.944a2.658,2.658,0,0,1-.21-.306,4.862,4.862,0,0,0-.513-.995c-.114-.178-.109-.243-.019-.525.789-2.462-3.171-3.564-3.876-1.069a4.551,4.551,0,0,0,.43,3.48,4.367,4.367,0,0,0,2.687,1.993,1.553,1.553,0,0,0,1.741-.71A1.6,1.6,0,0,0,281.608,413.944Z" transform="translate(-224.76 -314.113)" fill="#663424"/><path d="M288.989,405.621c-.069-.065-.5-.529-.239-.206-.053-.065-.086-.107-.125-.155a2.088,2.088,0,1,0-4.09.777c.426,1.755,2.486,3.151,4.15,1.939A1.521,1.521,0,0,0,288.989,405.621Z" transform="translate(-222.264 -316.148)" fill="#663424"/><path d="M269.1,408.5a1.486,1.486,0,0,0-1.971.118,6.141,6.141,0,0,0-1.2,4.374c.057,2.134,3.348,2.147,3.325,0a5.385,5.385,0,0,1,.231-2.556A1.508,1.508,0,0,0,269.1,408.5Z" transform="translate(-228.316 -314.588)" fill="#663424"/><path d="M271.323,400.733a6.359,6.359,0,0,0-.117,2.593,1.691,1.691,0,0,0,1.223,1.223,1.756,1.756,0,0,0,1.976-.8c.361-.617.18-1.387.363-2.062C275.37,399.456,271.847,398.5,271.323,400.733Z" transform="translate(-226.619 -317.434)" fill="#663424"/><path d="M260.807,398.008c.432-.837.889-1.84-.048-2.54-1-.743-1.911.08-2.665.737a2.508,2.508,0,0,0-1.122,2.232,1.844,1.844,0,0,0,2.08,1.8,1.743,1.743,0,0,0,1.531-1.6,2.007,2.007,0,0,0,.134-.3A2.242,2.242,0,0,0,260.807,398.008Z" transform="translate(-231.24 -318.833)" fill="#663424"/><path d="M253.3,397.978a1,1,0,0,0-1.121-.456,4.16,4.16,0,0,0-1.55,1.251,3.353,3.353,0,0,0-.928,2.287c-.147,2.238,3.415,2.259,3.5,0C253.235,400.133,253.8,398.911,253.3,397.978Z" transform="translate(-233.611 -318.08)" fill="#663424"/><path d="M261.314,385.54a1.751,1.751,0,0,0,0,3.5A1.751,1.751,0,0,0,261.314,385.54Z" transform="translate(-230.372 -321.977)" fill="#663424"/><path d="M257.162,415.574a1.043,1.043,0,0,0-1.513-.615,6.665,6.665,0,0,0-2.127,2.568,13.369,13.369,0,0,0-1.2,3.422c-.467,2.159,2.824,3.086,3.325.917C256.094,419.933,257.771,417.6,257.162,415.574Z" transform="translate(-232.77 -312.421)" fill="#663424"/><path d="M266.947,433.876a1.675,1.675,0,0,0,.227-.789,1.762,1.762,0,0,0-1.724-1.724,2.878,2.878,0,0,0-1.826.375,1.784,1.784,0,0,0-.629,2.4,7.348,7.348,0,0,0,.812,1.26,6.854,6.854,0,0,0,1.3,1,1.506,1.506,0,0,0,1.524,0C267.684,435.851,267.436,434.82,266.947,433.876Z" transform="translate(-229.346 -307.03)" fill="#663424"/><path d="M269.413,422.007a1.652,1.652,0,0,0,.233-1.707,1.71,1.71,0,0,0-2.035-1,2.6,2.6,0,0,0-1.915,2.212,2.476,2.476,0,0,0,1.04,2.3,1.989,1.989,0,0,0,1.616.82c.959-.13,1.086-1.045,1.024-1.858A2.091,2.091,0,0,0,269.413,422.007Z" transform="translate(-228.393 -310.986)" fill="#663424"/><path d="M242.535,426.33c-.7,1.208-1.4,3.289-.477,4.543a1.754,1.754,0,0,0,2.983,0c.527-.812.289-1.8.752-2.639C246.96,426.106,243.747,424.221,242.535,426.33Z" transform="translate(-236.248 -308.967)" fill="#663424"/><path d="M251.408,440.73c-.8,1.613-1.111,3.305-.068,4.876,1.015,1.528,3.618.61,3.063-1.291a3.364,3.364,0,0,1,.2-2.236C255.341,440.245,252.286,438.964,251.408,440.73Z" transform="translate(-233.292 -304.242)" fill="#663424"/><path d="M241.389,450.77a1.913,1.913,0,0,0-2.3,1.308c-.611,1.649.084,3.73,2.037,3.848a1.549,1.549,0,0,0,1.483-1.129c.163-.639-.1-1.239.093-1.723A1.887,1.887,0,0,0,241.389,450.77Z" transform="translate(-237.145 -300.713)" fill="#663424"/><g transform="translate(9.972 164.714)"><path d="M247.962,463.111l-.005-.027,0,.019Z" transform="translate(-244.152 -461.386)" fill="#663424"/><path d="M249.274,464.157c-.1-.159-.191-.324-.293-.48a.917.917,0,0,1-.082-.149.658.658,0,0,1,.013.115c0-.044-.012-.081-.016-.123-.02-.05-.013-.057,0-.019-.214-2.31-3.919-2.264-3.8.142.082,1.715,1.47,3.511,3.35,3.366a1.371,1.371,0,0,0,1.338-1.338A2.584,2.584,0,0,0,249.274,464.157Z" transform="translate(-245.088 -461.803)" fill="#663424"/></g><path d="M259.013,456.966a4.613,4.613,0,0,1-.157-.931,1.958,1.958,0,1,0-3.85.521,5.809,5.809,0,0,0,1.155,2.069C257.365,459.952,259.368,458.536,259.013,456.966Z" transform="translate(-231.909 -299.606)" fill="#663424"/><path d="M241.516,476.428c-.113-.582-.061-1.167-.2-1.755a1.672,1.672,0,0,0-2.759-.729,3.862,3.862,0,0,0,.622,5.715,1.659,1.659,0,0,0,2.415-.983A4.894,4.894,0,0,0,241.516,476.428Z" transform="translate(-237.569 -293.272)" fill="#663424"/><path d="M246.731,490.7a2.325,2.325,0,0,0-.138-.349,2.527,2.527,0,0,0-.755-1.478c-.023-.025-.106-.094-.178-.156.053-2.407-3.971-2.41-3.891.082.052,1.655,1.806,3.674,3.6,3.219a2.765,2.765,0,0,0,.333.032A1.084,1.084,0,0,0,246.731,490.7Z" transform="translate(-236.199 -288.893)" fill="#663424"/><path d="M255.969,481.062a4.661,4.661,0,0,0-.5-.458c-.08-.066-.133-.107-.175-.141a2.246,2.246,0,0,0-4.4-.411,3.777,3.777,0,0,0,.8,3.377,3.846,3.846,0,0,0,2.775,1.257A2.147,2.147,0,0,0,255.969,481.062Z" transform="translate(-233.248 -291.667)" fill="#663424"/><path d="M261.119,501.462a.858.858,0,0,1-.39-.442c-1.157-2.115-4.393-.227-3.235,1.891a3.342,3.342,0,0,0,2.78,1.669,1.676,1.676,0,0,0,1.614-1.228A1.711,1.711,0,0,0,261.119,501.462Z" transform="translate(-231.147 -284.593)" fill="#663424"/><g transform="translate(34.596 206.941)"><path d="M268.084,495.331a3.239,3.239,0,0,0-1.265-.844c-.379-.17.277-.042-.438-.232a1.186,1.186,0,0,0,.076.127c-.036-.053-.085-.092-.125-.141l-.016,0c.008,0,0,0,.009,0a1.481,1.481,0,0,0-2.666.9,2.627,2.627,0,0,0,1.33,2.245,2.361,2.361,0,0,0,.869.236c-.3-.042.336.048.309.045a3.429,3.429,0,0,0,1.336-.135A1.336,1.336,0,0,0,268.084,495.331Z" transform="translate(-263.653 -493.641)" fill="#663424"/><path d="M265.7,494.1c.021-.04-.07-.133,0,0Z" transform="translate(-262.993 -493.515)" fill="#663424"/><path d="M265.724,494.112l-.02-.033c-.005.009-.013.016-.036.013l.007.007Z" transform="translate(-262.995 -493.498)" fill="#663424"/></g><path d="M276.964,508.285a2.081,2.081,0,0,0-2.216-1.4,2.036,2.036,0,0,0-1.692,2.54,2.385,2.385,0,0,0,3.958,1.313A1.686,1.686,0,0,0,276.964,508.285Z" transform="translate(-226.01 -282.382)" fill="#663424"/><path d="M288.849,506.077c-1.133-.594-2.688-1.119-3.907-.519a1.951,1.951,0,0,0-.69,2.631c.68,1.277,2.943,1.586,4.171,1.143C289.768,508.846,290.3,506.84,288.849,506.077Z" transform="translate(-222.413 -282.897)" fill="#663424"/><path d="M316.222,412.782a1.738,1.738,0,0,0-2.2-.483c.314-.138-.219.068-.37.155a1.981,1.981,0,0,0-.532.452,1.729,1.729,0,0,0,.753,2.856c1.251.264,3.544.9,4.031-.869C318.231,413.706,317.259,413.107,316.222,412.782Z" transform="translate(-213.063 -313.307)" fill="#663424"/><path d="M329.234,410.331c-2.049-.206-2.127,3.244,0,3.251,1.058,0,2.6-.5,2.544-1.824C331.719,410.42,330.219,410.429,329.234,410.331Z" transform="translate(-208.167 -313.89)" fill="#663424"/><path d="M340.72,410.43l-.233.05a1.712,1.712,0,1,0,1.666,2.862l.172-.155C343.624,412.02,342.229,410.105,340.72,410.43Z" transform="translate(-204.39 -313.866)" fill="#663424"/><path d="M323.5,360.457a3.277,3.277,0,0,0-3.527-1.4,1.858,1.858,0,0,0-.438,3.356,3.8,3.8,0,0,0,2.946.552A1.727,1.727,0,0,0,323.5,360.457Z" transform="translate(-211.104 -330.648)" fill="#663424"/><path d="M325.368,364.3a1.538,1.538,0,0,0-2.551.674l-.042.241a1.387,1.387,0,0,0,1.679,1.679l.241-.044A1.538,1.538,0,0,0,325.368,364.3Z" transform="translate(-209.773 -329.048)" fill="#663424"/><path d="M303.406,462.173a3.389,3.389,0,0,0-.785-1.26,1.7,1.7,0,0,0-2.881,1.194,2.113,2.113,0,0,0,2.077,2.151A1.662,1.662,0,0,0,303.406,462.173Z" transform="translate(-217.284 -297.538)" fill="#e09451"/><path d="M311.032,469.783a1.563,1.563,0,0,0-2.588-.683,2.628,2.628,0,0,0-.877,1.6,2.006,2.006,0,0,0,.008.883l.1.249a1.318,1.318,0,0,0,2.383.639c.015-.015.029-.03.045-.045A2.557,2.557,0,0,0,311.032,469.783Z" transform="translate(-214.741 -294.846)" fill="#e09451"/><path d="M314,457.466c-.277-1.592-3.053-1.243-2.852.386.142,1.145.533,3.483,2.187,3.219C315.05,460.8,314.178,458.519,314,457.466Z" transform="translate(-213.563 -298.841)" fill="#e09451"/><path d="M305.194,453.953a1.837,1.837,0,0,0-3.541-.976,2.782,2.782,0,0,0,.3,2.329,1.769,1.769,0,0,0,3.218-1.357Q305.043,453.439,305.194,453.953Z" transform="translate(-216.698 -300.41)" fill="#e09451"/><path d="M310.553,450.661l-.005-.021a1.59,1.59,0,0,0,.02-.377q-.026-.4-.04-.163c0-.236,0-.285-.007-.149a1.921,1.921,0,1,0-3.777-.511,3.8,3.8,0,0,0,.37,1.8,1.892,1.892,0,0,0,.737.846l.436.183c-.175-.041-.154-.013.064.086A1.515,1.515,0,0,0,310.553,450.661Z" transform="translate(-214.995 -301.746)" fill="#e09451"/></g></g></g></svg>