<svg xmlns="http://www.w3.org/2000/svg" xmlns:xlink="http://www.w3.org/1999/xlink" width="306" height="200" viewBox="0 0 306 200"><defs><clipPath id="a"><rect width="306" height="200" transform="translate(973 267)" fill="#fff" stroke="#707070" stroke-width="1"/></clipPath></defs><g transform="translate(-973 -267)" clip-path="url(#a)"><g transform="translate(462.619 140.044)"><g transform="translate(554.38 138.889)"><path d="M719.529,232.4s-49.8,8.719-69.041,14.43l.6,1.3s54.211-13.439,68.44-14.335C722.234,233.794,719.529,232.4,719.529,232.4Z" transform="translate(-535.436 -120.457)" fill="#302c2c"/><path d="M657.585,305.891c.117.026,6,2.737,5.508,3.8s-5.926-.164-5.926-.164l-.174,1.547s5.432,1.332,5.434,2.338-6.468.952-6.468.952l-.418,1.164s5.893.151,5.546,1.772-6.608,1.22-6.608,1.22l-.395,1.747s5.453.408,5.079,1.984-6.961,1.548-7.475,1.025S655.733,305.491,657.585,305.891Z" transform="translate(-535.208 -105.972)" fill="#302a27"/><path d="M647.078,327.524s13.234-.666,14.538-11.349-8.918-18.3-17.837-22.208S635.748,327.411,647.078,327.524Z" transform="translate(-537.946 -108.377)" fill="#7d3f2c"/><path d="M647.174,305.274c.12,0,6.491,1.143,6.286,2.3s-5.776,1.33-5.776,1.33l.22,1.541s5.593-.074,5.847.9-6.021,2.546-6.021,2.546l-.112,1.231s5.743-1.335,5.814.322-6.09,2.841-6.09,2.841l.056,1.79s5.381-.974,5.415.644-6.349,3.248-6.977,2.869S645.281,305.352,647.174,305.274Z" transform="translate(-536.423 -106.092)" fill="#302a27"/><path d="M602.1,162.559a65.8,65.8,0,0,1-27.929,4.22c-.455,0-.522,1.706.681,2.24s17.565,2.024,24.9-1.075S602.1,162.559,602.1,162.559Z" transform="translate(-550.538 -134.223)" fill="#c23f30"/><path d="M641.5,160.978s-1.93-15.632-13.554-20.309-19.239,1.336-19.239,1.336-6.414,12.025-2.272,18.973S641.5,160.978,641.5,160.978Z" transform="translate(-544.394 -138.889)" fill="#ffae3d"/><path d="M609.932,141.492s-11.357,7.215-11.09,13.695a82.654,82.654,0,0,0,2.071,13.829l14.9-5.464L642.6,159.4s-10.689-12.426-32.534-4.944A35.265,35.265,0,0,1,609.932,141.492Z" transform="translate(-545.617 -138.375)" fill="#e65f37"/><path d="M600.589,169.72c-1.4,2.355-9.519,20.041-5.612,30.161-12.025,14.932-22.847,29.36-33.068,65.835s-11.423,76.558,5.211,88.182,46.295,8.617,46.295,8.617L654.7,337.664l-.468-98.6s-1.636-8.617-1.636-8.917,12.859-12.058,14.464-24.35a59.688,59.688,0,0,0-.936-21.491s7.883-1.556,7.015-12.178-10.488-13.294-15.9-8.952c0,0-5.194-4.577-6.748-5.377,0,0,4.009-1.4,3.758-4.36s-7.966-.35-7.966-.35,5.31-2.356,4.459-4.961-7.687.9-7.687.9,1.623-2.6.321-3.958-6.413.9-8.217,7.917A25.916,25.916,0,0,0,616.471,158s-5.26-8.417-12.676-5.611S595.178,167.015,600.589,169.72Z" transform="translate(-554.379 -137.744)" fill="#964c36"/><path d="M657.349,221.207c-.758-2.334-5.212-.248-5.212-.248s2.4-2.277,1.754-3.88-6.628.25-6.628.25,1.919-4.308,0-4.51-17.2,12.008-32.443-2.483c-9.163-8.713-8.326-22.668-2.213-37.446,6.1-14.739,16.239-21.058,16.292-21.092a24.794,24.794,0,0,0-12.433,5.005s-5.261-8.417-12.676-5.611-8.618,14.63-3.207,17.335c-1.4,2.355-9.519,20.041-5.611,30.162-12.025,14.93-22.847,29.36-33.068,65.835s-11.424,76.556,5.21,88.18,46.3,8.618,46.3,8.618l1.089-.656c-26-5.836-26.943-30.609-26.943-30.609a8.662,8.662,0,0,0,.268-5.344c-.8-2.939-3.741,0-3.741,0s1.336-3.474.267-5.879-4.008,0-4.008,0,2.939-5.344,2.137-8.818-5.077,0-6.146-1.069-1.069-33.135,13.9-52.59S645.8,244.9,645.8,244.9s-7.345-3.019-4.94-5.725c2.306-2.594,11.267-8.122,12-8.574-.166-.915-.279-1.568-.279-1.647,0-.111,1.748-1.784,4.031-4.454A5.374,5.374,0,0,0,657.349,221.207Z" transform="translate(-554.38 -136.576)" fill="#7d3f2c"/><path d="M640.887,223.546s-5.484-1.711-8.419,7.028-11.355,40.136-10.286,58.974,7.883,29.661,10.823,32.867,13.093,1.2,13.494,1.2,5.077-37.243,0-56.232S646.5,240.515,640.887,223.546Z" transform="translate(-541.034 -122.228)" fill="#c47347"/><path d="M629.962,185.133s-7.816-6.547-4.476-9.419,12.693-.668,13.027,2.471S631.417,186.483,629.962,185.133Z" transform="translate(-540.528 -131.893)" fill="#332828"/><path d="M633.82,175.805s-5.291-1.578-5.363.25,5.514,2.079,5.664,2.831-1.126,2.43-.5,2.531,3.44-2.476,3.256-3.608S633.82,175.805,633.82,175.805Z" transform="translate(-539.779 -131.737)" fill="#6e5656"/><g transform="translate(72.849 36.338)"><path d="M615.634,170.335s-1.3,5.225.792,5.357,2.434-3.791,2.018-5.357A1.451,1.451,0,0,0,615.634,170.335Z" transform="translate(-615.234 -169.243)"/><path d="M619.19,170.808a1.058,1.058,0,1,1-1.058-1.058A1.059,1.059,0,0,1,619.19,170.808Z" transform="translate(-614.872 -169.143)" fill="#fff"/></g><g transform="translate(99.052 37.419)"><path d="M637.523,171.238s-1.3,5.225.793,5.357,2.434-3.791,2.018-5.357A1.451,1.451,0,0,0,637.523,171.238Z" transform="translate(-637.123 -170.146)"/><path d="M641.078,171.711a1.058,1.058,0,1,1-1.058-1.059A1.059,1.059,0,0,1,641.078,171.711Z" transform="translate(-636.761 -170.046)" fill="#fff"/></g><path d="M619.418,192.614a6.9,6.9,0,0,0,5.711,1.37c3.174-.8,2.94-2.172,3.474-1.6s-.267,3.107-4.592,3.34-4.827-1.369-5.094-2.1S619.015,192.317,619.418,192.614Z" transform="translate(-541.677 -128.371)" fill="#7d1f1f"/><path d="M595.493,199.25s10.28,16.634,39.46,17.636a5.293,5.293,0,0,1,1.323,5.31S600.4,225.4,595.493,199.25Z" transform="translate(-546.277 -126.991)" fill="#693324"/><path d="M634.481,214.9s-5.787-5.661-8.042-4.533-.7,4.359-.7,4.359-1.052,2.6-.727,4.033,1.178,1.578,1.178,1.578-1.378,3.257.752,3.608,7.365-4.409,7.365-4.409a2.693,2.693,0,0,0,2.38,1.328,2.04,2.04,0,0,0,1.754-1.5s5.085,3.508,6.062,2.43-.475-2.254-.475-2.254a3.578,3.578,0,0,0,1-2.606,2.463,2.463,0,0,0-1.178-1.729s1.052-3.933-.4-5.561-5.535,5.31-5.535,5.31A2.6,2.6,0,0,0,634.481,214.9Z" transform="translate(-540.471 -124.991)" fill="#ffae3d"/><path d="M653.093,246.942s5.594,4.6,5.345,6.059-1.609.063-1.609.063l-3.664-2.356.2,1.208s3.436,3.291,3.2,4.368-3.911-1.912-3.911-1.912l-.1,1.346s2.832,2.7,1.992,3.581-3.122-1.693-3.122-1.693l-1.371,1.638s3.116,1.061,2.265,2-4.085-.511-4.085-.511,2.741,1.016,1.913,1.835-3.619-1.435-3.694-1.539S653.093,246.942,653.093,246.942Z" transform="translate(-536.233 -117.59)" fill="#302a27"/><path d="M632.485,229.015s24.35,9.019,27.155,17.035.8,18.339-10.221,20.643-19.64-3.306-28.859-4.209S613.346,225.008,632.485,229.015Z" transform="translate(-542.385 -121.184)" fill="#964c36"/><path d="M627.746,298.274s24.149.2,27.857,8.517,2.959,16.033-3.129,21.043-48.778,4.409-48.778,4.409Z" transform="translate(-544.66 -107.472)" fill="#964c36"/><path d="M603.923,158.606s-7.766,6.564-8.768,6.213-2.455-4.96.5-8.667S604.875,157.5,603.923,158.606Z" transform="translate(-546.59 -135.749)" fill="#b56a41"/><path d="M642.162,164.638c.08.162,4.56,9.519,5.261,10.721s5.06-1.2,3.607-7.365S641.7,163.691,642.162,164.638Z" transform="translate(-537.082 -134.014)" fill="#c47347"/><path d="M685.832,237.614s-1.954-4.81-.751-6.864,3.857-2.518,4.459-2.01,4.308,8.674,3.407,11.68-4.209,3.558-5.461,2.506S685.832,237.614,685.832,237.614Z" transform="translate(-528.695 -121.215)" fill="#d9c4c3"/><path d="M689.83,233.846s1.653-6.764,2.705-7.014,3.457,4.609,3.457,5.26,3.306-4.508,5.21-3.907,4.259,8.768,3.257,10.872a6.153,6.153,0,0,1-5.261,3.056c-1.252-.2-2.756-4.409-2.756-4.409s.1,4.509-1.1,5.161-5.111-2.155-5.111-2.155Z" transform="translate(-527.682 -121.556)" fill="#d9c4c3"/><path d="M643.134,239.214a3.973,3.973,0,0,0-2.472-2.464,1.819,1.819,0,0,0-1.56-.051.933.933,0,0,0-.363,1.22.541.541,0,0,0,.211.176,10.473,10.473,0,0,0,1.755,1.191c.657.481,1.324,1.557,2.193.821A.9.9,0,0,0,643.134,239.214Z" transform="translate(-537.773 -119.64)" fill="#ad583e"/><path d="M647.867,243.211a.887.887,0,0,0-.235,1.735c.86.2,1.207,1.444,1.93,1.883a.62.62,0,0,0,.9-.366C650.892,245.081,649.218,243.246,647.867,243.211Z" transform="translate(-536.123 -118.326)" fill="#ad583e"/><path d="M646.947,248.375a3.305,3.305,0,0,0-2.5-.47c-1.015.154-.788,1.917.245,1.808a1.6,1.6,0,0,1,1.281.329c.377.3.53.74.958.982a.735.735,0,0,0,1.067-.435A2.267,2.267,0,0,0,646.947,248.375Z" transform="translate(-536.756 -117.412)" fill="#ad583e"/><path d="M633.494,241.968c-.67-1.091-2.535-1.231-3.693-1.183-1.261.05-1.268,2.017,0,1.966a5.773,5.773,0,0,1,1.7.181,3.116,3.116,0,0,0,1.523.2A.8.8,0,0,0,633.494,241.968Z" transform="translate(-539.701 -118.805)" fill="#ad583e"/><path d="M635.043,233.519c-1.906-1.231-3.894-1.208-6.1-1.161a.852.852,0,0,0,0,1.7,29.442,29.442,0,0,1,5.66.5A.573.573,0,0,0,635.043,233.519Z" transform="translate(-539.845 -120.468)" fill="#ad583e"/><path d="M638.373,240.9c-.819-.991-2.21.425-1.409,1.409a6.875,6.875,0,0,0,1.464,1.3,5.671,5.671,0,0,0,1.677.814.639.639,0,0,0,.778-.778C640.551,242.4,639.143,241.837,638.373,240.9Z" transform="translate(-538.149 -118.847)" fill="#ad583e"/><path d="M631.149,301.878c-.594-.628-1.853-.638-2.659-.643-.447,0-.9-.012-1.348.022a3.9,3.9,0,0,0-.565.067c-.1.025-.8.286-.359.151a.758.758,0,0,0,0,1.45c-.443-.129.187.113.241.13a2.868,2.868,0,0,0,.585.067c.4.028.8.016,1.205.028a7.083,7.083,0,0,0,2.574-.037A.75.75,0,0,0,631.149,301.878Z" transform="translate(-540.326 -106.889)" fill="#ad583e"/><path d="M636.168,306.321a2.461,2.461,0,0,0-2.7.958.84.84,0,0,0,1.313,1.014c.595-.577,2.053.29,2.749.327a.4.4,0,0,0,.381-.29C638.2,307.306,637.029,306.493,636.168,306.321Z" transform="translate(-538.813 -105.899)" fill="#ad583e"/><path d="M644.25,305.794c-.45-1.629-2.818-2.073-4.261-2.079-.742,0-1.162,1.161-.4,1.494a21.023,21.023,0,0,0,2.136.669,8.533,8.533,0,0,0,2.077.511A.474.474,0,0,0,644.25,305.794Z" transform="translate(-537.665 -106.4)" fill="#ad583e"/><path d="M642.86,310.418c-1.253.122-1.3,2.067,0,1.991.3-.018.872.611,1.265.709a.528.528,0,0,0,.587-.239A1.835,1.835,0,0,0,642.86,310.418Z" transform="translate(-537.128 -105.08)" fill="#ad583e"/><path d="M633.663,312.2a3.747,3.747,0,0,0-3.039-.863c-1.141.079-1.156,1.855,0,1.792.86-.048,1.772.226,2.6.119A.623.623,0,0,0,633.663,312.2Z" transform="translate(-539.522 -104.9)" fill="#ad583e"/><path d="M613.258,284.64a4.167,4.167,0,0,0-1.475-1.779,6.311,6.311,0,0,0-2.017-1.274.883.883,0,0,0-.854,1.465c.579.512,1.2.974,1.771,1.5a3.275,3.275,0,0,0,1.856,1.033A.752.752,0,0,0,613.258,284.64Z" transform="translate(-543.682 -110.77)" fill="#ad583e"/><path d="M613.077,274.486c-.419-1.056-2.148-.584-1.715.473.339.827.755,1.753,1.678,2.024a.691.691,0,0,0,.84-.839A9.744,9.744,0,0,0,613.077,274.486Z" transform="translate(-543.162 -112.278)" fill="#ad583e"/><path d="M615.171,261.057c-.553-.669-1.732.048-1.456.846.436,1.259.956,2.938,2.022,3.8a.6.6,0,0,0,.995-.263C617.036,263.928,616.11,262.193,615.171,261.057Z" transform="translate(-542.693 -114.86)" fill="#ad583e"/><path d="M603.052,266.935c-1.335.208-1.527,2.233-.705,3.056a.731.731,0,0,0,1.2-.318c.22-.535.108-1.07.371-1.605A.782.782,0,0,0,603.052,266.935Z" transform="translate(-545.023 -113.652)" fill="#ad583e"/><path d="M609.874,248.037a1.942,1.942,0,0,0-1.023,1.742,3.86,3.86,0,0,0,.251,2.15.709.709,0,0,0,.952.249,1.771,1.771,0,0,0,.758-1.474c.023-.275-.072-1.189.095-1.33C611.674,248.721,610.7,247.615,609.874,248.037Z" transform="translate(-543.651 -117.393)" fill="#ad583e"/><path d="M613.144,238.79a2.253,2.253,0,0,0,.114,2.525.664.664,0,0,0,1.033-.134c.267-.463.2-1,.411-1.48C615.153,238.662,613.672,237.733,613.144,238.79Z" transform="translate(-542.862 -119.289)" fill="#ad583e"/><path d="M599.408,241.5c-1.034.816-2.273,2.376-2.2,3.764a.564.564,0,0,0,.838.481,2.892,2.892,0,0,0,1.237-1.446,4.746,4.746,0,0,1,1.245-1.683C601.315,241.974,600.192,240.884,599.408,241.5Z" transform="translate(-545.94 -118.698)" fill="#ad583e"/><path d="M599.5,250.508a3.282,3.282,0,0,0-.593,1.556,3.793,3.793,0,0,0-.019,1.7.807.807,0,0,0,1.33.351c.8-.739.265-1.875.795-2.726C601.616,250.42,600.138,249.6,599.5,250.508Z" transform="translate(-545.627 -116.965)" fill="#ad583e"/><path d="M587.844,259.924a4.689,4.689,0,0,0-.408,3.018.688.688,0,0,0,1.237.162,3.9,3.9,0,0,0,.43-1.3,14.054,14.054,0,0,1,.433-1.409C589.937,259.333,588.241,258.876,587.844,259.924Z" transform="translate(-547.891 -115.148)" fill="#ad583e"/><path d="M611.816,291.828c.254-.824-1.045-1.409-1.419-.6a2.865,2.865,0,0,0-.241,2.253c.236.68.767,1.5,1.529,1.609.387.057.933-.17.873-.663C612.447,293.515,611.515,292.806,611.816,291.828Z" transform="translate(-543.413 -108.937)" fill="#ad583e"/><path d="M600.8,292.24c.1-.583-.7-1.153-1.137-.608-.894,1.122.2,2.855,1.219,3.533a.523.523,0,0,0,.764-.31A4.084,4.084,0,0,0,600.8,292.24Z" transform="translate(-545.519 -108.825)" fill="#ad583e"/><path d="M597.073,276.988c.393-1.137-1.409-1.626-1.8-.5a3.271,3.271,0,0,0,.979,3.606.643.643,0,0,0,.939-.382C597.408,278.765,596.751,277.918,597.073,276.988Z" transform="translate(-546.356 -111.892)" fill="#ad583e"/><path d="M614.1,308.006c-.206-.427-.619-.485-1.021-.636-.181-.067-.393-.125-.57-.2a.906.906,0,0,0-.125-.034.728.728,0,0,0-1.3-.158c-1.13,1.5,1.917,2.71,2.91,1.847A.69.69,0,0,0,614.1,308.006Z" transform="translate(-543.253 -105.822)" fill="#ad583e"/><path d="M620.175,304.956a4.391,4.391,0,0,0-2.251-1.945,1,1,0,0,0-1.012,1.731,5.4,5.4,0,0,0,2.71,1.176A.646.646,0,0,0,620.175,304.956Z" transform="translate(-542.149 -106.561)" fill="#ad583e"/><path d="M622.049,249.139c.758-.67-.336-1.72-1.1-1.1a2.143,2.143,0,0,0-.81,1.936,1.81,1.81,0,0,0,1.2,1.58.589.589,0,0,0,.737-.561C622.026,250.3,621.395,249.72,622.049,249.139Z" transform="translate(-541.421 -117.411)" fill="#ad583e"/><path d="M629.62,249.777a4.379,4.379,0,0,0-.589-1.336c-.326-.4-.654-.812-1-1.2-.779-.868-2.228.257-1.614,1.245a10.8,10.8,0,0,0,.935,1.228,5.818,5.818,0,0,0,1.182.9A.745.745,0,0,0,629.62,249.777Z" transform="translate(-540.21 -117.592)" fill="#ad583e"/><path d="M623.491,234.923a1.779,1.779,0,0,0-1.19-.852.84.84,0,0,0-.445,1.618c.283.079.553.19.836.274A.715.715,0,0,0,623.491,234.923Z" transform="translate(-541.197 -120.134)" fill="#ad583e"/><path d="M644.224,196.656a.738.738,0,0,0-1.265,0,12.354,12.354,0,0,0-.563,3.012,14.482,14.482,0,0,1-1.085,3.176c-.265.615.363,1.6,1.071,1.07a5.877,5.877,0,0,0,1.914-3.346C644.591,199.413,644.863,197.732,644.224,196.656Z" transform="translate(-537.258 -127.573)" fill="#ad583e"/><path d="M638.915,193.782a.921.921,0,0,0-1.775-.49,4.889,4.889,0,0,0,.644,4.111.52.52,0,0,0,.887,0C639.264,196.212,638.6,194.995,638.915,193.782Z" transform="translate(-538.106 -128.293)" fill="#ad583e"/><path d="M640.948,184.574c-.757-.532-1.612.485-1.209,1.208a7.934,7.934,0,0,0,1.146,1.366,4.716,4.716,0,0,0,1.521,1.308.6.6,0,0,0,.874-.357C643.619,186.6,642.039,185.341,640.948,184.574Z" transform="translate(-537.576 -129.913)" fill="#ad583e"/><path d="M644.316,179.2c-.862-.467-1.906.728-1.093,1.416a8.247,8.247,0,0,1,1.228,1.162c.348.454.509.978,1.019,1.281a.793.793,0,0,0,1.149-.467C647.129,181.23,645.346,179.754,644.316,179.2Z" transform="translate(-536.926 -130.964)" fill="#ad583e"/><path d="M631.414,169.527a5.781,5.781,0,0,0-1.389-1.294.551.551,0,0,0-.8.326c-.385,1.27.2,3.014,1.668,3.273a1.047,1.047,0,0,0,1.276-.7C632.3,170.385,631.838,170.046,631.414,169.527Z" transform="translate(-539.65 -133.12)" fill="#ad583e"/><path d="M632.473,161.676a.71.71,0,0,0-1.1-.142c-.99.814-.846,2.394-.679,3.516.118.786,1.391.741,1.547,0C632.469,163.955,632.985,162.756,632.473,161.676Z" transform="translate(-539.362 -134.463)" fill="#ad583e"/><path d="M635.8,164.231c.046-.213.095-.444.1-.5a3.947,3.947,0,0,0,.031-1.062.522.522,0,0,0-.877-.363,3.655,3.655,0,0,0-1.16,2.381,1.182,1.182,0,0,0,.433.857.933.933,0,0,0,.539.192c.156.01.551.063.12-.023A.88.88,0,0,0,635.8,164.231Z" transform="translate(-538.707 -134.301)" fill="#ad583e"/><path d="M625.643,166.337a14.817,14.817,0,0,1-.506-1.7,9.046,9.046,0,0,0-.394-1.573.579.579,0,0,0-.995,0c-.557,1.123-.1,2.612.3,3.717C624.412,167.774,626.024,167.327,625.643,166.337Z" transform="translate(-540.758 -134.18)" fill="#ad583e"/><path d="M630.868,155.829a.61.61,0,0,0-.892-.363,3.826,3.826,0,0,0-1.529,2.929c-.035.982,1.337,1.071,1.636.221C630.413,157.682,631.064,156.866,630.868,155.829Z" transform="translate(-539.781 -135.638)" fill="#ad583e"/><path d="M615.466,180.286a2.5,2.5,0,0,0-1.134,3,.619.619,0,0,0,.964.125c.528-.506.626-1.324,1.125-1.881C617,180.886,616.258,179.784,615.466,180.286Z" transform="translate(-542.599 -130.754)" fill="#ad583e"/><path d="M613.506,194.249a9.156,9.156,0,0,1-.272-1.281c-.02-.189-.017-.381-.023-.57a2.449,2.449,0,0,1,.017-.249,1.592,1.592,0,0,0-.011-.17.7.7,0,0,0-1.113-.82c-.93.759-.822,1.828-.6,2.925.181.892.563,2.424,1.553,2.745a.58.58,0,0,0,.65-.265C614.058,195.875,613.685,194.939,613.506,194.249Z" transform="translate(-543.151 -128.624)" fill="#ad583e"/><path d="M606.547,191.116a3.915,3.915,0,0,0,.2,3.511.541.541,0,0,0,.919,0c.609-.87.346-2.054.6-3.038A.89.89,0,0,0,606.547,191.116Z" transform="translate(-544.16 -128.714)" fill="#ad583e"/><path d="M604.353,180.075a3.524,3.524,0,0,0-1.863,2.41,7.887,7.887,0,0,0-.582,3.269c.073.46.654.487.942.249.624-.517.741-1.674.915-2.411.184-.781.381-2.1,1.195-2.479C605.668,180.784,605.05,179.773,604.353,180.075Z" transform="translate(-545.019 -130.781)" fill="#ad583e"/><path d="M608.55,183.926c-1.118.057-1.227,1.462-.725,2.217.224.338.855.45,1.049,0a2.255,2.255,0,0,0,.2-.712,2.992,2.992,0,0,1,.038-.342.209.209,0,0,0,.01-.078A.709.709,0,0,0,608.55,183.926Z" transform="translate(-543.902 -130.011)" fill="#ad583e"/><path d="M610.649,173.4a.664.664,0,0,0-.8-.455,5.64,5.64,0,0,0-1.945,1.761c-.549.664-.98,1.4-.514,2.241a.733.733,0,0,0,1.354-.368c.035-.329.9-.959,1.188-1.274C610.33,174.866,610.9,174.019,610.649,173.4Z" transform="translate(-543.971 -132.181)" fill="#ad583e"/><path d="M622.926,188.229a4.605,4.605,0,0,1-.335-1.3.771.771,0,0,0-1.011-1.1c-.912.53-.9,1.449-.565,2.358.26.709.9,2.015,1.755,2.077a.554.554,0,0,0,.487-.279C623.568,189.409,623.139,188.761,622.926,188.229Z" transform="translate(-541.287 -129.66)" fill="#ad583e"/><path d="M622.656,200.479c-.275-.356-.85-.69-.769-1.2.165-1.057-1.452-1.512-1.619-.447-.194,1.228.581,2.72,2.011,2.559A.541.541,0,0,0,622.656,200.479Z" transform="translate(-541.399 -127.194)" fill="#ad583e"/><path d="M631.385,188.593c-.427,1.192-.463,2.957.6,3.857a.548.548,0,0,0,.846-.109c.589-.942.237-2.175.512-3.208A1.015,1.015,0,0,0,631.385,188.593Z" transform="translate(-539.257 -129.23)" fill="#ad583e"/><path d="M646.741,190.432a.694.694,0,0,0-.842-.6l.04-.014a.917.917,0,0,0-.863.658c-.247.776-.526,4.215.98,3.855.755-.181.714-1.289.705-1.888A7.7,7.7,0,0,0,646.741,190.432Z" transform="translate(-536.542 -128.851)" fill="#ad583e"/><path d="M641.181,267.431a7.568,7.568,0,0,0-.328-1.3.992.992,0,0,0-1.823-.587c-.072.1-.253.573-.066.208l.02-.041a3.827,3.827,0,0,0-.226.515,3.323,3.323,0,0,0,.1,1.232,4.507,4.507,0,0,0,.836,2.418.845.845,0,0,0,1.18,0A2.569,2.569,0,0,0,641.181,267.431Z" transform="translate(-537.754 -114.013)" fill="#db9150"/><path d="M641.572,276.861a.7.7,0,0,0-1.19,0,9.029,9.029,0,0,0-.6,1.656,6.616,6.616,0,0,0-.518,1.5.922.922,0,0,0,1.375.79A3.139,3.139,0,0,0,641.572,276.861Z" transform="translate(-537.65 -111.758)" fill="#db9150"/><path d="M640.533,288.272a5.246,5.246,0,0,0-1.492,3.894.977.977,0,0,0,1.954,0,4.941,4.941,0,0,1,.4-1.567,4.166,4.166,0,0,0,.32-1.84A.7.7,0,0,0,640.533,288.272Z" transform="translate(-537.694 -109.48)" fill="#db9150"/><path d="M636.512,285.983a4.713,4.713,0,0,0-.472-2.389.589.589,0,0,0-1.006,0,4.532,4.532,0,0,0-.351,2.009,6.83,6.83,0,0,1-.327,2.132.849.849,0,0,0,.59,1.04l.08.016a.754.754,0,0,0,.887-.466.535.535,0,0,0,.177-.348,2.973,2.973,0,0,0,.267-.649A6.862,6.862,0,0,0,636.512,285.983Z" transform="translate(-538.623 -110.421)" fill="#db9150"/><path d="M634.215,273.3c-.583-.712-1.853.251-1.288.995a3.6,3.6,0,0,1,.649,1.262,5.218,5.218,0,0,0,.369,1.217.575.575,0,0,0,.9.115C635.858,275.835,634.978,274.237,634.215,273.3Z" transform="translate(-538.926 -112.443)" fill="#db9150"/><path d="M634.185,263.958c-.255-.943-1.765-.524-1.46.4a6.789,6.789,0,0,0,1,2.136c.277.353.772.024.8-.333A6.513,6.513,0,0,0,634.185,263.958Z" transform="translate(-538.946 -114.341)" fill="#db9150"/><path d="M637.2,228.287a.913.913,0,0,0-1.648-.215,2.758,2.758,0,0,0,1.076,3.18.6.6,0,0,0,.883-.36A5.839,5.839,0,0,0,637.2,228.287Z" transform="translate(-538.417 -121.396)" fill="#db9150"/><path d="M594.107,186.12c.364-1.329-1.512-1.756-2.006-.553a3.631,3.631,0,0,0,.1,2.658c.281.723.8,1.719,1.6,1.931a.73.73,0,0,0,.886-.5C594.99,188.456,593.77,187.345,594.107,186.12Z" transform="translate(-546.986 -129.827)" fill="#693324"/><path d="M596,173.642a2.364,2.364,0,0,0-1.027.949,6.415,6.415,0,0,0-.612,1.316,1.869,1.869,0,0,0,.533,2.343.924.924,0,0,0,1.343-1.033c-.087-.3.183-.831.344-1.18.12-.257.263-.516.366-.781a2.517,2.517,0,0,0,.117-1A.714.714,0,0,0,596,173.642Z" transform="translate(-546.535 -132.056)" fill="#693324"/><path d="M594.616,170.356c-.636-.061-1.36.628-1.744,1.075a4.2,4.2,0,0,0-1.045,2.034.815.815,0,0,0,1.569.433,5.794,5.794,0,0,1,1.045-1.567c.3-.4.765-.924.694-1.454A.541.541,0,0,0,594.616,170.356Z" transform="translate(-547.002 -132.687)" fill="#693324"/><path d="M601.353,164.319c-1.1-.091-1.826,1.184-2.017,2.112a.846.846,0,0,0,1.63.449c.239-.643.9-.971,1.094-1.633A.743.743,0,0,0,601.353,164.319Z" transform="translate(-545.524 -133.877)" fill="#693324"/><path d="M603.6,220.068a7.945,7.945,0,0,0-2.865,1.24c-.552.332-2.111,1.452-.889,2.1.79.421,1.881-.385,2.556-.794a4.086,4.086,0,0,0,1.876-1.871C604.457,220.306,603.954,220.02,603.6,220.068Z" transform="translate(-545.509 -122.888)" fill="#693324"/><path d="M613.858,222.093c-1.1-.727-2.975-.144-4.178.327a.881.881,0,0,0-.545.236l-.091.093a.979.979,0,0,0,.684,1.651,5.886,5.886,0,0,0,2.144-.4,6.745,6.745,0,0,0,1.986-.749A.679.679,0,0,0,613.858,222.093Z" transform="translate(-543.661 -122.556)" fill="#693324"/><path d="M592.857,219.867c-1.284-.51-2.989.509-4.052,1.179a.956.956,0,0,0,.734,1.739,9.11,9.11,0,0,0,1.929-.862,8.521,8.521,0,0,0,1.663-1.02C593.525,220.571,593.246,220.022,592.857,219.867Z" transform="translate(-547.684 -122.954)" fill="#693324"/><path d="M596.919,214.623c-1.059-.182-2.889.344-3.394,1.393a.9.9,0,0,0,1.407,1.085c.667-.6,1.693-.543,2.312-1.249A.744.744,0,0,0,596.919,214.623Z" transform="translate(-546.685 -123.968)" fill="#693324"/><path d="M592.273,206.851a3.541,3.541,0,0,0-2.452.464,12.145,12.145,0,0,0-2.076,1.56c-.875.728.308,2.29,1.229,1.593.589-.447,1.19-.851,1.814-1.245a10.145,10.145,0,0,0,1.822-1.1A.773.773,0,0,0,592.273,206.851Z" transform="translate(-547.864 -125.509)" fill="#693324"/><path d="M577.3,231.638a5.439,5.439,0,0,0-1.912,1.615,2.8,2.8,0,0,0-.487,2.292.653.653,0,0,0,1.077.285,11.4,11.4,0,0,0,1.087-1.459,10.556,10.556,0,0,1,1.259-1.405C579.05,232.312,578.12,231.173,577.3,231.638Z" transform="translate(-550.354 -120.628)" fill="#693324"/><path d="M573.438,244.424c-1.034.269-1.352,1.228-1.427,2.193a5.908,5.908,0,0,0,.128,1.543,3.106,3.106,0,0,0,.329,1.262.7.7,0,0,0,1.2,0,4.251,4.251,0,0,0,.265-1.969c.017-.3-.141-1.238.175-1.438A.874.874,0,0,0,573.438,244.424Z" transform="translate(-550.907 -118.093)" fill="#693324"/><path d="M564.767,250.77c-.8.978-1.654,2.843-.42,3.85a.764.764,0,0,0,1.256-.332,8.776,8.776,0,0,0,.2-1.208,2.728,2.728,0,0,1,.543-1.088C567.036,251.087,565.489,249.883,564.767,250.77Z" transform="translate(-552.538 -116.897)" fill="#693324"/><path d="M577.835,222.323c-.989-.606-2.285.285-3.031.912a3.83,3.83,0,0,0-1.6,2.57,1.032,1.032,0,0,0,2.017.273c.317-1.306,2.156-1.689,2.892-2.684A.792.792,0,0,0,577.835,222.323Z" transform="translate(-550.67 -122.483)" fill="#693324"/><path d="M566.309,269.225a3.937,3.937,0,0,0-.984,2.751,7.69,7.69,0,0,0,.213,1.486,5.5,5.5,0,0,0,.636,1.38c.334.66,1.231.278,1.283-.347a5.778,5.778,0,0,0,.1-1.026c-.031-.363-.127-.724-.164-1.088a2.655,2.655,0,0,1,.383-2.024C568.395,269.5,567,268.423,566.309,269.225Z" transform="translate(-552.223 -113.253)" fill="#693324"/><path d="M560.454,278.622c-.74,1.172-1.019,3.437-.111,4.577.318.4.876.178,1.122-.145.729-.96-.014-2.451.579-3.5A.921.921,0,0,0,560.454,278.622Z" transform="translate(-553.318 -111.432)" fill="#693324"/><path d="M566.669,295.307c-.318-.34-.643-.68-.946-1.033-.116-.135-.209-.286-.322-.423s-.077-.413-.126-.1c.2-1.213-1.657-1.739-1.86-.513a3.207,3.207,0,0,0,1.2,2.693,9.024,9.024,0,0,0,1.292,1.185,12.286,12.286,0,0,0,1.17.862.556.556,0,0,0,.828-.475A3.819,3.819,0,0,0,566.669,295.307Z" transform="translate(-552.605 -108.603)" fill="#693324"/><path d="M570.751,292.139c.7-1.032-1.021-2.051-1.677-.979-.784,1.279-.357,3.314,1.288,3.644a.577.577,0,0,0,.7-.7C570.887,293.418,570.294,292.816,570.751,292.139Z" transform="translate(-551.559 -108.964)" fill="#693324"/><path d="M567.93,309.005a.91.91,0,0,0-1.082-.8c.432-.079.008-.036-.117-.027a.914.914,0,0,0-.783.449l-.071.145a.977.977,0,0,0,.339,1.294c.891.639,1.537,1.7,2.533,2.175a.678.678,0,0,0,.984-.757A5.634,5.634,0,0,0,567.93,309.005Z" transform="translate(-552.137 -105.525)" fill="#693324"/><path d="M577.487,313.744a2.39,2.39,0,0,0-.56-.585c.077.147.036.1-.122-.13a.819.819,0,0,0-.073-.068c-.414-1.195-2.4-.794-2.016.581a1.782,1.782,0,0,0,2.549,1.052A.637.637,0,0,0,577.487,313.744Z" transform="translate(-550.382 -104.717)" fill="#693324"/><path d="M573.162,304.884c-.086-.363-.357-.685-.249-1.059a1.047,1.047,0,0,0-2.017-.555,2.729,2.729,0,0,0,1.535,3.153.551.551,0,0,0,.8-.326A2.54,2.54,0,0,0,573.162,304.884Z" transform="translate(-551.146 -106.632)" fill="#693324"/><path d="M559.3,298.194c-1,.861-1.6,3.105-.109,3.848a.7.7,0,0,0,1.045-.6c.023-.372-.171-.677-.158-1.041a1.294,1.294,0,0,1,.506-.922C561.459,298.7,560.175,297.439,559.3,298.194Z" transform="translate(-553.61 -107.534)" fill="#693324"/><path d="M692.57,235.632a1.091,1.091,0,0,0-1.312-.789c-.026-.1-.05-.2-.083-.292a4.07,4.07,0,0,0-1.213-1.912,1.235,1.235,0,0,0-1.083-.283c.554-.8-.705-1.763-1.36-1.042-.912,1-.085,2.312.087,3.247.216,1.161-.144,2.644.515,3.7.633,1.013,1.586.685,2.162-.022l.008.011a1.213,1.213,0,0,0,1.876-.242A3.2,3.2,0,0,0,692.57,235.632Z" transform="translate(-528.22 -120.721)" fill="#ffe6e5"/><path d="M693.386,229.595a1.211,1.211,0,0,0-1.76,1.352c.036.129.077.257.115.385,0,.011-.011.017-.014.026-.4,1.109.2,2.015.211,3.118a6.635,6.635,0,0,0,.338,3.072,1.14,1.14,0,0,0,1.7.287,1.336,1.336,0,0,0,1.732-.838C696.356,234.505,695.764,230.955,693.386,229.595Z" transform="translate(-527.336 -121.04)" fill="#ffe6e5"/><path d="M700.8,233.306c-.233-.991-.631-2.367-1.645-2.838a1.317,1.317,0,0,0-1.949,1.119c-.008.092-.022.183-.031.275a.965.965,0,0,0-1.28,1.135c.335,1.359.217,2.9,1.02,4.108a1.293,1.293,0,0,0,1.738.42c.038.042.071.091.109.13a1.419,1.419,0,0,0,2.394-.992A12.022,12.022,0,0,0,700.8,233.306Z" transform="translate(-526.493 -120.867)" fill="#ffe6e5"/></g><path d="M699.766,217.819a17.872,17.872,0,0,1-2.149,6.413c-1.759,2.907-1.744,7.215.753,9.32s4.3-4.409,6.708-4.81,7.014-.2,7.515-5.11-3.006-8.417-1-10.021,11.924.448,11.022-8.443-6.913-9.393-7.314-11.7,8.316-2.235,10.221-4.826-.3-4.093,3.006-4.994,13.728.974,14.43-9.183-6.614-22.081-15.533-22.983-12.926,1.972-15.031,1.838-11.223-2.138-18.537,1.47-13.127,8.717-9.721,15.431,10.322,10.221,9.721,11.424-7.816,2.3-6.914,7.616,13.428,7.615,14.029,8.617-1.5.121-2.405,2.916,2,3.8,2.2,6-4.208,1.7-5.31,4.911S699.963,216.655,699.766,217.819Z" transform="translate(25.379 2.448)" fill="#ede4d5"/><path d="M686.807,269.108s-7.75,25.252-2.138,34.07,11.891,9.419,17.57,9.486,12.692-3.14,15.5-14.9S715,275.187,715,275.187s-3.808,6.814-4.676,6.547-2.539-12.025-3.608-16.768a133.828,133.828,0,0,0-4.409-13.428s-2.739,17.436-3.674,18.438-2.672-12.092-2.939-12.693-4.81,20.643-5.345,21.11S686.807,269.108,686.807,269.108Z" transform="translate(25.279 22.204)" fill="#ffa93f"/><path d="M692.094,279.963s-4.476,9.018-1.2,16.033a8.87,8.87,0,0,0,14.5,2.939c3.474-3.674-1-19.774-1-19.774s-3.073,6.347-3.474,5.745-2.71-5.144-2.71-5.144-3.436,9.42-3.7,9.553S692.094,279.963,692.094,279.963Z" transform="translate(26.672 27.649)" fill="#ff3f3f"/><path d="M695.1,305.212s-24.65,13.227-24.4,13.578,5.962,4.459,5.962,4.459l10.422-4.76s-3.508,6.463-3.508,6.713,8.318.7,8.818.6,7.065-11.824,7.065-11.273-.05,12.225,0,12.225,7.064-.651,7.264-.8-.4-8.017,0-7.065,4.911,6.651,4.911,6.651l.952-.888-.6-5.612s10.07,7.766,11.523,7.715,5.461-2.355,5.01-3.056-4.609-4.659-4.609-4.659l8.969,4.359s2.4-2.956,1.853-4.51-26.6-14.88-27.155-15.13-1.2,4.96-1.2,4.96-3.183-3.958-3.445-4.208-3.419.751-3.419.751l-1,3.358-1.1-1.354-2.4.451S695.554,305.561,695.1,305.212Z" transform="translate(22.928 32.496)" fill="#8a4322"/><path d="M700.4,264.038s-2.806,6.314-1.1,8.719S702.1,269.35,700.4,264.038Z" transform="translate(28.456 24.668)" fill="#ffd53f"/><path d="M705.619,253.544s-2.205,5.047.6,7.051S705.619,253.544,705.619,253.544Z" transform="translate(29.648 22.6)" fill="#ffd53f"/><path d="M692.949,245.539s-3.508,7.114-1.6,8.417S692.949,245.539,692.949,245.539Z" transform="translate(26.886 21.022)" fill="#ffd53f"/><path d="M690.987,273.055s-2.139,1.974-.837,4.158S690.987,273.055,690.987,273.055Z" transform="translate(26.679 26.446)" fill="#ffd53f"/><path d="M707.039,283.311s2.6,6.889.9,7.491S705.642,287.846,707.039,283.311Z" transform="translate(29.937 28.467)" fill="#ffd53f"/><path d="M688.893,286.974s3.206,7.442,0,8.03S688.893,286.974,688.893,286.974Z" transform="translate(26.233 29.189)" fill="#ffd53f"/></g></g></svg>