<svg xmlns="http://www.w3.org/2000/svg" xmlns:xlink="http://www.w3.org/1999/xlink" width="282" height="188" viewBox="0 0 282 188"><defs><clipPath id="a"><rect width="282" height="188" transform="translate(142 891)" fill="#fff" stroke="#707070" stroke-width="1"/></clipPath></defs><g transform="translate(-142 -891)" clip-path="url(#a)"><g transform="translate(-775.249 350.69)"><g transform="translate(972.098 551.927)"><path d="M995.347,735.462s5.195,2.267,5.752.967-2.6-3.791-2.6-3.791,2.379,1.189,2.974,0-2.394-2.676-2.394-2.676Z" transform="translate(-962.874 -481.289)" fill="#302a27"/><path d="M1054.173,730.521s-4.292,1.5-3.623,3.122,6.913,0,6.913,0Z" transform="translate(-940.999 -481.068)" fill="#302a27"/><path d="M1027.238,574.8a73.216,73.216,0,0,1-31.076,4.7c-.507,0-.581,1.9.757,2.493s19.546,2.252,27.706-1.2S1027.238,574.8,1027.238,574.8Z" transform="translate(-962.685 -542.852)" fill="#c23f30"/><path d="M1033.247,554.438s11.41-5.65,21.668,0,11.865,24.406,11.865,24.406l-40.633-2.031S1024.29,564.175,1033.247,554.438Z" transform="translate(-950.717 -551.927)" fill="#ffae3d"/><path d="M1035.567,553.725c.473-.038-3.495,3.717-5.2,8.325a11.815,11.815,0,0,0-.372,7.955s17.691-8.029,26.241-1.338-.967,7.879-.967,7.879l-34.789,3.643s-1.338-9.293,1.338-15.686S1032.667,553.947,1035.567,553.725Z" transform="translate(-953.036 -551.214)" fill="#e65f37"/><path d="M1006.656,591.438s6.355-6.858,5.576-8.586-6.453,3.421-6.991,3.856l-.536.436s-.253-2.493-1.134-3.291-2.539,1.553-2.539,1.553l-.441-.189s.209-2.2-1.133-2.539-2.141,2.414-2.141,2.414l-.986.084s.524-3-1.3-2.792-2.1,3.127-2.1,3.127-.629-2.518-2.14-2.162-1.386,3-1.386,3Z" transform="translate(-965.233 -539.847)" fill="#302a27"/><path d="M1073.93,609.284c-.11-.112-7.061-6.95-6.02-8.735s8.362,5.13,8.362,5.13l.557-.909s-1.45-2.362,0-3.366,2.527,1.376,2.527,1.376l.409-.223s-.967-1.858.669-2.639,2.193,1.264,2.193,1.264h.929s-.11-2.3,1.078-2.379,1.933,2.415,1.933,2.415-.335-2.081.817-2.007,1.784,1.971,1.784,1.971Z" transform="translate(-934.126 -533.329)" fill="#302a27"/><path d="M1012.938,616.057s-3.567-6.355-2.341-13.157,3.345-13.054.224-16.451-18.9-5.039-26.984,6.974c-13.428,19.958-6.914,53.187,5.241,56.755S1012.938,616.057,1012.938,616.057Z" transform="translate(-970.401 -539.212)" fill="#7d3f2c"/><path d="M1009.5,606.1s-28.99,11.437-23.861,35.3S1009.5,606.1,1009.5,606.1Z" transform="translate(-966.966 -530.433)" fill="#693324"/><path d="M1024.966,616.13a47.011,47.011,0,0,1,6.987-31.815c-2.675-4.162-5.165-11.15,1.971-16.391s14.5,3.679,14.5,3.679,9.812-7.034,21.854-5.329c.391-1.36,3.495-7.048,7.843-7.382s1.524,4.5,1.524,4.5,3.233-3.048,5.984-1.785-1.784,5.5-1.784,5.5,5.315-3.309,6.839-.224-4.646,5.5-4.646,5.5,5.3,2.267,7.723,5.2c0,0,9.635-7.322,15.1,3.493s-1.56,19.233-6.355,20.461c0,0,5.8,18.676-.112,31.945s-12.934,14.16-12.934,14.16,8.362,9.8,18.4,4.119,3.753-18.725,2.992-24.189,10.166-15.165,18.528-10.036,25.089,18.962,18.175,47.727-31,28.42-41.256,23.8c4.683,19.239,4.014,26.152,6.021,34.18s5.129,10.481,6.914,28.99-3.123,45.717-6.021,49.508-20.377,3.122-26.357,0S1077.968,779,1077.968,779s-31.222,8.094-64.226-.078c-1.116,5.748-1.785,23.079-9.812,25.423s-28.322.747-30.553-7.058-4.162-100.017,18.436-140.216S1024.966,616.13,1024.966,616.13Z" transform="translate(-972.096 -549.171)" fill="#964c36"/><path d="M1077.962,771.773s2.9,19.625,8.879,22.746a20.948,20.948,0,0,0,5.283,1.661c-8.355-4.809-1.9-27.083-2.676-30.558s-10.219-6.337-10.219-6.337,1.633-4.014,0-6.808-6.172,2.735-6.172,2.735,0-4.179-1.562-4.552-4.51,1.528-4.51,1.528-.4-2.046-1.288-5.517-2.9,1.018-7.361,3.989-21.035,6.172-37.984-3.565-19.625-63.113,1.679-88.076,56.9-15.177,67.416-18.6c-8.809-2.38-7.232-7.881-7.232-7.881s2.363-2.676,2.119-4.162-5.7-1.041-5.7-1.041.893-1.933,0-3.122-2.32,0-2.32,0,1.429-4.014,0-5.2-8.086,9.664-28.279-1.784-16.084-40.142-16.084-40.142a47.01,47.01,0,0,0-6.987,31.815s-10.555.743-33.154,40.942S971.143,782.254,973.372,790.06s22.524,9.4,30.551,7.058c-12.934-1.415-15.387-21.777-9.589-28.459s19.4,3.036,19.4,3.036C1046.741,779.869,1077.962,771.773,1077.962,771.773Z" transform="translate(-972.098 -541.944)" fill="#7d3f2c"/><path d="M1033.083,685.668c.2-.117-.148,7.805,2.75,10.779s14.57,3.419,16.5-3.2-4.46-10.332-8.1-11S1034.2,685,1034.2,685s5.055-5.278,11.522-3.791,9.886,6.69,10.034,10.258-5.426,8.474-7.582,9.738-10.853,1.56-14.644-2.231S1031.524,686.563,1033.083,685.668Z" transform="translate(-948.621 -500.738)" fill="#693324"/><path d="M1052.2,597.81s9.864-5.6,6.783-9.416-13.761-3.268-14.754.1S1050.338,599,1052.2,597.81Z" transform="translate(-943.517 -538.509)" fill="#332828"/><path d="M1037.555,596.547s2.425,6.829,6.913,8.251c-1.616,1.506-4.014,3.289-5.324,2.4S1037.3,597.55,1037.555,596.547Z" transform="translate(-946.151 -534.224)" fill="#fff"/><g transform="translate(88.199 40.058)"><path d="M1035.688,581.821s-1.448,5.815.881,5.961,2.707-4.22,2.246-5.961A1.614,1.614,0,0,0,1035.688,581.821Z" transform="translate(-1035.244 -580.606)"/><path d="M1039.418,582.55a1.191,1.191,0,1,1-1.19-1.191A1.19,1.19,0,0,1,1039.418,582.55Z" transform="translate(-1034.532 -580.307)" fill="#fff"/></g><g transform="translate(117.915 41.341)"><path d="M1056.962,582.739s-1.447,5.815.883,5.961,2.707-4.22,2.245-5.961A1.614,1.614,0,0,0,1056.962,582.739Z" transform="translate(-1056.518 -581.525)"/><circle cx="1.191" cy="1.191" r="1.191" transform="translate(2.505 1.052)" fill="#fff"/></g><path d="M1054.746,593.471s3.011-2.676,2.594-4.544-8.168-3.234-9.786-2.007,6.914,2.983,7.22,3.569S1053.687,594.307,1054.746,593.471Z" transform="translate(-942.241 -538.229)" fill="#6e5656"/><path d="M1058.094,624.771s-37.132-5.463-43.932-23.415C1011.88,624.1,1043.708,630.681,1058.094,624.771Z" transform="translate(-955.455 -532.316)" fill="#693324"/><path d="M1029.7,721.62c-.337-.1,10.036-3.345,12.824-17.284C1048.43,712.979,1045.53,726.415,1029.7,721.62Z" transform="translate(-949.248 -491.457)" fill="#693324"/><path d="M1027.056,570.731s-7.4,6.787-8.22,6.452-2.826-5.315-.149-8.287S1027.39,570.21,1027.056,570.731Z" transform="translate(-954.147 -545.608)" fill="#c47347"/><path d="M1061.413,577.663s3.123,9.069,3.419,10.481c3.048-.817,5.873-5.8,4.164-9.441S1061.413,577.663,1061.413,577.663Z" transform="translate(-936.661 -542.073)" fill="#c47347"/></g><g transform="translate(976.259 578.61)"><path d="M1058.141,599.608c-.168-.859-1.659-.676-1.548.209.176,1.394-.253,3.415.584,4.616a.765.765,0,0,0,1.3,0C1059.511,603.078,1058.421,601.054,1058.141,599.608Z" transform="translate(-942.737 -559.913)" fill="#ad583e"/><path d="M1058.531,608.63c-.567.746-1.228,1.446-1.837,2.159-.647.757-1.464,1.509-1.207,2.577a.9.9,0,0,0,1.034.751l0,.032c1.082-.092,1.742-1.13,2.394-1.919a5.834,5.834,0,0,0,1.454-2.828A1.009,1.009,0,0,0,1058.531,608.63Z" transform="translate(-943.192 -556.296)" fill="#ad583e"/><path d="M1064.95,600.57c-.31-1.272-.759-3.33-1.95-4.039a.907.907,0,0,0-1.31.534c-.468,1.119.334,2.639.655,3.729.365,1.242.515,2.875,1.249,3.946a.607.607,0,0,0,.942.122C1065.528,603.719,1065.284,601.938,1064.95,600.57Z" transform="translate(-940.769 -560.963)" fill="#ad583e"/><path d="M1065.414,608.87a.866.866,0,0,0-1.654,0c-.163.4-.4.722-.541,1.155a10.842,10.842,0,0,1-.444,1.247,5.856,5.856,0,0,1-1.569,2.027,1,1,0,0,0,.969,1.666,5.125,5.125,0,0,0,2.726-2.448,6.108,6.108,0,0,0,.712-1.831A3.266,3.266,0,0,0,1065.414,608.87Z" transform="translate(-941.022 -556.258)" fill="#ad583e"/><path d="M1053.655,601.029a.785.785,0,0,0-.873-.355c-1.07.443-1.869,2.172-1.946,3.365a.874.874,0,0,0,1.26,1.043,3.086,3.086,0,0,0,1.48-1.668A2.912,2.912,0,0,0,1053.655,601.029Z" transform="translate(-945.033 -559.284)" fill="#ad583e"/><path d="M1059.581,593.612a3.7,3.7,0,0,0-.187-.923,2.7,2.7,0,0,0-.31-.557l-.028-.021a1,1,0,0,0-1.739.285c-.007.022-.015.046-.029.092a1.716,1.716,0,0,0-.091.5,3.36,3.36,0,0,0,.207,1.063,2.7,2.7,0,0,0,.888,1.576.815.815,0,0,0,.981-.127A2.615,2.615,0,0,0,1059.581,593.612Z" transform="translate(-942.495 -562.827)" fill="#ad583e"/><path d="M1049.3,582.506c-.5-.811-.4-2.1-1.182-2.711a.8.8,0,0,0-.937-.121c-1.3.932-.636,3.245.472,4.1C1048.521,584.449,1049.979,583.61,1049.3,582.506Z" transform="translate(-946.753 -567.644)" fill="#ad583e"/><path d="M1052.395,578.537a3.683,3.683,0,0,0-.422-2.1c-.276-.36-.9-.612-1.26-.162a4.647,4.647,0,0,0,.136,5.013.937.937,0,0,0,1.581-.655A20.58,20.58,0,0,0,1052.395,578.537Z" transform="translate(-945.333 -569.046)" fill="#ad583e"/><path d="M1047.287,571.031c-1.027-.039-1.717.974-2.062,1.831a5.118,5.118,0,0,0-.17,2.862c.189,1.027,1.872.792,1.821-.247a3.149,3.149,0,0,1,.4-1.855c.359-.606.816-.98.885-1.712A.889.889,0,0,0,1047.287,571.031Z" transform="translate(-947.361 -571.03)" fill="#ad583e"/><path d="M1025.994,599.224c-.419-.61-.162-1.292-.517-1.879a.8.8,0,0,0-.7-.4c-1.523.2-1.384,2.032-.863,3.091.472.962,1.905,2.673,3.111,1.863a.959.959,0,0,0,.423-1.039C1027.288,600.113,1026.409,599.828,1025.994,599.224Z" transform="translate(-955.845 -560.751)" fill="#ad583e"/><path d="M1031.3,594.6a1,1,0,0,0-1.993,0c-.168,1.254.6,3.069,2.112,2.969a.75.75,0,0,0,.739-.739C1032.1,596,1031.36,595.428,1031.3,594.6Z" transform="translate(-953.57 -562.058)" fill="#ad583e"/><path d="M1024.612,585.562a.77.77,0,0,0-1.268-.335,6.1,6.1,0,0,0-1.348,3.5,4.674,4.674,0,0,0,.451,3.506c.453.623,1.754.522,1.65-.447a8.52,8.52,0,0,1,.24-3.21A5.084,5.084,0,0,0,1024.612,585.562Z" transform="translate(-956.513 -565.484)" fill="#ad583e"/><path d="M1030.1,582.045a.736.736,0,0,0-1.211-.318c-1.043.81-1.7,3.409-.975,4.558a.957.957,0,0,0,1.767-.478,14.142,14.142,0,0,1,.272-1.8A3.97,3.97,0,0,0,1030.1,582.045Z" transform="translate(-954.233 -566.864)" fill="#ad583e"/><path d="M1023.72,577.163a5.683,5.683,0,0,0-1.83,1.826,14.261,14.261,0,0,0-1.532,2.31c-.432.893.75,2.021,1.476,1.14.62-.75,1.214-1.522,1.817-2.286a4.092,4.092,0,0,0,1.108-2.393A.7.7,0,0,0,1023.72,577.163Z" transform="translate(-957.148 -568.629)" fill="#ad583e"/><path d="M1036.887,591.849a5.326,5.326,0,0,1-.212-1.018.8.8,0,0,0-.969-.55c-1.818.394-.479,3.352.671,3.742a.785.785,0,0,0,.988-.753A3.97,3.97,0,0,0,1036.887,591.849Z" transform="translate(-951.376 -563.4)" fill="#ad583e"/><path d="M1080.683,623.428a1.079,1.079,0,0,0-1.25-.161c-.724.346-.778,1.19-1.013,1.873a4.884,4.884,0,0,1-.86,1.751c-.841.951.249,2.623,1.427,1.851a4.657,4.657,0,0,0,1.831-2.412C1081.135,625.5,1081.424,624.085,1080.683,623.428Z" transform="translate(-934.534 -550.355)" fill="#ad583e"/><path d="M1080.226,614.906a1.133,1.133,0,0,0-1.535,1.535,21.039,21.039,0,0,0,1.207,1.915c.411.7.694,1.333,1.5,1.616a1.011,1.011,0,0,0,1.141-.465C1083.191,618.006,1081.658,615.535,1080.226,614.906Z" transform="translate(-934.017 -553.67)" fill="#ad583e"/><path d="M1084.184,606.458c-.879-.585-2.238-1.14-3.146-.342a.923.923,0,0,0,.184,1.435c.4.258.865.373,1.271.64a8.572,8.572,0,0,1,1.267,1.034c.423.406.967,1.018,1.6,1.035a.943.943,0,0,0,.979-.865C1086.508,608.155,1085.079,607.055,1084.184,606.458Z" transform="translate(-933.142 -557.267)" fill="#ad583e"/><path d="M1086.265,615.293a1.028,1.028,0,0,0-1.738.721,5.82,5.82,0,0,0,1.027,3.113.941.941,0,0,0,1.321,0C1087.8,618.033,1087.119,616.256,1086.265,615.293Z" transform="translate(-931.652 -553.584)" fill="#ad583e"/><path d="M1092.341,612.053c-.921-.413-2.085.475-1.478,1.478.444.733,1.009,1.366,1.419,2.125a16.261,16.261,0,0,1,.922,2.179.63.63,0,0,0,1.134.148A4.421,4.421,0,0,0,1092.341,612.053Z" transform="translate(-929.204 -554.795)" fill="#ad583e"/><path d="M1095.7,624.679a.983.983,0,0,0-1.881,0,16.443,16.443,0,0,0-.238,3.1,11.056,11.056,0,0,0-.162,2.978.938.938,0,0,0,1.549.409C1096.493,629.925,1096.153,626.369,1095.7,624.679Z" transform="translate(-928.152 -550.021)" fill="#ad583e"/><path d="M1090.785,624.744a.957.957,0,0,0-1.34,0,4.286,4.286,0,0,0-.853,2.293,3.436,3.436,0,0,1-1.148,1.95c-1.092.888.377,2.826,1.52,1.969a5.524,5.524,0,0,0,2.032-2.863A3.5,3.5,0,0,0,1090.785,624.744Z" transform="translate(-930.646 -549.827)" fill="#ad583e"/><path d="M1084.316,639.606a7.232,7.232,0,0,0-2.411,1.4c-.716.493-1.522.867-2.275,1.3a.877.877,0,0,0,.439,1.623c1.972-.124,4.706-1.191,5.234-3.334A.811.811,0,0,0,1084.316,639.606Z" transform="translate(-933.758 -543.83)" fill="#ad583e"/><path d="M1088.687,644.821c-.677.116-1.134.795-1.634,1.226a3.671,3.671,0,0,1-1.779.978c-1.433.27-.83,2.468.6,2.192a5.419,5.419,0,0,0,2.468-1.3c.619-.529,1.478-1.393,1.453-2.252A.892.892,0,0,0,1088.687,644.821Z" transform="translate(-931.68 -541.759)" fill="#ad583e"/><path d="M1093.811,635.8a.892.892,0,0,0-1.38-.177,4.394,4.394,0,0,0-1.028,2.112,7.9,7.9,0,0,1-.892,1.95c-.715,1.053.968,2.384,1.784,1.376C1093.291,639.834,1094.639,637.373,1093.811,635.8Z" transform="translate(-929.346 -545.497)" fill="#ad583e"/><path d="M1085.266,633.14a1.326,1.326,0,0,0-2.256.018,4.3,4.3,0,0,1-1.733,1.556,1.155,1.155,0,0,0,.3,2.259,4.44,4.44,0,0,0,3.685-2.527A1.292,1.292,0,0,0,1085.266,633.14Z" transform="translate(-933.263 -546.633)" fill="#ad583e"/><path d="M1076.407,645.707a5.066,5.066,0,0,0-2.267.265,9.368,9.368,0,0,1-2.176-.07,1.007,1.007,0,0,0-.705,1.7c1.239,1.212,5.228,1.069,5.688-.944A.793.793,0,0,0,1076.407,645.707Z" transform="translate(-937.026 -541.43)" fill="#ad583e"/><path d="M1074.606,636.183c-1.271-.345-2.175,1.405-3.307.975-1.148-.437-1.814,1.334-.816,1.936a2.786,2.786,0,0,0,2.689.034c.778-.341,1.909-.9,2.071-1.821A.936.936,0,0,0,1074.606,636.183Z" transform="translate(-937.417 -545.198)" fill="#ad583e"/><path d="M1067.572,634.407c-1.126-.747-2.646-.272-3.9-.608a1.13,1.13,0,0,0-.6,2.177c1.284.483,3.323.657,4.5-.162A.827.827,0,0,0,1067.572,634.407Z" transform="translate(-940.474 -546.144)" fill="#ad583e"/><path d="M1071.7,628.35a.6.6,0,0,0-.87-.355,7.675,7.675,0,0,1-2.01,1.2,1.141,1.141,0,0,0,.3,2.231A2.606,2.606,0,0,0,1071.7,628.35Z" transform="translate(-938.2 -548.461)" fill="#ad583e"/><path d="M1052.285,635.865c-.261-.335-.595-.606-.867-.932-.1-.12-.189-.247-.282-.37a1.019,1.019,0,0,0-1.971-.149,1.091,1.091,0,0,0-.029.154c-.018.043-.043.106-.076.193a1.679,1.679,0,0,0-.022.74,3.627,3.627,0,0,0,.7,1.268c.588.784,1.384,1.915,2.4,2.036a.972.972,0,0,0,.867-.5C1053.474,637.381,1052.845,636.583,1052.285,635.865Z" transform="translate(-945.745 -546.16)" fill="#ad583e"/><path d="M1053.371,628.041c-1.046-.743-2.112.835-1.317,1.707.532.584,1.066,1.179,1.545,1.806a9.913,9.913,0,0,0,1.324,1.793.828.828,0,0,0,1.362-.36C1056.986,631.1,1054.719,629,1053.371,628.041Z" transform="translate(-944.645 -548.487)" fill="#ad583e"/><path d="M1062.805,649.01c-.334-.946-.789-1.849-1.149-2.784-.388-1.006-2.169-.995-2.053.276a8.911,8.911,0,0,0,.918,3.1,4.128,4.128,0,0,0,1.743,2.193.633.633,0,0,0,.715-.292A3.212,3.212,0,0,0,1062.805,649.01Z" transform="translate(-941.543 -541.48)" fill="#ad583e"/><path d="M1050.99,653.562c-.221-.827-.335-1.728-.608-2.532-.261-.775-1.583-1.186-1.975-.258a4.271,4.271,0,0,0,.1,2.9c.228.813.465,2.2,1.31,2.588a.857.857,0,0,0,1-.129C1051.508,655.48,1051.207,654.371,1050.99,653.562Z" transform="translate(-946.069 -539.603)" fill="#ad583e"/><path d="M1054.338,646.037a23.411,23.411,0,0,0-2.256-2.07,1.178,1.178,0,0,0-1.665,1.665c.581.726,1.17,1.436,1.765,2.151.571.685,1,1.592,1.9,1.856a1.116,1.116,0,0,0,1.338-.76C1055.824,647.858,1054.964,646.778,1054.338,646.037Z" transform="translate(-945.303 -542.229)" fill="#ad583e"/><path d="M1066.874,661.046a6.03,6.03,0,0,0-.944-1.268,2.742,2.742,0,0,0-.7-.458c-.052-.008-.075-.011-.113-.018-.068-.028-.135-.059-.205-.081-1.147-.392-1.655,1.008-1.021,1.761.262.6.758,1.214,1.032,1.782.371.772.806,1.819,1.719,2.062a.82.82,0,0,0,.9-.366C1068.248,663.45,1067.392,661.934,1066.874,661.046Z" transform="translate(-939.947 -536.067)" fill="#ad583e"/><path d="M1058.523,668.228c.13-1.179-1.865-1.454-2.08-.281a4.888,4.888,0,0,0,.517,2.984c.281.613.946,1.893,1.817,1.236a1.062,1.062,0,0,0,.457-1.123C1059.069,670.115,1058.418,669.178,1058.523,668.228Z" transform="translate(-942.819 -532.876)" fill="#ad583e"/><path d="M1059.971,659.092a5.011,5.011,0,0,0-.86-.853,4.378,4.378,0,0,1-.6-.509,1.219,1.219,0,0,0-2.381.323,2.425,2.425,0,0,0,.87,1.94c.593.588,1.456,1.405,2.354,1.134A1.3,1.3,0,0,0,1059.971,659.092Z" transform="translate(-942.923 -536.973)" fill="#ad583e"/><path d="M1041.625,684.994a5.247,5.247,0,0,0-2.981.372,1.074,1.074,0,0,0,.571,2.07,5.747,5.747,0,0,1,1.82-.121c.637.1,1.006.5,1.7.4a.9.9,0,0,0,.627-.629C1043.782,685.966,1042.544,685.2,1041.625,684.994Z" transform="translate(-950.154 -525.848)" fill="#ad583e"/><path d="M1042.961,689.763a2.07,2.07,0,0,0-1.32.554,3.492,3.492,0,0,1-1.394.567c-1.187.207-.74,1.812.261,1.93,1.293.154,3.405-.531,3.408-2.1A.971.971,0,0,0,1042.961,689.763Z" transform="translate(-949.502 -523.921)" fill="#ad583e"/><path d="M1046.062,688.41a8.276,8.276,0,0,0-.531-1.041c-.071-.127-.149-.25-.214-.38-.081-.165-.152-.6-.112-.095a1.008,1.008,0,0,0-1.971-.267,2.906,2.906,0,0,0,.353,2.151,4.47,4.47,0,0,0,1.342,1.9.779.779,0,0,0,.929-.12A2,2,0,0,0,1046.062,688.41Z" transform="translate(-948.067 -525.451)" fill="#ad583e"/><path d="M1050.055,678.942a4.726,4.726,0,0,0-1.067-1.612c-.5-.469-1.083-.851-1.569-1.345-.746-.758-2.141.246-1.51,1.166a7.209,7.209,0,0,0,3.331,2.6A.665.665,0,0,0,1050.055,678.942Z" transform="translate(-947.037 -529.494)" fill="#ad583e"/><path d="M1062.231,682.826a1.232,1.232,0,0,0-2.242.944,4.617,4.617,0,0,0,1.2,2,13.922,13.922,0,0,0,1.543,1.694c.482.411,1.461.348,1.584-.419C1064.605,685.235,1063.133,684.2,1062.231,682.826Z" transform="translate(-941.398 -526.906)" fill="#ad583e"/><path d="M1067.269,674.967c-.475-1.447-2.74-.846-2.3.634.409,1.367,1.013,2.9,2.5,3.336.436.126,1.057-.243.989-.753A18.125,18.125,0,0,0,1067.269,674.967Z" transform="translate(-939.433 -530.12)" fill="#ad583e"/><path d="M1073.895,689.345c-.243-1.295-2.172-.925-2.218.3-.11,2.928,1.508,5.746,2.483,8.431a.683.683,0,0,0,1.3,0C1076.483,695.013,1074.446,692.293,1073.895,689.345Z" transform="translate(-936.752 -524.409)" fill="#ad583e"/><path d="M1073.692,705.46a14.317,14.317,0,0,1-.154-1.764,2.469,2.469,0,0,0-.159-1.481.943.943,0,0,0-1.039-.422c-1.228.281-1.285,1.894-1.218,2.912a10.117,10.117,0,0,0,.469,3.553.9.9,0,0,0,1.219.32C1073.836,707.934,1073.8,706.54,1073.692,705.46Z" transform="translate(-936.977 -519.159)" fill="#ad583e"/><path d="M1066.479,725.559a.857.857,0,0,0-1.031.133,4.288,4.288,0,0,0-.8,1.989,4.791,4.791,0,0,1-1.011,1.777.893.893,0,0,0,.862,1.479C1066.42,730.581,1068.328,726.927,1066.479,725.559Z" transform="translate(-940.031 -509.767)" fill="#ad583e"/><path d="M1072.314,727.984a.809.809,0,0,0-1.177-.479c-1.067.715-1.4,2.247-2.187,3.228-.906,1.124.637,2.742,1.616,1.617C1071.481,731.3,1072.8,729.466,1072.314,727.984Z" transform="translate(-937.941 -508.994)" fill="#ad583e"/><path d="M1074.659,716.792a.711.711,0,0,0-1.215,0,8.661,8.661,0,0,0-.912,5.262c.175,1.645,2.778,1.655,2.593,0C1074.924,720.267,1075.579,718.442,1074.659,716.792Z" transform="translate(-936.437 -513.333)" fill="#ad583e"/><path d="M1067.242,715.979a.779.779,0,0,0-1.324,0,10.44,10.44,0,0,0-1.021,3.837,1.331,1.331,0,0,0,.9,1.578,1.293,1.293,0,0,0,1.578-.9C1067.565,719.063,1068.234,717.265,1067.242,715.979Z" transform="translate(-939.447 -513.666)" fill="#ad583e"/><path d="M1062.94,704.614a1.133,1.133,0,0,0-1.644,1.263,18.977,18.977,0,0,1,.588,2.194c.073.817.027,1.64.071,2.46a1.15,1.15,0,0,0,2.3,0C1064.475,708.782,1064.777,705.645,1062.94,704.614Z" transform="translate(-940.878 -518.089)" fill="#ad583e"/><path d="M1059.907,716.323a.562.562,0,0,0-.932-.246c-1.013,1.17-1.052,2.925-1.672,4.3-.575,1.277,1.3,2.4,1.9,1.112a8.174,8.174,0,0,0,.834-2.6A6.83,6.83,0,0,0,1059.907,716.323Z" transform="translate(-942.496 -513.548)" fill="#ad583e"/><path d="M1056.889,702.251c-.9-1.1-2.442.3-1.872,1.444a5.611,5.611,0,0,0,2.144,2.393.9.9,0,0,0,1.3-.529C1058.69,704.229,1057.665,703.208,1056.889,702.251Z" transform="translate(-943.409 -519.126)" fill="#ad583e"/><path d="M1066.859,696.228a11.025,11.025,0,0,1-1.633-2.1,1.221,1.221,0,0,0-2.352.648,6.771,6.771,0,0,0,1.576,2.711,6.29,6.29,0,0,0,2.317,1.86.694.694,0,0,0,.841-.476A3.388,3.388,0,0,0,1066.859,696.228Z" transform="translate(-940.262 -522.523)" fill="#ad583e"/><path d="M1018.6,692.478c-.406-.542-1.687-1.3-1.316-2.125.568-1.265-1.3-2.373-1.877-1.1a3.306,3.306,0,0,0-.147,2.876,3.427,3.427,0,0,0,2.133,1.916C1018.21,694.235,1019.2,693.278,1018.6,692.478Z" transform="translate(-959.239 -524.347)" fill="#ad583e"/><path d="M1021.4,683.861c-.2-.279-.8-.68-.69-1.063.443-1.531-1.814-2.1-2.352-.648a2.738,2.738,0,0,0,.691,2.815,3.144,3.144,0,0,0,2.485,1.194.831.831,0,0,0,.6-.786C1022.2,684.805,1021.714,684.3,1021.4,683.861Z" transform="translate(-957.965 -527.274)" fill="#ad583e"/><path d="M1006.563,673.915c.888-.743-.3-2.309-1.25-1.62a2.845,2.845,0,0,0-1.383,3.16,4.646,4.646,0,0,0,.756,1.589c.335.478.6,1.1,1.147,1.366a.9.9,0,0,0,1.3-.529C1007.552,676.634,1005.432,674.859,1006.563,673.915Z" transform="translate(-963.666 -530.92)" fill="#ad583e"/><path d="M1005.6,660.035c-.785,1.5-1.141,3.9-.17,5.4a.784.784,0,0,0,1.337,0c.8-1.291.137-2.932.722-4.3C1008.032,659.883,1006.272,658.757,1005.6,660.035Z" transform="translate(-963.266 -535.94)" fill="#ad583e"/><path d="M1022.639,674.385c-.474-.462-1.321-1.007-1.045-1.742.4-1.071-1.363-1.824-1.859-.784a2.963,2.963,0,0,0,.562,3.405,7.374,7.374,0,0,0,2.781,2.11.8.8,0,0,0,1.006-.765C1024.059,675.671,1023.262,674.994,1022.639,674.385Z" transform="translate(-957.483 -531.222)" fill="#ad583e"/><path d="M1028.65,668.68a2.26,2.26,0,0,1-.211-1.671c.5-1.552-1.875-2.166-2.418-.666a3.678,3.678,0,0,0,2.15,4.756.66.66,0,0,0,.83-.631A5.678,5.678,0,0,0,1028.65,668.68Z" transform="translate(-954.957 -533.555)" fill="#ad583e"/><path d="M1036.32,672.777a1.183,1.183,0,0,0-2.152.907c.4,1.211,1.687,2.75,3.11,2.387a.733.733,0,0,0,.527-.693C1037.856,674.31,1036.807,673.643,1036.32,672.777Z" transform="translate(-951.656 -530.883)" fill="#ad583e"/><path d="M1042.022,666.205c-.127-.162-.469-.508-.367-.726.714-1.535-1.529-2.891-2.3-1.344a3.1,3.1,0,0,0,0,2.946c.45.844,1.539,1.764,2.542,1.39a1.046,1.046,0,0,0,.751-.987A2.207,2.207,0,0,0,1042.022,666.205Z" transform="translate(-949.722 -534.361)" fill="#ad583e"/><path d="M1028.5,695.365c-.352-.832-1.718-.61-1.9-1.39-.354-1.55-2.72-.892-2.379.655.353,1.609,2.665,3.084,4.119,1.933A1.01,1.01,0,0,0,1028.5,695.365Z" transform="translate(-955.591 -522.601)" fill="#ad583e"/><path d="M1028.906,685.143a9.109,9.109,0,0,0-1.173-1.992,1.213,1.213,0,0,0-2.094,1.224c.586,1.039,1.527,1.99,2.789,1.608A.694.694,0,0,0,1028.906,685.143Z" transform="translate(-955.082 -526.78)" fill="#ad583e"/><path d="M1055.06,695.642a3.427,3.427,0,0,0-2.577-1.69.954.954,0,0,0-1.018,1.318c.205.855,1.381,1.584,2.069,1.9C1054.454,697.592,1055.741,696.662,1055.06,695.642Z" transform="translate(-944.808 -522.262)" fill="#ad583e"/><path d="M1054.784,685.379c-.746-1.486-2.905-.184-2.215,1.295.507,1.087,2.016,2.648,3.338,2.489a.924.924,0,0,0,.905-.906C1056.768,686.937,1055.319,686.448,1054.784,685.379Z" transform="translate(-944.384 -525.921)" fill="#ad583e"/><path d="M1003.382,648.732c-.619.962-1.232,2.165-.6,3.288a.794.794,0,0,0,1.238.159c.669-.8.584-1.852.946-2.781C1005.329,648.451,1003.888,647.946,1003.382,648.732Z" transform="translate(-964.19 -540.355)" fill="#ad583e"/><path d="M1007.355,692.41a3.731,3.731,0,0,0-.633-1.124c-.374-.43-.775-.841-1.137-1.281-.416-.507-1.328-1.539-.9-2.235a1.064,1.064,0,0,0-1.663-1.284c-1.143,1.213-.795,2.815.025,4.114a10.309,10.309,0,0,0,1.546,1.923,3.893,3.893,0,0,0,1.866,1.055A.805.805,0,0,0,1007.355,692.41Z" transform="translate(-964.279 -525.346)" fill="#ad583e"/><path d="M1016.14,674.788c-.434-.378-1.366-.947-1.151-1.623.434-1.377-1.69-1.943-2.151-.594a3.173,3.173,0,0,0,1.006,3.231c.645.675,1.916,1.8,2.936,1.549a.7.7,0,0,0,.5-.5C1017.418,676.052,1016.706,675.281,1016.14,674.788Z" transform="translate(-960.15 -531.048)" fill="#ad583e"/><path d="M1014.057,597.379c-.121-.588-.19-1.186-.258-1.784a11.622,11.622,0,0,0-.11-1.721,1,1,0,0,0-1.464-.6,2.545,2.545,0,0,0-1.031,2.317,4.634,4.634,0,0,0,.95,2.59,1.067,1.067,0,0,0,1.183.482c.084-.032.168-.067.25-.1A1.065,1.065,0,0,0,1014.057,597.379Z" transform="translate(-960.748 -562.261)" fill="#693324"/><path d="M1014.425,592.532c-.176-1.053-.675-2.076-.285-3.132.351-.953-1.233-1.636-1.657-.7a4.006,4.006,0,0,0,.707,4.548A.745.745,0,0,0,1014.425,592.532Z" transform="translate(-960.394 -564.196)" fill="#693324"/><path d="M1023.964,606.274c-.219-.191-.457-.363-.675-.557a1.834,1.834,0,0,1-.317-.316c-.041-.059-.043-.067-.046-.059.543-.877-.57-2.006-1.342-1.168a1.962,1.962,0,0,0-.008,2.827c.539.631,1.96,1.761,2.854,1.425a.77.77,0,0,0,.542-.712C1024.989,607.078,1024.4,606.654,1023.964,606.274Z" transform="translate(-956.865 -557.997)" fill="#693324"/><path d="M1038.046,613.443c-.934-.753-2.183-.75-3.312-.986-1.307-.272-1.87,1.685-.556,2.017,1.161.293,2.63.636,3.734.01A.667.667,0,0,0,1038.046,613.443Z" transform="translate(-951.925 -554.604)" fill="#693324"/><path d="M1044.8,613.648c-.927-.247-1.564.218-2.376.58-.971.434-.267,1.909.7,1.669.922-.228,1.858-.584,2.02-1.64A.508.508,0,0,0,1044.8,613.648Z" transform="translate(-948.539 -554.149)" fill="#693324"/><path d="M1005.943,608.1a1.182,1.182,0,0,0-1.189,0c-1.089.763-3.672,2.724-2.764,4.3a1.008,1.008,0,0,0,1.126.458c.577-.205.761-.6,1.11-1.049a9.559,9.559,0,0,1,1.106-1.148c.391-.356,1.007-.687,1.152-1.229A1.135,1.135,0,0,0,1005.943,608.1Z" transform="translate(-964.474 -556.384)" fill="#693324"/><path d="M1008.441,613.894c-1.152.223-2.007,1.439-2.877,2.147-1.208.985.529,2.747,1.725,1.725a7.2,7.2,0,0,0,2.147-2.877A.817.817,0,0,0,1008.441,613.894Z" transform="translate(-963.143 -554.029)" fill="#693324"/><path d="M1019.913,618.766c-.965-.091-1.745.573-2.675.62-1.49.077-1.478,2.433,0,2.314a4.161,4.161,0,0,0,3.248-1.939A.67.67,0,0,0,1019.913,618.766Z" transform="translate(-958.791 -552.094)" fill="#693324"/><path d="M994.9,625.9a13.447,13.447,0,0,0-1.969,3.921c-.348,1.552,2.069,2.207,2.38.655a8.807,8.807,0,0,1,.747-2.021,5.981,5.981,0,0,0,.529-2.1C996.671,625.419,995.331,625.174,994.9,625.9Z" transform="translate(-968.008 -549.428)" fill="#693324"/><path d="M1001.917,629.164a5.577,5.577,0,0,0-1.937,2.092c-.77,1.258,1.207,2.408,1.974,1.154a7.06,7.06,0,0,0,1.117-2.584C1003.148,629.189,1002.378,628.95,1001.917,629.164Z" transform="translate(-965.266 -547.995)" fill="#693324"/><path d="M1000.542,617.55a26.478,26.478,0,0,0-3.365,2.8c-1.242,1.274.719,3.236,1.951,1.953a12.4,12.4,0,0,0,2.8-3.365C1002.287,618.127,1001.451,616.88,1000.542,617.55Z" transform="translate(-966.466 -552.648)" fill="#693324"/><path d="M987.813,637.6a10.31,10.31,0,0,0-2.048,2.247,4.147,4.147,0,0,0-.844,2.763.775.775,0,0,0,1.309.542c1.135-1.251,1.988-2.734,3.13-4A1.1,1.1,0,0,0,987.813,637.6Z" transform="translate(-971.174 -544.728)" fill="#693324"/><path d="M990.695,649.985c.288-1.108-1.344-1.875-1.9-.8a4.248,4.248,0,0,0,.3,4.465.851.851,0,0,0,1.324-.172C991.071,652.4,990.4,651.139,990.695,649.985Z" transform="translate(-969.827 -540.226)" fill="#693324"/><path d="M998.06,638.635a11.582,11.582,0,0,0-2.7,2.447c-1.064,1.05.63,2.732,1.636,1.636a6.588,6.588,0,0,0,2.1-3.493C999.147,638.664,998.476,638.432,998.06,638.635Z" transform="translate(-967.165 -544.236)" fill="#693324"/><path d="M995.28,656.645c-2.056.851-1.46,3.8-.7,5.369a.568.568,0,0,0,.975,0,3.666,3.666,0,0,0,.277-1.008,8.421,8.421,0,0,0,.239-1.084c.039-.585-.18-1.482.2-1.988A.885.885,0,0,0,995.28,656.645Z" transform="translate(-967.619 -537.081)" fill="#693324"/><path d="M988.546,669.106c-.062-.232-.135-.457-.211-.686s.022-.306-.1-.208c.948-.768-.295-2.38-1.309-1.7-1.617,1.091-.852,3.836.8,4.517.384.158.746-.177.874-.5A2.171,2.171,0,0,0,988.546,669.106Z" transform="translate(-970.729 -533.211)" fill="#693324"/><path d="M980.96,666.156c.626-.562-.049-1.461-.765-1.316a2.337,2.337,0,0,0-1.633,2.555c.008,1.108.338,2.724,1.619,2.894a.88.88,0,0,0,.776-.444C981.564,668.824,979.992,667.028,980.96,666.156Z" transform="translate(-973.694 -533.816)" fill="#693324"/><path d="M981.269,653.951A9.51,9.51,0,0,0,979.9,656.7c-.27.905-.535,2.267.263,2.961a1.014,1.014,0,0,0,1.409,0c.582-.616.5-1.518.684-2.312a8.525,8.525,0,0,1,.887-2.3A1.088,1.088,0,0,0,981.269,653.951Z" transform="translate(-973.269 -538.326)" fill="#693324"/><path d="M987.2,660.691c.485-1.317-1.608-1.876-2.1-.578a4.4,4.4,0,0,0-.022,2.756,3.669,3.669,0,0,0,1.37,2.179.739.739,0,0,0,1.074-.437C987.842,663.3,986.707,662.024,987.2,660.691Z" transform="translate(-971.191 -535.977)" fill="#693324"/><path d="M993.265,682.528c-.254-.384-.337-.486-.071-.883.877-1.306-1.206-2.485-2.094-1.224a2.7,2.7,0,0,0-.348,2.616c.318.793,1.131,1.718,2.063,1.6a.944.944,0,0,0,.927-.926A2.087,2.087,0,0,0,993.265,682.528Z" transform="translate(-968.934 -527.841)" fill="#693324"/><path d="M986.473,688.969a1.016,1.016,0,0,0-1.985-.268,3.345,3.345,0,0,0,.441,2.588c.367.784.761,1.831,1.629,2.129a.921.921,0,0,0,1.031-.42C988.322,691.673,986.625,690.289,986.473,688.969Z" transform="translate(-971.393 -524.626)" fill="#693324"/><path d="M994.743,673.264a1,1,0,0,0-1.809-.763,2.668,2.668,0,0,0,.852,3.4.643.643,0,0,0,1.082-.448C994.936,674.736,994.621,673.981,994.743,673.264Z" transform="translate(-968.124 -530.959)" fill="#693324"/><path d="M984.612,678.717a1.061,1.061,0,0,0-1.024-1.758c-2.1.539-1.543,3.647-.142,4.636a.84.84,0,0,0,1.228-.5,5,5,0,0,0-.017-1.52C984.631,679.365,984.461,678.9,984.612,678.717Z" transform="translate(-972.252 -529.018)" fill="#693324"/><path d="M977.553,687.761c.633-.971-.883-2.186-1.63-1.259a4.233,4.233,0,0,0-.768,3.472c.162,1.045.609,2.556,1.75,2.887a.753.753,0,0,0,.918-.521C978.1,690.878,976.641,689.16,977.553,687.761Z" transform="translate(-975.077 -525.346)" fill="#693324"/><path d="M989.283,701.829c.268-.881-.591-1.964-1.55-1.32a1.868,1.868,0,0,0-.957,1.453,2.277,2.277,0,0,0,.88,1.457c.668.615,1.935,1.647,2.869,1.615a.9.9,0,0,0,.886-.885C991.381,702.922,990.113,702.533,989.283,701.829Z" transform="translate(-970.435 -519.735)" fill="#693324"/><path d="M999.426,698.076c-.612-1.2-2-1.705-2.958-2.606a.959.959,0,0,0-1.5,1.156,4.524,4.524,0,0,0,3.946,2.341A.6.6,0,0,0,999.426,698.076Z" transform="translate(-967.228 -521.767)" fill="#693324"/><path d="M1000.218,707.088c-.421-.545-1.035-.6-1.358-1.235-.641-1.264-2.542-.151-1.9,1.112.546,1.075,2.02,2.15,3.123,1.169A.865.865,0,0,0,1000.218,707.088Z" transform="translate(-966.447 -517.758)" fill="#693324"/><path d="M1010.9,714.832c-.495-.62-1.469-.669-2.189-.821a5.61,5.61,0,0,1-2.451-1.006c-.968-.81-2.354.51-1.409,1.409a6.515,6.515,0,0,0,3.014,1.576c.916.222,2.309.508,3.035-.281A.642.642,0,0,0,1010.9,714.832Z" transform="translate(-963.389 -514.8)" fill="#693324"/><path d="M1012.139,709.6a2.79,2.79,0,0,0-1.145-.6,2.906,2.906,0,0,1-1.236-.362c-1.115-.925-2.726.658-1.606,1.606,1.022.865,2.678,1.376,3.842.486A.727.727,0,0,0,1012.139,709.6Z" transform="translate(-962.105 -516.546)" fill="#693324"/><path d="M1022.609,713.043c-.9-.01-1.758.521-2.676.578-1.393.087-1.4,2.273,0,2.175,1.289-.091,2.922-.409,3.422-1.774A.78.78,0,0,0,1022.609,713.043Z" transform="translate(-957.695 -514.685)" fill="#693324"/><path d="M1020.892,707.254c-.851-.32-1.814.373-2.536.377a1.157,1.157,0,0,0,0,2.313c.958.085,2.689-.306,3.123-1.247A1,1,0,0,0,1020.892,707.254Z" transform="translate(-958.348 -517.015)" fill="#693324"/><path d="M1012.98,704.585a8.7,8.7,0,0,0-2.134-1.623c-1.029-.8-2.108,1-1.034,1.77a3.556,3.556,0,0,0,2.722.948A.749.749,0,0,0,1012.98,704.585Z" transform="translate(-961.472 -518.764)" fill="#693324"/><path d="M1031.423,706.777c-.516.275-.792.8-1.192,1.212a6.688,6.688,0,0,1-1.406,1.218,1.032,1.032,0,0,0,1.042,1.781,5.891,5.891,0,0,0,1.834-1.516,3.2,3.2,0,0,0,.844-2.052A.757.757,0,0,0,1031.423,706.777Z" transform="translate(-953.95 -517.21)" fill="#693324"/><path d="M1046.407,713.038a2.753,2.753,0,0,0-1.743-.333,1.025,1.025,0,0,0,0,2.049,2.777,2.777,0,0,0,1.743-.333A.814.814,0,0,0,1046.407,713.038Z" transform="translate(-947.86 -514.82)" fill="#693324"/><path d="M1047.821,710.088a11.555,11.555,0,0,0-2.027-.771c-1.361-.522-2.01,1.732-.608,2.2a2.8,2.8,0,0,0,2.764-.426A.649.649,0,0,0,1047.821,710.088Z" transform="translate(-947.571 -516.194)" fill="#693324"/><path d="M1052.474,714.153c-1.679.58-1.954,2.812-1.4,4.306a.594.594,0,0,0,.978.258c.835-.731.641-2.092,1.455-2.782A1.074,1.074,0,0,0,1052.474,714.153Z" transform="translate(-945.027 -514.265)" fill="#693324"/><path d="M1053.369,724.268a1.034,1.034,0,0,1-.07-.464l-.028-.214a1.074,1.074,0,0,0-2.07-.568c-.443,1.148-.17,2.854,1.229,3.207a.96.96,0,0,0,1.2-.913A2.916,2.916,0,0,0,1053.369,724.268Z" transform="translate(-944.951 -511.018)" fill="#693324"/><path d="M977.595,726.935l.011.04a.941.941,0,0,0-1.225-.2l-.084.059a1.149,1.149,0,0,0-.405,1.545,5.151,5.151,0,0,0,1.868,1.951c.507.226,1.334-.022,1.257-.722A5.227,5.227,0,0,0,977.595,726.935Z" transform="translate(-974.817 -509.294)" fill="#693324"/><path d="M978.7,719a1.068,1.068,0,1,0-2.108.285,2.943,2.943,0,0,0,1.967,2.61.7.7,0,0,0,.849-.849C979.286,720.331,978.794,719.719,978.7,719Z" transform="translate(-974.484 -512.729)" fill="#693324"/><path d="M976.837,704.383c-1.518,1.214-1.4,4.162-.517,5.7a.638.638,0,0,0,1.1,0,4.636,4.636,0,0,0,.405-2.252c0-.659-.109-1.552.416-2.05C979.18,704.885,977.807,703.605,976.837,704.383Z" transform="translate(-974.841 -518.216)" fill="#693324"/><path d="M983.435,712.532c-.922-.912-2.377.557-1.419,1.419.446.4.707.915,1.119,1.335a.691.691,0,0,0,1.141-.3A2.433,2.433,0,0,0,983.435,712.532Z" transform="translate(-972.448 -515.002)" fill="#693324"/><path d="M987.2,709.559c-.211-.571-.613-.946-.574-1.59.083-1.312-2-1.32-2.048,0a2.2,2.2,0,0,0,1.916,2.516A.736.736,0,0,0,987.2,709.559Z" transform="translate(-971.309 -517.089)" fill="#693324"/><path d="M985.03,726.7a1.068,1.068,0,0,0-2.043,0c-.194,1.138,1.027,3.341,2.423,3.024C987.137,729.334,985.191,727.469,985.03,726.7Z" transform="translate(-971.947 -509.566)" fill="#693324"/><path d="M992.467,724.317c-.883-1.141-2.46.458-1.587,1.587a2.087,2.087,0,0,0,.516.432l.036.025c.025.024.071.066.175.154a.736.736,0,0,0,1.212-.318A1.837,1.837,0,0,0,992.467,724.317Z" transform="translate(-968.908 -510.367)" fill="#ad583e"/><path d="M993.625,717.576c.184-1.4-2.187-1.482-2.258,0a3.31,3.31,0,0,0,2.07,3.084.662.662,0,0,0,.83-.631C994.275,719.151,993.505,718.483,993.625,717.576Z" transform="translate(-968.615 -513.315)" fill="#ad583e"/><path d="M999.021,718.365a1.141,1.141,0,0,0-1.553.408c-.51,1.2-.518,3.059,1.007,3.516a.742.742,0,0,0,.908-.517c.089-.6-.2-1.275.046-1.852A1.176,1.176,0,0,0,999.021,718.365Z" transform="translate(-966.315 -512.631)" fill="#ad583e"/><path d="M995.317,726.917a6.4,6.4,0,0,0-1.064,2.982c-.138.838.862,1.647,1.549.9a4.015,4.015,0,0,0,.911-1.3c.184-.486.274-1.013.493-1.482A1.1,1.1,0,0,0,995.317,726.917Z" transform="translate(-967.474 -509.382)" fill="#ad583e"/><path d="M982.072,617.3a5.106,5.106,0,0,1-.169-2.053c.219-.739-.891-1.027-1.142-.314-.138.391-.4.718-.5,1.123a4.116,4.116,0,0,0-.085,1.359,2.574,2.574,0,0,0,1.014,2.092.729.729,0,0,0,1.064-.434A4.946,4.946,0,0,0,982.072,617.3Z" transform="translate(-973.062 -553.774)" fill="#693324"/><path d="M984.843,610c-.947.789-1.289,2.953.335,3.2a.725.725,0,0,0,.788-.32c.211-.4.088-1.109.365-1.393C987.295,610.505,985.867,609.146,984.843,610Z" transform="translate(-971.518 -555.675)" fill="#693324"/><path d="M982.394,601.938a2.88,2.88,0,0,0-2.421,2.529,5.351,5.351,0,0,0,.191,3.742c.31.644,1.215.394,1.414-.184a11.664,11.664,0,0,0,.444-2.355c.06-.444.306-1.7.631-1.816C983.615,603.517,983.554,601.789,982.394,601.938Z" transform="translate(-973.231 -558.771)" fill="#693324"/><path d="M987.4,594.2c-1.266.662-2.479,2.486-2.062,3.967a.694.694,0,0,0,1.013.412c1.081-.778.905-2.342,1.978-3.175C989.042,594.85,988.132,593.817,987.4,594.2Z" transform="translate(-971.04 -561.87)" fill="#693324"/><path d="M991.754,605.984a8.366,8.366,0,0,0-.328-1.9.988.988,0,0,0-1.63-.432c-1.24,1.19-.591,3.584.574,4.6a.808.808,0,0,0,1.328-.351A3.818,3.818,0,0,0,991.754,605.984Z" transform="translate(-969.503 -558.197)" fill="#693324"/><path d="M997.68,603.348a2.1,2.1,0,0,0-.212-.922.967.967,0,0,0-1.039-.423l-.14.021a1.073,1.073,0,0,0-.77.771,1.788,1.788,0,0,0,1.137,2.307.914.914,0,0,0,1.115-.633A3.041,3.041,0,0,0,997.68,603.348Z" transform="translate(-966.994 -558.748)" fill="#693324"/><path d="M993.218,595.565a2.1,2.1,0,0,0-1.123,3.273.586.586,0,0,0,.909.117,5.838,5.838,0,0,0,.478-.733c.144-.263.246-.651.516-.81A1.015,1.015,0,0,0,993.218,595.565Z" transform="translate(-968.491 -561.316)" fill="#693324"/><path d="M997.233,589.061a2.07,2.07,0,0,0-1.5,1.319,1.548,1.548,0,0,0,.676,1.86.851.851,0,0,0,.988-.129,1.458,1.458,0,0,0,.4-.747c.035-.121.074-.5.173-.571C998.757,590.191,998.349,588.728,997.233,589.061Z" transform="translate(-966.914 -563.896)" fill="#693324"/><path d="M993.053,588.223c-1.434-.462-3.591.771-4.518,1.81a1.046,1.046,0,0,0,1.478,1.479c1-.912,2.834-.9,3.516-2.123A.8.8,0,0,0,993.053,588.223Z" transform="translate(-969.853 -564.248)" fill="#693324"/></g></g></g></svg>