<svg xmlns="http://www.w3.org/2000/svg" width="20" height="15.641" viewBox="0 0 20 15.641"><g transform="translate(0 -53.064)"><path d="M5.394,68.256a1.537,1.537,0,0,0,2.173,0L15,60.818a2.178,2.178,0,0,0,.485-.739,7.82,7.82,0,0,0,2.115.316c1.585-.008,2.111-.7,2.283-1.117s.3-1.273-.817-2.407l-.037-.037a8.892,8.892,0,0,0-2.83-1.8c-.209-.086-.419-.164-.624-.238v-.012a1.681,1.681,0,0,0-1.659-1.659l-4.456-.062a2.167,2.167,0,0,0-1.573.641L.45,61.142a1.537,1.537,0,0,0,0,2.173Zm5.733-12.53a1.271,1.271,0,0,1,2.156,1.084,8.865,8.865,0,0,0,1.7.924c.222.09.435.172.641.242L15.6,56.185l.107.045a7.741,7.741,0,0,1,2.411,1.52l.025.025c.534.546.591.9.546,1-.14.333-1.639.628-3.914-.32a8.784,8.784,0,0,1-1.795-1c-.016.021-.037.041-.053.062a1.269,1.269,0,1,1-1.795-1.795Z" fill="#02945d"/></g></svg>