<svg xmlns="http://www.w3.org/2000/svg" width="16" height="15.851" viewBox="0 0 16 15.851"><g transform="translate(0 -2.193)"><g transform="translate(0 2.193)"><g transform="translate(0 10.095)"><path d="M15.667,305.825a.935.935,0,0,0,.213-1.172l-2.116-3.766a1.586,1.586,0,0,0-1.361-.6,18.866,18.866,0,0,1-3.332,3.518A1.677,1.677,0,0,1,8,304.192a1.658,1.658,0,0,1-1.067-.386,18.866,18.866,0,0,1-3.332-3.518,1.581,1.581,0,0,0-1.361.6L.121,304.653a.931.931,0,0,0,.213,1.172h0a.937.937,0,0,0,.6.22H15.068a.935.935,0,0,0,.6-.22Z" transform="translate(0 -300.288)" fill="#c4c4c4"/></g><g transform="translate(2.908 0)"><path d="M181.088,97.188a1.935,1.935,0,0,0-1.934,1.934.464.464,0,0,0,.928,0,1.012,1.012,0,0,1,1.009-1.009.462.462,0,1,0,0-.924Z" transform="translate(-175.995 -93.971)" fill="#c4c4c4"/><path d="M96.058,7.286A5.093,5.093,0,0,0,85.9,6.791a5.241,5.241,0,0,0,.068,1.463h0s.01.054.034.159a5.059,5.059,0,0,0,.342,1.009,14.757,14.757,0,0,0,4.341,5.439.444.444,0,0,0,.566,0,14.73,14.73,0,0,0,4.341-5.439,4.921,4.921,0,0,0,.342-1.009c.024-.1.034-.159.034-.159h0A4.842,4.842,0,0,0,96.058,7.286Zm-5.093,3.156a3.1,3.1,0,1,1,3.1-3.1A3.1,3.1,0,0,1,90.965,10.442Z" transform="translate(-85.872 -2.193)" fill="#c4c4c4"/></g></g></g></svg>