<svg xmlns="http://www.w3.org/2000/svg" width="16" height="15.999" viewBox="0 0 16 15.999"><g transform="translate(0)"><path d="M.385,0C.861,0,5.307.072,5.307.072s.6,0,.2.4S4.468,1.511,4.468,1.511s.175.174.44.441C5.717,2.758,8.554,5.6,9.236,6.28c.014.013.031.03.041.041.694.692,3.964,3.963,4.769,4.772.269.263.441.441.441.441l1.041-1.044c.4-.4.4.2.4.2S16,15.139,16,15.614a.315.315,0,0,1-.355.316L10.737,16s-.589.015-.26-.314S11.6,14.557,11.6,14.557l-.491-.491c-.836-.836-4.049-4.05-4.76-4.763A.172.172,0,0,1,6.3,9.254a.119.119,0,0,1-.044-.047c-.7-.7-3.485-3.483-4.323-4.32-.3-.3-.489-.492-.489-.492L.315,5.524C-.015,5.852,0,5.261,0,5.261L.066.356A.318.318,0,0,1,.385,0Z" fill="#02945d"/><path d="M15.615,0c-.475,0-4.921.072-4.921.072s-.605,0-.2.4l1.041,1.038-.439.441c-.81.806-3.648,3.646-4.328,4.328-.014.013-.03.03-.039.041-.7.692-3.964,3.963-4.773,4.772-.264.263-.44.441-.44.441L.473,10.49c-.4-.4-.4.2-.4.2S0,15.139,0,15.613a.317.317,0,0,0,.357.316L5.264,16s.589.015.261-.314S4.4,14.557,4.4,14.557s.194-.192.491-.491L9.648,9.3A.164.164,0,0,0,9.7,9.254a.155.155,0,0,0,.045-.047c.7-.7,3.483-3.483,4.323-4.32l.488-.492,1.13,1.13c.33.328.312-.263.312-.263L15.931.356A.315.315,0,0,0,15.615,0Z" transform="translate(0)" fill="#02945d"/></g></svg>