<svg xmlns="http://www.w3.org/2000/svg" width="66" height="66" viewBox="0 0 66 66"><path d="M63.852,33.609c-.048-.049-.1-.1-.152-.14L46.358,18.7a13.57,13.57,0,0,0-8.793-3.236h-.047a13.479,13.479,0,0,0-9.544,3.972l-2.339,2.339a2.59,2.59,0,0,1-3.609.036,2.5,2.5,0,0,1-.757-1.8,2.742,2.742,0,0,1,.793-1.955L22.12,18l5.072-5.414a22,22,0,0,1,15.1-6.912l19.5,15.9a2.578,2.578,0,0,0,3.258-4L44.812,1.08A2.58,2.58,0,0,0,43.183.5,27.149,27.149,0,0,0,29.465,4.243,27.012,27.012,0,0,0,15.732.5a2.579,2.579,0,0,0-1.823.754L.756,14.4A2.578,2.578,0,1,0,4.4,18.049L16.775,5.681a21.845,21.845,0,0,1,8.083,1.967q-.738.678-1.428,1.412l-5.047,5.387a7.929,7.929,0,0,0-2.269,5.616,7.71,7.71,0,0,0,13.168,5.36l2.339-2.339a8.355,8.355,0,0,1,5.915-2.462h.029a8.414,8.414,0,0,1,5.45,2.006L60.264,37.315a2.194,2.194,0,0,1-.058,3.039,2.205,2.205,0,0,1-3.1,0l-.529-.529a2.578,2.578,0,0,0-3.646,3.646l.529.529c.156.156.318.3.485.443a2.552,2.552,0,0,0,.243.287,2.191,2.191,0,1,1-3.1,3.1l-.02-.02-.855-.848a2.578,2.578,0,0,0-3.646,3.646l.589.589h0a2.61,2.61,0,0,1,.738,1.744,2.092,2.092,0,0,1-.553,1.552,2.215,2.215,0,0,1-3.113-.186c-.048-.048-.1-.095-.151-.139l-.387-.33a2.578,2.578,0,0,0-3.5,3.785,2.273,2.273,0,0,1,.678,1.585,2.083,2.083,0,0,1-.611,1.51,2.225,2.225,0,0,1-3.146-.047l-.365-.362a7.487,7.487,0,0,0-1.668-8.026h0a7.625,7.625,0,0,0-3.432-1.989,7.334,7.334,0,0,0-6.645-8.368,7.236,7.236,0,0,0-2.131-4.582,7.313,7.313,0,0,0-4.6-2.123A7.342,7.342,0,0,0,5.781,30.6l-3.6,3.478-.032.032A7.342,7.342,0,0,0,6.019,46.529a7.327,7.327,0,0,0,2.143,5.446,7.044,7.044,0,0,0,5.029,2.064H13.3a7.294,7.294,0,0,0,7.248,6.317c.158,0,.316-.007.474-.017a7.486,7.486,0,0,0,12.553,4.075A7.4,7.4,0,0,0,38.732,66.5a7.3,7.3,0,0,0,5.179-2.137A7.184,7.184,0,0,0,45.97,60.2a7.028,7.028,0,0,0,7.063-6.587,7.328,7.328,0,0,0,6.945-7.583A7.278,7.278,0,0,0,63.852,44,7.356,7.356,0,0,0,63.852,33.609ZM8.923,40.823l-.032.032a2.191,2.191,0,0,1-3.112-3.086l3.6-3.474.032-.032A2.191,2.191,0,0,1,12.7,37.143c-.067.062-.135.124-.2.19L9.853,39.925Zm5.923,7.4a2.218,2.218,0,0,1-3.038.1,2.195,2.195,0,0,1-.008-3.092l1.651-1.619,2.67-2.578.032-.032c.069-.069.135-.14.2-.211a2.193,2.193,0,0,1,2.878.191,2.006,2.006,0,0,1,.014,2.926Zm7.316,6.3-.01.01a2.192,2.192,0,1,1-3.1-3.1L22.827,47.7l.01-.01a2.192,2.192,0,0,1,3.1,3.1Zm9.279,4.685-.033.033L30.02,60.681a2.323,2.323,0,0,1-3.267-.013,2.392,2.392,0,0,1-.7-1.678,2.243,2.243,0,0,1,.648-1.626l1.547-1.547a2.1,2.1,0,0,1,1.5-.617,2.408,2.408,0,0,1,1.7.728A2.323,2.323,0,0,1,31.441,59.209Zm0,0" transform="translate(0 -0.5)" fill="#02945d"/></svg>